<?xml version="1.0" encoding="utf-8"?>
<!-- Generator: Adobe Illustrator 23.0.1, SVG Export Plug-In . SVG Version: 6.00 Build 0)  -->
<svg version="1.1" id="Слой_1" xmlns="http://www.w3.org/2000/svg" xmlns:xlink="http://www.w3.org/1999/xlink" x="0px" y="0px"
	 viewBox="0 0 628 717" style="enable-background:new 0 0 628 717;" xml:space="preserve">
<style type="text/css">
	.st0{display:none;opacity:0.59;}
	.st1{display:none;}
	.st2{display:inline;fill:#6D7F8C;}
	.st3{display:inline;fill:url(#SVGID_1_);}
	.st4{display:inline;fill:#FEFEFD;}
	.st5{display:inline;fill:url(#SVGID_2_);stroke:url(#SVGID_3_);stroke-miterlimit:10;}
	.st6{display:inline;fill:url(#SVGID_4_);}
	.st7{display:inline;fill:url(#SVGID_5_);stroke:url(#SVGID_6_);stroke-miterlimit:10;}
	.st8{display:inline;fill:url(#SVGID_7_);}
	.st9{display:inline;}
	.st10{fill:#E7EAF7;}
	.st11{fill:#35364C;}
	.st12{fill:#22293D;}
	.st13{fill:#6E2020;}
	.st14{fill:url(#SVGID_8_);}
	.st15{opacity:0.6;fill:#B86053;}
	.st16{fill:url(#SVGID_9_);}
	.st17{fill:url(#SVGID_10_);}
	.st18{fill:#7E3030;}
	.st19{fill:url(#SVGID_11_);}
	.st20{fill:#1C2D52;}
	.st21{fill:#21191E;}
	.st22{fill:#291B22;}
	.st23{fill:#251A20;}
	.st24{fill:#511D36;}
	.st25{opacity:0.4;fill:#511D36;}
	.st26{fill:url(#SVGID_12_);}
	.st27{opacity:0.3;fill:#993753;}
	.st28{fill:url(#SVGID_13_);}
	.st29{opacity:0.4;fill:#ECE0A0;}
	.st30{fill:url(#SVGID_14_);}
	.st31{fill:url(#SVGID_15_);}
	.st32{fill:#30111F;}
	.st33{opacity:0.59;fill:#0F0F10;}
	.st34{fill:#C0D0DC;}
	.st35{fill:#25282D;}
	.st36{fill:#424242;}
	.st37{fill:url(#SVGID_16_);}
	.st38{fill:#483F36;}
	.st39{fill:url(#SVGID_17_);}
	.st40{fill:#131917;}
	.st41{fill:#465761;}
	.st42{fill:#242F30;}
	.st43{fill:#2F4245;}
	.st44{fill:url(#SVGID_18_);}
	.st45{fill:url(#SVGID_19_);}
	.st46{fill:#4E87CC;}
	.st47{stroke:#000000;stroke-miterlimit:10;}
	.st48{fill:#2B3BA6;}
	.st49{fill:#211518;}
	.st50{fill:url(#SVGID_20_);}
	.st51{fill:url(#SVGID_21_);}
	.st52{fill:#8E000A;}
	.st53{fill:url(#SVGID_22_);}
	.st54{fill:none;stroke:url(#SVGID_23_);stroke-linecap:round;stroke-linejoin:bevel;stroke-miterlimit:10;}
	.st55{fill:#E5E3DC;}
	.st56{fill:#AFAFAF;}
	.st57{fill:#A5A5A5;}
	.st58{fill:#707070;}
	.st59{fill:url(#SVGID_24_);}
	.st60{fill:#6D6D6D;stroke:#6D6D6D;stroke-miterlimit:10;}
	.st61{fill:#969696;}
	.st62{fill:#5B5B5B;}
	.st63{fill:#CFCFCF;stroke:#CFCFCF;stroke-miterlimit:10;}
	.st64{fill:#02124A;}
	.st65{fill:#DBDBDB;stroke:#262626;stroke-width:2.8346;stroke-miterlimit:10;}
	.st66{fill:#1F1F1F;}
	.st67{fill:#F3F5F0;}
	.st68{fill:#11110F;}
	.st69{fill:#D9D7D5;}
	.st70{fill:#9DB2C6;}
	.st71{fill:none;}
	.st72{fill:#DFE8F5;}
	.st73{display:none;fill:#2B3BA6;}
	.st74{fill:#032687;}
	.st75{fill:#EDEDED;stroke:#CFCFCF;stroke-width:0.9921;stroke-miterlimit:10;}
	.st76{fill:#88B45A;}
	.st77{fill:#689738;}
	.st78{fill:#FEEDD3;}
	.st79{fill:#EDD3A4;}
	.st80{opacity:0.4;fill:#B86053;}
	.st81{fill:#FFDE9F;}
	.st82{fill:#FFF9D8;}
	.st83{fill:#C95C2A;}
</style>
<g>
	<g class="st0">
		
			<image style="display:inline;overflow:visible;" width="179" height="179" xlink:href="54997FFF.png"  transform="matrix(1 0 0 1 195 -16)">
		</image>
	</g>
	<g class="st0">
		
			<image style="display:inline;overflow:visible;" width="179" height="178" xlink:href="54997FFB.png"  transform="matrix(1 0 0 1 268 19)">
		</image>
	</g>
	<g class="st0">
		
			<image style="display:inline;overflow:visible;" width="179" height="179" xlink:href="54997FF5.png"  transform="matrix(1 0 0 1 345 -27)">
		</image>
	</g>
	<g class="st0">
		
			<image style="display:inline;overflow:visible;" width="178" height="179" xlink:href="54997FF6.png"  transform="matrix(1 0 0 1 521 -15)">
		</image>
	</g>
	<g class="st0">
		
			<image style="display:inline;overflow:visible;" width="179" height="178" xlink:href="54997FF7.png"  transform="matrix(1 0 0 1 423 19)">
		</image>
	</g>
	<g id="лампы_2_" class="st1">
		<rect x="281.2" y="-10.8" class="st2" width="2.9" height="57.4"/>
		<linearGradient id="SVGID_1_" gradientUnits="userSpaceOnUse" x1="282.7039" y1="62.2099" x2="282.7039" y2="52.3956">
			<stop  offset="0" style="stop-color:#B5B5BA"/>
			<stop  offset="1" style="stop-color:#5E6B74"/>
		</linearGradient>
		<path class="st3" d="M290,63.7c-0.5,1-3.4-1.5-7.3-1.5s-6.8,2.4-7.3,1.5s0-9.8,0-9.8c0-4,3.2-7.2,7.2-7.2h0.2c4,0,7.2,3.2,7.2,7.2
			C290,53.9,290.5,62.7,290,63.7z"/>
		<circle class="st4" cx="282.7" cy="73.9" r="12.2"/>
		<rect x="355.2" y="-11.3" class="st2" width="1.9" height="91.5"/>
		<linearGradient id="SVGID_2_" gradientUnits="userSpaceOnUse" x1="356.2532" y1="110.1816" x2="356.9542" y2="84.9449">
			<stop  offset="0" style="stop-color:#B5B5BA"/>
			<stop  offset="1" style="stop-color:#5E6B74"/>
		</linearGradient>
		<linearGradient id="SVGID_3_" gradientUnits="userSpaceOnUse" x1="349.1129" y1="84.4241" x2="364.6679" y2="97.2779">
			<stop  offset="0" style="stop-color:#B5B5BA"/>
			<stop  offset="1" style="stop-color:#5E6B74"/>
		</linearGradient>
		<path class="st5" d="M364,97.3c-0.5,1-3.4-1.5-7.3-1.5s-6.8,2.4-7.3,1.5s0-9.8,0-9.8c0-4,3.2-7.2,7.2-7.2h0.2c4,0,7.2,3.2,7.2,7.2
			C364,87.5,364.5,96.3,364,97.3z"/>
		<circle class="st4" cx="356.7" cy="107.5" r="12.2"/>
		<rect x="431.7" y="-10.8" class="st2" width="2.9" height="45.3"/>
		<linearGradient id="SVGID_4_" gradientUnits="userSpaceOnUse" x1="433.1309" y1="51.6946" x2="433.1309" y2="41.5298">
			<stop  offset="0" style="stop-color:#B5B5BA"/>
			<stop  offset="1" style="stop-color:#5E6B74"/>
		</linearGradient>
		<path class="st6" d="M440.4,51.5c-0.5,1-3.4-1.5-7.3-1.5c-3.9,0-6.8,2.4-7.3,1.5s0-9.8,0-9.8c0-4,3.2-7.2,7.2-7.2h0.2
			c4,0,7.2,3.2,7.2,7.2C440.4,41.7,440.9,50.5,440.4,51.5z"/>
		<circle class="st4" cx="433.1" cy="61.7" r="12.2"/>
		<rect x="509.1" y="-10.8" class="st2" width="2.9" height="91"/>
		<linearGradient id="SVGID_5_" gradientUnits="userSpaceOnUse" x1="509.9693" y1="114.4515" x2="510.6703" y2="89.2148">
			<stop  offset="0" style="stop-color:#B5B5BA"/>
			<stop  offset="1" style="stop-color:#5E6B74"/>
		</linearGradient>
		<linearGradient id="SVGID_6_" gradientUnits="userSpaceOnUse" x1="502.9477" y1="84.4241" x2="518.5026" y2="97.2779">
			<stop  offset="0" style="stop-color:#B5B5BA"/>
			<stop  offset="1" style="stop-color:#5E6B74"/>
		</linearGradient>
		<path class="st7" d="M517.8,97.3c-0.5,1-3.4-1.5-7.3-1.5s-6.8,2.4-7.3,1.5s0-9.8,0-9.8c0-4,3.2-7.2,7.2-7.2h0.2
			c4,0,7.2,3.2,7.2,7.2C517.8,87.5,518.3,96.3,517.8,97.3z"/>
		<circle class="st4" cx="510.5" cy="107.5" r="12.2"/>
		<rect x="606.9" y="-10.8" class="st2" width="2.9" height="57.4"/>
		<linearGradient id="SVGID_7_" gradientUnits="userSpaceOnUse" x1="608.0533" y1="66.5113" x2="608.7543" y2="52.491">
			<stop  offset="0" style="stop-color:#B5B5BA"/>
			<stop  offset="1" style="stop-color:#5E6B74"/>
		</linearGradient>
		<path class="st8" d="M615.7,63.7c-0.5,1-3.4-1.5-7.3-1.5c-3.9,0-6.8,2.4-7.3,1.5s0-9.8,0-9.8c0-4,3.2-7.2,7.2-7.2h0.2
			c4,0,7.2,3.2,7.2,7.2C615.7,53.9,616.2,62.7,615.7,63.7z"/>
		<circle class="st4" cx="608.4" cy="73.9" r="12.2"/>
		<g class="st9">
			<image style="overflow:visible;" width="97" height="98" xlink:href="54998007.png"  transform="matrix(1 0 0 1 234 25)">
			</image>
		</g>
		<g class="st9">
			<image style="overflow:visible;" width="97" height="97" xlink:href="5499800B.png"  transform="matrix(1 0 0 1 308 59)">
			</image>
		</g>
		<g class="st9">
			<image style="overflow:visible;" width="98" height="97" xlink:href="5499800E.png"  transform="matrix(1 0 0 1 384 13)">
			</image>
		</g>
		<g class="st9">
			<image style="overflow:visible;" width="97" height="97" xlink:href="5499800F.png"  transform="matrix(1 0 0 1 462 59)">
			</image>
		</g>
		<g class="st9">
			<image style="overflow:visible;" width="97" height="98" xlink:href="3A2F7F7C.png"  transform="matrix(1 0 0 1 560 25)">
			</image>
		</g>
	</g>
	<g>
		<path class="st10" d="M601,527.5c-2.8-0.1-5.4-1.9-6.3-4.6c-6.9-19.2-26.1-11.6-30.4-8.7c-4.6,3.1-3.1,20.1-9.3,7
			c-6.2-13.1-15.4-7.7-15.4-7.7s-2.3,5.4,1.5,17.8c3.9,12.4-18.5,9.3-18.5,9.3s-17-10-20.9-2.3c-3.9,7.7,10.8,25.5,10.8,25.5h91.1
			c0,0,7.4-8.1,9.5-28.1c0.4-4-2.7-7.6-6.7-7.8L601,527.5z"/>
		<path class="st11" d="M577,637.3c7.6-15.2,8.4-48.2,7.1-79.2h-79.4l14.6,100.7C541.9,658.8,568.3,654.8,577,637.3z"/>
		<path class="st12" d="M595.2,664.8l13.1-106.6h-24.1c1.3,30.9,0.4,64-7.1,79.2c-8.7,17.5-35.1,21.5-57.6,21.5l0.9,5.9H595.2z"/>
	</g>
	<g>
		<polygon class="st13" points="160,543.2 248.1,543.2 242.9,399.8 165.7,399.8 		"/>
		<linearGradient id="SVGID_8_" gradientUnits="userSpaceOnUse" x1="243.0282" y1="678.4298" x2="243.0282" y2="331.912">
			<stop  offset="0" style="stop-color:#BE683A"/>
			<stop  offset="0.3131" style="stop-color:#BC6539"/>
			<stop  offset="0.5007" style="stop-color:#B55D34"/>
			<stop  offset="0.6552" style="stop-color:#A94F2C"/>
			<stop  offset="0.7918" style="stop-color:#993B20"/>
			<stop  offset="0.9152" style="stop-color:#842111"/>
			<stop  offset="1" style="stop-color:#710A04"/>
		</linearGradient>
		<polygon class="st14" points="233.5,394.7 223.3,393.3 180.7,386.4 177.6,386.4 162,383 154.7,538.8 160,543.2 168.3,403 
			233,412.3 226.2,591.4 331.4,675.6 331.4,405.9 		"/>
		<polygon class="st15" points="162.2,383 331.4,405.9 330.4,447.8 232.6,429.3 232.5,411.4 168.1,403.2 167.3,418.1 160.5,416.6 		
			"/>
		<linearGradient id="SVGID_9_" gradientUnits="userSpaceOnUse" x1="127.3338" y1="382.5123" x2="360.4881" y2="383.1862">
			<stop  offset="0" style="stop-color:#BE683A"/>
			<stop  offset="0.3131" style="stop-color:#BC6539"/>
			<stop  offset="0.5007" style="stop-color:#B55D34"/>
			<stop  offset="0.6552" style="stop-color:#A94F2C"/>
			<stop  offset="0.7918" style="stop-color:#993B20"/>
			<stop  offset="0.9152" style="stop-color:#842111"/>
			<stop  offset="1" style="stop-color:#710A04"/>
		</linearGradient>
		<polygon class="st16" points="316.3,409.3 137.1,383 137.1,356.3 316.3,383 		"/>
		<linearGradient id="SVGID_10_" gradientUnits="userSpaceOnUse" x1="432.2838" y1="674.5163" x2="429.1413" y2="387.5019">
			<stop  offset="0" style="stop-color:#710A04"/>
			<stop  offset="0.4968" style="stop-color:#6F0A04"/>
			<stop  offset="0.6758" style="stop-color:#680804"/>
			<stop  offset="0.8029" style="stop-color:#5D0603"/>
			<stop  offset="0.9054" style="stop-color:#4C0302"/>
			<stop  offset="0.919" style="stop-color:#490202"/>
			<stop  offset="0.9205" style="stop-color:#4F0202"/>
			<stop  offset="0.9275" style="stop-color:#650402"/>
			<stop  offset="0.9358" style="stop-color:#760501"/>
			<stop  offset="0.946" style="stop-color:#810601"/>
			<stop  offset="0.9603" style="stop-color:#880701"/>
			<stop  offset="1" style="stop-color:#8A0701"/>
		</linearGradient>
		<polygon class="st17" points="542.2,383 531.7,384.5 528.8,384.5 316.3,383 316.3,409.3 330.9,409.3 331.4,675.6 523.2,665.9 
			521.2,408.8 541.7,408.4 		"/>
		<path class="st18" d="M320.6,451l-25.7-4.2l-51.7-9.5l-0.3,0c-0.4,0-0.6,0.4-0.6,0.9l0,0.4l-5.7,146.7l0,0c0,0.4,0.3,0.7,0.6,0.7
			l0,0l63.1,43.9l16.2,12.1l0.6,0l1.7-0.9l2.7-188.9l0-1.1L320.6,451z M237.7,584.4l6.4-144.8l33.7,6.2l41.9,7.4l-3.5,184l-17-11.2
			L237.7,584.4z"/>
		<linearGradient id="SVGID_11_" gradientUnits="userSpaceOnUse" x1="434.1927" y1="380.6488" x2="177.0939" y2="362.7728">
			<stop  offset="0" style="stop-color:#BE683A"/>
			<stop  offset="0.3131" style="stop-color:#BC6539"/>
			<stop  offset="0.5007" style="stop-color:#B55D34"/>
			<stop  offset="0.6552" style="stop-color:#A94F2C"/>
			<stop  offset="0.7918" style="stop-color:#993B20"/>
			<stop  offset="0.9152" style="stop-color:#842111"/>
			<stop  offset="1" style="stop-color:#710A04"/>
		</linearGradient>
		<polygon class="st19" points="542.2,383 532,384.5 511.5,384.5 316.3,383 189.2,365 137.1,356.3 312.9,361.6 		"/>
	</g>
	<g>
		<polygon class="st20" points="223,595.7 217.9,606.9 213.3,606.9 217.9,595.2 		"/>
		<path class="st21" d="M217.9,599.1c-1.4,0-5.8,0-6.9,0c-5,0-9,2.9-9,8.2c0,5.3,4,10.9,9,10.9c1.3,0,5.8,0,6.9,0c5,0,9.4-3.7,9.4-9
			C227.3,604,222.8,599.1,217.9,599.1z"/>
		<path class="st21" d="M217.9,599.1c-5,0-9,2.9-9,8.2c0,5.3,4,10.9,9,10.9c5,0,9.4-3.7,9.4-9C227.3,604,222.8,599.1,217.9,599.1z
			 M218,611.1c-1.3,0-2.3-1.4-2.3-2.8c0-1.3,1-2.1,2.3-2.1c1.3,0,2.4,1.2,2.4,2.6C220.4,610.2,219.3,611.1,218,611.1z"/>
		<path class="st20" d="M217.9,600.4c-3.5,0-7.7,1.8-7.7,6.9c0,4.4,3.4,9.6,7.7,9.6c4,0,8.1-2.9,8.1-7.6
			C226,604.7,222.1,600.4,217.9,600.4z M217.6,616.7c-3.9,0-7-4.7-7-8.8c0-4.6,3.8-6.3,7-6.3c3.8,0,7.4,3.9,7.4,8.1
			C225,614.1,221.2,616.7,217.6,616.7z"/>
		<polygon class="st20" points="47.6,595.7 52.6,606.9 57.2,606.9 52.6,595.2 		"/>
		<path class="st22" d="M59.1,599.1c-1.4,0-5.8,0-6.9,0c-5,0-9,2.9-9,8.2c0,5.3,4,10.9,9,10.9c1.3,0,5.8,0,6.9,0c5,0,9.4-3.7,9.4-9
			C68.5,604,64,599.1,59.1,599.1z"/>
		<path class="st22" d="M59.1,599.1c-5,0-9,2.9-9,8.2c0,5.3,4,10.9,9,10.9c5,0,9.4-3.7,9.4-9C68.5,604,64,599.1,59.1,599.1z
			 M59.2,611.1c-1.3,0-2.3-1.4-2.3-2.8c0-1.3,1-2.1,2.3-2.1c1.3,0,2.4,1.2,2.4,2.6C61.6,610.2,60.5,611.1,59.2,611.1z"/>
		<path class="st20" d="M59.1,600.4c-3.5,0-7.7,1.8-7.7,6.9c0,4.4,3.4,9.6,7.7,9.6c4,0,8.1-2.9,8.1-7.6
			C67.2,604.7,63.2,600.4,59.1,600.4z M58.8,616.7c-3.9,0-7-4.7-7-8.8c0-4.6,3.8-6.3,7-6.3c3.8,0,7.4,3.9,7.4,8.1
			C66.2,614.1,62.4,616.7,58.8,616.7z"/>
		<polygon class="st20" points="110.3,595.7 115.3,606.9 119.9,606.9 115.3,595.2 		"/>
		<path class="st23" d="M121.8,599.1c-1.4,0-5.8,0-6.9,0c-5,0-9,2.9-9,8.2c0,5.3,4,10.9,9,10.9c1.3,0,5.8,0,6.9,0c5,0,9.4-3.7,9.4-9
			C131.2,604,126.8,599.1,121.8,599.1z"/>
		<path class="st23" d="M121.8,599.1c-5,0-9,2.9-9,8.2c0,5.3,4,10.9,9,10.9c5,0,9.4-3.7,9.4-9C131.2,604,126.8,599.1,121.8,599.1z
			 M122,611.1c-1.3,0-2.3-1.4-2.3-2.8c0-1.3,1-2.1,2.3-2.1c1.3,0,2.4,1.2,2.4,2.6C124.4,610.2,123.2,611.1,122,611.1z"/>
		<path class="st20" d="M121.8,600.4c-3.5,0-7.7,1.8-7.7,6.9c0,4.4,3.4,9.6,7.7,9.6c4,0,8.1-2.9,8.1-7.6
			C129.9,604.7,126,600.4,121.8,600.4z M121.5,616.7c-3.9,0-7-4.7-7-8.8c0-4.6,3.8-6.3,7-6.3c3.8,0,7.4,3.9,7.4,8.1
			C128.9,614.1,125.1,616.7,121.5,616.7z"/>
		<polygon class="st24" points="127.9,577.7 141.6,577.7 148.8,516.6 120.7,516.6 		"/>
		<g>
			<polygon class="st24" points="143.2,447.4 252.1,447.4 253.1,437.2 143.2,433.9 			"/>
			<path class="st24" d="M253.1,437.2l-109.9-3.3v-8.8c33.7,0.4,71.1,2,110.8,4.5L253.1,437.2z"/>
			<path class="st25" d="M252.1,447.4l1.9-17.8c-35.6-2.4-72.6-3.8-110.8-4.5l85.1,6.1l-1.2,16.2H252.1z"/>
		</g>
		<polygon class="st20" points="78.5,270.3 78.5,289.2 75.6,289.2 73.2,270.3 		"/>
		<polygon class="st20" points="73.2,270.3 75.6,289.2 70.8,289.2 65.6,270.3 		"/>
		<path class="st24" d="M121.3,291.9c-31.6-3.7-65.7-3.3-101.5,0c-1.1,74,5.1,151.5,16.7,231.8h191.2l4.3-19.4l-75.1-16.7
			L121.3,291.9z"/>
		
			<linearGradient id="SVGID_12_" gradientUnits="userSpaceOnUse" x1="-543.8994" y1="282.6787" x2="-454.2359" y2="373.9627" gradientTransform="matrix(-1 0 0 1 -409.2166 0)">
			<stop  offset="0" style="stop-color:#CC697C"/>
			<stop  offset="0.3297" style="stop-color:#AA4357"/>
			<stop  offset="1" style="stop-color:#40518C"/>
		</linearGradient>
		<path class="st26" d="M40.2,290.3c28.6-1.7,55.7-1.4,81.1,1.6c12.3,21.9,15.2,49.1,14.3,78.5l-97.4,3.3
			C37.2,344,37.7,316.5,40.2,290.3z"/>
		<path class="st27" d="M43.2,293.4c0.2,0,0.3,0,0.5,0c3.7,20.7,17.6,38.5,35.9,50.2c13,8.3,36.2,17.9,52.8,12.4
			c0.1,3.6,0.1,7.4,0,11.3l-91.1,3.1C40.5,342,41.1,316.7,43.2,293.4z"/>
		
			<linearGradient id="SVGID_13_" gradientUnits="userSpaceOnUse" x1="-567.2656" y1="343.8833" x2="-487.3244" y2="458.3936" gradientTransform="matrix(-1 0 0 1 -409.2166 0)">
			<stop  offset="0" style="stop-color:#CC697C"/>
			<stop  offset="0.3297" style="stop-color:#AA4357"/>
			<stop  offset="1" style="stop-color:#40518C"/>
		</linearGradient>
		<path class="st28" d="M135.6,370.3c13.1,30.1,17.8,72.7,21.4,117.2l-109.6,2.8c-4.7-42.8-8-81.2-9.2-116.6L135.6,370.3z"/>
		<path class="st27" d="M83.8,448.2c17,14.6,45.8,27.8,68.1,18.5c0.6,5.9,1.1,11.8,1.5,17.6l-103.2,2.6
			c-4.8-44.1-7.6-79.3-8.7-110.2l2-0.1C48.6,404.6,60.2,428,83.8,448.2z"/>
		<path class="st29" d="M153.4,484.3c-3.1-38.2-7.5-80.7-20-110.7l-91.9,3.1c35.9,0.4,74.3,0.4,88,4.4
			C137.9,408,145.7,445,153.4,484.3z"/>
		
			<linearGradient id="SVGID_14_" gradientUnits="userSpaceOnUse" x1="-641.2251" y1="492.9735" x2="-456.5759" y2="492.9735" gradientTransform="matrix(-1 0 0 1 -409.2166 0)">
			<stop  offset="0" style="stop-color:#CC697C"/>
			<stop  offset="0.3297" style="stop-color:#AA4357"/>
			<stop  offset="1" style="stop-color:#40518C"/>
		</linearGradient>
		<path class="st30" d="M232,504.2H109.7l-62.3-14c36.4-9.7,81.1-9.5,109.2-7.1C179.7,485.1,205.7,494.9,232,504.2z"/>
		<path class="st29" d="M213.1,499.5c-20.2-7-39.2-13.1-56.8-14.6c-10.5-0.9-22-1.4-33.3-1.4c-16.3,0-38.9,1-60.9,5.2
			c31.1-1.8,60.3-2.8,82.7-1.2C164.9,488.3,188.7,493.5,213.1,499.5z"/>
		<path class="st29" d="M132.4,367.2c0.7-31.3-3.6-54.4-13.2-72.3c-14.2-1.6-29.5-2.4-45.5-2.4c-9.8,0-20,0.3-30.5,0.9
			c28.9,1.6,56.5,3.4,71.3,8C122.2,317.1,127.5,341.5,132.4,367.2z"/>
		<path class="st24" d="M120,211.8c-34.2-3.9-68.7-3.8-103.5,0c-2.2,17.7,0.6,37.5,6.8,58.5h99.1L120,211.8z"/>
		
			<linearGradient id="SVGID_15_" gradientUnits="userSpaceOnUse" x1="-538.9767" y1="209.0585" x2="-437.0598" y2="270.1645" gradientTransform="matrix(-1 0 0 1 -409.2166 0)">
			<stop  offset="0" style="stop-color:#CC697C"/>
			<stop  offset="0.3297" style="stop-color:#AA4357"/>
			<stop  offset="1" style="stop-color:#40518C"/>
		</linearGradient>
		<path class="st31" d="M120,211.8c-33.2-3.7-64-4-89.4,0l4.8,58.5h87C125.1,249.8,125.2,230,120,211.8z"/>
		<path class="st27" d="M72.5,259.4c8.8,3.3,21.2,7,33,7.4H38.6L35,222.6C42.1,239.2,54.8,252.6,72.5,259.4z"/>
		<path class="st29" d="M119.2,266.8c2.5-20.5,1.8-37.1-2-51.8c-16.1-1.7-31.5-2.6-45.7-2.6c-13.5,0-26,0.8-37.2,2.4
			c30.5,0.6,58.9,1.7,79.1,5.4C116.6,232,118.1,248.8,119.2,266.8z"/>
		<polygon class="st32" points="224.8,592.5 134.7,549.1 134.7,576.8 224.8,597.6 		"/>
		<polygon class="st32" points="44.6,592.5 134.7,549.1 134.7,576.8 44.6,597.6 		"/>
		<polygon class="st32" points="135.7,573.4 115.7,596 109.2,596.2 109.2,592.2 132.5,549.1 		"/>
	</g>
	<g>
		<path class="st33" d="M439.3,377.7c-2.1,0.7-11.2,0-21.4,2.2c-15.8,3.5-35.6,3.1-39.8,2.9c-3.9-0.1-43.4-1-82.4-6.1
			c-31.3-4.1-59.9-7.9-68.5-8.9c-19.2-2.2,79.6-2.5,79.6-2.5S444.8,375.9,439.3,377.7z"/>
		<path class="st34" d="M444,367.1c-0.3,2.7-2.1,4.9-4.8,4.7L309.6,360c-1-0.1-1.6-1.4-1.5-2.4l8.1-85.5c0.2-2.4,2-4.2,4.4-4.6
			c0,0,124.7-19.3,128.7-19.5c4-0.1,5.8,2.1,5.7,5.7C454.8,256.9,446.1,345.3,444,367.1z"/>
		<path class="st35" d="M443.1,367.6c-0.1,1.1-1.3,2.9-2.4,2.8l-131.3-11.3c-0.8-0.1-0.9-1.3-0.8-2.1l7.8-84.3
			c0.2-2.5,2.1-4.5,4.6-4.8c0,0,125.1-19.3,128.4-19.2c3.3,0.1,5.1,1.8,4.8,4.6L443.1,367.6z"/>
		<polygon class="st36" points="320,274 447.7,256.7 437.8,361 312.3,353.2 		"/>
		<g>
			
				<linearGradient id="SVGID_16_" gradientUnits="userSpaceOnUse" x1="225.0182" y1="428.5849" x2="441.246" y2="444.8098" gradientTransform="matrix(0.9995 3.110874e-02 -3.110874e-02 0.9995 13.5594 -79.7608)">
				<stop  offset="0" style="stop-color:#AEC3D0"/>
				<stop  offset="1" style="stop-color:#6B929B"/>
			</linearGradient>
			<path class="st37" d="M379.4,379.9c5.3,0.1,42.8-3.9,42.8-3.9l18.9-3.5c0.2-0.2,0.4-0.6,0.4-0.9l0.1-1.7c0.1-0.4,0.2-0.9-0.2-0.9
				c-13.7-0.5-206-7.2-216.5-7.5c-0.3,0-0.4,0.1-0.4,0.3l-0.1,1.4c0,0,0,0.9,0,1.3c0,0.2,0.3,0.4,0.5,0.5l0.4,0.2l0.2-0.1
				C225.5,365.1,374.1,379.9,379.4,379.9z"/>
			<path class="st38" d="M227.5,366l4.1,1.1c0.7,0.2,1.4,0.3,2,0.4l25.6,3.2l114.7,10.2c2.6,0.3,5.2,0.2,7.7-0.2
				c6.3-1.2,17.5,0.4,30.2-2c9.2-1.8,18.1-3.2,23.7-4.4c2.5-0.5,4.3-1.3,5.3-1.5c0.1,0,0.2-0.1,0.3-0.2l-18.9,3.5
				c0,0-35.3,3-40.7,2.9s-156-13.7-156-13.7l-0.2,0.1l1.8,0.7C227.3,365.9,227.4,366,227.5,366z"/>
		</g>
		
			<linearGradient id="SVGID_17_" gradientUnits="userSpaceOnUse" x1="262.3784" y1="429.4889" x2="371.6217" y2="437.6861" gradientTransform="matrix(0.9995 3.110874e-02 -3.110874e-02 0.9995 13.5594 -79.7608)">
			<stop  offset="0" style="stop-color:#C8C8C8"/>
			<stop  offset="1" style="stop-color:#72848A"/>
		</linearGradient>
		<path class="st39" d="M373.7,376.9l-149.1-15.3c-0.2,0-0.1-0.2,0-0.3l83.7-2.8c0.1,0,0.1,0,0.2,0l133,10.3c0.2,0,0.2,0.3,0,0.3
			c-8.5,1.5-55.1,7.5-58.1,7.8C380,377.3,376.6,377.2,373.7,376.9z"/>
		<path class="st40" d="M432.7,372.9l-4.3,0.8c-0.2,0-0.5-0.1-0.5-0.4l0-0.3c0-0.3,0.2-0.6,0.6-0.6l4.5-0.7c0.2,0,0.5,0.2,0.4,0.4
			l0,0.2C433.4,372.6,433.1,372.9,432.7,372.9z"/>
		<path class="st41" d="M422.3,367.8l-104.6-8c-0.1,0-0.2-0.1-0.1-0.3l0.9-1.6c0.1-0.2,0.3-0.3,0.6-0.3l104.3,7.6
			c0.2,0,0.4,0.3,0.3,0.5l-0.6,1.7C422.9,367.6,422.6,367.8,422.3,367.8z"/>
		<path class="st42" d="M436.9,372.3l-1.4,0.5c-0.4,0.2-0.8-0.1-0.8-0.5l0-1.2c0-0.3,0.2-0.5,0.4-0.5l2-0.3c0.2,0,0.3,0.1,0.3,0.3
			l0,1C437.5,371.9,437.2,372.2,436.9,372.3z"/>
		<path class="st43" d="M440.3,372.3l-1.1,0.2c-0.4,0.1-0.7-0.2-0.7-0.6l0-0.8c0-0.6,0.5-1.1,1.1-1.2l1-0.1c0.2,0,0.3,0.1,0.4,0.3
			l0,1.5C440.9,371.9,440.7,372.2,440.3,372.3z"/>
		
			<linearGradient id="SVGID_18_" gradientUnits="userSpaceOnUse" x1="287.1938" y1="430.7853" x2="400.0627" y2="436.8806" gradientTransform="matrix(0.9995 3.110874e-02 -3.110874e-02 0.9995 13.5594 -79.7608)">
			<stop  offset="0" style="stop-color:#658299"/>
			<stop  offset="0.2765" style="stop-color:#486374"/>
			<stop  offset="0.5726" style="stop-color:#0D2B3D"/>
			<stop  offset="0.8352" style="stop-color:#001728"/>
			<stop  offset="1" style="stop-color:#001A2B"/>
		</linearGradient>
		<path class="st44" d="M384.5,371l-72.5-6.6l-31.1-3c-0.3,0-0.3-0.4,0-0.4l30.8-1.4l103.6,8.3c0.4,0,0.5,0.7,0,0.7l-22.6,3
			C392.3,371.5,384.8,371,384.5,371z"/>
		
			<linearGradient id="SVGID_19_" gradientUnits="userSpaceOnUse" x1="276.007" y1="440.1589" x2="296.9048" y2="441.727" gradientTransform="matrix(0.9995 3.110874e-02 -3.110874e-02 0.9995 13.5594 -79.7608)">
			<stop  offset="0" style="stop-color:#CCEBF5"/>
			<stop  offset="1" style="stop-color:#EFFBFB"/>
		</linearGradient>
		<path class="st45" d="M296.2,371.3c-0.3,0.6-0.9,1-1.6,1l-17.3-1.9c-1.1-0.1-1.8-1.3-1.3-2.4l0.2-0.4c0.1-0.1,0.2-0.2,0.4-0.2
			l20,2.2c0.2,0,0.3,0.2,0.2,0.4L296.2,371.3z"/>
	</g>
	<g>
		<g>
			<path class="st46" d="M285.5,223.1c0,0,12.8,1.5,22.8,9.8c0.1,0.1,0.3,0.2,0.4,0.3c-1.8,0.3-3.8,0.5-5.8,0.9
				C292.5,225.6,285.5,223.1,285.5,223.1z"/>
		</g>
		<path class="st47" d="M248.2,292.3c5,2.2,10.3,4.2,15.9,5.7c0,0,0,0,0,0C258.5,296.6,253.2,294.6,248.2,292.3z"/>
		<path class="st48" d="M43.1,377.7c-1.4-13.3-1.9-26.2,0.5-39.4c3.9-21.1,12.6-41.4,23-60.1c1.8-3.2,3.6-6.3,5.5-9.4
			c0.3-0.4,2.3-2.8,2.1-3.3c-4.4-18.3-26.5-31.6-44.2-33.3C11,230.3,44.5,217,47.7,215.7c24.6-10.1,52.7-10.9,77.5-1.2
			c1.2,0.5,2.4,1,3.6,1.5c0.4,0.2,0.8,0.4,1.2,0.5c0.1,0,0.1,0,0.2,0c1.5-0.8,23.8-12.9,38.2-15.2c14.3-2.3,38-0.5,39.7-0.3
			c0.1,0,0.1,0,0.2-0.1c0.5-0.6,4.5-5.3,11.5-5.7c7.6-0.5,9.5,3.9,21.3,5.4c10.7,1.4,16.1,2.1,17,2.2c0.1,0,0.2,0,0.2-0.1
			c0.3-0.9,2.4-5.8,11.4-4.8c9.4,1,15.2,9.6,15.7,10.4c0,0,0.1,0.1,0.1,0.1c1.7,0.4,35.7,9,51.6,20.2c4.2,3,7.1,7.5,8.2,12.8
			c0,0.2-0.2,0.3-0.3,0.2l-4.5-4.9c0,0,0,0,0,0c-0.1-0.2-2.3-3.5-12.5-4.4c-0.5-0.4-1-0.8-1.6-1.2c-22-16.3-51.5-17-51.5-17
			s24.8,6.6,37.1,18.7c-1.1,0.1-2.2,0.3-3.3,0.4c-0.1-0.1-0.3-0.2-0.4-0.3c-10-8.3-22.8-9.8-22.8-9.8s7,2.5,17.4,11
			c-4.4,0.8-9.3,1.8-14.8,3c-46.9,11.1-60.2,13.9-80.9-2.1s-35.2-7.2-38,10.3s9.5,40.5-23.2,71.5s-61.4,61.6-31,123.2
			c30.1,60.8,73,69.4,74,69.6c0,0,0,0,0,0c0.5,0.2,14.3,5.9,12.7-14.2c3.2,4.9,7.2,9.6,11.7,13.9c0.4,0.4,1,0.5,1.6,0.4
			c0.8-0.2,2.3-0.4,4.4,0.3c2.2,0.8,3.2,2.3,3.6,3.3c0.2,0.5,0.8,0.8,1.4,0.7c32.4-6.3,59.1,5,66.7,8.1c7.7,3.2,7.8,6.4-0.6,7.5
			s-23.4,3.7-33.1,9.3c-9.7,5.7-30.6,19.9-33.9,47.7c-3.3,27.8,5.5,42.7,8.7,50.6c0.7,1.8,2.2,5.1,1.1,7c-1,1.8-3.6,1.1-5.2,0.7
			c-7.3-2-12.7-7.2-17.5-12.6c-13-14.7-22.5-32.7-25.5-52.2c-2-12.6-2.8-25.6-2.1-38.3c0-0.1,0-0.2-0.1-0.2
			c-3.1-0.9-58.8-18.1-94.2-60.9c-15.1-18.2-28.9-37.8-36.6-60.4C47.4,406.7,44.6,392.2,43.1,377.7z"/>
		<g id="rot_2_">
			<g>
				<g>
					<g>
						<path class="st49" d="M259.9,301.2c-6.4,7.9,4.1,24.9,4.9,32.3c0.4,3.5,1.1,7.1,0.3,11.5c-0.3,1.6-1.7,1.5-3.1,2.3
							c-10.9,6.6-49.8-7.1-63.6-29.2c-15.7-25-11.2-55.3-11.2-63.3c0-1,0.1-1.8,0.2-2.7c1-5.2,3.7-7.3,11.6,3.2
							c6.3,8.4,24.9,25.2,50.1,36.3c5,2.3,10.4,4.2,16,5.6C263.2,297.7,261.1,299.8,259.9,301.2z"/>
					</g>
					<path class="st49" d="M265,324.9c-0.9,15.4,3.4,16.9-0.2,21.1c-11,12.6-41.9,3-62.9-22.6c-20.9-25.6-15.7-57.7-15.2-65.8
						c0.1-1.9,0.3-3.7,0.6-5.3c-0.1,0.8-0.2,1.7-0.2,2.7c0,8.1-4.5,38.3,11.2,63.3c13.9,22.2,52.8,35.8,63.6,29.2
						c1.4-0.8,2.8-0.7,3.1-2.3c0.8-4.4,0.1-8.1-0.3-11.5c-0.8-7.4-11.3-24.4-4.9-32.3c1.1-1.4,2.9-3.4,4.6-3.8
						c0.4,0.1,0.8,0.2,1.2,0.3c4.2,1.1,8.6,2,13.1,2.6c-0.3,1.2-1.2,4.5-2.2,7C267.6,309.7,265.5,316.1,265,324.9z"/>
				</g>
				<g>
					<path class="st49" d="M259.5,302.6c-0.1,0.1-0.1,0.2-0.1,0.3c-0.1,0.2-0.1,0.3-0.2,0.5c0,0.1-0.1,0.3-0.1,0.4
						c0,0.1-0.1,0.2-0.1,0.3c-0.1,0.4-0.1,0.8-0.2,1.2c0,0.1-0.1,0.3-0.2,0.4c0,0.2-0.1,0.3-0.2,0.5c0,0.1-0.1,0.2-0.1,0.3
						c0,0.1,0,0.2,0,0.3c0,0.3-0.1,0.5-0.2,0.8c0,0.2-0.1,0.4-0.1,0.6c0,0.1-0.1,0.2-0.1,0.3c-0.1,0.1-0.2,0-0.3,0
						c-0.2-0.1-0.3-0.1-0.4-0.3c-0.1-0.2-0.1-0.4-0.2-0.5c-0.1-0.2-0.1-0.5-0.2-0.7c0-0.4,0.1-0.7,0.2-1c0.2-0.4,0.3-0.9,0.5-1.3
						c0.1-0.2,0.2-0.4,0.3-0.4c0.1-0.1,0.3-0.1,0.4-0.1c0.1,0,0.1,0,0.2,0c0.1,0,0.2-0.2,0-0.2c-0.1,0.2,0,0.4,0,0.6
						c0,0.3,0,0.6,0,0.9c0,0.2,0,0.4,0,0.6c0,0.1,0,0.3-0.1,0.3c-0.1,0-0.2-0.1-0.3-0.1c-0.1-0.1-0.2-0.2-0.2-0.4
						c-0.1-0.4-0.2-0.8-0.3-1.2c0.1,1,0.3,2,0.4,3c0,0.3,0.1,0.7,0.1,1c0,0.1,0,0.2,0,0.4c0,0.1,0,0.3,0.1,0.4c0,0.2,0,0.4,0,0.6
						c0,0.2,0,0.4,0,0.6c0,0.3,0.1,0.6,0.1,0.8c0.2,1.5,0.4,3,0.6,4.5c0,0.1,0,0.3,0.1,0.4c0.1,0.1,0.2,0.3,0.3,0.4
						c0.1,0.1,0.1,0.2,0.2,0.3c0.1,0.1,0.1,0.1,0.2,0.2c0.1,0.1,0.1,0.3,0.2,0.4c0.1,0.1,0.2,0.3,0.2,0.4c0,0.3-0.5,0-0.6-0.1
						c-0.1-0.1-0.2-0.3-0.3-0.5c-0.1-0.3-0.2-0.6-0.2-0.9c-0.1-0.5-0.1-0.9-0.3-1.3c-0.2-0.5-0.4-1-0.6-1.5
						c-0.4-1.1-0.5-2.3-0.7-3.4c0-0.3-0.1-0.6-0.1-1c0-0.2-0.1-0.5-0.1-0.7c0-0.6,0.1-1.2,0.2-1.7c0-0.3,0.2-0.7,0.2-1
						c0-0.3,0.1-0.5,0.1-0.7c0.1-0.3,0.2-0.7,0.3-1c0.2-0.4,0.7-0.7,1.1-1c0.2-0.2,0.4-0.4,0.4-0.6c0.1-0.2,0.1-0.4,0.2-0.6
						c0-0.1,0.1-0.2,0.3-0.3c0.1-0.1,0.2-0.2,0.3-0.3c0.2-0.2,0.4-0.4,0.6-0.5c0.4-0.2,0.8-0.5,1.3-0.5c0.2,0,0.4-0.1,0.6-0.1
						c0.2,0,0.4,0,0.6,0c-0.1,0-0.2,0-0.3-0.1c-0.1,0-0.2,0-0.2,0c-0.2,0-0.3,0-0.5-0.1c-0.2-0.1-0.3-0.1-0.5-0.1
						c-0.1,0-0.3,0-0.5-0.1c0.1-0.1,0.4,0,0.5-0.1c0.2,0,0.3-0.1,0.5,0c0.2,0,0.4,0.1,0.7,0.1c0.1,0,0.2,0.1,0.3,0.1
						c0.1,0,0.3,0,0.3,0.1c-0.1,0.1-0.3,0-0.4,0c-0.1,0-0.2,0-0.3-0.1c-0.1,0-0.2,0-0.2-0.1c0.1-0.1,0.2-0.1,0.3-0.2
						c0.1-0.1,0.2-0.1,0.4-0.1c0.1,0,0.2,0,0.3,0c0.1,0,0.2,0.1,0.3,0.1c-0.1,0-0.2,0-0.3,0c-0.1,0-0.2,0-0.3-0.1
						c0-0.1,0.4-0.1,0.5-0.1c-0.1,0-0.2,0-0.3,0c0.1,0,0.2,0,0.3,0c-0.3,0-0.7-0.1-0.9,0.2c-0.1,0.1-0.2,0.3-0.4,0.5
						c-0.1,0.1-0.2,0.1-0.3,0.2c-0.1,0.1-0.1,0.1-0.2,0.2c-0.1,0.1-0.1,0.1-0.2,0.2c-0.1,0.1-0.3,0.2-0.3,0.3
						c-0.1,0.1-0.3,0.2-0.4,0.4c-0.2,0.2-0.3,0.3-0.5,0.5c-0.2,0.4-0.3,0.8-0.4,1.3c0,0.2-0.1,0.4-0.1,0.6c0,0.2,0,0.4-0.1,0.5
						c-0.1,0.2-0.2,0.3-0.2,0.5c0,0.2,0,0.4-0.1,0.6c-0.1,0.2-0.1,0.4-0.1,0.6c0,0.1,0,0.2,0,0.3c0,0.1,0,0.1,0,0.2"/>
				</g>
				<g>
					<path class="st49" d="M263.9,298.8c0,0,0.3,0.1,0.4,0.1"/>
				</g>
				<g>
					<path class="st49" d="M259.8,317.8c0,0.1,0.1,0.3,0.2,0.4c0,0.1,0.1,0.2,0.2,0.3c0,0.1,0,0.1,0,0.2c0,0,0,0.1,0,0.1
						c0,0,0,0,0,0.1c0,0-0.1-0.1-0.1-0.2c0,0,0,0,0-0.1c0,0,0,0,0,0c0,0,0,0,0-0.1c0,0,0,0,0-0.1c0,0,0,0,0-0.1c0,0,0,0,0-0.1
						c0,0,0-0.1,0-0.1c0,0.1,0.1,0.2,0.1,0.3c0,0.1,0.1,0.1,0.1,0.2c0,0.1,0.1,0.1,0.1,0.2c0,0.1,0.1,0.2,0.1,0.3c0,0,0,0.1,0,0.1
						c0,0,0,0,0,0c0,0,0,0,0,0.1c0,0.1,0,0.1,0,0.2c0,0,0,0.1,0,0.1c0,0,0,0.1,0,0.1c0,0,0,0.1,0,0.1c0,0,0,0,0,0c0,0,0,0,0,0
						c0,0,0,0,0,0c0,0,0-0.1-0.1-0.1"/>
				</g>
				<g>
					<path class="st49" d="M260.6,320.1C260.6,320.2,260.6,320.2,260.6,320.1c0,0.1,0.1,0.2,0.1,0.2c0,0,0,0.1,0.1,0.1
						c0,0,0,0,0,0.1c0,0,0,0.1,0,0.1c0,0,0,0,0,0.1c0,0,0,0.1,0,0.1c0,0,0,0.1,0,0.1c0,0,0,0.1,0,0.1c0,0,0.1,0.1,0.1,0.1
						c0,0,0,0,0,0.1c0,0,0,0,0,0.1c0,0,0,0,0,0c0,0,0,0,0,0c0,0,0,0,0,0c0,0,0,0,0,0c0,0,0,0,0,0.1c0,0,0,0,0,0.1c0,0,0,0,0,0.1
						c0,0,0,0.1,0,0.1c0,0.1,0.1,0.1,0.1,0.2c0,0.1,0.1,0.1,0.1,0.2c0,0,0,0,0,0.1c0,0,0,0,0,0.1c0,0,0,0.1,0.1,0.1c0,0,0,0.1,0,0.1
						c0,0,0,0.1,0.1,0.1c0,0,0,0.1,0.1,0.1c0,0,0,0,0,0.1c0,0,0,0,0,0.1c0,0,0,0.1,0,0.1c0,0,0,0.1,0,0.1c0,0,0,0.1,0,0.1
						c0,0,0,0.1,0,0.1c0,0,0,0.1,0,0.1c0,0-0.1,0-0.1,0c0,0,0-0.1,0-0.1c0,0,0,0,0-0.1c0,0-0.1-0.1-0.1-0.1c0,0.1,0.1,0.2,0.2,0.3
						c0,0,0,0.1,0.1,0.1c0,0,0,0,0,0.1c0,0,0,0,0,0.1c0,0,0,0.1,0,0.1c0,0,0,0.1,0,0.1c0,0.1,0,0.1,0,0.2"/>
				</g>
				<g>
					<path class="st49" d="M262,324.1c0,0,0,0.1,0,0.1c0,0,0,0.1,0,0.1c0,0,0,0,0,0c0,0,0,0,0,0.1c0,0,0,0.1,0.1,0.1c0,0,0,0,0,0.1
						c0,0,0,0,0,0.1c0,0.1,0,0.1,0.1,0.1c0,0,0,0.1,0,0.1c0,0,0,0,0,0.1c0,0,0,0,0,0.1c0,0,0,0,0,0.1c0,0,0,0.1,0,0.1
						c0,0,0.1,0.1,0.1,0.1c0,0,0,0.1,0,0.1c0,0,0,0.1,0,0.1c0,0.1,0,0.1,0,0.2c0,0.1,0.1,0.2,0.1,0.3c0,0,0,0.1,0,0.1
						c0,0,0.1,0.1,0.1,0.1c0,0.1,0.1,0.1,0.1,0.2c0,0,0,0.1,0,0.1c0,0,0,0.1,0,0.1c0,0,0,0,0,0c0,0,0,0,0,0c0,0,0,0,0,0
						c0,0,0,0,0,0.1c0,0,0,0,0,0.1c0,0,0,0,0,0.1c0,0,0,0.1,0,0.1"/>
				</g>
				<g>
					<path class="st49" d="M263,327c0,0,0,0.1,0.1,0.1c0,0,0.1,0.1,0.1,0.1c0,0,0,0.1,0.1,0.1c0,0,0,0,0,0.1c0,0.1,0,0.2,0,0.2
						c0,0,0,0,0,0c0,0,0,0,0,0c0,0,0,0.1,0,0.1c0,0.1,0.1,0.2,0.1,0.2c0,0,0,0,0,0.1c0,0,0,0,0,0.1c0,0.1,0,0.1,0,0.2
						c0,0,0,0.1,0,0.1c0,0,0,0.1,0,0.1c0,0.1,0,0.1,0,0.2c0,0,0,0,0,0.1c0,0,0,0,0,0.1c0,0,0,0,0,0.1c0,0,0,0,0,0.1c0,0,0,0.1,0,0.1
						c0,0,0,0.1,0.1,0.1c0,0.1,0,0.2,0,0.2c0,0.2,0,0.4,0.1,0.5"/>
				</g>
				<g>
					<path class="st49" d="M264,330.3C264,330.3,264,330.3,264,330.3C264,330.3,264,330.3,264,330.3c0,0.1,0,0.1,0,0.1
						c0,0,0,0,0,0.1c0,0,0,0,0,0.1c0,0,0,0.1,0,0.1c0,0,0,0,0,0.1c0,0,0,0.1,0,0.1c0,0,0,0.1,0,0.1c0,0,0,0,0,0.1c0,0,0,0,0,0.1
						c0,0,0,0,0,0.1c0,0.1,0,0.2,0,0.3"/>
				</g>
				<g>
					<path class="st49" d="M263.9,331.8c0,0,0,0.1,0,0.1c0,0,0,0,0,0c0,0,0,0,0,0c0,0,0,0,0-0.1
						C263.9,331.9,263.9,331.9,263.9,331.8c0.1,0.1,0.1,0,0.1,0c0,0,0,0,0,0c0,0,0,0.1,0.1,0.1c0,0,0,0.1,0,0.1c0,0,0,0,0-0.1
						c0,0,0-0.1,0-0.1c0,0,0,0,0-0.1c0,0,0,0,0,0c0,0,0-0.1-0.1-0.1c0,0,0,0,0,0c0,0,0,0,0,0c0,0,0,0.1,0,0.1
						C263.9,331.7,263.9,331.7,263.9,331.8c0.1,0,0.1,0.1,0.1,0.1c0,0.1,0,0.1,0,0.2c0,0.1,0,0.1,0,0.2c0,0,0,0,0,0c0,0,0,0,0-0.1
						c0,0,0,0,0-0.1c0,0,0-0.1,0-0.1c0,0,0,0,0,0c0,0,0,0.1,0,0.1c0,0,0,0.1,0,0.1c0,0,0,0,0,0c0,0,0,0,0,0.1c0,0,0-0.1,0-0.1
						c0,0,0-0.1-0.1-0.1c0,0,0-0.1,0-0.1c0,0,0,0,0-0.1c0,0,0,0,0,0c0,0,0,0,0,0c0,0,0.1,0,0.1,0c0,0,0,0.1,0,0.1c0,0,0,0,0,0.1
						c0,0,0,0,0,0c0,0,0,0.1,0,0.1c0,0,0,0.1,0,0.1c0,0,0,0.1,0,0.1c0,0,0,0.1,0,0.1c0,0,0-0.1,0-0.1c0,0,0-0.1,0-0.1
						c0,0,0-0.1,0-0.1c0,0.1,0,0.1,0,0.2c0,0,0,0.1,0,0.1c0,0,0,0.1,0,0.1c0,0,0,0,0,0.1c0,0,0,0.1,0,0.2c0,0,0,0.1,0,0.1
						c0,0,0,0,0,0.1c0,0,0,0,0,0.1c0,0,0,0,0,0.1c0,0,0,0,0,0c0,0,0,0,0,0c0,0,0,0.1,0,0.1c0,0,0,0,0,0c0,0,0,0,0,0c0,0,0,0,0,0
						c0,0,0,0,0,0"/>
				</g>
				<g>
					<path class="st49" d="M264.3,333.8"/>
				</g>
				<g>
					<path class="st49" d="M264.4,333.7C264.5,333.7,264.4,333.7,264.4,333.7c0,0.1,0,0.1,0,0.1c0,0,0,0,0,0.1c0,0,0,0.1,0,0.1
						c0,0.1,0,0.1,0,0.2c0,0,0,0.1,0,0.1c0,0,0,0,0,0.1c0,0,0,0,0,0.1c0,0.1,0,0.1,0,0.2c0,0,0,0.1,0,0.1c0,0,0,0.1,0,0.1
						c0,0.1,0,0.1,0,0.2c0,0.1,0,0.2,0,0.2c0,0,0,0.1,0,0.1c0,0,0,0.1,0,0.1c0,0,0,0.1,0,0.1c0,0,0,0,0,0.1c0,0,0,0,0,0.1"/>
				</g>
				<g>
					<path class="st49" d="M264.7,336c0,0,0,0.1,0,0.2c0,0,0,0.1,0,0.1c0,0,0,0.1,0,0.1c0,0,0,0.1,0,0.1c0,0,0,0,0,0.1c0,0,0,0,0,0
						c0,0,0,0,0,0c0,0.1,0,0.2,0,0.2c0,0,0,0.1,0,0.1c0,0,0,0.1,0,0.1c0,0.1,0,0.1,0,0.2c0,0,0-0.1,0-0.1c0,0,0,0.1,0,0.1
						c0,0,0,0.1,0,0.1c0,0,0,0.1,0,0.1c0,0,0,0.1,0,0.1c0,0,0,0.1,0,0.1c0,0.1,0,0.1,0,0.2c0,0,0,0,0,0.1c0,0,0,0,0,0.1
						c0,0,0,0.1,0,0.1c0,0,0,0.1,0,0.1"/>
				</g>
				<g>
					<path class="st49" d="M264.9,338.3C265,338.3,265,338.4,264.9,338.3c0,0.1,0,0.1,0,0.1c0,0,0,0,0,0c0,0,0,0.1,0,0.1
						c0,0,0,0,0,0.1c0,0,0,0,0,0.1c0,0,0,0.1,0,0.1c0,0,0,0,0,0.1c0,0,0,0.1,0,0.1c0,0,0,0.1,0,0.1c0,0,0,0,0,0c0,0,0,0,0,0.1
						c0,0.1,0,0.1,0,0.2c0,0,0,0,0,0.1c0,0,0,0.1,0,0.1c0,0,0,0.1,0,0.1c0,0,0,0.1,0,0.1c0,0,0,0,0,0c0,0,0,0,0,0c0,0,0,0.1,0,0.1
						c0,0,0,0,0,0.1c0,0,0,0.1,0,0.1c0,0,0,0.1,0,0.1c0,0,0,0.1,0,0.1c0,0,0,0,0,0c0,0,0,0,0,0.1"/>
				</g>
				<g>
					<path class="st49" d="M265.2,340.7C265.2,340.7,265.2,340.7,265.2,340.7C265.2,340.7,265.2,340.7,265.2,340.7
						c0,0.1,0,0.2,0,0.2c0,0,0,0,0,0.1c0,0,0,0,0,0c0,0,0,0,0,0.1c0,0,0,0,0,0.1c0,0,0,0,0,0.1c0,0,0,0,0,0c0,0,0,0.1,0,0.1
						c0,0.1,0,0.1,0,0.2c0,0.1,0,0.1,0,0.2c0,0,0,0.1,0,0.1c0,0,0,0.1,0,0.1c0,0,0,0.1,0,0.1c0,0,0,0,0,0.1c0,0,0,0,0,0.1
						c0,0,0,0.1,0,0.1c0,0,0,0.1,0,0.1c0,0,0,0.1,0,0.1c0,0,0,0.1,0,0.1c0,0,0,0,0,0.1c0,0,0,0,0,0.1c0,0,0,0,0,0.1c0,0,0,0,0,0"/>
				</g>
				<g>
					<path class="st49" d="M265.2,342.9c0,0,0,0.1,0,0.1c0,0,0,0.1,0,0.1c0,0,0,0.1,0,0.1c0,0,0,0.1,0,0.1c0,0,0,0.1,0,0.1
						c0,0,0,0,0,0c0,0,0,0,0,0c0,0,0,0.1,0,0.1c0,0,0,0.1,0,0.1c0,0.1,0,0.1,0,0.2c0,0,0,0.1,0,0.1c0,0,0,0,0,0.1c0,0,0,0,0,0
						c0,0,0,0.1,0,0.1c0,0,0,0,0,0.1c0,0,0,0,0,0.1c0,0.1-0.1,0.1-0.1,0.2c0,0,0,0.1,0,0.1c0,0,0,0,0,0.1c0,0,0,0,0,0.1
						c0,0,0,0.1,0,0.1c0,0,0,0,0,0.1c0,0,0,0,0,0.1"/>
				</g>
				<g>
					<path class="st49" d="M264.6,345.2"/>
				</g>
				<g>
					<path class="st49" d="M264.6,345.3"/>
				</g>
				<g>
					<path class="st49" d="M264.5,345.5"/>
				</g>
				<g>
					<path class="st49" d="M264.4,345.6"/>
				</g>
				<g>
					<path class="st49" d="M264.3,345.7C264.3,345.7,264.3,345.7,264.3,345.7C264.3,345.7,264.3,345.7,264.3,345.7
						c-0.1,0.1-0.1,0.1-0.1,0.1c0,0,0,0-0.1,0c0,0-0.1,0-0.1,0c0,0,0,0-0.1,0c0,0-0.1,0-0.1,0c0,0,0,0,0,0c0,0,0,0-0.1,0
						c0,0,0,0,0,0c0,0,0,0,0,0c0,0,0,0-0.1,0c0,0-0.1,0-0.1,0.1c0,0,0,0,0,0c0,0,0,0-0.1,0c0,0-0.1,0-0.1,0c0,0,0,0,0,0c0,0,0,0,0,0
						c0,0-0.1,0.1-0.1,0.1c0,0-0.1,0.1-0.1,0.1c-0.1,0.1-0.2,0.2-0.2,0.2c0,0,0,0-0.1,0c0,0,0,0-0.1,0c0,0,0,0-0.1,0c0,0,0,0-0.1,0
						c0,0-0.1,0.1-0.1,0.1c-0.1,0-0.1,0.1-0.2,0.1c0,0-0.1,0-0.1,0.1c0,0,0,0-0.1,0c0,0,0,0,0,0c0,0,0,0-0.1,0c0,0-0.1,0-0.1,0.1
						c-0.1,0.1-0.2,0.1-0.3,0.2c0,0-0.1,0-0.1,0c0,0,0,0,0,0c0,0,0,0,0,0"/>
				</g>
				<g>
					<path class="st49" d="M261.4,347.6C261.3,347.6,261.3,347.6,261.4,347.6c-0.1,0-0.2,0-0.2,0.1c0,0-0.1,0.1-0.1,0.1
						c0,0,0,0-0.1,0.1c0,0-0.1,0-0.1,0c0,0-0.1,0.1-0.1,0.1c-0.1,0-0.1,0.1-0.2,0.1c-0.1,0-0.2,0.1-0.3,0.1c-0.1,0-0.2,0.1-0.2,0.1
						c0,0-0.1,0-0.1,0.1c-0.1,0-0.1,0-0.2,0c-0.2,0-0.3,0-0.5,0.1c-0.2,0-0.3,0-0.5,0.1c-0.3,0-0.5,0.2-0.7,0.3
						c-0.1,0.1-0.3,0.1-0.4,0.2c-0.1,0-0.1,0-0.2,0.1c0,0-0.1,0-0.1,0c-0.1,0-0.1,0-0.2,0"/>
				</g>
				<g>
					<path class="st49" d="M256.6,348.8C256.6,348.8,256.6,348.8,256.6,348.8c-0.1,0-0.1,0-0.2,0c0,0-0.1,0-0.1,0c0,0-0.1,0-0.1,0
						c0,0-0.1,0-0.1,0c0,0-0.1,0-0.1,0c0,0-0.1,0-0.1,0c0,0-0.1,0-0.1,0c0,0,0,0,0,0c0,0,0,0-0.1,0c0,0-0.1,0-0.1,0c0,0,0,0-0.1,0
						c0,0,0,0,0,0c0,0-0.1,0-0.1,0c-0.1,0-0.1,0-0.2,0c-0.1,0-0.2,0-0.2,0c-0.1,0-0.1,0-0.2,0"/>
				</g>
				<g>
					<path class="st49" d="M254.5,349.5c-0.1,0-0.1,0-0.2,0c-0.1,0-0.2,0-0.4,0c-0.1,0-0.3,0.1-0.4,0c0,0,0,0,0.1,0c0,0,0.1,0,0.1,0
						c0.1,0,0.1,0,0.1-0.1c0.1,0,0.2-0.1,0.3-0.1c0.1,0,0.1-0.1,0.2-0.1c0,0,0.1,0,0.1-0.1c0,0,0.1,0,0.1,0c0,0,0,0,0.1,0
						c0,0,0,0-0.1,0c0,0-0.1,0-0.1,0c-0.1,0-0.2,0-0.3,0c-0.2,0-0.4,0.1-0.7,0.1c-0.2,0-0.3,0-0.5,0.1c-0.1,0-0.2,0-0.2,0
						c-0.1,0-0.1,0-0.2,0c-0.2,0-0.3-0.1-0.5-0.1c-0.1,0-0.2,0-0.3,0c-0.1,0-0.2,0-0.3,0c0,0-0.1,0-0.1,0c0,0-0.1,0-0.1,0
						c0,0-0.1,0-0.1,0c0,0-0.1,0-0.1,0c-0.1,0-0.2,0-0.3-0.1c-0.1,0-0.1,0-0.2,0c-0.1,0-0.1,0-0.2,0c0,0,0,0-0.1,0c0,0,0,0-0.1,0"/>
				</g>
				<g>
					<path class="st49" d="M249.7,348.5c-0.1,0-0.2,0-0.3,0c0,0-0.1,0-0.1,0c0,0,0,0-0.1,0c0,0-0.1,0-0.1,0c0,0-0.1,0-0.1,0
						c-0.1,0-0.1,0-0.2,0c-0.1,0-0.1,0-0.2,0c0,0-0.1,0-0.1,0c0,0-0.1,0-0.1,0c-0.1,0-0.1,0-0.2,0c-0.1,0-0.1,0-0.2,0
						c-0.2,0-0.3,0-0.5-0.1c-0.1,0-0.1,0-0.2,0c-0.1,0-0.1,0-0.2,0c-0.1,0-0.1,0-0.2,0c-0.1,0-0.2,0-0.2-0.1c-0.1,0-0.1,0-0.2,0
						c-0.1,0-0.1,0-0.2,0c-0.1,0-0.2,0-0.3,0c-0.1,0-0.2,0-0.3-0.1c-0.1,0-0.1,0-0.2,0c-0.1,0-0.1,0-0.2,0c0,0-0.1,0-0.1,0
						c0,0-0.1,0-0.1,0c0,0,0,0-0.1,0c0,0-0.1,0-0.1,0c-0.1,0-0.2,0-0.3-0.1c-0.1,0-0.1,0-0.2,0c-0.1,0-0.1,0-0.2,0
						c-0.1,0-0.1,0-0.2,0c0,0-0.1,0-0.1,0"/>
				</g>
				<g>
					<path class="st49" d="M243.4,347.6c-0.1,0-0.2,0-0.2,0c-0.1,0-0.1,0-0.2,0c-0.1,0-0.1,0-0.2,0c-0.1,0-0.1,0-0.2,0
						c0,0-0.1,0-0.1,0c-0.1,0-0.2,0-0.2,0c0,0,0,0-0.1,0c0,0-0.1,0-0.1,0c0,0-0.1,0-0.1,0c0,0,0,0,0,0c0,0,0,0,0,0c0,0-0.1,0-0.1,0
						c0,0,0.1,0,0.1,0c0.1,0,0.1,0,0.2,0c0.1,0,0.2,0,0.2,0c0.1,0,0.1,0,0.2,0c0.1,0,0.1,0,0.2,0c0,0,0.1,0,0.1,0c0,0-0.1,0-0.1,0
						c-0.1,0-0.1-0.1-0.2-0.1c-0.1,0-0.2-0.1-0.2-0.1c-0.1,0-0.2-0.1-0.4-0.1c-0.2,0-0.4-0.1-0.5-0.1c-0.1,0-0.3-0.1-0.4-0.1
						c-0.1,0-0.2-0.1-0.3-0.1c-0.1,0-0.1,0-0.2,0c-0.1,0-0.1,0-0.2,0c0,0-0.1,0-0.1,0c0,0-0.1,0-0.1,0c0,0-0.1,0-0.1-0.1
						c0,0-0.1,0-0.1,0c-0.1,0-0.2,0-0.2,0c0,0-0.1,0-0.1,0c0,0,0,0-0.1,0c0,0,0,0-0.1,0c0,0-0.1,0-0.1,0c0,0-0.1,0-0.1,0
						c0,0-0.1,0-0.1,0c0,0-0.1,0-0.1,0c0,0,0,0-0.1,0c0,0-0.1,0-0.1,0c-0.1,0-0.1-0.1-0.2-0.1c0,0-0.1,0-0.1,0c0,0-0.1,0-0.1,0
						c-0.1,0-0.1,0-0.2,0c-0.1,0-0.1,0-0.2,0c0,0-0.1,0-0.1,0c0,0,0,0-0.1,0c0,0,0,0-0.1,0c0,0-0.1-0.1-0.1-0.1"/>
				</g>
				<g>
					<path class="st49" d="M237.4,345.8C237.4,345.8,237.4,345.8,237.4,345.8c-0.1,0-0.1,0-0.1,0c0,0-0.1,0-0.1,0
						c-0.1,0-0.1,0-0.2,0c-0.1,0-0.2,0-0.3-0.1c0,0-0.1,0-0.1,0c0,0,0,0-0.1,0c0,0,0,0-0.1,0c-0.1,0-0.2,0-0.4-0.1
						c0,0-0.1,0-0.1-0.1c0,0-0.1,0-0.1,0c0,0-0.1,0-0.1,0c0,0,0,0-0.1,0c0,0,0,0-0.1,0c0,0-0.1,0-0.1,0c0,0-0.1,0-0.1,0c0,0,0,0,0,0
						c0,0,0,0,0,0c0,0-0.1-0.1-0.1-0.1c0,0-0.1,0-0.1,0c-0.1,0-0.1,0-0.2,0c-0.1,0-0.2,0-0.4-0.1c0,0-0.1,0-0.1,0c0,0-0.1,0-0.1,0
						c0,0-0.1,0-0.1-0.1c-0.1,0-0.1-0.1-0.2-0.1c0,0-0.1,0-0.1-0.1c-0.1,0-0.1,0-0.2-0.1c0,0-0.1,0-0.1,0c0,0-0.1,0-0.1,0
						c0,0,0,0-0.1,0c0,0,0,0-0.1,0c0,0-0.1,0-0.1-0.1c0,0,0,0-0.1,0c0,0-0.1,0-0.1-0.1c0,0-0.1,0-0.1,0c0,0-0.1,0-0.1-0.1
						c-0.1,0-0.1,0-0.2-0.1c-0.1,0-0.1-0.1-0.2-0.1c0,0-0.1,0-0.1,0c0,0-0.1,0-0.1,0c0,0-0.1,0-0.1,0c0,0-0.1,0-0.1,0
						c-0.1,0-0.2,0-0.2-0.1c0,0-0.1,0-0.1,0c0,0,0,0-0.1,0c0,0-0.1,0-0.1-0.1"/>
				</g>
				<g>
					<path class="st49" d="M231.7,343.7c0,0-0.1,0-0.1,0c0,0,0,0-0.1,0c0,0-0.1,0-0.1,0c-0.2-0.1-0.4-0.2-0.6-0.3c0,0-0.1,0-0.1-0.1
						c0,0,0,0-0.1,0c0,0,0,0-0.1,0c-0.1,0-0.2-0.1-0.3-0.1c0,0-0.1,0-0.1-0.1c0,0-0.1,0-0.1-0.1c0,0-0.1,0-0.1-0.1
						c0,0-0.1-0.1-0.1-0.1c0,0-0.1,0-0.1,0c0,0-0.1,0-0.1-0.1c-0.1,0-0.2-0.1-0.3-0.1c-0.1,0-0.2-0.1-0.3-0.1c-0.1,0-0.1,0-0.2-0.1
						c0,0-0.1,0-0.1,0c-0.1,0-0.1-0.1-0.2-0.1c-0.1,0-0.1,0-0.2-0.1c-0.1,0-0.2-0.1-0.3-0.1c0,0-0.1,0-0.1,0c0,0-0.1,0-0.1-0.1
						c0,0-0.1,0-0.1-0.1c0,0,0,0,0,0c0,0,0,0-0.1,0c0,0-0.1,0-0.1-0.1c0,0-0.1,0-0.1,0c0,0-0.1,0-0.1,0c-0.1,0-0.1,0-0.2,0
						c-0.1,0-0.1-0.1-0.2-0.1"/>
				</g>
				<g>
					<path class="st49" d="M226.7,341.4C226.7,341.4,226.6,341.4,226.7,341.4c-0.1,0-0.1,0-0.2-0.1c-0.1,0-0.1,0-0.2-0.1
						c-0.1,0-0.2-0.1-0.2-0.1c-0.1,0-0.1,0-0.2-0.1c-0.1,0-0.1,0-0.2-0.1c0,0-0.1,0-0.1,0c0,0-0.1,0-0.1-0.1c0,0-0.1,0-0.1-0.1
						c0,0-0.1,0-0.1,0c-0.1,0-0.1-0.1-0.2-0.1c0,0-0.1-0.1-0.1-0.1c-0.1,0-0.2-0.1-0.3-0.1c-0.1,0-0.2-0.1-0.3-0.1c0,0-0.1,0-0.1,0
						c0,0-0.1,0-0.1-0.1c0,0-0.1,0-0.1-0.1c0,0-0.1,0-0.1,0c0,0,0,0-0.1,0c0,0-0.1,0-0.1-0.1c-0.3-0.1-0.5-0.2-0.8-0.4
						c-0.1,0-0.2-0.1-0.3-0.1c-0.1,0-0.1-0.1-0.2-0.1c-0.1,0-0.1-0.1-0.2-0.1c0,0-0.1,0-0.1-0.1c0,0-0.1,0-0.1,0c0,0-0.1,0-0.1-0.1
						c0,0-0.1,0-0.1,0c0,0-0.1,0-0.1,0c0,0,0,0-0.1,0"/>
				</g>
				<g>
					<path class="st49" d="M222.1,338.9c0,0-0.1,0-0.1,0c0,0-0.1,0-0.1,0c0,0-0.1,0-0.1,0c0,0-0.1,0-0.1-0.1c0,0-0.1,0-0.1-0.1
						c0,0-0.1,0-0.1-0.1c-0.1,0-0.1-0.1-0.2-0.1c-0.1,0-0.1-0.1-0.2-0.1c-0.1-0.1-0.2-0.1-0.3-0.2c-0.1,0-0.2-0.1-0.3-0.1
						c0,0-0.1-0.1-0.1-0.1c-0.1,0-0.1,0-0.2-0.1c0,0,0,0-0.1,0c0,0,0,0-0.1,0c0,0-0.1,0-0.1-0.1c-0.1,0-0.2-0.1-0.2-0.2
						c0,0-0.1-0.1-0.1-0.1c0,0-0.1-0.1-0.1-0.1c0,0-0.1-0.1-0.1-0.1c0,0-0.1-0.1-0.1-0.1c-0.1-0.1-0.3-0.1-0.4-0.2
						c-0.1,0-0.1-0.1-0.2-0.1c-0.1,0-0.1,0-0.2-0.1c0,0-0.1,0-0.2-0.1c0,0-0.1,0-0.1-0.1c0,0-0.1,0-0.1,0c0,0-0.1,0-0.1,0
						c0,0-0.1,0-0.1,0c0,0-0.1,0-0.1,0c0,0-0.1,0-0.1-0.1"/>
				</g>
				<g>
					<path class="st49" d="M217.5,336.2C217.4,336.2,217.4,336.2,217.5,336.2c-0.1,0-0.1,0-0.1-0.1c0,0-0.1,0-0.1,0
						c-0.1,0-0.1,0-0.1-0.1c-0.2-0.1-0.3-0.3-0.5-0.4c-0.1,0-0.1-0.1-0.2-0.1c0,0-0.1,0-0.1-0.1c0,0-0.1-0.1-0.1-0.1
						c-0.1,0-0.1-0.1-0.2-0.1c0,0-0.1,0-0.1,0c0,0-0.1,0-0.1-0.1c0,0-0.1-0.1-0.1-0.1c0,0-0.1,0-0.1-0.1c0,0-0.1,0-0.1,0
						c0,0,0,0-0.1,0c-0.1,0-0.2-0.1-0.3-0.1c0,0,0,0-0.1,0c0,0-0.1,0-0.1,0c0,0,0,0-0.1,0c0,0,0,0-0.1,0c0,0-0.1-0.1-0.1-0.1
						c0,0,0,0,0,0c0,0,0,0,0-0.1c-0.1-0.1-0.1-0.2-0.2-0.3c0,0-0.1-0.1-0.1-0.2c0,0,0,0,0-0.1c0,0,0,0,0,0"/>
				</g>
				<g>
					<path class="st49" d="M213.9,333.8C213.9,333.8,213.8,333.8,213.9,333.8c-0.1,0-0.1,0-0.1,0c-0.1,0-0.1,0-0.2-0.1
						c0,0-0.1-0.1-0.1-0.1c0,0-0.1-0.1-0.1-0.1c0-0.1-0.1-0.1-0.2-0.1c0,0,0,0,0,0c0,0,0,0-0.1-0.1c0,0,0,0-0.1,0c0,0-0.1,0-0.1,0
						c0,0,0,0-0.1,0c0,0-0.1,0-0.1,0c-0.1,0-0.1-0.1-0.2-0.1c0,0-0.1-0.1-0.1-0.1c0,0-0.1,0-0.1-0.1c-0.1,0-0.1-0.1-0.2-0.1
						c-0.1-0.1-0.2-0.1-0.3-0.2c0,0-0.1,0-0.1-0.1c0,0-0.1-0.1-0.1-0.1c0,0,0,0,0-0.1c0,0,0,0,0,0c0,0,0-0.1,0-0.1"/>
				</g>
				<g>
					<path class="st49" d="M211.4,332C211.4,332,211.4,332,211.4,332c-0.1,0-0.1,0-0.2-0.1c-0.1,0-0.2-0.1-0.3-0.1
						c0,0-0.1,0-0.1-0.1c0,0-0.1-0.1-0.1-0.1c0,0,0,0-0.1-0.1c0,0,0-0.1-0.1-0.1c-0.1-0.1-0.1-0.2-0.2-0.2c-0.1,0-0.1-0.1-0.2-0.1
						c0,0-0.1,0-0.1-0.1c0,0-0.1,0-0.1-0.1c0,0-0.1,0-0.1-0.1c0,0-0.1,0-0.1-0.1c0,0-0.1-0.1-0.2-0.1c0,0-0.1-0.1-0.1-0.1
						c0,0,0,0,0,0c0,0,0,0-0.1-0.1c0,0,0,0,0-0.1c0,0,0,0,0-0.1c0,0,0-0.1-0.1-0.1c0,0,0,0,0,0c0,0,0,0,0,0c0,0,0-0.1-0.1-0.1
						c0,0,0,0,0,0c0,0,0,0,0,0c0,0,0,0,0,0c0,0-0.1,0-0.1-0.1"/>
				</g>
				<g>
					<path class="st49" d="M208.7,329.7C208.7,329.7,208.7,329.7,208.7,329.7c0,0-0.1-0.1-0.1-0.1c0,0-0.1,0-0.1,0c0,0-0.1,0-0.1,0
						c0,0-0.1,0-0.1-0.1c0,0-0.1,0-0.1,0c0,0,0,0-0.1-0.1c0,0,0,0,0,0c0,0,0,0,0,0c0,0,0,0-0.1-0.1c0,0,0,0,0,0c0,0,0,0,0,0
						c0-0.1-0.1-0.1-0.1-0.2c0,0,0-0.1-0.1-0.1c0,0,0-0.1-0.1-0.1c0-0.1-0.1-0.1-0.1-0.2c0,0,0,0-0.1-0.1c0,0,0,0-0.1-0.1
						c0,0,0,0-0.1-0.1c0,0,0,0-0.1-0.1c0,0,0,0,0-0.1c0,0,0,0,0-0.1c0,0,0-0.1-0.1-0.1c0,0,0,0,0-0.1c0,0,0,0,0,0c0,0,0,0,0,0
						c0,0-0.1-0.1-0.1-0.1c0,0,0,0,0-0.1c0,0,0,0,0,0c0,0,0-0.1-0.1-0.1c0,0,0,0-0.1-0.1c0,0,0,0,0-0.1c0,0,0,0-0.1-0.1
						c0,0,0,0,0-0.1c0-0.1-0.1-0.1-0.1-0.1c0,0,0,0-0.1,0c0,0,0,0,0,0c0,0,0,0,0,0"/>
				</g>
				<g>
					<path class="st49" d="M206.3,327.3C206.2,327.3,206.2,327.3,206.3,327.3c-0.1,0-0.1,0-0.1,0c0,0-0.1-0.1-0.1-0.1
						C206.1,327.2,206.2,327.2,206.3,327.3C206.2,327.3,206.2,327.3,206.3,327.3C206.2,327.4,206.3,327.4,206.3,327.3
						c0.1,0.1,0.1,0.1,0.1,0.1c0,0,0,0,0,0c0,0,0.1,0,0.1,0c0,0,0,0,0.1,0c0,0,0,0,0-0.1c0,0,0.1-0.1,0.1-0.1c0,0,0,0,0.1,0
						c0,0,0,0,0,0"/>
				</g>
				<g>
					<path class="st49" d="M205.8,326.7c0,0-0.1,0-0.1,0c0,0,0,0-0.1,0c0,0,0,0-0.1,0c0,0-0.2-0.1-0.1-0.1c0,0,0.1,0,0.1,0
						c0,0,0,0,0,0.1c0,0,0,0,0,0c0,0,0,0,0,0c0,0,0,0,0,0C205.7,326.8,205.7,326.8,205.8,326.7C205.8,326.8,205.8,326.7,205.8,326.7
						c-0.1,0-0.1-0.1-0.1-0.1c0,0,0-0.1,0-0.1c0,0,0,0,0-0.1c0,0,0,0,0-0.1c0,0,0,0,0-0.1c0,0,0-0.1-0.1-0.1c0,0,0-0.1-0.1-0.1
						c0,0-0.1,0-0.1,0c0,0-0.1,0-0.1,0c0,0-0.1,0-0.1-0.1c0,0,0.1,0,0.1,0c0,0,0,0,0,0c0,0,0,0,0,0.1c0,0,0,0.1,0,0.1c0,0,0,0,0,0
						c0,0,0,0-0.1,0c0,0,0,0,0,0c0,0,0,0,0-0.1c0,0,0,0,0-0.1c0,0,0,0,0,0c0,0-0.1-0.1-0.1-0.1c0,0,0-0.1-0.1-0.1c0,0,0,0-0.1,0
						c0,0,0,0-0.1,0c0,0,0,0,0,0c0,0,0,0,0,0c0,0,0-0.1-0.1-0.1c0,0,0,0,0,0c0,0,0,0,0,0c0,0,0,0,0,0c0,0,0,0,0,0c0,0,0,0,0-0.1
						c0,0,0,0-0.1,0c0,0-0.1,0-0.1,0c0,0,0,0,0-0.1c0,0,0,0,0-0.1c0,0,0,0,0,0c0,0,0,0,0,0c0,0,0,0,0-0.1c0,0,0,0,0,0c0,0,0,0,0,0"
						/>
				</g>
				<g>
					<path class="st49" d="M204,324.8C203.9,324.8,203.9,324.8,204,324.8"/>
				</g>
				<g>
					<path class="st49" d="M203.5,324.5C203.5,324.5,203.5,324.5,203.5,324.5C203.5,324.5,203.5,324.5,203.5,324.5
						c0.1,0,0.1,0,0.1,0c0,0,0.1,0,0.1,0.1c0,0,0,0,0.1,0c0,0,0,0,0.1,0c0,0,0,0,0,0.1c0,0,0.1,0,0.1,0c0,0,0,0,0,0"/>
				</g>
				<g>
					<path class="st49" d="M203.7,324.7C203.6,324.7,203.6,324.7,203.7,324.7c-0.1-0.1-0.1-0.1-0.1-0.2c0,0,0-0.1,0-0.1
						c0,0,0,0-0.1-0.1c0,0,0,0-0.1-0.1c0,0,0-0.1-0.1-0.1c0,0,0-0.1-0.1-0.1c0,0,0,0,0-0.1c0,0,0,0-0.1-0.1c0,0,0,0,0-0.1
						c0,0,0,0,0,0c0,0,0,0,0-0.1c0,0,0,0,0-0.1c0,0,0-0.1,0-0.1c0,0,0-0.1,0-0.1c0,0,0,0,0-0.1c0,0,0,0,0,0"/>
				</g>
				<g>
					<path class="st49" d="M202.7,323.4C202.7,323.4,202.7,323.3,202.7,323.4C202.7,323.3,202.7,323.4,202.7,323.4
						C202.7,323.4,202.7,323.4,202.7,323.4C202.7,323.4,202.7,323.4,202.7,323.4c0.1,0.1,0.1,0.1,0.1,0.1c0,0,0,0.1,0.1,0.1
						c0,0,0,0,0,0c0,0,0,0,0.1,0c0,0,0.1,0,0.1,0c0,0,0.1,0,0.1,0c0,0,0,0,0,0c0,0,0,0,0,0c0,0,0,0,0.1,0c0,0,0,0,0,0"/>
				</g>
				<g>
					<path class="st49" d="M202.1,322.6"/>
				</g>
				<g>
					<path class="st49" d="M202.7,323.5"/>
				</g>
				<g>
					<path class="st49" d="M202.2,323"/>
				</g>
				<g>
					<path class="st49" d="M202.3,323.1"/>
				</g>
				<g>
					<path class="st49" d="M187.6,255C187.6,255,187.6,255,187.6,255C187.6,255,187.6,255,187.6,255
						C187.6,255,187.6,255.1,187.6,255c0,0.1,0,0.1,0,0.1c0,0,0,0,0,0c0,0,0,0,0,0c0,0,0,0,0,0c0,0,0,0.1,0,0.1"/>
				</g>
				<g>
					<path class="st49" d="M187.7,254.7C187.6,254.7,187.7,254.7,187.7,254.7C187.7,254.7,187.7,254.7,187.7,254.7"/>
				</g>
				<g>
					<path class="st49" d="M187.7,254.6C187.7,254.6,187.7,254.6,187.7,254.6C187.7,254.5,187.7,254.5,187.7,254.6
						C187.7,254.5,187.7,254.5,187.7,254.6c0-0.1,0-0.1,0-0.1c0,0,0,0,0-0.1c0,0,0,0,0,0c0,0,0,0,0,0c0,0,0,0,0,0c0,0,0,0,0,0
						c0,0,0,0,0,0c0,0,0,0,0,0c0,0,0,0,0-0.1c0,0,0,0,0,0c0,0,0,0,0,0"/>
				</g>
				<g>
					<path class="st49" d="M187.7,254.1C187.7,254.1,187.7,254.1,187.7,254.1C187.7,254,187.7,254,187.7,254.1c0-0.1,0-0.1,0.1-0.1
						c0,0,0,0,0,0c0,0,0,0,0,0c0,0,0,0,0,0c0,0,0-0.1,0-0.1"/>
				</g>
				<g>
					<path class="st49" d="M187.7,253.5"/>
				</g>
				<g>
					<path class="st49" d="M187.7,253.6"/>
				</g>
				<g>
					<path class="st49" d="M187.8,253.7"/>
				</g>
				<g>
					<path class="st49" d="M187.6,253.6"/>
				</g>
				<g>
					<path class="st49" d="M187.7,253.3C187.7,253.3,187.7,253.3,187.7,253.3C187.7,253.3,187.7,253.3,187.7,253.3
						c0-0.1,0-0.1,0-0.1c0,0,0,0,0-0.1c0,0,0,0,0-0.1c0,0,0,0,0-0.1c0,0,0,0,0-0.1c0,0,0,0,0-0.1c0,0,0,0,0,0c0,0,0,0,0,0"/>
				</g>
				<g>
					<path class="st49" d="M187.8,252.9C187.8,252.9,187.8,252.9,187.8,252.9C187.8,252.8,187.8,252.8,187.8,252.9
						c0-0.1,0-0.1,0-0.1c0,0,0-0.1,0-0.1c0,0,0,0,0,0c0,0,0,0,0,0c0,0,0,0,0-0.1c0,0,0-0.1,0.1-0.1"/>
				</g>
				<g>
					<path class="st49" d="M187.9,253.1C187.9,253.1,187.9,253,187.9,253.1C187.9,253,187.9,253,187.9,253.1
						C187.9,253,187.9,253,187.9,253.1C187.9,253,187.9,253,187.9,253.1C187.9,253,187.8,253,187.9,253.1
						C187.8,253,187.8,253,187.9,253.1C187.8,253,187.8,253,187.9,253.1"/>
				</g>
				<g>
					<path class="st49" d="M187.7,253"/>
				</g>
				<g>
					<path class="st49" d="M187.9,252.5C187.9,252.5,187.9,252.5,187.9,252.5C187.9,252.5,187.9,252.5,187.9,252.5
						c0,0.1,0,0.2,0,0.2c0,0,0,0,0,0c0,0,0,0,0,0c0,0,0,0,0-0.1c0,0,0,0,0-0.1"/>
				</g>
				<g>
					<path class="st49" d="M187.6,255.4c0,0.1,0,0.1,0,0.2c0,0,0,0.1,0,0.1c0,0.1,0,0.1,0,0.2c0,0.1,0,0.1,0,0.2c0,0,0,0.1,0,0.1
						c0,0,0,0,0,0.1c0,0,0,0.1,0,0.1c0,0,0,0.1,0,0.1c0,0,0,0.1,0,0.1c0,0,0,0.1,0,0.1c0,0,0,0.1,0,0.1c0,0,0,0,0,0.1c0,0,0,0,0,0.1
						c0,0.1,0,0.1,0,0.2c0,0,0,0.1,0,0.1c0,0,0,0.1,0,0.1"/>
				</g>
				<g>
					<path class="st49" d="M187.5,259.1c0-0.1,0-0.1,0-0.2c0-0.1,0-0.1,0-0.2c0-0.1,0-0.2,0-0.3c0-0.1,0.1-0.2,0.1-0.3
						c0-0.1,0-0.1,0-0.2c0,0,0-0.1,0-0.1c0-0.1,0-0.1-0.1-0.1c0,0,0-0.1-0.1-0.1c-0.1,0,0,0.1,0,0.1c0,0,0,0.1,0,0.1"/>
				</g>
				<g>
					<path class="st49" d="M187.3,258c0,0,0,0.1,0,0.1c0,0,0,0,0,0c0,0,0,0.1,0,0.1"/>
				</g>
				<g>
					<path class="st49" d="M187.7,259.3c0,0.1-0.1,0.1-0.1,0.2c0,0,0,0,0,0.1c0,0,0,0.1,0,0.1c0,0,0-0.1,0-0.1c0-0.1,0-0.1,0-0.2
						c0,0,0-0.1,0-0.1c-0.1,0,0,0.1,0,0.1c0,0,0,0.1,0,0.1c0,0,0,0,0,0.1c0,0,0,0,0,0c0,0,0,0,0,0c0,0,0,0.1,0,0.1c0,0,0,0.1,0,0.1
						c0,0.1,0,0.2-0.1,0.3c0,0.1,0,0.1,0,0.2c0,0,0,0.1,0,0.1c0,0,0,0,0,0c0,0,0,0,0,0.1c0,0,0,0.1,0,0.1c0,0,0,0.1,0,0.1
						c0,0.1,0,0.2-0.1,0.2c0,0,0,0.1,0,0.1c0,0,0,0.1,0,0.1c0,0,0,0,0,0.1c0,0,0,0.1,0,0.1c0,0,0,0,0,0.1c0,0,0,0,0,0
						c0,0,0,0.1,0,0.1c0,0,0,0,0,0.1c0,0,0,0,0,0.1c0,0,0,0.1,0,0.1c0,0.1,0,0.1,0,0.2c0,0.1,0,0.2,0,0.3c0,0,0,0.1,0,0.1
						c0,0,0,0,0,0c0,0,0,0.1,0,0.1"/>
				</g>
				<g>
					<path class="st49" d="M188.3,262.5C188.3,262.5,188.2,262.5,188.3,262.5c-0.1,0.1-0.1,0.1-0.1,0.1c-0.1,0.1-0.2,0.1-0.2,0.2
						c-0.1,0.1-0.1,0.1-0.2,0.1c0,0,0,0-0.1,0c0,0,0,0,0,0c0,0-0.1-0.1-0.1-0.1c0,0-0.1-0.1-0.1-0.1c0,0,0-0.1,0-0.1c0,0,0,0,0-0.1
						c0,0,0,0,0,0c0,0-0.1,0-0.1,0c-0.1,0-0.2,0.1-0.2,0.2c0,0,0,0.1,0,0.2c0,0.1,0,0.1,0,0.2c0,0.1,0,0.3,0.1,0.4
						c0,0.1,0,0.2,0,0.3c0,0,0,0.1,0,0.1c0,0,0,0,0,0.1c0,0,0,0,0,0.1c0,0,0,0.1,0,0.1c0,0,0,0.1,0,0.1c0,0.1,0,0.2,0,0.2
						c0,0,0,0.1,0,0.1c0,0,0,0.1,0,0.1c0,0,0,0,0,0.1c0,0,0,0,0,0.1c0,0.1,0,0.1,0,0.2c0,0,0,0.1,0,0.1c0,0,0,0.1,0,0.1
						c0,0,0,0,0,0.1c0,0,0,0,0,0.1c0,0,0,0.1,0,0.1c0,0.1,0,0.3,0.1,0.4c0,0.1,0,0.2,0,0.2c0,0.1-0.1,0.2-0.1,0.3"/>
				</g>
				<g>
					<path class="st49" d="M188.2,266.4c-0.1,0.1-0.1,0.2-0.2,0.3c-0.1,0.1-0.1,0.2-0.2,0.2c0,0-0.1,0-0.1,0c-0.1,0-0.1,0-0.2-0.1
						c-0.1,0-0.1,0-0.2-0.1c0,0-0.1-0.1-0.1-0.1c0,0-0.1-0.1-0.1-0.1c0,0,0,0,0-0.1c0,0,0,0,0-0.1c0,0-0.1,0-0.1,0c0,0,0,0,0,0.1
						c0,0,0,0.1,0,0.1c0,0.1,0,0.1,0,0.2c0,0.2,0,0.3,0.1,0.5c0,0.1,0,0.2,0,0.2c0,0.1,0,0.2,0,0.3c0,0.1,0,0.3-0.1,0.5
						c0,0.1,0,0.1,0,0.2c0,0.1,0,0.2,0,0.2c0,0.2,0.1,0.4,0.1,0.5c0,0,0,0.1,0,0.1c0,0.1,0,0.1,0,0.2c0,0.1,0,0.2,0,0.2
						c0,0,0,0.1,0,0.1c0,0.1,0,0.1,0,0.2c0,0,0,0.1,0,0.1c0,0,0,0.1,0,0.1c0,0,0,0,0,0.1c0,0,0,0.1,0,0.1"/>
				</g>
				<g>
					<path class="st49" d="M188.1,271.4c-0.1,0-0.1-0.1-0.1-0.2c-0.1-0.1-0.1-0.1-0.2-0.2c-0.1-0.1-0.2-0.2-0.3-0.4
						c0,0,0-0.1-0.1-0.1c0,0-0.1,0-0.1,0c-0.1,0-0.2,0.1-0.2,0.1c0,0-0.1,0-0.1,0.1c0,0,0,0.1,0,0.1c0,0,0,0.1,0,0.1
						c0,0.1,0,0.1,0,0.2c0,0,0,0.1,0,0.1c0,0,0,0,0,0.1c0,0,0,0.1,0,0.1c0,0,0,0.1,0,0.1c0,0,0,0.1,0,0.1c0,0,0,0.1,0,0.1
						c0,0.1,0,0.1,0,0.2c0,0.1,0,0.1,0,0.2c0,0,0,0.1,0,0.1c0,0.1,0,0.2,0,0.3c0,0.2,0.1,0.5,0.1,0.7c0,0,0,0.1,0,0.1
						c0,0,0,0.1,0,0.1c0,0.1,0,0.2,0,0.2c0,0.1,0,0.2,0,0.3"/>
				</g>
				<g>
					<path class="st49" d="M188.6,275.3c0,0-0.1-0.1-0.1-0.1c-0.1-0.1-0.1-0.2-0.2-0.2c-0.1-0.1-0.1-0.1-0.2-0.2
						c-0.1,0-0.1-0.1-0.2-0.1c-0.1,0-0.1-0.1-0.2-0.1c-0.1,0-0.1,0-0.2,0c-0.1,0-0.1,0-0.2,0c0,0-0.1,0-0.1,0c0,0-0.1,0-0.1,0.1
						c0,0,0,0.1,0,0.1c0,0,0,0.1,0,0.1c0,0.1,0,0.2,0,0.2c0,0.1,0,0.1,0,0.2c0,0,0,0.1,0,0.1c0,0,0,0.1,0,0.1c0,0,0,0.1,0,0.1
						c0,0-0.1-0.1-0.1-0.1c0-0.1,0-0.2-0.1-0.4c0-0.2,0-0.3-0.1-0.5c0-0.1,0-0.1,0-0.2c0,0,0-0.1-0.1-0.1c0.1,0.4,0.1,0.8,0.2,1.3
						c0,0,0,0.1,0,0.1c0,0.1,0,0.1,0,0.2c0,0,0,0.1,0,0.1c0,0.1,0,0.1,0,0.2c0,0.1,0,0.3,0.1,0.4c0,0,0,0.1,0,0.1c0,0,0,0,0,0.1
						c0,0,0,0,0,0.1c0,0,0,0.1,0,0.1c0,0,0,0.1,0,0.1c0,0,0,0.1,0,0.1c0,0,0,0.1,0,0.1c0,0,0,0.1,0,0.1c0,0,0,0.1,0,0.1
						c0,0.1,0,0.2,0,0.3"/>
				</g>
				<g>
					<path class="st49" d="M188.3,278.5c-0.1,0-0.1,0-0.2-0.1c-0.1,0-0.2-0.1-0.2-0.1c-0.1,0-0.2-0.1-0.2-0.1
						c-0.1,0-0.1-0.1-0.1-0.1c0,0-0.1-0.1-0.2,0c0,0,0,0.1-0.1,0.2c0,0.1-0.1,0.2-0.1,0.3c0,0.1-0.1,0.2-0.2,0.3c0,0,0,0.1,0,0.2
						c0,0.1,0,0.1-0.1,0.2c0,0.1,0,0.2,0,0.2c0,0.1,0,0.2,0,0.2c0,0.1,0,0.2,0,0.3c0,0.1,0,0.2,0,0.3c0,0.2,0,0.4,0.1,0.5
						c0,0.3,0.1,0.5,0.1,0.8c0,0.1,0,0.1,0,0.2c0,0,0,0,0,0.1c0,0,0,0.1,0,0.1c0,0.1,0.1,0.1,0.1,0.2c0,0,0,0,0,0c0,0,0,0,0.1,0
						c0,0,0.1,0,0.1,0"/>
				</g>
				<g>
					<path class="st49" d="M189.4,282.3c0-0.1-0.1-0.1-0.2-0.1c-0.1,0-0.2-0.1-0.3-0.1c-0.1,0-0.1,0-0.2,0c-0.1,0-0.1,0-0.2,0
						c-0.2,0-0.3,0-0.5,0.1c-0.1,0-0.1,0-0.2,0.1c-0.1,0.1-0.1,0.2-0.2,0.3c0,0.1-0.1,0.2-0.2,0.3c0,0.1-0.1,0.2-0.1,0.2
						c-0.1,0.1-0.1,0.2-0.1,0.3c0,0.1,0,0.1,0,0.2c0,0,0,0.1,0,0.1c0,0,0,0.1,0,0.1c0,0.2,0,0.3,0.1,0.5c0,0.1,0,0.2,0,0.3
						c0,0.1,0,0.1,0,0.2c0,0.1,0,0.1,0,0.2c0,0.1,0.1,0.2,0.1,0.3c0,0.1,0.1,0.1,0.1,0.2c0,0.1,0.1,0.1,0.1,0.2
						c0,0.1,0.1,0.2,0.1,0.2c0,0.2,0.1,0.3,0.1,0.5c0,0.1,0,0.2,0,0.2c0,0.1,0,0.2,0.1,0.2"/>
				</g>
				<g>
					<path class="st49" d="M189.1,287.2c0,0-0.1,0-0.1,0c-0.1,0-0.2,0-0.2-0.1c0,0-0.1,0-0.1,0c0,0-0.1,0-0.1,0
						c-0.1,0-0.1,0-0.2-0.1c-0.1,0-0.1,0-0.1,0.1c0,0.1,0,0.2-0.1,0.3c0,0.1,0,0.2-0.1,0.3c0,0.1,0,0.2-0.1,0.3c0,0.1,0,0.2-0.1,0.3
						c0,0,0,0.1,0,0.1c0,0,0,0.1,0,0.1c0,0.1,0,0.1,0,0.2c0,0,0,0.1,0,0.1c0-0.1,0-0.1,0-0.2c0-0.1,0-0.2,0-0.3
						c0-0.3-0.1-0.5-0.1-0.8c0-0.1,0-0.3-0.1-0.4c0,0,0-0.1,0-0.1c0,0,0-0.1,0-0.1c0,0,0,0.1,0,0.1c0,0.1,0,0.1,0.1,0.2
						c0,0.1,0.1,0.2,0.1,0.3c0,0.1,0,0.2,0.1,0.3c0,0.3,0.1,0.7,0.1,1c0,0.1,0,0.2,0,0.3c0,0.1,0.1,0.2,0.1,0.3
						c0,0.1,0.1,0.1,0.1,0.2c0,0.1,0,0.1,0,0.2c0,0.1,0,0.1,0.1,0.2c0,0,0,0.1,0,0.1c0,0.1,0,0.2,0,0.3c0,0.2,0.1,0.4,0.1,0.6
						c0,0.1,0,0.2,0,0.3c0,0,0,0.1,0,0.1c0,0,0,0,0,0c0,0,0,0.1,0,0.1"/>
				</g>
				<g>
					<path class="st49" d="M189.9,291.7c-0.1-0.1-0.2-0.1-0.2-0.1c-0.1-0.1-0.2-0.1-0.4-0.1c-0.1,0-0.1,0-0.2,0c0,0-0.1,0-0.1,0
						c-0.1,0-0.1,0.2-0.1,0.2c0,0,0,0.1,0,0.1c0,0,0,0.1,0,0.1c0,0,0,0.1,0,0.1c0,0,0,0.1,0,0.1c0,0.1,0,0.1,0,0.2
						c0,0.1,0,0.1,0,0.2c0,0.1,0,0.2,0,0.4c0,0.3,0.1,0.6,0.1,0.8c0,0.2,0.1,0.3,0.1,0.5c0,0.1,0,0.1,0,0.2c0,0,0,0.1,0,0.1
						c0,0,0,0.1,0,0.1c0,0.1,0.1,0.1,0.1,0.2c0,0.1,0,0.1,0.1,0.2c0,0,0,0.1,0.1,0.1c0,0.1,0,0.1,0.1,0.2c0,0,0.1,0.1,0.1,0.1
						c0,0,0,0.1,0.1,0.1c0,0,0,0,0,0.1c0,0,0,0,0,0.1c0,0,0,0.1,0,0.1c0,0.1,0,0.2,0,0.3c0,0,0,0,0,0.1c0,0,0,0,0,0.1c0,0,0,0,0,0.1
						c0,0,0,0.1,0,0.1c0,0.1,0,0.2,0,0.2c0,0,0,0.1,0,0.1c0,0,0,0.1,0,0.1c0,0.1,0.1,0.2,0.1,0.3c0,0,0,0.1,0,0.1c0,0,0,0.1,0,0.1"
						/>
				</g>
				<g>
					<path class="st49" d="M191.2,297.8C191.2,297.8,191.2,297.7,191.2,297.8c-0.2-0.1-0.3-0.2-0.4-0.2c-0.1,0-0.2,0-0.3-0.1
						c-0.1,0-0.2,0-0.2,0c-0.1,0-0.2-0.1-0.3,0c0,0,0,0,0,0.1c0,0,0,0.1,0,0.1c0,0.1,0,0.2,0,0.3c0,0.1,0,0.1,0,0.2c0,0,0,0.1,0,0.1
						c0,0.1,0,0.1,0,0.2c0,0.1,0.1,0.2,0.2,0.3c0,0,0.1,0.1,0.1,0.2c0,0.1,0.1,0.1,0.1,0.2c0,0.1,0,0.1,0.1,0.2c0,0.1,0,0.1,0,0.2
						c0,0,0,0.1,0,0.1c0,0,0,0.1,0,0.1c0,0.1,0,0.1,0,0.2c0,0,0,0.1,0,0.1c0,0,0,0.1,0,0.1c0,0.1,0.1,0.1,0.1,0.2
						c0,0,0.1,0.1,0.1,0.1c0,0.1,0.1,0.1,0.1,0.2c0,0.1,0.1,0.1,0.1,0.2c0,0,0,0.1,0.1,0.1c0,0,0.1,0,0.1,0.1c0,0,0.1,0,0.1,0.1
						c0,0,0,0,0,0c0,0,0.1,0,0.1,0"/>
				</g>
				<g>
					<path class="st49" d="M192.8,301.9c0-0.1-0.1-0.1-0.2-0.1c-0.1-0.1-0.2-0.1-0.3-0.2c-0.1-0.1-0.2-0.1-0.3-0.2
						c-0.1,0-0.2-0.1-0.2-0.1c-0.1-0.1-0.2-0.1-0.2-0.2c0,0-0.1-0.1-0.1-0.1c0,0,0,0-0.1-0.1c0,0,0-0.1-0.1-0.1c0,0-0.1-0.1-0.1-0.1
						c0,0,0,0,0,0c0,0,0,0-0.1,0c0,0-0.1,0-0.1,0c0,0,0,0.1,0,0.1c0,0.1,0,0.2,0,0.3c0,0.1,0,0.1,0.1,0.2c0,0.1,0,0.1,0.1,0.2
						c0,0,0,0.1,0.1,0.1c0,0,0,0.1,0.1,0.1c0,0,0,0.1,0.1,0.1c0,0.1,0,0.1,0.1,0.2c0,0,0,0.1,0.1,0.1c0,0,0,0.1,0.1,0.1
						c0,0.1,0.1,0.1,0.1,0.2c0,0,0,0.1,0.1,0.1c0,0,0,0.1,0,0.1c0,0,0,0.1,0,0.1c0,0,0,0.1,0.1,0.1c0,0,0,0.1,0.1,0.1
						c0,0,0,0.1,0.1,0.1c0,0,0,0.1,0,0.1c0,0,0,0.1,0.1,0.1c0,0,0,0.1,0.1,0.1c0,0,0,0.1,0.1,0.1c0,0,0,0.1,0,0.1c0,0,0,0.1,0,0.1
						c0,0.1,0.1,0.1,0.1,0.2c0,0,0,0.1,0.1,0.1c0,0,0.1,0,0.1,0.1"/>
				</g>
				<g>
					<path class="st49" d="M193.2,303.8c0,0-0.1,0-0.1,0c-0.1,0-0.2,0-0.3-0.1c-0.1,0-0.2,0-0.2,0c-0.1,0-0.1,0-0.2,0
						c-0.1,0-0.1,0-0.2,0c0,0-0.1,0-0.1,0c0,0-0.1,0-0.1,0c0,0-0.1,0-0.1,0c0,0-0.1,0-0.1,0c0,0-0.1,0-0.1,0c0,0,0,0.1,0,0.1
						c0,0,0,0.1,0,0.1c0,0,0,0.1,0,0.1c0,0,0,0.1,0.1,0.1c0,0,0,0.1,0.1,0.1c0,0,0,0.1,0.1,0.1c0,0.1,0,0.1,0,0.2c0,0,0,0.1,0,0.1
						c0,0,0,0,0,0.1c0,0,0,0.1,0,0.1c0,0,0,0,0,0c0,0,0,0,0,0.1c0,0,0,0.1,0,0.1c0,0,0,0.1,0.1,0.1c0,0,0,0.1,0.1,0.1
						c0,0,0.1,0.1,0.1,0.1c0,0.1,0.1,0.1,0.1,0.2c0,0,0,0,0,0.1c0,0,0,0,0,0.1c0,0,0,0.1,0,0.1c0,0.1,0.1,0.1,0.1,0.2
						c0,0,0,0.1,0,0.1c0,0,0,0.1,0.1,0.2c0,0,0,0.1,0.1,0.1c0,0,0.1,0.1,0.1,0.1c0.1,0.1,0.1,0.2,0.2,0.2c0,0,0.1,0.1,0.1,0.1
						c0,0,0.1,0.1,0.2,0.1"/>
				</g>
				<g>
					<path class="st49" d="M193.8,307.3C193.8,307.3,193.8,307.3,193.8,307.3c-0.1-0.1-0.1-0.1-0.2-0.1c0,0-0.1,0-0.1,0
						c-0.1,0-0.1-0.1-0.2-0.1c0,0-0.1,0-0.1-0.1c0,0-0.1-0.1-0.1-0.1c0,0-0.1-0.1-0.2,0c0,0,0,0.1,0.1,0.1c0,0,0,0,0.1,0.1
						c0,0,0,0,0.1,0.1c0,0,0,0.1,0.1,0.1c0,0.1,0,0.1,0.1,0.2c0,0,0,0.1,0,0.1c0,0,0,0.1,0,0.1c0,0.1,0,0.1,0.1,0.2c0,0,0,0.1,0,0.1
						c0,0.1,0.1,0.1,0.1,0.2c0,0.1,0.1,0.1,0.1,0.2c0,0,0,0,0,0.1c0,0,0,0,0,0.1c0,0.1,0.1,0.1,0.1,0.2c0,0.1,0,0.1,0.1,0.2
						c0,0.1,0,0.1,0,0.2c0,0.1,0,0.2,0,0.3c0,0.1,0,0.1,0.1,0.1c0,0,0,0,0,0.1c0,0,0,0,0,0c0,0,0,0,0,0c0,0,0,0,0,0.1c0,0,0,0,0,0.1
						c0,0,0,0,0,0.1c0,0,0,0,0,0c0,0,0,0,0,0.1c0,0,0,0.1,0.1,0.1c0,0,0,0.1,0.1,0.1c0,0,0,0.1,0.1,0.1c0,0,0,0,0,0c0,0,0,0,0.1,0
						c0,0,0,0.1,0.1,0.1"/>
				</g>
				<g>
					<path class="st49" d="M195.4,310.6C195.4,310.6,195.3,310.6,195.4,310.6c-0.1,0-0.1,0-0.1,0c0,0-0.1,0-0.1,0
						c-0.1,0-0.1,0-0.2,0.1c0,0-0.1,0-0.1,0"/>
				</g>
				<g>
					<path class="st49" d="M194.7,310.5"/>
				</g>
				<g>
					<path class="st49" d="M194.8,310.6c0,0.1,0,0.1,0,0.2c0,0,0,0.1,0,0.1c0,0,0,0.1,0,0.1c0,0,0,0.1,0.1,0.1c0,0,0,0,0.1,0.1
						c0,0,0,0,0,0.1c0,0,0.1,0.1,0.1,0.1c0,0,0,0.1,0,0.1c0,0,0,0,0,0.1c0,0,0,0.1,0,0.1c0,0,0,0.1,0,0.1c0,0.1,0,0.1,0,0.2
						c0,0.1,0.1,0.1,0.1,0.2c0,0,0,0,0,0.1c0,0,0,0.1,0.1,0.1c0,0.1,0.1,0.1,0.1,0.2c0,0,0.1,0.1,0.1,0.1c0,0,0,0.1,0,0.1
						c0,0,0,0.1,0.1,0.1c0,0,0,0,0,0c0,0,0,0,0,0.1c0,0,0,0,0,0.1c0,0,0,0.1,0.1,0.1c0,0,0,0.1,0.1,0.1c0,0,0,0.1,0.1,0.1
						c0,0,0,0.1,0,0.1c0,0.1,0,0.1,0,0.2c0,0.1,0,0.1,0.1,0.2c0,0,0,0.1,0,0.1c0,0,0.1,0.1,0.1,0.1c0,0,0,0,0,0c0,0,0,0,0,0
						c0.1,0.1,0.1,0.2,0.2,0.3c0,0,0.1,0,0.1,0.1c0,0,0.1,0.1,0.1,0.1c0,0.1,0.1,0.1,0.1,0.2c0,0,0.1,0.1,0.1,0.1c0,0,0,0,0.1,0
						c0,0,0.1,0,0.1,0c0,0,0.1,0,0.1,0.1c0,0,0,0,0.1,0c0,0,0.1,0,0.1,0c0,0,0,0,0,0c0,0,0,0,0.1,0c0.1,0,0.1,0.1,0.2,0.2
						c0,0,0.1,0.1,0.1,0.1c0,0,0,0,0,0.1c0,0,0,0.1,0.1,0.1"/>
				</g>
				<g>
					<path class="st49" d="M196.7,314.7C196.7,314.7,196.7,314.7,196.7,314.7c0.1,0.1,0.1,0.1,0.1,0.1c0,0,0,0,0.1,0.1
						c0,0,0,0,0,0.1c0,0,0,0.1,0.1,0.1c0,0,0,0.1,0.1,0.1c0,0,0,0.1,0,0.1c0,0,0,0,0,0c0,0,0,0,0.1,0c0,0,0,0,0.1,0c0,0,0,0,0,0
						c0,0,0,0,0.1,0.1c0,0,0,0,0,0c0,0,0,0,0,0c0,0,0,0,0.1,0.1c0,0,0.1,0.1,0.1,0.1c0,0,0,0,0.1,0.1c-0.1,0-0.1-0.1-0.1-0.1
						c0,0,0-0.1-0.1-0.1c0,0-0.1-0.1-0.1-0.1c0,0-0.1,0-0.1-0.1c0,0-0.1,0-0.1,0c0,0-0.1,0-0.1-0.1c0,0,0,0.1,0.1,0.1
						c0,0,0.1,0.1,0.1,0.1c0,0,0,0,0.1,0.1c0,0,0,0.1,0.1,0.1c0,0,0.1,0.1,0.1,0.1c0,0,0.1,0,0.1,0c0,0,0,0.1,0.1,0.1
						c0,0,0,0.1,0,0.1c0,0,0.1,0.1,0.1,0.1c0,0,0,0.1,0,0.1c0,0,0,0-0.1,0c0-0.1-0.1-0.1-0.1-0.2c0,0,0,0,0-0.1c0,0-0.1,0-0.1-0.1
						c0,0,0.1,0.1,0.1,0.1c0,0,0,0.1,0.1,0.1c0,0,0.1,0.1,0.1,0.1c0,0,0,0.1,0.1,0.1c0,0.1,0.1,0.1,0.1,0.2c0,0,0,0.1,0,0.1
						c0,0.1,0,0.1,0.1,0.2c0,0.1,0.1,0.1,0.1,0.1c0,0,0,0,0,0c0,0.1,0,0.1,0,0.2c0,0,0,0.1,0.1,0.1c0,0.1,0.1,0,0.2,0.1c0,0,0,0,0,0
						c0,0,0,0,0,0c0,0,0,0,0,0c0,0,0,0,0,0c0,0,0,0,0.1,0.1c0,0,0,0.1,0.1,0.1c0,0,0,0,0,0.1c0,0,0,0,0,0.1c0,0,0.1,0.1,0.1,0.1
						c0,0,0,0,0.1,0.1c0,0,0,0,0,0.1c0,0,0,0,0,0c0,0,0,0,0,0c0,0,0,0,0,0.1c0,0,0.1,0.1,0.1,0.1c0,0.1,0.1,0.1,0.1,0.2
						c0,0,0,0.1,0,0.1c0,0,0,0,0,0.1c0,0,0.1,0.1,0.1,0.1c0,0,0,0.1,0.1,0.1c0,0,0,0,0,0.1"/>
				</g>
			</g>
		</g>
		<g>
			
				<linearGradient id="SVGID_20_" gradientUnits="userSpaceOnUse" x1="36.3746" y1="340.6751" x2="73.3786" y2="296.4373" gradientTransform="matrix(-0.9919 0.1272 0.1272 0.9919 232.1672 -16.7232)">
				<stop  offset="0" style="stop-color:#6D1420"/>
				<stop  offset="0.1574" style="stop-color:#69131F"/>
				<stop  offset="0.3212" style="stop-color:#5C111B"/>
				<stop  offset="0.4874" style="stop-color:#480C14"/>
				<stop  offset="0.5894" style="stop-color:#37090F"/>
				<stop  offset="1" style="stop-color:#110104"/>
			</linearGradient>
			<path class="st50" d="M239.8,327.6c0,0-12.9-9.3-19.2-17.8c-6.3-8.4-11.6-14.5-23.6-17.9c-0.5-0.1-1-0.3-1.4-0.4
				c2.6,0.1,6.1,0.9,10.1,1.8c4.7,1.1,9,7.9,13.5,8.4c0.4,0,0.7,0.1,1.1,0.1c1.4,4.4,4.5,6.9,7.1,10.4
				C231.5,317.8,239.8,327.6,239.8,327.6z"/>
			
				<linearGradient id="SVGID_21_" gradientUnits="userSpaceOnUse" x1="65.4577" y1="319.3305" x2="80.6343" y2="319.3305" gradientTransform="matrix(-0.9919 0.1272 0.1272 0.9919 232.1672 -16.7232)">
				<stop  offset="0" style="stop-color:#49070E"/>
				<stop  offset="1" style="stop-color:#110104"/>
			</linearGradient>
			<path class="st51" d="M192.4,300.1c-3.2-6.9-1.4-8.8,3.2-8.6c0.4,0.1,0.9,0.3,1.4,0.4c2.4,0.7,4.5,1.4,6.4,2.3
				c-2.4,5.5-3.7,14,3.2,23.4c2.5,3.4,3.5,6.4,3.5,8.9c-3.9-3.3-7.5-7.2-11.6-12.4C194.4,308.9,193.9,303.3,192.4,300.1z"/>
			<path class="st52" d="M207.4,296.5c5.4,3.4,9.1,7.9,13.2,13.4c6.3,8.4,19.2,17.8,19.2,17.8s-8.3-9.8-12.4-15.3
				c-2.6-3.5-5.7-6-7.1-10.4c17.3,2.4,19.6,17.1,30.4,28.4c11,11.4,10.5,12.3,10.5,12.3s-11,6.6-28.1-1.7c-4.9-2.4-9-4.6-12.5-6.7
				c-0.1-0.2-0.2-0.3-0.3-0.5C210.3,319.9,207.7,306.2,207.4,296.5z"/>
			
				<linearGradient id="SVGID_22_" gradientUnits="userSpaceOnUse" x1="56.0865" y1="325.6483" x2="71.2804" y2="325.6483" gradientTransform="matrix(-0.9919 0.1272 0.1272 0.9919 232.1672 -16.7232)">
				<stop  offset="0" style="stop-color:#6D1420"/>
				<stop  offset="1" style="stop-color:#49070E"/>
			</linearGradient>
			<path class="st53" d="M210.1,326.6c0-2.6-1-5.5-3.5-8.9c-6.9-9.3-5.5-17.9-3.2-23.4c1.4,0.7,2.8,1.4,4,2.2
				c0.2,9.8,2.8,23.5,12.8,37.1c0.1,0.2,0.2,0.3,0.3,0.5c-1.5-0.9-3-1.9-4.4-2.8C214.1,329.8,212.1,328.3,210.1,326.6z"/>
		</g>
		
			<linearGradient id="SVGID_23_" gradientUnits="userSpaceOnUse" x1="36.0938" y1="326.812" x2="56.6068" y2="326.812" gradientTransform="matrix(-0.9919 0.1272 0.1272 0.9919 232.1672 -16.7232)">
			<stop  offset="0" style="stop-color:#8E000A"/>
			<stop  offset="0.1266" style="stop-color:#8B020C"/>
			<stop  offset="0.2161" style="stop-color:#820711"/>
			<stop  offset="0.294" style="stop-color:#72101B"/>
			<stop  offset="0.3212" style="stop-color:#6B141F"/>
			<stop  offset="0.444" style="stop-color:#67131E"/>
			<stop  offset="0.5631" style="stop-color:#5B111A"/>
			<stop  offset="0.6805" style="stop-color:#480D14"/>
			<stop  offset="0.757" style="stop-color:#37090F"/>
			<stop  offset="1" style="stop-color:#110104"/>
		</linearGradient>
		<path class="st54" d="M239.2,326.2c-13.3-12.5-16.1-15.9-23-25.7"/>
		<g>
			<g>
				<path class="st55" d="M217.5,269c0,0-4.3,10.2-11.9,16.1c-0.2,0.1-0.5,0-0.6-0.3c0,0,0-3.4-1.6-5.4c-0.4-4.5,0-8.7,0-8.7
					s-1.2,3.1-2,7c-2.1-3.6,0.7-22.7,0.7-22.7s-1.2,7-3,12.4l0-10.2c0,0-1,7.4-4.6,14.3c0.2-1.5,0.2-2.5,0.2-2.5s-1.7,4.3-4.3,7.7
					c-0.5-1.3-1.8-4.8-1.5-7.5c0.3-3.4,1.4-4,0.4-7.4c-1-3.4-2.4-23.9-2.4-23.9L306.2,290c0,0-4.3,6.8-9.3,13
					c-1.5-1.6-3.2-3.4-4.1-4.5c0,0,0,0,0,0c-0.3-0.3-0.5-0.6-0.7-0.7c0,0,0,0-0.1-0.1c0,0-0.1-0.1-0.1-0.1c0,0,0,0,0,0
					c0,0,0,0-0.1-0.1c0,0,0,0,0,0c0,0,0,0,0.1,0.1c0,0,0,0,0,0c0,0,0,0.1,0.1,0.1c0,0,0,0,0.1,0.1c0.1,0.2,0.4,0.4,0.7,0.7
					c0,0,0,0,0,0c0,0,0,0,0,0c2.9,3.2-3.4,11-7.4,15.3c-0.1-0.1-0.1-0.2-0.1-0.3c0,0-0.5-4.8-0.5-5.8c0.1-1.9,1.5-5.6,1.5-5.6
					s-0.2,0.3-0.5,0.7c2.2-5.8,3.3-8,3.3-8l-7.4,0.9c0,0-0.6,10.3-4.3,16c0,0-0.1-0.1-0.1-0.1c0,0-1.9-3.9-2.2-5
					c-0.5-1.9-0.1-6.8-0.1-6.8s-0.1,0.2-0.3,0.5l4-12.7c0,0-10.6,2.2-7.6,9.6c1,2.3,1.4,4.4,1.5,6.2c-0.7,0.8-1.5,1.7-2.4,2.5
					c-3,2.6-4.7,2.9-4.7,2.9c-0.1,0.1-0.2,0.1-0.3,0.1c-0.1-4.1-0.7-7.4-0.7-7.4s-0.1,1.7-0.4,4.2c-0.3-0.7-0.6-1.2-0.9-1.4
					c-1-0.6-1.5-7.7-1.5-7.7s-0.1,0.1-0.2,0.3l1.9-10.4c0,0-2.9,8.9-8.9,15.3c-2.1,0.5-4.2,0.7-4.2,0.7c-0.2,0.1-0.3,0-0.4-0.2
					c0,0-0.2-0.5-0.4-1.2c0-2.8,0.1-4.9,0.1-4.9s-0.4,1.3-0.9,3.3c-0.2-0.3-0.4-0.6-0.6-0.9c-1-1.1-1.2-7.7-1.2-7.7
					s-0.3,0.7-1.1,1.5l4.4-14c0,0-10.6,2.2-7.6,9.6c0.9,2.2,1.3,4.2,1.5,5.9c-0.6,0.4-1.3,0.8-2.1,1.2c-3.8,1.6-6.5,2.7-6.5,2.7
					c-0.1,0.1-0.3,0-0.4-0.1c0,0-0.2-1-0.8-2.2c-0.3-4.2,0-8,0-8s-0.7,2.3-1.3,5.5c-0.2-0.3-0.4-0.5-0.6-0.8
					c-1.8-2.3-0.7-7.8-0.6-8.7l2.3-3.5c0,0-4.3,4.8-10.5,8.4c-2.8,0.7-4.4,1.4-4.4,1.4c-0.2,0-0.3,0-0.4-0.2c0,0,0.1-0.7-0.6-2.2
					c0.5-4.1,1.4-7.6,1.4-7.6s-1.3,2.4-2.5,5.7c0-0.1-0.1-0.1-0.1-0.1c-2-2.9-0.6-12-0.6-12s-0.1,0.6-0.4,1.5L217.5,269z"/>
				<path class="st56" d="M292.8,298.5C292.8,298.5,292.8,298.5,292.8,298.5c1,1.1,6.1-0.8,7.6,0.8c-2.3,2.9-8.1,9.3-10.3,11.2
					c-1.2,1.1-3.1,2.5-4.1,3.3c-0.2,0.2-0.4,0.1-0.6-0.1C289.4,309.4,295.7,301.6,292.8,298.5z"/>
				<path class="st56" d="M289.1,294.7c0,0-1.1,2.2-3.3,8c-0.7,1-2.1,3.1-3.2,4.5c-1.5,2-4.8,4.5-4.8,4.5c-0.1,0.1-0.3,0.1-0.4,0
					c3.8-5.8,4.3-16,4.3-16L289.1,294.7z"/>
				<path class="st56" d="M271.1,297c-3-7.4,7.6-9.6,7.6-9.6l-3.9,12.7c-0.4,0.6-1.1,1.8-2.1,3.1C272.5,301.5,272,299.4,271.1,297z"
					/>
				<path class="st56" d="M242.6,287.8c-3-7.4,7.6-9.6,7.6-9.6l-4.4,14c-0.4,0.4-1,0.9-1.7,1.4C243.9,292,243.5,290,242.6,287.8z"/>
				<path class="st56" d="M263.3,286.2l-1.9,10.4c-0.5,0.8-1.9,2.9-3.7,3.8c-0.8,0.4-2.1,0.8-3.3,1.1
					C260.4,295.1,263.3,286.2,263.3,286.2z"/>
				<path class="st56" d="M231.8,283.3c0-0.1,0-0.1,0-0.1s-2.9,3.9-6.6,4.7c-0.5,0.1-1.1,0.2-1.5,0.4c6.1-3.6,10.5-8.4,10.5-8.4
					L231.8,283.3z"/>
				<path class="st56" d="M217.5,269l-1.5,5.6c-0.5,1.5-1.6,3.8-3.8,6c-3.5,3.5-6.4,4.4-6.4,4.4c0,0-0.1,0.1-0.2,0.1
					C213.2,279.3,217.5,269,217.5,269z"/>
				<path class="st56" d="M202.3,255c-0.4,1.1-1,5.6-2.1,9.8c-1.1,4.1-3,7.2-3.4,7.8c-1,1.3-2,2.2-2.8,3c0.3-1.4,0.5-2.8,0.6-3.9
					c3.6-6.9,5.5-21.1,5.5-21.1L202.3,255z"/>
				<path class="st57" d="M212.4,267.4c1.3,4.9-3,12.6-3,12.6s5.4-4.6,8.3-9.5C220.5,265.6,211,262.5,212.4,267.4z"/>
				<path class="st58" d="M190.7,277.3c0,0-0.1-0.2-0.2-0.5c2.6-3.4,4.3-7.7,4.3-7.7s-0.1,2.9-0.8,6.4c-1.7,1.5-2.8,2-2.8,2
					C191,277.6,190.8,277.5,190.7,277.3z"/>
				<path class="st58" d="M203.5,279.5c-0.4-0.5-0.9-0.9-1.5-1.2c-0.2-0.1-0.4-0.3-0.5-0.5c0.8-3.9,2-7,2-7S203.1,275,203.5,279.5z"
					/>
				<path class="st58" d="M218.2,287.3c-0.3-0.5-0.6-1.2-1.1-1.9c1.2-3.3,2.5-5.7,2.5-5.7S218.7,283.2,218.2,287.3z"/>
				<path class="st58" d="M234.3,295.2c-0.3-0.7-0.8-1.6-1.4-2.4c0.6-3.2,1.3-5.5,1.3-5.5S234,291,234.3,295.2z"/>
				<path class="st58" d="M265.2,308.7c-0.1,0-0.2-0.1-0.2-0.2c0,0-0.4-1.7-0.9-3.1c0.3-2.4,0.4-4.2,0.4-4.2
					S265.1,304.6,265.2,308.7z"/>
			</g>
			<path class="st58" d="M249.5,300.9c-0.2-0.5-0.5-1.1-0.8-1.6c0.5-2,0.9-3.3,0.9-3.3S249.4,298.1,249.5,300.9z"/>
		</g>
		
			<linearGradient id="SVGID_24_" gradientUnits="userSpaceOnUse" x1="58.7717" y1="262.248" x2="80.2462" y2="262.248" gradientTransform="matrix(-0.9919 0.1272 0.1272 0.9919 232.1672 -16.7232)">
			<stop  offset="0" style="stop-color:#6D1420"/>
			<stop  offset="0.2539" style="stop-color:#6A131F"/>
			<stop  offset="0.4335" style="stop-color:#61121C"/>
			<stop  offset="0.5902" style="stop-color:#510E17"/>
			<stop  offset="0.7329" style="stop-color:#3B0A10"/>
			<stop  offset="0.757" style="stop-color:#37090F"/>
			<stop  offset="1" style="stop-color:#110104"/>
		</linearGradient>
		<path class="st59" d="M186.3,256.1c-1.5-5.5,1.5-19.5,1.5-19.5s11.5,15.3,13.3,17.1c1.9,1.9,7.6,8.5,7.6,8.5s-6.4-0.3-7.7,5.1
			c-0.5,2-1.1,1.3-1.5-0.1c-0.7-2.6,0.1-7.7-8.4-10.1L186.3,256.1z"/>
		<g>
			<path class="st60" d="M259.7,334.1c0.7-2.1,3.3-5.1,2.9-8.9c-0.7-6.5-1.5-12.5-1.5-12.5s-3.2,3.1-5,10c-0.4,1.7,1.1,3.9,1,6.1
				c0,1.7,1.5,2.5,1.6,3.7C259.6,338.8,258.2,338.9,259.7,334.1z"/>
			<path class="st61" d="M255,336.4c0-0.2,0.8-2.5,0.8-2.7c0.4-10.3,5.1-13.8,5.1-13.8s0,0,0,0c0.2,2.7,0.8,14.7-5,22.5
				C255.3,341.1,254.9,339.1,255,336.4z"/>
			<path class="st62" d="M262.8,340.5c-1.3,4.2-5.1,5.9-6.9,1.9c5.8-7.8,5.2-19.8,5-22.5C261,320.4,264.5,335,262.8,340.5z"/>
		</g>
		<path class="st48" d="M192.1,365.8c7.9,11.1,19.3,25.7,34.8,23.1c4.1-0.7,8-2.3,11.8-4c18.3-7.7,36.5-15.7,55-23
			c4-1.6,13.3-5.4,13.7,1.9c0.4,8.1-5.1,16.8-9.5,23.2c-4.8,6.8-10.3,13.1-16.5,18.7c-12.3,11.2-27.1,19.8-43,24.8
			c-8.5,2.7-18.3,5.4-27.3,4.6c-9.1-0.8-17.6-4-25.6-8.4c-7.7-4.2-14.9-9.3-21.8-14.6"/>
		<g>
			<path class="st55" d="M196.1,309.9c0.2-0.5,1-1.1,1.3-1.3c0.9-0.6,4.7-2.1,4.7-2.1c0.1-0.1,0.3,0,0.3,0.1c0,0,0.3,2.3,1,7.3
				c0,0.1,0,0.1,0,0.2c-0.4,1.4-0.9,2.8-1.6,4.1C199.4,315.4,197.2,312.6,196.1,309.9z"/>
			<path class="st55" d="M203.8,320.5c0.6-0.6,1.6-1.2,3.4-1.6c0.9-0.2,1.6-0.4,2.3-0.7c-0.6,1.8-1,3.4-1,3.4s1.7-2,2.9-4.4
				c1.6-1.1,2.4-2.2,2.4-2.2c0.1-0.1,0.3,0,0.3,0.1c0,0,1.2,2.1,1.7,6.8c0,0.4,0.1,0.8,0.1,1.2c-0.7,1.7-1.7,3.6-3.3,5.4
				C209.1,325.8,206.2,323.2,203.8,320.5z"/>
			<path class="st55" d="M221.4,326.6c0.4,0,0.7-0.1,1-0.2c-0.8,2-1.1,4.2-1.1,4.2s1.9-2.2,3.4-4.7c1.7-0.6,2.2-1.2,2.2-1.2
				c0.1-0.1,0.2,0,0.2,0.1c0,0,1.8,2.4,2.6,6.5c0,0.1,0,0.2,0.1,0.4c-0.4,2-1.2,4.1-2.4,6c-1.6-0.9-3.3-1.8-5-2.8
				c-1.9-1.1-3.7-2.2-5.4-3.3C217.4,329.7,218.5,327,221.4,326.6z"/>
			<path class="st63" d="M256.8,341.5c0,0,0.2-0.5,0.4-1.2C257.2,340.8,257.1,341.2,256.8,341.5z"/>
			<path class="st55" d="M234,334c1.3-1.6,6.9-6.2,6.9-6.2c0.1-0.1,0.1-0.1,0.2-0.1c0.4,2.9,0.7,5.9,0.7,7.2c0,3,0.6,5.8,0.6,5.8
				s1-2.6,1.1-5c0-0.3,0-0.8-0.1-1.4c0.2,0.3,0.4,0.6,0.6,0.9c0.2,0.3,0.3,0.5,0.5,0.8c-0.2,3.3-0.8,6.7-2.5,8.3
				c-3.2-1.1-6.9-2.6-11.1-4.7C231.8,337.8,233.2,335,234,334z"/>
			<path class="st55" d="M251.2,339.5c0,0-1.1,2.1-1.4,4.4c-0.1,0.5-0.1,1.3-0.1,2.2c-1.3-0.2-2.8-0.5-4.4-0.9l0.7-4.1
				c0,0.7,0,1.4,0,1.9c0.4-2.2,1.4-6.3,2.7-6.4c1.8-0.1,6.6-7.4,6.6-7.4c0.1-0.1,0.2-0.2,0.4-0.1c0.6,2.4,1.2,5.1,1.5,7.4
				c0,2.7-0.3,4.8-0.3,4.8c-1.2,1.3-2.8,3.5-3.7,5c-0.9,0-1.8,0-2.8-0.2c0-0.6,0.1-1.1,0.1-1.6C250.8,341.8,251.2,339.5,251.2,339.5
				z"/>
			<path class="st58" d="M249.8,344c0.3-2.4,1.4-4.4,1.4-4.4s-0.5,2.2-0.7,5.2c0,0.4-0.1,1-0.1,1.6c-0.2,0-0.5-0.1-0.7-0.1
				C249.7,345.3,249.7,344.5,249.8,344z"/>
			<path class="st58" d="M243.5,335.7c-0.1,2.4-1.1,5-1.1,5s-0.6-2.9-0.6-5.8c0-1.3-0.3-4.3-0.7-7.2c0.1,0,0.3,0.1,0.3,0.2
				c0,0-0.5,2.4,2,6.4C243.4,334.9,243.5,335.4,243.5,335.7z"/>
			<path class="st58" d="M221.2,330.7c0,0,0.3-2.2,1.1-4.2c0.9-0.2,1.6-0.3,2.2-0.5C223.1,328.5,221.2,330.7,221.2,330.7z"/>
			<path class="st58" d="M208.5,321.6c0,0,0.4-1.6,1-3.4c0.7-0.3,1.4-0.7,1.9-1C210.3,319.6,208.5,321.6,208.5,321.6z"/>
			<path class="st63" d="M255.8,329.4c0,0,0.3,2.2,1.2,3.8c0,1.2,0.1,2.2,0.1,3c0,0.1,0,0.3,0,0.4c-0.3-2.3-0.9-5-1.5-7.4
				C255.7,329.3,255.8,329.3,255.8,329.4z"/>
			<path class="st56" d="M256.8,341.5c0.2-0.2,0.4-0.7,0.4-1.2c0.3-0.8,0.5-2.1,0.6-3.3c0-0.6,0-1.5-0.1-2.6
				c1.3,1.6,3.3,6.1,2.8,9.7c-1.5,1.4-3.9,2.4-7.4,2.4C254.1,345,255.6,342.8,256.8,341.5z"/>
			<path class="st58" d="M257.1,336.7c0-0.1,0-0.3,0-0.4c0-0.8,0-1.8-0.1-3c0.2,0.3,0.4,0.6,0.6,0.9c0,0,0.1,0.1,0.1,0.1
				c0.1,1.1,0.2,2.1,0.1,2.6c-0.1,1.3-0.3,2.5-0.6,3.3c-0.2,0.7-0.4,1.2-0.4,1.2S257.1,339.4,257.1,336.7z"/>
			<path class="st56" d="M244.4,335.9c1.1,1.9,1.5,3.8,1.6,5.3l-0.7,4.1c-1.1-0.3-2.2-0.6-3.4-1
				C243.7,342.6,244.3,339.2,244.4,335.9z"/>
			<path class="st56" d="M230.2,339.2c-0.9-0.5-1.9-1-2.9-1.5c1.2-1.9,2-4,2.4-6C230.2,334.2,230.2,337.2,230.2,339.2z"/>
			<path class="st56" d="M216,323.2c0.3,2.8,0.4,6,0.5,8.1c-1.4-0.9-2.6-1.8-3.9-2.7C214.3,326.7,215.3,324.9,216,323.2z"/>
			<path class="st56" d="M201.8,318.3c0.8-1.3,1.3-2.7,1.6-4.1c0.3,2.4,0.2,4.5,0,6C202.9,319.6,202.4,318.9,201.8,318.3z"/>
		</g>
		<path class="st64" d="M205.1,216.4c0,0,9.2-10.6,21.6-5.7c12.4,4.8,25.5,19,25.5,19s-17.9-11.2-30.3-12.9
			C209.5,215.2,205.1,216.4,205.1,216.4z"/>
		<g>
			<path class="st65" d="M239.1,223.1c0.8-0.9,0.7-2.2-0.2-3c-4.3-3.8-16.8-13.4-22.6-5.8c-1.5,2-3.3,4.8-2.4,7.4
				c0.7,2.1,3.2,3.3,5,4.1c5,2.2,10.9,2,16.1,0.4C236.5,225.7,238.1,224.3,239.1,223.1z"/>
			<path class="st66" d="M213.8,220.7c0.1-3.1,2.4-10.4,9.5-9.2c7.2,1.2,7.9,6.4,7.8,9.5c-0.1,3.1-2.6,5.5-6.9,5.9
				C220,227.2,213.6,223.8,213.8,220.7z"/>
			<path class="st67" d="M215.8,220.6c-0.4-3.3,1.3-8.5,4.9-9c3.6-0.5,9,4,9.4,7.4c0.4,3.3-3.5,6.7-7.1,7.1
				C219.4,226.6,216.2,223.9,215.8,220.6z"/>
			<path class="st68" d="M214.1,218.7c0.4,3.2,4,5.5,8,5c4-0.5,6.9-3.6,6.5-6.8c-0.4-3.2-3.9-5.9-7.9-5.4S213.7,215.5,214.1,218.7z"
				/>
			<circle class="st69" cx="219.4" cy="217.2" r="2.6"/>
		</g>
		<path class="st64" d="M139.2,303.8c0,0-13.3-4.9-15.8-23.3s10.1-34,10.1-34s-8.9,14.4-5.7,33.1S139.2,303.8,139.2,303.8z"/>
		<path class="st64" d="M147.6,297.9c0,0-12.6-11.8-9.3-33.3c3.3-21.5,11.5-27.6,11.5-27.6s-7.5,12.3-7.7,31.9
			C141.8,288.5,147.6,297.9,147.6,297.9z"/>
		<path class="st64" d="M157.8,291.1c0,0-6.5-9.1-7.2-26.1s13.2-32.7,13.2-32.7s-9.7,15.6-9.1,32.8S157.8,291.1,157.8,291.1z"/>
		<g>
			<g>
				<path class="st70" d="M255.8,290.8c19.9,6.3,41.3,3.7,51.7,1.7c-0.8,0.6-1.5,1.4-1.9,2.3c-0.4,0.9-1.1,1.9-2.1,2.7
					c-2.2,1.7-5,2.3-5.3,2.4c0,0,0,0,0,0c-6.9,1-13.4,1.1-19.7,0.6c-1.2-0.1-2.4-0.2-3.5-0.4c0-0.2,0-0.4,0-0.4s-0.1,0.1-0.2,0.4
					c-3.2-0.4-6.4-1-9.5-1.8c-0.4-0.1-0.8-0.2-1.1-0.3c-0.8-0.2-1.6-0.5-2.4-0.7c0,0,0,0,0,0c-0.1-0.6-0.1-0.9-0.1-0.9
					s-0.2,0.3-0.5,0.8c0,0,0,0,0,0c-4.5-1.4-8.8-3-12.9-4.8c-0.4-0.2-0.9-0.4-1.3-0.6c0,0,0,0,0,0c0-0.6,0-1,0-1s-0.1,0.3-0.5,0.8
					c0,0,0,0,0,0c-0.4-0.2-0.7-0.4-1.1-0.6C247.7,289.6,251.1,289.3,255.8,290.8z"/>
				<path class="st70" d="M264.7,324.2c0.5-8.3,2.5-14.4,10.5-17.1c0,0.1,0.1,0.3,0.2,0.4c0.1,0.3,0.2,0.6,0.4,0.9
					c-0.6,1.4-1.2,2.8-1.9,4.4c-1.5,3.8-2.4,6.6-2.7,9c-2.9,3.3-5,7.7-6.4,11.3C264.6,330.9,264.5,327.9,264.7,324.2z"/>
			</g>
		</g>
		<path class="st71" d="M207.4,342.5c0,0,21.4,12.6,40.4,13c18.9,0.4,22.4-21,22.4-21s-0.9,23.9-22.4,24
			C226.3,358.6,207.4,342.5,207.4,342.5z"/>
		<path class="st70" d="M214.7,360.6c3.9-0.3,2-3.1,2-3.1s-20-17.6-8.7-9.4c11.3,8.3,23.6,7.4,23.6,7.4l4.4,3.4
			c-1.6-0.3-3.3,0-4.8,0.7c-1.6,0.7-3.2,1.3-5.1,1.4c-0.5,0-1.1,0-1.6,0.1c-0.7,0.1-1.5,0.2-2.1,0.5c-1.1,0.5-2.1,0.9-3.2,1.2
			C215.6,361.8,213.1,360.8,214.7,360.6z"/>
		<path class="st70" d="M183,404.7c5.7-15.7,6.2-23.7,11.9-31.6c5.6-7.7,14-10.9,19.4-12.1c0.4,0.4,2.4,1.2,4.8,2
			c-0.6,0.2-1.2,0.4-1.8,0.6c-1,0.5-2.5,1.3-3.4,1.8l-11.4,8.3c-1.3,0.9-2.2,2.3-2.6,3.8c-0.8,3.3-1.7,6.6-2.5,9.9
			c-0.7,2.6-1.3,5.3-2,7.9c-1.2,4.8-6.1,26.4-6.7,29c-1.3,6.7-1.7,13.5-1.6,20.2c0.2,9.9,1.7,20,4.7,29.5c0,0,0,0,0,0
			S168.5,444.7,183,404.7z"/>
		<path class="st72" d="M127.3,416.6c-17.1-49.6,2.8-78.9,2.8-78.9s-3.4,1.6-8.5,4.8c7.1-8.9,15.6-17.2,24.4-25.5
			c32.6-31.1,20.3-54,23.2-71.5s17.3-26.4,38-10.3s34,13.2,80.9,2.1c3.4-0.8,6.9-1.6,10.4-2.2c3-0.6,5.9-1.1,8.9-1.5
			c2.5-0.4,5.1-0.7,7.6-0.9c2.1-0.2,4.2-0.3,6.4-0.4c1.7,0,3.5,0,5.2,0.1c1.4,0.1,2.8,0.2,4.2,0.4c1.1,0.2,2.2,0.4,3.3,0.6
			c0.8,0.2,1.7,0.5,2.5,0.8c0.6,0.2,1.2,0.5,1.8,0.8c1.5,0.9,3.2,1.8,4.4,3.1c1.6,1.8,2.9,4,3.1,6.5c1.3,14.6-9.3,34-37.4,47.5
			c-0.4,0.2-0.7,0.4-1,0.6c-10.4,2-31.8,4.6-51.7-1.7c-4.7-1.5-8-1.3-10.4,0.1c-20.7-10.3-35.7-26.1-43.3-34.8c0,0,0,0,0-0.1
			c0.1-0.7,0.1-1,0.1-1s-0.1,0.3-0.2,0.9c0,0.1-0.1,0.1-0.1,0c-0.9-1.1-1.7-2-2.4-2.8c1.8-0.2,3.7-0.8,4.8-0.6
			c3.2,0.6,10.5,11.9,5.6,1.9s-18.6-19.1-26.6-10.4c-8,8.7-9.3,20.1-3.9,32.3s-2.3-9.8,6.8-18.3c0,0,0.1-0.1,0.1-0.1
			c-0.8,9.7-4.8,40.1,15.3,64.7c20.9,25.6,51.9,35.2,62.9,22.6c2.7-3.1,0.9-4.7,0.2-12.1c1.4-3.6,3.4-8.1,6.4-11.3
			c-1.1,7.2,1.9,10.9,3.1,26.3c1.4,17.4-28.6,12.8-37.9,10.9c-0.1,0-0.2,0-0.3-0.1l-4.4-3.4c0,0-12.2,0.8-23.6-7.4
			c-11.3-8.3,8.7,9.4,8.7,9.4s1.8,2.8-2,3.1c-0.5,0-0.6,0.2-0.4,0.3c-5.4,1.3-13.8,4.4-19.4,12.1c-5.7,7.9-6.2,15.9-11.9,31.6
			c-14.5,40,8.9,69.2,8.9,69.2c2.2,7.1,5.3,13.9,9.2,20.2c0.6,1,1,2.2,1,3.3c0.5,16.4-10.6,13.2-12.7,12.5c-0.3-0.1-0.5-0.2-0.8-0.2
			c-2.3-0.5-12.9-3.3-26.6-12.6c15.9,6.4,27.9,9.1,27.9,9.1S144.4,466.2,127.3,416.6z"/>
		<path class="st70" d="M115,440.1c-22.3-45-12.9-73.5,6.6-97.7c5-3.2,8.5-4.8,8.5-4.8s-19.9,29.3-2.8,78.9
			c17.1,49.6,62.5,89.6,62.5,89.6s-11.9-2.7-27.9-9.1C147.5,487.1,129.7,469.9,115,440.1z"/>
		<path class="st73" d="M119,322.4c-13.2,7.4-32.8,20.2-30.5,38c2.1,15.7,17.1,22.9,31.7,19.7c4.1-0.9,8-2.5,11.9-4.1
			c17.7-7.4,35.4-15.1,53.3-22.1c4-1.6,13.3-5.4,13.7,1.9c0.4,8.1-5.1,16.8-9.5,23.2c-14.2,20.5-36.7,36.1-60.3,43.9
			c-17,5.6-39.4,7.7-54.4-3.6c-13.6-10.2-21.2-25.9-25.9-41.9"/>
		<path id="_x3F__2_" class="st64" d="M177.7,223.5c2.3-0.9,5.1-1.6,8.5-1.9c0.2,0,0.4,0,0.7,0c21.6-1.5,40.4,15.5,40.4,15.5
			s-15.5-11-31.8-12.3c12.2,5.8,20.3,14.9,20.3,14.9s-17.9-14.4-27.2-14.8c-4-0.2-8.5,0.4-14.8,5.8c-6.3,5.4-8.6,11.7-8.6,11.7
			S164.8,228.7,177.7,223.5z"/>
		<path class="st64" d="M190.5,223.1c0,0-6.4-0.2-13.1,2.2s-8.1,7.1-8.1,7.1s1.8-7,6.4-8.9C180.3,221.5,190.5,223.1,190.5,223.1z"/>
		<path class="st64" d="M239.9,194.7c0,0-5.8-4.8-13.7-5.6c-7.9-0.8-10.7,1.8-10.7,1.8s2.5-4.8,10.3-4.3S239.9,194.7,239.9,194.7z"
			/>
		<path class="st64" d="M238.5,190.6c0,0-2.1-2.8-6.1-4.3c-4-1.5-7.9-0.4-7.9-0.4s3.3-2,8.2-0.3
			C237.7,187.3,238.5,190.6,238.5,190.6z"/>
		<path class="st74" d="M187.4,555.9c0,0-4.9,6.8,10.2,39.7c15.2,33,24.8,42.1,24.8,42.1s-18.8-9.7-30.1-42.4
			C180.9,562.6,187.4,555.9,187.4,555.9z"/>
		<path class="st46" d="M275,214.2c0,0,29.5,0.7,51.5,17c0.5,0.4,1.1,0.8,1.6,1.2c-4-0.3-9.2-0.3-16,0.5
			C299.8,220.8,275,214.2,275,214.2z"/>
		<path class="st46" d="M281.9,210.2c0,0-4.7-7.8-11.4-9.3c-6.6-1.5-13.7,3.6-2.1,4.2C280,205.7,281.9,210.2,281.9,210.2z"/>
		<path class="st46" d="M246.6,214.1c0,0-4.2-6.8-19.6-9.7s-25.4,5.5-25.4,5.5s2.2-7.6,17.4-11.9S246.6,214.1,246.6,214.1z"/>
		<path class="st46" d="M197.7,207c0,0-30.3-4.3-54.9,7c-24.6,11.3-39.9,39.1-39.9,39.1s18.2-20,40.8-31.6
			C166.4,209.9,197.7,207,197.7,207z"/>
		<path class="st46" d="M86.7,264.3c-14.9,15.6-28.7,31.5-34.1,53c-3.7,14.8-5.6,30.6-4.8,45.8c-0.1-2.1,0.5-4.4,0.7-6.4
			c0.7-5.6,1.5-11.2,2.5-16.8c2.2-13.2,4.4-26.4,10-38.7C67.2,287.7,76.5,275,86.7,264.3z"/>
		<path class="st46" d="M169.9,215.6c0,0-11.7,0.6-23.9,6.1c-5.4,2.5-11.7,6.1-15.9,10.2c-5.2,5.1-7.8,10.6-7.8,10.6
			s4.4-4.1,19.8-13.2C157.5,220.1,169.9,215.6,169.9,215.6z"/>
		<path class="st46" d="M125.9,218.9c0,0-18.2-9.4-39.1-8.6s-43.6,10.1-49.2,13.6c-5.5,3.5-2.2,2.9,3.6,1.6s28.6-5,43.4-3.2
			s25.6,14.1,25.6,14.1s1.3-4.9,6-10.1S125.9,218.9,125.9,218.9z"/>
		<path class="st46" d="M286.6,527.3c0,0-13-8.6-28.1-10.4c-15.1-1.8-38.7,2.3-38.7,2.3s23.3-1.2,37,0.6
			C270.5,521.5,286.6,527.3,286.6,527.3z"/>
		<g>
			<path class="st75" d="M291.9,297.5C291.9,297.5,291.9,297.5,291.9,297.5C291.9,297.5,291.9,297.5,291.9,297.5z"/>
			<path class="st75" d="M291.9,297.5C291.9,297.5,291.9,297.5,291.9,297.5L291.9,297.5z"/>
			<path class="st75" d="M292,297.6C292,297.6,291.9,297.6,292,297.6C291.9,297.6,292,297.6,292,297.6z"/>
			<path class="st75" d="M292,297.7C292,297.6,292,297.6,292,297.7C292,297.6,292,297.6,292,297.7z"/>
			<path class="st75" d="M292.8,298.5C292.8,298.5,292.8,298.5,292.8,298.5C292.8,298.5,292.8,298.5,292.8,298.5z"/>
			<path class="st75" d="M292.8,298.5c-0.3-0.3-0.5-0.6-0.7-0.7C292.3,297.9,292.5,298.1,292.8,298.5z"/>
			<path class="st75" d="M292.1,297.7C292.1,297.7,292.1,297.7,292.1,297.7C292.1,297.7,292.1,297.7,292.1,297.7z"/>
		</g>
		<path class="st71" d="M272.3,307.7c-0.2,0.9-0.4,1.4-0.4,1.4L272.3,307.7z"/>
		<path class="st71" d="M243.8,298.4c-0.2,0.9-0.4,1.4-0.4,1.4L243.8,298.4z"/>
		<path class="st71" d="M246.8,307c-0.5,0.2-1.1,0.4-1.6,0.5L246.8,307z"/>
		<path class="st71" d="M210.6,292.1c-0.6,0-1.1-0.1-1.7-0.2L210.6,292.1z"/>
		<path class="st71" d="M199.4,288.4c-0.5,0.2-1.1,0.3-1.7,0.4L199.4,288.4z"/>
		<path class="st71" d="M186.7,280.8c-0.5,0.3-1,0.6-1.5,0.8L186.7,280.8z"/>
		<g>
			<path class="st64" d="M313.3,253.9c8.4-14.8-1.7-7.8-1.7-7.8s-3.9,1.8-7.5,11.2L313.3,253.9z"/>
			<path class="st64" d="M332.4,254.5c8.3-13.1,7.5-4.3,6.6-2.5s-2,5.8-9.5,8.2L332.4,254.5z"/>
		</g>
		<g>
			<g>
				<path class="st70" d="M186.7,257.9C186.7,257.9,186.7,257.9,186.7,257.9c0-0.1,0-0.1,0-0.2c0,0,0,0,0,0L186.7,257.9z"/>
				<path class="st70" d="M183.3,244.1c8-8.7,21.7,0.4,26.6,10.4s-2.4-1.3-5.6-1.9c-1.1-0.2-3,0.4-4.8,0.6c-0.8-0.9-1.4-1.6-1.9-2.2
					c-2.6-3-5-4.6-6.4-4.7c-1.3-0.1-2.2,0.5-2.8,1.1s-1.2,2.3-1.4,4.1c-0.3,1.6-0.1,3.3-0.3,5.2l-0.1,0.7c0,0.1,0,0.2,0,0.2
					c-0.1,0.1-0.3,0.3-0.5,0.5c-9.1,9-1.5,30.5-6.8,18.3S175.4,252.7,183.3,244.1z"/>
			</g>
		</g>
	</g>
	<g>
		<polygon class="st24" points="29,454.7 137.9,454.7 138.9,444.5 29,441.2 		"/>
		<path class="st24" d="M138.9,444.5L29,441.2v-8.8c33.7,0.4,71.1,2,110.8,4.5L138.9,444.5z"/>
		<path class="st25" d="M137.9,454.7l1.9-17.8c-35.6-2.4-72.6-3.8-110.8-4.5l85.1,6.1l-1.2,16.2H137.9z"/>
	</g>
	<g id="цветок_2_">
		<path class="st76" d="M357.2,540c0,0,26.7,39.1,29.3,59.9s0,49.5,0,49.5h31.3c0,0,4.6-19.5-12.4-61.9
			C388.4,545.2,357.2,540,357.2,540z"/>
		<path class="st77" d="M550,569.3c0,0-46.9-18.2-75.5,5.9S449,646.8,449,646.8h11.7c0,0,2-43,26.1-61.9S550,569.3,550,569.3z"/>
		<path class="st76" d="M493.3,501.6c0,0-36.5,6.5-54.7,61.2s-14.3,81.4-14.3,81.4H449c0,0-9.1-30.6,9.8-76.9
			S493.3,501.6,493.3,501.6z"/>
		<path class="st77" d="M381.9,476.9c0,0,13,48.2,16.9,78.8s16.9,100.9,16.9,100.9h13c0,0-6.5-65.8-16.9-108.8
			C401.5,504.9,381.9,476.9,381.9,476.9z"/>
		<path class="st78" d="M450.8,622.8h-70.1v57.1c0,2,0.3,3.9,0.8,5.7c13.6-0.5,34.4-3.2,50.7-14
			C447.5,661.4,450.8,639.4,450.8,622.8z"/>
		<path class="st79" d="M402.3,701.6h44.5c12,0,21.7-9.7,21.7-21.7v-57.1h-17.8c0,16.7-3.2,38.7-18.7,48.8
			c-16.3,10.8-37.1,13.5-50.7,14C383.9,694.8,392.3,701.6,402.3,701.6z"/>
	</g>
	<g>
		<path class="st80" d="M150.2,91.8c0-28.4-23-49-51.4-49c-28.4,0-51.4,24.6-51.4,53c0,28.4,23,49.9,51.4,49.9
			C127.1,145.7,150.2,120.2,150.2,91.8z"/>
		<path class="st81" d="M157.1,81.2c0-28.4-23-49-51.4-49c-28.4,0-51.4,24.6-51.4,53c0,28.4,23,49.9,51.4,49.9
			C134.1,135,157.1,109.5,157.1,81.2z"/>
		<path class="st82" d="M105.7,126.1c-22.8,0-40.7-17.6-40.7-40c0-23.4,18.7-43.2,40.7-43.2c23.2,0,40.7,16.8,40.7,39.1
			C146.4,105.5,127.4,126.1,105.7,126.1z"/>
		<path class="st83" d="M109.9,86.4c-1.8-5.7-3.8-11.3-6-16.9c-2.2-5.6-4.6-11.1-7.5-16.4c0.9,6,2.4,11.8,4.1,17.6
			c1.4,5,3.1,9.9,4.8,14.8c-1.2,0.2-2.4,0.5-3.6,0.7c-2,0.4-4,0.9-5.9,1.3c-2,0.5-4,1-5.9,1.6c-2,0.5-3.9,1.2-5.9,1.8
			c2.1,0,4.1,0,6.1-0.1c2-0.1,4.1-0.3,6.1-0.4c2-0.2,4.1-0.4,6.1-0.6c2-0.3,4-0.5,6-0.8l2.4-0.4L109.9,86.4z"/>
	</g>
	<path class="st48" d="M89.9,349.3"/>
	<g>
		<path class="st48" d="M86.4,368.1l6.9-21.7C93.3,346.4,84.2,354.5,86.4,368.1z"/>
		<path class="st48" d="M102.1,431.2c19.3,12.7,14.1,14.3,28.7,38.9c8,13.5,23.9,20.4,25.8,18.5c1.9-1.9,1.6-15.7,1-21.4
			c-1.2-6-1.4-12-1.6-18c-0.2-4.9-0.9-9.5-3-14c-2.8-6.1-1.5-6.6-11.1-16.8c-9.6-10.1-15.9-12.4-20.8-16.5
			c-4.2-3.6-8.2-7.3-12.2-11.1c-10.3-9.8-21.4-15.6-22.5-22.7L67,428.8C70,426.4,82.8,418.6,102.1,431.2z"/>
		<path class="st74" d="M97.2,432.7c19.3,12.7,14.1,14.3,28.7,38.9c8,13.5,26,17.5,30.7,18.4c0.6,0.1,1.2-0.3,1.2-1
			c0.3-3.6,0.9-15-0.3-21.3c0.5,4.7-0.7,15.5-1.2,19c-0.1,0.6-0.7,1-1.2,0.8c-3.9-1.1-17.4-5.7-24.4-17.4
			c-14.7-24.6-9.4-26.3-28.7-38.9S70,426.4,67,428.8C67,428.8,77.9,420,97.2,432.7z"/>
	</g>
</g>
</svg>
