<svg xmlns="http://www.w3.org/2000/svg" width="14" height="15" viewBox="0 0 14 15"><g><g><path fill="#8e24aa" d="M10.233 12.692c-.207.066-2.027.515-4.397.319-1.417 1.615-1.623 1.891-2.079 1.75-.398-.12-.375-.714-.375-.714l.004-1.469h-.004C-.08 11.616-.032 8.072.01 6.179c.04-1.892.412-3.42 1.467-4.46 2.35-2.13 8.982-1.865 10.946-.081 1.216 1.045 1.89 3.355 1.435 7.014-.438 3.545-3.146 3.887-3.624 4.04zm-.38-1.034c.403-.128 2.597-.315 2.97-3.274-.005-.148.64-4.475-1.171-6.007-1.481-1.328-7.296-1.74-9.357.103-.894.871-1.197 2.165-1.228 3.745-.032 1.579-.205 4.597 2.73 5.4l-.011 2.438c-.003.299.165.313.317.162.467-.463 1.967-2.247 1.967-2.247 2.01.128 3.61-.265 3.782-.32zm.902-4.87c.003.244-.372.247-.372.003C10.366 4.472 8.8 3.208 6.9 3.194c-.245-.003-.245-.367 0-.367 2.125.014 3.834 1.462 3.855 3.96zM7.214 4.15c-.244-.017-.219-.384.026-.367 1.673.12 2.563 1.254 2.532 2.632-.003.244-.378.233-.372-.009.03-1.206-.735-2.15-2.186-2.256zm3.106 4.76c.202.161.248.41.11.67v.005c-.312.54-.895 1.138-1.494.948l-.006-.009c-.608-.168-2.041-.896-2.947-1.607C4.056 7.413 3.452 5.424 3.123 4.8c-.193-.592.41-1.167.96-1.474h.006c.264-.137.519-.091.688.11.161.216.478.496.949 1.307.176.31.066.626-.107.757l-.346.274c-.176.139-.152.398-.152.398s.513 1.915 2.43 2.399c0 0 .264.023.404-.151l.277-.342c.133-.17.453-.278.767-.105.424.236.963.604 1.321.936zM7.523 4.77c.804.043 1.25.499 1.291 1.316.012.244-.36.261-.372.017-.032-.626-.328-.931-.94-.965-.247-.014-.224-.381.02-.367z"/></g></g></svg>