<svg width="41" height="18" viewBox="0 0 41 18" fill="none" xmlns="http://www.w3.org/2000/svg">
<path d="M1.5981 7.54839H35.4406L29.8345 2.48051C29.2089 1.91496 29.2065 0.995874 29.8291 0.42764C30.4517 -0.140667 31.4636 -0.142771 32.0891 0.422705L40.439 7.9711C40.4396 7.97153 40.44 7.97204 40.4405 7.97248C41.0644 8.53802 41.0664 9.46009 40.4406 10.0275C40.4401 10.028 40.4397 10.0285 40.4392 10.0289L32.0893 17.5773C31.4638 18.1427 30.4519 18.1407 29.8293 17.5724C29.2067 17.0041 29.2091 16.085 29.8346 15.5195L35.4406 10.4516H1.5981C0.715523 10.4516 9.15527e-05 9.80173 9.15527e-05 9C9.15527e-05 8.19827 0.715523 7.54839 1.5981 7.54839Z" fill="#4A4A4A"/>
</svg>
