<svg width="50" height="22" viewBox="0 0 50 22" fill="none" xmlns="http://www.w3.org/2000/svg">
<path d="M48.0469 9.20408H6.68382L13.5358 3.0246C14.3003 2.335 14.3033 1.21431 13.5423 0.521441C12.7814 -0.171521 11.5447 -0.174087 10.7801 0.515423L0.574646 9.71951C0.573962 9.72004 0.573474 9.72066 0.572888 9.72119C-0.189709 10.4108 -0.19215 11.5351 0.572693 12.227C0.573376 12.2275 0.573865 12.2282 0.574451 12.2287L10.7799 21.4328C11.5444 22.1222 12.7811 22.1198 13.5421 21.4268C14.3031 20.7339 14.3001 19.6132 13.5356 18.9236L6.68382 12.7441H48.0469C49.1256 12.7441 50 11.9517 50 10.9741C50 9.99652 49.1256 9.20408 48.0469 9.20408Z" fill="#C3C3C3"/>
</svg>
