<svg width="27" height="29" viewBox="0 0 27 29" fill="none" xmlns="http://www.w3.org/2000/svg">
<path d="M21.3513 21.2828C21.0689 20.9553 20.7762 20.6444 20.4887 20.3446C20.3449 20.1947 20.2012 20.0393 20.0574 19.8839L18.8046 18.5293C18.2707 17.952 17.6443 17.6467 17.0025 17.6467C16.3556 17.6467 15.7343 17.952 15.2004 18.5293C15.072 18.6681 14.9385 18.8069 14.8101 18.9457C14.5124 19.2621 14.2043 19.5896 13.9065 19.9338C13.3777 19.6562 12.8386 19.2732 12.2122 18.7403C11.3958 18.0186 10.6976 17.2969 10.0763 16.5308C9.74258 16.1145 9.15727 16.0701 8.7722 16.4365C8.38712 16.7973 8.34605 17.4301 8.68491 17.8465C9.37291 18.7014 10.1482 19.5064 11.0518 20.3002C11.057 20.3002 11.057 20.3058 11.0621 20.3058C11.9709 21.083 12.7359 21.5937 13.5522 21.9545C13.5728 21.9656 13.5933 21.9712 13.6138 21.9767C13.809 22.0489 14.3943 22.2598 14.9693 21.6436C14.9796 21.6325 14.995 21.6159 15.0052 21.6048C15.3544 21.1773 15.724 20.7887 16.1143 20.3724C16.2477 20.2336 16.3812 20.0893 16.5147 19.9449C16.638 19.8117 16.8279 19.6451 17.0128 19.6451C17.1976 19.6451 17.3824 19.8061 17.5108 19.9449L18.7636 21.2995C18.9125 21.4604 19.0665 21.6214 19.2102 21.7769C19.4978 22.0766 19.7648 22.3653 20.0215 22.6595C20.0266 22.6706 20.0369 22.6762 20.042 22.6817C20.2371 22.8927 20.4476 23.2258 20.0317 23.7032L18.4658 25.3964C18.132 25.7572 17.7624 25.9459 17.2951 25.9904C16.4993 26.0625 15.6522 25.896 14.5483 25.4519C12.7102 24.7191 10.9954 23.6033 9.14187 21.9379C6.90331 19.9116 5.14224 17.4801 3.89974 14.71C3.45819 13.7052 2.93962 12.3729 2.85234 10.9573C2.80613 10.169 3.00123 9.60272 3.47359 9.1253C3.81759 8.81442 4.12051 8.47579 4.40803 8.15381C4.59287 7.94286 4.76743 7.74856 4.95227 7.56536L4.9574 7.55981C5.32194 7.18232 5.62486 7.17677 5.96373 7.54316L8.49494 10.28C8.50008 10.2855 8.50521 10.2911 8.51035 10.2966C8.61817 10.4077 8.74652 10.5798 8.75166 10.7685C8.75166 10.9684 8.61303 11.1627 8.50008 11.2903L6.92898 12.9891C6.56958 13.3776 6.56958 14.0105 6.92898 14.4047C7.28838 14.7932 7.87369 14.7932 8.23823 14.4047L9.80933 12.7059C10.3382 12.1341 10.6103 11.4624 10.6051 10.7519C10.6 10.0579 10.3228 9.40287 9.80419 8.86438L7.27811 6.13311C6.22044 4.98953 4.78284 4.98398 3.68923 6.11646C3.47359 6.33296 3.27848 6.55501 3.08338 6.77152C2.81126 7.07684 2.55455 7.36551 2.27729 7.61533C2.26703 7.62643 2.25676 7.63753 2.24135 7.64863C1.34285 8.5313 0.932106 9.68599 1.00912 11.0849C1.11694 12.8392 1.71765 14.4047 2.23109 15.5704V15.576C3.59168 18.607 5.51191 21.2606 7.95071 23.47C9.96849 25.2798 11.8579 26.5066 13.8962 27.3227C14.6458 27.6225 15.7395 28 16.9512 28C17.1103 28 17.2746 27.9944 17.4389 27.9778H17.444C18.3425 27.8945 19.123 27.5003 19.7648 26.8064L21.3358 25.1077C21.341 25.1021 21.3461 25.0966 21.3513 25.091C22.3627 23.953 22.3576 22.3875 21.3513 21.2828Z" fill="white" stroke="white"/>
<path d="M20.9876 14.4933C20.6692 12.4726 19.7861 10.6296 18.4358 9.16404C17.0958 7.70959 15.3912 6.75475 13.5172 6.41057C13.014 6.3162 12.5365 6.68259 12.4493 7.22662C12.362 7.77065 12.7008 8.28693 13.204 8.3813C14.6929 8.65332 16.0535 9.4194 17.1317 10.5852C18.2099 11.751 18.9185 13.2221 19.17 14.832C19.247 15.3205 19.6373 15.6647 20.0788 15.6647C20.1301 15.6647 20.1815 15.6591 20.2328 15.648C20.736 15.5536 21.0749 15.0374 20.9876 14.4933Z" fill="white" stroke="white"/>
<path d="M25.9857 14.2493C25.4672 10.9407 24.0193 7.92627 21.8065 5.53363C19.5936 3.14099 16.8057 1.5755 13.7457 1.01482C13.2425 0.920443 12.765 1.28683 12.6778 1.83087C12.5905 2.3749 12.9293 2.89118 13.4325 2.98555C16.1126 3.47962 18.5565 4.84526 20.4972 6.94367C22.438 9.04209 23.7061 11.6845 24.158 14.5824C24.235 15.0709 24.6252 15.4151 25.0667 15.4151C25.1181 15.4151 25.1694 15.4095 25.2207 15.3984C25.7342 15.3096 26.073 14.7933 25.9857 14.2493Z" fill="white" stroke="white"/>
</svg>
