<svg width="50" height="22" viewBox="0 0 50 22" fill="none" xmlns="http://www.w3.org/2000/svg">
<path d="M1.95312 9.20408H43.3162L36.4642 3.0246C35.6997 2.335 35.6967 1.21431 36.4577 0.521441C37.2186 -0.171521 38.4553 -0.174087 39.2199 0.515423L49.4254 9.71951C49.426 9.72004 49.4265 9.72066 49.4271 9.72119C50.1897 10.4108 50.1922 11.5351 49.4273 12.227C49.4266 12.2275 49.4261 12.2282 49.4255 12.2287L39.2201 21.4328C38.4556 22.1222 37.2189 22.1198 36.4579 21.4268C35.6969 20.7339 35.6999 19.6132 36.4644 18.9236L43.3162 12.7441H1.95312C0.874413 12.7441 0 11.9517 0 10.9741C0 9.99652 0.874413 9.20408 1.95312 9.20408Z" fill="#C3C3C3"/>
</svg>
