<?xml version="1.0" encoding="utf-8"?>
<!-- Generator: Adobe Illustrator 23.0.0, SVG Export Plug-In . SVG Version: 6.00 Build 0)  -->
<svg version="1.1" id="Layer_1" xmlns="http://www.w3.org/2000/svg" xmlns:xlink="http://www.w3.org/1999/xlink" x="0px" y="0px"
	 viewBox="0 0 100 100" style="enable-background:new 0 0 100 100;" xml:space="preserve">
<g>
	<g>
		<path d="M91.7,20.8H70.8v-4.2c0-4.6-3.7-8.3-8.3-8.3h-25c-4.6,0-8.3,3.7-8.3,8.3v4.2H8.3c-4.6,0-8.3,3.7-8.3,8.3v54.2
			c0,4.6,3.7,8.3,8.3,8.3h83.3c4.6,0,8.3-3.7,8.3-8.3V29.2C100,24.6,96.3,20.8,91.7,20.8z M33.3,16.7c0-2.3,1.9-4.2,4.2-4.2h25
			c2.3,0,4.2,1.9,4.2,4.2v4.2H33.3V16.7z M95.8,83.3c0,2.3-1.9,4.2-4.2,4.2H8.3c-2.3,0-4.2-1.9-4.2-4.2V53c1.2,0.7,2.6,1.2,4.2,1.2
			h33.3v6.2c0,1.2,0.9,2.1,2.1,2.1h12.5c1.2,0,2.1-0.9,2.1-2.1v-6.2h33.3c1.5,0,2.9-0.4,4.2-1.2L95.8,83.3L95.8,83.3z M45.8,58.3V50
			h8.3v8.3H45.8z M95.8,45.8c0,2.3-1.9,4.2-4.2,4.2H58.3v-2.1c0-1.2-0.9-2.1-2.1-2.1H43.7c-1.2,0-2.1,0.9-2.1,2.1V50H8.3
			c-2.3,0-4.2-1.9-4.2-4.2V29.2C4.2,26.9,6,25,8.3,25h83.3c2.3,0,4.2,1.9,4.2,4.2V45.8z"/>
	</g>
</g>
</svg>
