<?xml version="1.0" encoding="utf-8"?>
<!-- Generator: Adobe Illustrator 23.0.0, SVG Export Plug-In . SVG Version: 6.00 Build 0)  -->
<svg version="1.1" id="Layer_1" xmlns="http://www.w3.org/2000/svg" xmlns:xlink="http://www.w3.org/1999/xlink" x="0px" y="0px"
	 viewBox="0 0 100 100" style="enable-background:new 0 0 100 100;" xml:space="preserve">
<g>
	<path d="M95,63.3h-5V41.6c0-2.8-2.2-5-5-5H73.3v-15c0-0.9-0.7-1.7-1.7-1.7H65c-0.9,0-1.7,0.7-1.7,1.7v15H55v-15
		c0-0.9-0.7-1.7-1.7-1.7h-6.7c-0.9,0-1.7,0.7-1.7,1.7v15h-8.3v-15c0-0.9-0.7-1.7-1.7-1.7h-6.7c-0.9,0-1.7,0.7-1.7,1.7v15H15
		c-2.8,0-5,2.2-5,5v21.7H5c-2.8,0-5,2.2-5,5V95c0,2.8,2.2,5,5,5h90c2.8,0,5-2.2,5-5V68.3C100,65.5,97.8,63.3,95,63.3z M96.7,68.3
		v1.1c-1.6,1.9-4.2,2.6-6.6,2.1c-2.4-0.6-4.3-2.4-4.9-4.8H95C95.9,66.6,96.7,67.4,96.7,68.3z M85,40c0.9,0,1.7,0.7,1.7,1.7v2.4
		c-1,0.6-2.2,0.9-3.3,0.9c-3,0-5.7-2.1-6.5-5H85z M66.7,23.3H70v13.3h-3.3V23.3z M73.1,40c-0.8,2.9-3.4,5-6.5,5c-3,0-5.7-2.1-6.5-5
		H73.1z M48.3,23.3h3.3v13.3h-3.3V23.3z M56.5,40c-0.8,2.9-3.4,5-6.5,5s-5.7-2.1-6.5-5H56.5z M39.8,40c-0.8,2.9-3.4,5-6.5,5
		c-3,0-5.7-2.1-6.5-5H39.8z M30,23.3h3.3v13.3H30V23.3z M13.3,41.6c0-0.9,0.7-1.7,1.7-1.7h8.1c-0.8,2.9-3.4,5-6.5,5
		c-1.2,0-2.3-0.3-3.3-0.9V41.6z M13.3,47.7c4.3,1.5,9.1-0.1,11.7-3.9c1.8,2.8,5,4.5,8.3,4.5s6.5-1.7,8.3-4.5c1.8,2.8,5,4.5,8.3,4.5
		s6.5-1.7,8.3-4.5c1.8,2.8,5,4.5,8.3,4.5c3.4,0,6.5-1.7,8.3-4.5c2.5,3.8,7.3,5.4,11.7,3.9v15.6H13.3V47.7z M81.5,66.6
		c-0.8,2.9-3.4,5-6.5,5s-5.7-2.1-6.5-5H81.5z M64.8,66.6c-0.8,2.9-3.4,5-6.5,5c-3,0-5.7-2.1-6.5-5H64.8z M48.1,66.6
		c-0.8,2.9-3.4,5-6.5,5c-3,0-5.7-2.1-6.5-5H48.1z M31.5,66.6c-0.8,2.9-3.4,5-6.5,5s-5.7-2.1-6.5-5H31.5z M3.3,68.3
		c0-0.9,0.7-1.7,1.7-1.7h9.8c-0.6,2.4-2.5,4.2-4.9,4.8C7.5,72,5,71.2,3.3,69.4V68.3z M95,96.6H5c-0.9,0-1.7-0.7-1.7-1.7V73.6
		c4.6,2.7,10.4,1.3,13.3-3.1c1.8,2.8,5,4.5,8.3,4.5s6.5-1.7,8.3-4.5c1.8,2.8,5,4.5,8.3,4.5s6.5-1.7,8.3-4.5c1.8,2.8,5,4.5,8.3,4.5
		s6.5-1.7,8.3-4.5c1.8,2.8,5,4.5,8.3,4.5s6.5-1.7,8.3-4.5c2.9,4.4,8.8,5.8,13.3,3.1V95C96.7,95.9,95.9,96.6,95,96.6z"/>
	<path d="M50,18.3c3.7,0,6.7-3,6.7-6.7c0-3.1-4.4-9.7-5.3-10.9C51,0.3,50.5,0,50,0s-1,0.2-1.4,0.7c-0.9,1.3-5.3,7.8-5.3,10.9
		C43.3,15.3,46.3,18.3,50,18.3z M50,4.7c1.8,2.8,3.3,5.9,3.3,7c0,1.8-1.5,3.3-3.3,3.3s-3.3-1.5-3.3-3.3C46.7,10.5,48.2,7.5,50,4.7z"
		/>
	<path d="M68.3,18.3c3.7,0,6.7-3,6.7-6.7c0-3.1-4.4-9.7-5.3-10.9C69.4,0.3,68.9,0,68.3,0s-1,0.2-1.4,0.7c-0.9,1.3-5.3,7.8-5.3,10.9
		C61.7,15.3,64.7,18.3,68.3,18.3z M68.3,4.7c1.8,2.8,3.3,5.9,3.3,7c0,1.8-1.5,3.3-3.3,3.3S65,13.5,65,11.6
		C65,10.5,66.6,7.5,68.3,4.7z"/>
	<path d="M31.7,18.3c3.7,0,6.7-3,6.7-6.7c0-3.1-4.4-9.7-5.3-10.9C32.7,0.3,32.2,0,31.7,0c-0.5,0-1,0.2-1.4,0.7
		C29.4,2,25,8.5,25,11.6C25,15.3,28,18.3,31.7,18.3z M31.7,4.7c1.8,2.8,3.3,5.9,3.3,7c0,1.8-1.5,3.3-3.3,3.3c-1.8,0-3.3-1.5-3.3-3.3
		C28.3,10.5,29.9,7.5,31.7,4.7z"/>
</g>
</svg>
