<svg height="546pt" viewBox="-17 -51 546.66927 546" width="546pt" xmlns="http://www.w3.org/2000/svg"><path d="m105.070312 230.347656c-2.519531 0-5.015624-1.109375-6.695312-3.238281-38.820312-49.175781-71.449219-66.84375-91.992188-73.003906-4.511718-1.351563-7.0625-6.101563-5.71875-10.605469s6.078126-7.085938 10.605469-5.710938c33.296875 9.984376 67.097657 36.484376 100.476563 78.765626 2.914062 3.691406 2.28125 9.050781-1.414063 11.957031-1.546875 1.234375-3.410156 1.835937-5.261719 1.835937zm0 0"/><path d="m51.136719 441.949219h-20.410157c-4.640624 0-8.425781-3.707031-8.519531-8.347657-.03125-1.90625-3.945312-191.347656-15.070312-237.117187-3.558594-14.628906-5.980469-32.429687-6.820313-50.132813-.222656-4.703124 3.414063-8.691406 8.113282-8.914062.128906-.003906.261718-.011719.402343-.011719 4.519531 0 8.285157 3.554688 8.5 8.117188.773438 16.410156 3.09375 33.507812 6.355469 46.910156 10.324219 42.445313 14.484375 194.554687 15.371094 232.464844h3.203125l-4.730469-115.261719c-.011719-8.476562.953125-80.371094 34.402344-102.675781 6.460937-4.316407 20.136718-8.929688 38.941406 8.621093 3.4375 3.207032 3.621094 8.597657.414062 12.035157-3.203124 3.445312-8.585937 3.640625-12.042968.417969-5.367188-5.007813-12.796875-10.253907-17.867188-6.902344-22.011718 14.675781-26.824218 68.613281-26.824218 88.152344l5.09375 123.777343c.09375 2.316407-.757813 4.574219-2.367188 6.246094-1.601562 1.675781-3.820312 2.621094-6.144531 2.621094zm0 0"/><path d="m280.214844 437.957031c-11.308594 0-21.164063-.589843-28.921875-1.9375-61.582031-10.714843-97.828125-118.277343-100.921875-127.789062-2.460938-5.332031-27.390625-58.421875-51.125-80.585938-.3125-.296875-.605469-.609375-.871094-.945312-30.886719-39.121094-61.835938-63.546875-91.992188-72.59375-3.460937-1.039063-5.894531-4.148438-6.070312-7.757813-1.878906-39.679687 4.777344-73.78125 18.269531-93.566406 19.917969-29.230469 57.117188-52.496094 58.6875-53.476562 2.046875-1.265626 4.519531-1.609376 6.824219-.953126 2.304688.652344 4.226562 2.25 5.296875 4.394532 62.675781 125.851562 171.167969 330.355468 195.453125 343.367187 8.886719 4.761719 16.570312 5.960938 22.820312 3.585938 9.449219-3.578125 13.621094-14.246094 13.664063-14.347657.109375-.292968.226563-.574218.367187-.851562l12.757813-25.519531c1.039063-2.078125 2.875-3.636719 5.089844-4.324219 2.199219-.6875 4.609375-.453125 6.648437.671875.84375.46875 85.164063 46.777344 148.25 60.382813.128906.027343.261719.0625.398438.097656 1.121094.296875 11.089844 3.207031 15.585937 13.210937 3.445313 7.632813 2.597657 16.683594-2.507812 26.894531-1.195313 2.378907-3.429688 4.066407-6.039063 4.5625-6.757812 1.277344-146.257812 27.480469-221.664062 27.480469zm-168.851563-222.304687c27.179688 25.773437 53.601563 83.492187 54.710938 85.949218.140625.3125.257812.621094.367187.941407.339844 1.074219 34.851563 107.488281 87.769532 116.691406 51.589843 8.96875 211.402343-19.433594 240.089843-24.6875 1.28125-3.574219 1.5-6.53125.597657-8.53125-1.085938-2.429687-3.882813-3.550781-4.375-3.726563-54.714844-11.875-122.015626-45.847656-144.757813-57.851562l-8.671875 17.355469c-1.253906 3.066406-8.058594 18.023437-23.386719 23.835937-11.097656 4.183594-23.507812 2.675782-36.898437-4.503906-6.730469-3.601562-24.597656-13.179688-116.410156-184.195312-36.359376-67.722657-70.199219-134.597657-81.910157-157.925782-11.519531 8.109375-33.113281 24.714844-45.832031 43.378906-10.65625 15.628907-16.363281 44.246094-15.539062 77.320313 31.519531 11.21875 63.195312 36.734375 94.246093 75.949219zm0 0"/></svg>