<?xml version="1.0" encoding="utf-8"?>
<!-- Generator: Adobe Illustrator 23.0.0, SVG Export Plug-In . SVG Version: 6.00 Build 0)  -->
<svg version="1.1" id="Layer_1" xmlns="http://www.w3.org/2000/svg" xmlns:xlink="http://www.w3.org/1999/xlink" x="0px" y="0px"
	 viewBox="0 0 100 100" style="enable-background:new 0 0 100 100;" xml:space="preserve">
<title>Unicorn</title>
<g>
	<path d="M96.8,68c-0.2-2.7-1.8-5.2-4.2-6.7L63.2,41.6L74.2,2c0.2-0.8-0.2-1.7-1-2c-0.6-0.2-1.4,0.1-1.7,0.6L50.1,30.8l-2.3-12.2
		c-0.4-2-2.3-3.2-4.2-2.8c-0.9,0.2-1.9,0.8-2.4,1.7l-4.5,7.4c-6.9-2.2-11.3,0.2-13.9,2.8c-2.7,2.8-4.5,6.3-5.3,10.2
		c-7.3,3.7-10,11.4-9.8,18.9c-2.6,3.7-8.6,15-0.5,25.4c2.9,3.7-1.7,8.8-1.8,8.8c-0.6,0.6-0.5,1.7,0.1,2.2c0.4,0.3,0.9,0.5,1.4,0.4
		c3.8-0.8,10.6-4.8,8.7-14.5c-0.2-0.8-1-1.4-1.9-1.2c-0.8,0.2-1.4,1-1.2,1.9c0.8,4.1-0.3,6.7-1.8,8.2c1-2.6,0.6-5.5-1-7.8
		C4.7,73.7,6.3,66.6,8.4,62c0.1,0.7,0.3,1.4,0.5,2.1C11,71.4,15.4,76,19.9,76c0.3,0,0.6,0,0.9-0.1c0.8-0.1,1.5-0.9,1.4-1.8
		c-0.1-0.4-0.3-0.8-0.7-1.1c0,0-5.1-3.2-2.5-11.5c0.2-0.8-0.2-1.7-1-2c-0.8-0.2-1.7,0.2-2,1c-1.2,3.3-1.1,7.1,0.1,10.4
		c-2-2.2-3.4-4.9-4.2-7.7c-2.1-7.3-1.2-16.5,5-21.3c-0.4,4.1,0,8.2,1.2,12.2c1.7,4.7,4.6,7.5,8.1,7.8h0.1c0.8,0,1.6-0.7,1.6-1.6
		c0-0.1,0-0.2,0-0.3c-1-4.7-2.3-17.7,3.6-21.1c0.2-0.1,0.4-0.3,0.5-0.5l11.8-19.2c0.1-0.2,0.4-0.3,0.6-0.1c0.1,0.1,0.2,0.2,0.2,0.3
		l2.9,15l0,0c0.1,0.4,0.3,0.7,0.6,1l0,0L91,64c1.6,0.8,2.5,2.5,2.7,4.3c0.2,1.8-0.5,3.4-1.9,4.6c-4.6,3.8-9,5.5-13.4,5
		c-4.3-0.7-8.1-3-10.7-6.4c-0.5-0.7-1.5-0.8-2.2-0.3c-0.7,0.5-0.8,1.5-0.3,2.2l0,0c2.4,3.1,5.6,5.4,9.3,6.9c-1,1.4-2.9,1.8-4.5,1
		L59.7,76l-0.5,0c-5.5,1.1-9.9,0.5-12.9-2c-5-4.1-5.1-11.6-5.1-11.8c0-0.8-0.7-1.6-1.6-1.6l0,0c-0.8,0-1.6,0.7-1.6,1.6
		c0,0.4,0.1,9.2,6.2,14.1c2.9,2.3,6.6,3.4,10.2,3.2v18.8c0,0.8,0.7,1.6,1.6,1.6c0.8,0,1.6-0.7,1.6-1.6v-19c0.5-0.1,1.1-0.1,1.7-0.2
		l9.3,4.7c3,1.6,6.8,0.5,8.6-2.3l0.4-0.7c0.1,0,0.2,0,0.3,0.1c0.6,0.1,1.4,0.1,2,0.1c4.6,0,9.3-2,13.8-5.8C96,73.4,97,70.7,96.8,68z
		 M29.6,36.5c-6.8,4.4-5.9,16.2-5.2,21.5c-1.6-1.2-2.8-3-3.3-5c-2.4-6.9-1.5-18,3.8-23.2c1.8-1.8,4.2-2.8,6.7-2.7
		c1.1,0,2.3,0.2,3.4,0.5L29.6,36.5z M51.8,33.9l3.5-5l6.9,4.9l-1.7,6L51.8,33.9z M60.8,21l4.1,2.8L63,30.4l-5.9-4.2L60.8,21z
		 M65.8,20.7l-3.1-2.2l6.1-8.6L65.8,20.7z"/>
	<path d="M55.6,55.2c0-0.6,0.5-1.1,1.1-1.1c0.6,0,1.1,0.5,1.1,1.1l0,0c0,0.8,0.7,1.6,1.6,1.6S61,56,61,55.2c0-2.4-1.9-4.3-4.3-4.3
		s-4.3,1.9-4.3,4.3l0,0c0,0.8,0.7,1.6,1.6,1.6C54.9,56.7,55.6,56,55.6,55.2z"/>
	<circle cx="85.5" cy="68.8" r="1.6"/>
</g>
</svg>
