<svg width="96" height="21" viewBox="0 0 96 21" fill="none" xmlns="http://www.w3.org/2000/svg">
<path d="M0.617074 3.97019C1.03611 3.32027 1.63067 2.80383 2.33112 2.48135C3.11827 2.11502 3.97777 1.93278 4.84504 1.94831C5.90171 1.90609 6.94882 2.16409 7.86632 2.69273C8.63186 3.15073 9.19434 3.88554 9.43867 4.74678H7.65607C7.48458 4.23987 7.13302 3.81443 6.66878 3.55203C6.1118 3.2357 5.48 3.07691 4.84047 3.09251C4.00303 3.05295 3.18323 3.34307 2.55508 3.90127C2.25421 4.19891 2.02053 4.55814 1.8699 4.95456C1.71927 5.35099 1.65521 5.77535 1.68206 6.19886C1.65904 6.62198 1.72488 7.04523 1.8753 7.44108C2.02571 7.83694 2.25733 8.19652 2.55508 8.49645C3.18277 9.05589 4.00248 9.34761 4.84047 9.3098C5.47662 9.33663 6.10821 9.19059 6.66878 8.88704C7.13965 8.62375 7.4952 8.19252 7.66521 7.67851H9.44781C9.17738 8.52827 8.60879 9.25016 7.84804 9.70958C6.94385 10.2485 5.90466 10.5149 4.85418 10.477C3.98691 10.4925 3.12742 10.3103 2.34026 9.94394C1.63949 9.61978 1.04498 9.10178 0.626216 8.4505C0.208946 7.78008 -0.00837293 7.00345 1.94089e-05 6.21265C-0.0175253 5.4205 0.197064 4.64065 0.617074 3.97019Z" fill="#F2F2F2"/>
<path d="M13.438 9.97622C12.7158 9.65461 12.0993 9.13355 11.66 8.4736C11.2235 7.80248 10.9989 7.01444 11.0155 6.21277C11.0004 5.41435 11.2319 4.63088 11.6783 3.97031C12.1284 3.3106 12.7541 2.79148 13.4837 2.47228C14.2893 2.11397 15.1625 1.93525 16.0434 1.94843C16.9241 1.93569 17.7973 2.11438 18.603 2.47228C19.3288 2.79352 19.9531 3.30842 20.4085 3.96112C20.8547 4.62518 21.0861 5.41152 21.0712 6.21277C21.0863 7.01963 20.848 7.81074 20.3902 8.4736C19.9279 9.13223 19.2958 9.65172 18.5619 9.97622C17.7506 10.3381 16.8714 10.5199 15.9839 10.5093C15.1066 10.5228 14.2371 10.3407 13.438 9.97622ZM17.6386 8.9515C18.1475 8.7287 18.5844 8.36742 18.9001 7.90839C19.2229 7.40417 19.3826 6.81186 19.3572 6.21277C19.3803 5.63794 19.2299 5.06953 18.9256 4.58232C18.6212 4.09512 18.1774 3.71194 17.6523 3.48323C17.1284 3.25887 16.5648 3.14323 15.9954 3.14323C15.4259 3.14323 14.8624 3.25887 14.3385 3.48323C13.8467 3.70587 13.4293 4.06647 13.1364 4.52174C12.819 5.02668 12.6598 5.61579 12.6793 6.21277C12.6651 6.81489 12.8238 7.40837 13.1364 7.92217C13.4237 8.37775 13.8388 8.73753 14.3293 8.95609C14.8419 9.18832 15.3989 9.30441 15.9611 9.29613C16.5381 9.30081 17.1096 9.18338 17.6386 8.9515Z" fill="#F2F2F2"/>
<path d="M39.4322 15.9821V20.8667H37.8004V16.1797C37.8226 15.8277 37.7674 15.4752 37.6386 15.1471C37.5098 14.8191 37.3107 14.5237 37.0554 14.2818C36.481 13.8184 35.7568 13.5844 35.0214 13.6247C34.2696 13.584 33.5297 13.8265 32.9463 14.3048C32.6798 14.5569 32.4722 14.8653 32.3387 15.2078C32.2051 15.5503 32.1488 15.9183 32.1738 16.2853V20.8805H30.5237V5.71641C30.5456 5.3645 30.4902 5.01206 30.3615 4.68408C30.2327 4.3561 30.0338 4.06062 29.7787 3.8186C29.209 3.34361 28.4842 3.098 27.7447 3.12932C26.9929 3.08859 26.253 3.33107 25.6696 3.80941C25.4036 4.0619 25.1964 4.37038 25.0629 4.71277C24.9293 5.05515 24.8727 5.42299 24.8971 5.78994V10.3851H23.2471V2.11379H24.8971V3.26718C25.2483 2.83038 25.709 2.49568 26.2318 2.2976C26.8227 2.05821 27.4551 1.93949 28.0921 1.94836C29.148 1.90391 30.1866 2.22868 31.0311 2.8674C31.4088 3.18955 31.707 3.59546 31.9021 4.05317C32.0972 4.51088 32.184 5.00788 32.1555 5.50503V9.69585V13.7764C32.5146 13.3298 32.989 12.9912 33.5267 12.7976C34.141 12.5561 34.7962 12.4375 35.4556 12.4484C36.1539 12.4374 36.8468 12.5735 37.4896 12.8481C38.0732 13.0984 38.5696 13.5175 38.9157 14.0521C39.2702 14.6315 39.4496 15.302 39.4322 15.9821Z" fill="#F2F2F2"/>
<path d="M36.877 3.21663V8.10131C36.8599 8.25782 36.8787 8.41617 36.9317 8.56429C36.9848 8.71241 37.0708 8.8464 37.1832 8.95602C37.5026 9.15565 37.8784 9.24443 38.2528 9.20875H39.4686V10.3713H37.9831C37.2543 10.4243 36.528 10.239 35.9126 9.84289C35.6689 9.62801 35.4793 9.35817 35.3594 9.05546C35.2394 8.75275 35.1924 8.42577 35.2224 8.10131V3.21663H33.938V2.08621H35.2224V0H36.877V2.08621H39.4686V3.21663H36.877Z" fill="#F2F2F2"/>
<path d="M50.4843 6.74117H42.5357C42.5512 7.11612 42.6499 7.48284 42.8247 7.81442C42.9995 8.14601 43.2459 8.43403 43.5459 8.65736C44.1916 9.12446 44.9721 9.36506 45.7673 9.34205C46.3888 9.3643 47.0052 9.22166 47.5545 8.92848C48.0055 8.67983 48.3611 8.28682 48.5646 7.81185H50.3426C50.0541 8.6292 49.4875 9.3177 48.7429 9.75561C47.8405 10.2809 46.8094 10.5405 45.7673 10.5046C44.8943 10.5187 44.0291 10.3366 43.2351 9.97159C42.5212 9.64839 41.9139 9.12711 41.4845 8.46896C41.053 7.79598 40.8317 7.00859 40.8491 6.20813C40.8244 5.42006 41.0349 4.64259 41.4536 3.97592C41.8724 3.30925 42.4801 2.78392 43.1985 2.46765C44.006 2.10518 44.8831 1.92631 45.7673 1.9438C46.6297 1.92807 47.4849 2.1038 48.2721 2.45846C48.9522 2.76267 49.5335 3.25313 49.9495 3.87377C50.3436 4.47633 50.549 5.18379 50.5392 5.90485C50.5384 6.1845 50.5201 6.46383 50.4843 6.74117ZM48.4183 4.26896C48.1262 3.88324 47.734 3.58592 47.2848 3.40966C46.7831 3.20971 46.2475 3.10983 45.7079 3.11557C44.9438 3.09273 44.1941 3.32725 43.5779 3.78187C43.2887 3.99797 43.049 4.27383 42.8747 4.59088C42.7005 4.90793 42.5958 5.25882 42.5677 5.61994H48.848C48.8556 5.13449 48.7047 4.65992 48.4183 4.26896Z" fill="#F2F2F2"/>
<path d="M60.5034 2.84907C60.8811 3.17122 61.1792 3.57714 61.3744 4.03485C61.5695 4.49256 61.6562 4.98956 61.6278 5.48671V10.3714H59.996V5.6843C60.0189 5.33229 59.9639 4.97956 59.8351 4.65143C59.7063 4.32331 59.5068 4.02792 59.251 3.78649C58.6766 3.32304 57.9523 3.08905 57.217 3.12938C56.4652 3.08864 55.7253 3.33113 55.1418 3.80947C54.8795 4.06367 54.6762 4.37303 54.5466 4.71541C54.417 5.05779 54.3643 5.42474 54.3922 5.78999V10.3852H52.7422V2.11384H54.3922V3.26723C54.7382 2.8348 55.1903 2.5006 55.7041 2.29765C56.2951 2.05873 56.9274 1.94003 57.5644 1.94842C58.6181 1.89869 59.6564 2.2169 60.5034 2.84907Z" fill="#F2F2F2"/>
<path d="M66.3448 3.21663V8.10131C66.3286 8.25815 66.3482 8.41662 66.4021 8.56471C66.4559 8.7128 66.5426 8.84662 66.6556 8.95602C66.975 9.15565 67.3507 9.24443 67.7251 9.20875H68.941V10.3713H67.4555C66.7266 10.425 66.0001 10.2396 65.3849 9.84289C65.1404 9.62872 64.9502 9.35899 64.8301 9.05609C64.7101 8.75319 64.6637 8.42587 64.6947 8.10131V3.21663H63.4058V2.08621H64.6947V0H66.3448V2.08621H68.941V3.21663H66.3448Z" fill="#F2F2F2"/>
<path d="M51.1562 17.2366H43.2077C43.2221 17.6111 43.3205 17.9775 43.4954 18.3085C43.6703 18.6395 43.9172 18.9265 44.2178 19.1482C44.8618 19.6191 45.6432 19.8616 46.4392 19.8375C47.0607 19.8593 47.6769 19.7167 48.2264 19.4239C48.6761 19.177 49.0302 18.7854 49.2319 18.3119H51.01C50.7274 19.13 50.1611 19.8184 49.4148 20.251C48.5131 20.778 47.4815 21.0377 46.4392 21.0001C45.5665 21.016 44.7013 20.8355 43.907 20.4716C43.1953 20.145 42.5888 19.6245 42.1564 18.969C41.726 18.2955 41.5048 17.5085 41.521 16.7082C41.5033 15.9131 41.7178 15.1303 42.1381 14.4565C42.5605 13.799 43.1662 13.2812 43.8796 12.9677C44.6871 12.6052 45.5642 12.4263 46.4483 12.4438C47.3109 12.4263 48.1666 12.6021 48.9531 12.9585C49.6333 13.2627 50.2146 13.7532 50.6306 14.3738C51.015 14.9794 51.2108 15.6867 51.1928 16.4049C51.1978 16.6826 51.1855 16.9604 51.1562 17.2366ZM49.0902 14.7644C48.7986 14.3763 48.4042 14.0785 47.9521 13.9051C47.4482 13.7012 46.9092 13.5997 46.3661 13.6064C45.6009 13.5857 44.8504 13.82 44.2315 14.2727C43.9441 14.4901 43.7058 14.7663 43.5324 15.0832C43.3591 15.4001 43.2546 15.7503 43.2259 16.1108H49.5062C49.5151 15.6287 49.3693 15.1566 49.0902 14.7644Z" fill="#F2F2F2"/>
<path d="M53.3866 14.4609C53.8044 13.8151 54.3933 13.2995 55.0869 12.9721C55.8377 12.6138 56.6601 12.433 57.4912 12.4436C58.2779 12.4191 59.0597 12.5763 59.7765 12.9032C60.3511 13.1611 60.8467 13.5689 61.2118 14.0841V12.5815H62.8801V20.8528H61.2118V19.3226C60.8376 19.8459 60.3332 20.2611 59.7491 20.5266C59.0412 20.851 58.2688 21.0082 57.4912 20.9861C56.6612 20.9995 55.8401 20.8136 55.0961 20.4439C54.4032 20.1018 53.8179 19.5738 53.4049 18.9183C52.9894 18.2475 52.7751 17.4705 52.7878 16.6804C52.7688 15.8978 52.9768 15.1266 53.3866 14.4609ZM60.7364 15.0767C60.4366 14.612 60.0119 14.2423 59.5114 14.0106C58.9799 13.7696 58.4034 13.645 57.8202 13.645C57.2371 13.645 56.6606 13.7696 56.1291 14.0106C55.6183 14.2446 55.1875 14.6249 54.8907 15.1039C54.594 15.5829 54.4444 16.1393 54.4607 16.7034C54.4437 17.2724 54.5925 17.8339 54.889 18.3189C55.1854 18.8039 55.6165 19.1911 56.1291 19.4329C56.6565 19.6816 57.2331 19.8073 57.8157 19.8005C58.4011 19.8068 58.9806 19.6812 59.5114 19.4329C60.0244 19.1941 60.4569 18.8099 60.7557 18.3275C61.0545 17.845 61.2066 17.2853 61.1935 16.7172C61.2077 16.1367 61.0485 15.5653 60.7364 15.0767Z" fill="#F2F2F2"/>
<path d="M69.3569 19.5938L72.4422 12.5815H74.202L70.3031 20.8529H68.3788L64.4753 12.5815H66.2762L69.3569 19.5938Z" fill="#F2F2F2"/>
<path d="M84.8565 17.2366H76.9079C76.9224 17.6106 77.0204 17.9765 77.1944 18.3074C77.3685 18.6382 77.6142 18.9256 77.9134 19.1482C78.5595 19.6185 79.3421 19.8609 80.1394 19.8375C80.7609 19.8593 81.3772 19.7167 81.9266 19.4239C82.3763 19.177 82.7304 18.7854 82.9322 18.3119H84.7102C84.4261 19.1292 83.8602 19.8172 83.115 20.251C82.2133 20.778 81.1817 21.0377 80.1394 21.0001C79.2667 21.016 78.4015 20.8355 77.6072 20.4716C76.9013 20.1436 76.3011 19.623 75.8749 18.969C75.4445 18.2955 75.2233 17.5085 75.2395 16.7082C75.2218 15.9131 75.4364 15.1303 75.8566 14.4565C76.2766 13.8004 76.8789 13.2827 77.5889 12.9677C78.3964 12.6052 79.2735 12.4263 80.1577 12.4438C81.0203 12.4263 81.8759 12.6021 82.6625 12.9585C83.3419 13.264 83.9228 13.7542 84.34 14.3738C84.734 14.9764 84.9394 15.6838 84.9296 16.4049C84.9224 16.6834 84.898 16.9612 84.8565 17.2366ZM82.7859 14.7644C82.496 14.3764 82.1031 14.0786 81.6523 13.9051C81.1485 13.7012 80.6094 13.5997 80.0663 13.6064C79.3011 13.5857 78.5506 13.82 77.9317 14.2727C77.6436 14.4895 77.4049 14.7656 77.2315 15.0826C77.0581 15.3995 76.954 15.7501 76.9262 16.1108H83.1881C83.203 15.63 83.0618 15.1574 82.7859 14.7644Z" fill="#F2F2F2"/>
<path d="M94.8756 13.326C95.2533 13.6514 95.5504 14.0609 95.7432 14.522C95.9361 14.9831 96.0193 15.483 95.9863 15.982V20.8667H94.3499V16.1796C94.373 15.828 94.3186 15.4756 94.1906 15.1475C94.0627 14.8195 93.8642 14.5239 93.6095 14.2818C93.0362 13.8164 92.3111 13.5822 91.5755 13.6247C90.8223 13.5841 90.081 13.8265 89.4958 14.3048C89.2303 14.5575 89.0238 14.8661 88.8911 15.2086C88.7583 15.551 88.7026 15.9187 88.7279 16.2853V20.8805H87.0732V12.6092H88.7279V13.7855C89.0758 13.3452 89.5353 13.0071 90.058 12.8068C90.649 12.5678 91.2813 12.4491 91.9183 12.4575C92.9746 12.3915 94.0207 12.6987 94.8756 13.326Z" fill="#F2F2F2"/>
</svg>
