<svg width="103" height="87" viewBox="0 0 103 87" fill="none" xmlns="http://www.w3.org/2000/svg">
<g clip-path="url(#clip0_74_924)">
<path d="M7.36789 81.4843H3.91585L3.40485 83.0487H-0.00830078L3.77699 72.6954H7.52618L11.3004 83.0487H7.87889L7.36789 81.4843ZM6.57639 79.0419L5.64048 76.1604L4.7129 79.0419H6.57639ZM14.6191 77.2108V79.6115H12.3029V77.2108H14.6191ZM21.8731 80.6063V83.0487H20.6317C18.5358 83.0487 17.4879 82.0104 17.4879 79.9339V77.2274H16.4798V74.8433H17.4879V72.8538H20.3679V74.8433H21.8592V77.2274H20.3679V79.9783C20.3598 80.065 20.3692 80.1525 20.3954 80.2355C20.4216 80.3185 20.4642 80.3955 20.5206 80.4618C20.6696 80.5732 20.8549 80.6247 21.0399 80.6063H21.8731ZM31.2377 79.5254H25.8195C25.8188 79.8933 25.9521 80.2489 26.1944 80.5257C26.3035 80.6346 26.4336 80.7201 26.5769 80.777C26.7201 80.8338 26.8735 80.8608 27.0275 80.8564C27.2438 80.8671 27.4582 80.811 27.6415 80.6957C27.8248 80.5803 27.9682 80.4114 28.0523 80.2117H31.1072C30.985 80.7682 30.7318 81.2874 30.3685 81.7261C29.9926 82.1771 29.5173 82.5348 28.9799 82.7709C28.4003 83.0308 27.7709 83.1607 27.1358 83.1515C26.3877 83.1649 25.6484 82.9891 24.9863 82.6403C24.3631 82.3047 23.8501 81.7962 23.5088 81.1759C23.1601 80.4829 22.9785 79.7178 22.9785 78.9419C22.9785 78.166 23.1601 77.4009 23.5088 76.7078C23.8496 76.09 24.3631 75.585 24.9863 75.2546C25.6563 74.9194 26.3946 74.7435 27.1436 74.7406C27.8927 74.7377 28.6323 74.9079 29.3048 75.2379C29.92 75.5629 30.4283 76.0589 30.7684 76.6661C31.131 77.3368 31.312 78.0907 31.2933 78.8529C31.2899 79.0781 31.2714 79.3027 31.2377 79.5254ZM28.3578 78.1361C28.3666 77.9796 28.3397 77.8233 28.2791 77.6788C28.2184 77.5344 28.1257 77.4057 28.0079 77.3025C27.7619 77.0983 27.4497 76.9915 27.1303 77.0024C26.8192 76.9878 26.5133 77.0865 26.2694 77.2802C26.0292 77.4974 25.8737 77.7928 25.8306 78.1138L28.3578 78.1361ZM32.7013 76.7162C32.9765 76.1213 33.4122 75.6151 33.9594 75.2546C34.4886 74.9126 35.1067 74.7338 35.7368 74.7405C36.2473 74.7264 36.7531 74.8431 37.2059 75.0795C37.5997 75.2884 37.9283 75.6018 38.1557 75.9854V74.8433H41.0217V83.0487H38.1474V81.9095C37.9175 82.294 37.5859 82.6075 37.1892 82.8153C36.7412 83.0483 36.2415 83.1639 35.7368 83.1515C35.107 83.1592 34.4889 82.9814 33.9594 82.6403C33.4107 82.2778 32.9748 81.7685 32.7013 81.1704C32.3833 80.4732 32.2258 79.7136 32.2403 78.9474C32.2226 78.1783 32.3803 77.4152 32.7013 76.7162ZM37.7169 77.697C37.5785 77.555 37.4131 77.4422 37.2304 77.3651C37.0477 77.2881 36.8515 77.2484 36.6532 77.2484C36.455 77.2484 36.2588 77.2881 36.0761 77.3651C35.8934 77.4422 35.728 77.555 35.5896 77.697C35.2892 78.0417 35.1365 78.4909 35.1647 78.9474C35.1395 79.4035 35.2918 79.8516 35.5896 80.1978C35.7235 80.3472 35.8882 80.4658 36.0723 80.5454C36.2564 80.625 36.4555 80.6638 36.656 80.6591C36.8548 80.6628 37.0521 80.6244 37.2349 80.5463C37.4178 80.4682 37.582 80.3523 37.7169 80.2062C38.0196 79.8591 38.1741 79.4072 38.1474 78.9474C38.1743 78.4901 38.0196 78.0407 37.7169 77.697ZM56.0574 75.7075C56.6461 76.3299 56.9405 77.1858 56.9405 78.2667V83.0487H54.0773V78.6362C54.0883 78.4494 54.0615 78.2623 53.9985 78.0861C53.9355 77.9099 53.8376 77.7483 53.7107 77.6109C53.4326 77.376 53.0804 77.2472 52.7164 77.2472C52.3525 77.2472 52.0003 77.376 51.7222 77.6109C51.5977 77.7494 51.5023 77.9116 51.4417 78.0877C51.3812 78.2638 51.3566 78.4504 51.3695 78.6362V83.0376H48.4923V78.6362C48.5036 78.4501 48.4777 78.2636 48.4162 78.0875C48.3547 77.9115 48.2588 77.7495 48.1341 77.6109C48.0032 77.4863 47.8482 77.3897 47.6787 77.3271C47.5091 77.2645 47.3286 77.2372 47.1482 77.2469C46.964 77.2373 46.7797 77.2646 46.6061 77.3271C46.4326 77.3896 46.2732 77.4861 46.1373 77.6109C46.0108 77.7485 45.9134 77.9103 45.8509 78.0864C45.7884 78.2626 45.7621 78.4496 45.7735 78.6362V83.0376H42.9074V74.8433H45.7735V75.927C46.0312 75.5747 46.3692 75.2889 46.7594 75.0934C47.1905 74.8792 47.6667 74.7715 48.148 74.7794C48.7109 74.769 49.2669 74.9049 49.7615 75.174C50.228 75.4339 50.6127 75.8188 50.8724 76.2855C51.166 75.8361 51.5619 75.4628 52.0277 75.1962C52.5065 74.9179 53.0514 74.774 53.6051 74.7794C54.6494 74.7739 55.4668 75.0832 56.0574 75.7075ZM64.1945 75.3546C64.6787 75.6217 65.0803 76.0168 65.3554 76.4966V75.0239H66.6995V83.2155C66.7111 83.8929 66.5506 84.5621 66.233 85.1605C65.9255 85.727 65.4606 86.1922 64.8944 86.4998C64.2725 86.8331 63.575 86.9996 62.8698 86.9833C61.9364 87.0169 61.0162 86.7554 60.2398 86.2359C59.901 86.0036 59.615 85.7024 59.4005 85.3519C59.1861 85.0013 59.0482 84.6095 58.9956 84.2019H60.312C60.4607 84.6924 60.7838 85.1115 61.2202 85.38C61.7141 85.6882 62.2879 85.8438 62.8698 85.8274C63.1994 85.8397 63.5282 85.785 63.836 85.6666C64.1439 85.5481 64.4246 85.3684 64.6611 85.1383C64.902 84.8811 65.0879 84.5774 65.2073 84.2458C65.3266 83.9142 65.3771 83.5617 65.3554 83.2099V81.526C65.0752 82.0121 64.672 82.4156 64.1862 82.6958C63.6372 83.0183 63.0091 83.1809 62.3727 83.1654C61.6897 83.174 61.0181 82.9905 60.4343 82.6358C59.8505 82.2811 59.378 81.7695 59.0706 81.1592C58.7296 80.4896 58.5588 79.7461 58.5735 78.9947C58.5565 78.2456 58.7274 77.5043 59.0706 76.8384C59.3812 76.2392 59.8549 75.7402 60.437 75.3991C61.026 75.0535 61.6983 74.8758 62.381 74.885C63.0164 74.8781 63.6422 75.0402 64.1945 75.3546ZM64.9916 77.4469C64.7646 77.0177 64.4222 76.6606 64.0029 76.4161C63.587 76.1819 63.1179 76.0588 62.6407 76.0588C62.1635 76.0588 61.6943 76.1819 61.2785 76.4161C60.8615 76.6571 60.5215 77.0117 60.2981 77.4386C60.0445 77.9252 59.9184 78.4682 59.9315 79.0169C59.918 79.5736 60.0441 80.1248 60.2981 80.6202C60.5209 81.0518 60.8607 81.412 61.2785 81.6594C61.6905 81.8993 62.1598 82.0232 62.6365 82.0179C63.1158 82.0225 63.5876 81.8987 64.0029 81.6594C64.4237 81.4131 64.7664 81.0528 64.9916 80.6202C65.242 80.1295 65.367 79.5844 65.3554 79.0336C65.369 78.4825 65.2439 77.9369 64.9916 77.4469ZM70.2821 72.2258V83.0487H68.9518V72.2258H70.2821ZM74.0035 82.6681C73.3961 82.3316 72.8986 81.827 72.5705 81.2148C72.213 80.5424 72.0342 79.7894 72.0512 79.028C72.0358 78.2695 72.2196 77.5202 72.5844 76.8551C72.9226 76.2443 73.4272 75.7423 74.0396 75.4074C74.6755 75.0744 75.3825 74.9004 76.1003 74.9004C76.818 74.9004 77.5251 75.0744 78.1609 75.4074C78.7717 75.7406 79.2761 76.2395 79.6162 76.8468C79.971 77.52 80.1565 78.2697 80.1565 79.0308C80.1565 79.7919 79.971 80.5416 79.6162 81.2148C79.2659 81.8282 78.7513 82.3316 78.1304 82.6681C77.4941 83.0139 76.7799 83.1909 76.0558 83.1821C75.3385 83.1936 74.6308 83.0164 74.0035 82.6681ZM77.3861 81.6761C77.8144 81.4428 78.167 81.0918 78.4026 80.6646C78.6744 80.163 78.8086 79.5983 78.7914 79.028C78.8085 78.4578 78.6774 77.8929 78.4109 77.3886C78.1823 76.9666 77.8372 76.6193 77.4167 76.3883C77.0053 76.1712 76.5473 76.0578 76.0822 76.0578C75.6172 76.0578 75.1591 76.1712 74.7478 76.3883C74.3325 76.6188 73.9943 76.9667 73.7758 77.3886C73.5179 77.8956 73.3919 78.4594 73.4092 79.028C73.3912 79.6002 73.5142 80.168 73.7674 80.6813C73.9808 81.1023 74.3143 81.4504 74.7256 81.6816C75.129 81.9025 75.5821 82.0163 76.042 82.0123C76.5109 82.0134 76.9728 81.8979 77.3861 81.6761ZM84.4318 75.3546C84.9815 75.048 85.6022 74.8918 86.2314 74.9017C86.9142 74.8922 87.5865 75.07 88.1755 75.4157C88.7539 75.7588 89.2244 76.2575 89.5335 76.8551C89.8767 77.521 90.0476 78.2623 90.0306 79.0113C90.0453 79.7628 89.8745 80.5063 89.5335 81.1759C89.2261 81.7862 88.7536 82.2978 88.1698 82.6525C87.586 83.0072 86.9144 83.1907 86.2314 83.1821C85.5944 83.1957 84.9653 83.0383 84.4096 82.7264C83.92 82.4568 83.5136 82.0579 83.2348 81.5733V83.0487H81.9185V72.2258H83.2487V76.5272C83.531 76.0374 83.9396 75.6324 84.4318 75.3546ZM88.306 77.4331C88.0822 77.0047 87.7399 76.6497 87.3201 76.4105C86.9038 76.1741 86.4323 76.0523 85.9537 76.0576C85.479 76.054 85.0119 76.1777 84.6012 76.4161C84.1794 76.6629 83.835 77.0229 83.607 77.4553C83.3505 77.939 83.2224 78.4805 83.2348 79.028C83.2215 79.58 83.3496 80.1262 83.607 80.6146C83.835 81.0471 84.1794 81.407 84.6012 81.6538C85.0119 81.8922 85.479 82.0159 85.9537 82.0123C86.433 82.0169 86.9048 81.8932 87.3201 81.6538C87.7407 81.4082 88.0827 81.0477 88.306 80.6146C88.5601 80.1192 88.6861 79.568 88.6726 79.0113C88.6857 78.4627 88.5596 77.9197 88.306 77.4331ZM91.7858 76.8551C92.0964 76.2559 92.5701 75.7569 93.1522 75.4157C93.7412 75.0703 94.4135 74.8926 95.0962 74.9017C95.7348 74.887 96.3657 75.0433 96.9236 75.3546C97.4046 75.624 97.8038 76.0186 98.0789 76.4966V75.0239H99.4147V83.0376H98.0705V81.5455C97.7885 82.0314 97.382 82.4333 96.893 82.7097C96.3384 83.025 95.7089 83.1844 95.0712 83.171C94.3919 83.18 93.7238 82.997 93.1438 82.6431C92.5616 82.2866 92.0903 81.7746 91.783 81.1648C91.4432 80.4947 91.2726 79.7515 91.2859 79.0002C91.273 78.2548 91.4447 77.5179 91.7858 76.8551ZM97.7067 77.4469C97.4812 77.0169 97.1396 76.6588 96.7208 76.4133C96.3044 76.1742 95.8318 76.0505 95.3517 76.0548C94.8756 76.0489 94.4067 76.1708 93.9936 76.4077C93.5773 76.6496 93.2375 77.004 93.0133 77.4303C92.7607 77.9171 92.6355 78.4601 92.6495 79.0086C92.6351 79.565 92.7602 80.1162 93.0133 80.6118C93.2369 81.0429 93.5765 81.4028 93.9936 81.6511C94.4057 81.891 94.875 82.0149 95.3517 82.0095C95.8318 82.0139 96.3044 81.8901 96.7208 81.6511C97.1409 81.4047 97.4827 81.0444 97.7067 80.6118C97.9597 80.122 98.0857 79.5765 98.0733 79.0252C98.086 78.4766 97.9599 77.9337 97.7067 77.4469ZM102.997 72.2258V83.0487H101.667V72.2258H102.997Z" fill="#D6D6D6"/>
<path d="M45.1985 16.3636L59.4677 30.5653C60.6747 31.7682 62.3089 32.4435 64.0125 32.4435C65.7161 32.4435 67.3503 31.7682 68.5574 30.5653L85.562 13.5738V0L68.5574 16.9915C67.3507 18.1951 65.7163 18.8709 64.0125 18.8709C62.3087 18.8709 60.6743 18.1951 59.4677 16.9915L45.1985 2.79256C44.0146 1.61328 42.4188 0.94088 40.7484 0.917545C39.078 0.89421 37.464 1.52177 36.2477 2.66752L17.4351 20.3843V33.9525L36.2477 16.2385C37.464 15.0928 39.078 14.4652 40.7484 14.4885C42.4188 14.5119 44.0146 15.1843 45.1985 16.3636Z" fill="#FDFDFD"/>
<path d="M59.4677 30.5654L45.1985 16.3636C44.0146 15.1843 42.4188 14.5119 40.7484 14.4886C39.078 14.4653 37.464 15.0928 36.2477 16.2386L17.4351 33.9526V47.4652L36.2477 29.7512C37.464 28.6055 39.078 27.9779 40.7484 28.0012C42.4188 28.0246 44.0146 28.697 45.1985 29.8762L59.4677 44.0808C60.6743 45.2843 62.3087 45.9602 64.0125 45.9602C65.7163 45.9602 67.3507 45.2843 68.5574 44.0808L85.562 27.0892V13.571L68.5574 30.5654C67.3503 31.7682 65.7161 32.4436 64.0125 32.4436C62.3089 32.4436 60.6747 31.7682 59.4677 30.5654Z" fill="#E5E5E5"/>
<path d="M68.5574 44.0725C67.3507 45.276 65.7163 45.9518 64.0125 45.9518C62.3087 45.9518 60.6743 45.276 59.4677 44.0725L45.1985 29.8679C44.0146 28.6887 42.4188 28.0163 40.7484 27.9929C39.078 27.9696 37.464 28.5971 36.2477 29.7429L17.4351 47.4652V63.7649L26.8303 54.6592H54.6604L58.3124 58.3826C59.0878 59.1695 60.0135 59.7923 61.0345 60.2138C62.0555 60.6353 63.1508 60.8469 64.2553 60.836C65.3597 60.8251 66.4506 60.5919 67.4631 60.1504C68.4756 59.7088 69.3889 59.068 70.1487 58.2659L85.5509 42.0079V27.0809L68.5574 44.0725ZM34.2009 46.7789L39.3026 41.1799C39.5018 40.9618 39.7452 40.7888 40.0166 40.6724C40.2881 40.556 40.5812 40.4989 40.8764 40.5049C41.1717 40.511 41.4622 40.58 41.7286 40.7074C41.9951 40.8349 42.2312 41.0177 42.4213 41.2438L47.0787 46.7789H34.2009Z" fill="#C4C4C4"/>
<path d="M39.3028 41.1798L34.2012 46.7788H47.0789L42.4216 41.2437C42.2315 41.0176 41.9953 40.8348 41.7289 40.7073C41.4625 40.5799 41.1719 40.5109 40.8767 40.5048C40.5815 40.4988 40.2883 40.5559 40.0169 40.6723C39.7455 40.7887 39.5021 40.9617 39.3028 41.1798Z" fill="#D6D6D6"/>
</g>
<defs>
<clipPath id="clip0_74_924">
<rect width="103" height="87" fill="white"/>
</clipPath>
</defs>
</svg>
