<svg width="54" height="76" viewBox="0 0 54 76" fill="none" xmlns="http://www.w3.org/2000/svg">
<path d="M0.0322388 0.137435V7.14722C0.137015 7.15531 0.28209 7.16339 0.451343 7.17956C0.620597 7.18765 0.80597 7.19573 0.999403 7.19573C1.19284 7.19573 1.39433 7.19573 1.59582 7.19573C1.79731 7.19573 1.99075 7.19573 2.17612 7.19573C2.5791 7.19573 2.95791 7.15531 3.30448 7.06637C3.65104 6.97743 3.94925 6.84807 4.20716 6.66212C4.46507 6.48424 4.66657 6.25786 4.80358 5.99105C4.9406 5.72424 5.02119 5.39275 5.02119 5.02084C5.02119 4.78637 4.98896 4.58424 4.92448 4.40637C4.85194 4.2285 4.76328 4.07488 4.66657 3.94552C4.56985 3.81616 4.44896 3.70297 4.32 3.61403C4.19104 3.52509 4.06209 3.45233 3.92507 3.40382V3.37956C4.20716 3.20977 4.41672 2.99956 4.56985 2.74892C4.72299 2.49829 4.79552 2.18297 4.79552 1.81105C4.79552 1.5685 4.75522 1.34212 4.65851 1.12382C4.56179 0.913605 4.40866 0.735733 4.20716 0.574031C4.00567 0.412328 3.74776 0.291052 3.42537 0.202116C3.10298 0.113179 2.71612 0.0727539 2.27284 0.0727539C2.07134 0.0727539 1.85373 0.0727539 1.62806 0.0727539C1.40239 0.0727539 1.18478 0.080839 0.983284 0.0889241C0.781791 0.0970092 0.588358 0.105094 0.419104 0.121265C0.249851 0.12935 0.104776 0.137435 0 0.153605L0.0322388 0.137435ZM1.71672 4.32552H2.37761C2.6597 4.32552 2.87731 4.37403 3.03851 4.47914C3.1997 4.58424 3.28836 4.73786 3.28836 4.96424C3.28836 5.19871 3.1997 5.37658 3.03851 5.50595C2.87731 5.63531 2.62746 5.70807 2.29701 5.70807C2.13582 5.70807 2.00687 5.69999 1.91821 5.68382C1.84567 5.67573 1.76507 5.66765 1.71672 5.65956V4.32552ZM2.24866 1.60892C2.45015 1.60892 2.64358 1.65743 2.81284 1.76254C2.99015 1.85956 3.07075 2.02126 3.07075 2.23148C3.07075 2.48212 2.99821 2.65999 2.84507 2.76509C2.69194 2.86212 2.49851 2.91871 2.2809 2.91871H1.71672V1.64126C1.81343 1.63318 1.89403 1.61701 1.96657 1.60892C2.0391 1.60084 2.12776 1.60084 2.23254 1.60084L2.24866 1.60892Z" fill="#F2F2F2"/>
<path d="M8.03564 0.121216V7.16334H9.75236V0.121216H8.03564Z" fill="#F2F2F2"/>
<path d="M13.0728 0.121216V7.16334H17.836V5.65951H14.7814V0.121216H13.0728Z" fill="#F2F2F2"/>
<path d="M19.3916 3.64638C19.3916 4.21234 19.4883 4.71362 19.6898 5.16638C19.8913 5.61915 20.1734 5.99915 20.528 6.31447C20.8827 6.62979 21.3018 6.86426 21.7773 7.04213C22.2609 7.21192 22.7847 7.29277 23.3489 7.29277C23.9131 7.29277 24.445 7.20383 24.9206 7.01787C25.4041 6.84 25.8233 6.58128 26.1698 6.26596C26.5244 5.94255 26.7985 5.56255 27.008 5.11787C27.2095 4.67319 27.3062 4.18 27.3062 3.64638C27.3062 3.08043 27.2095 2.57915 27.008 2.12638C26.8065 1.67362 26.5244 1.29362 26.1698 0.978298C25.8152 0.662979 25.3961 0.428511 24.9206 0.250638C24.4531 0.0808511 23.9212 0 23.357 0C22.7606 0 22.2125 0.0889362 21.7209 0.282979C21.2292 0.477021 20.8101 0.735745 20.4716 1.06723C20.125 1.39872 19.8591 1.77872 19.6656 2.2234C19.4722 2.66809 19.3755 3.13702 19.3755 3.65447L19.3916 3.64638ZM21.197 3.65447C21.197 3.33106 21.2534 3.04 21.3582 2.78128C21.463 2.52255 21.6161 2.29617 21.8095 2.11021C22.0029 1.91617 22.2286 1.77872 22.4946 1.67362C22.7606 1.56851 23.0507 1.52 23.365 1.52C23.6632 1.52 23.9453 1.56851 24.2113 1.67362C24.4773 1.77064 24.703 1.91617 24.8964 2.11021C25.0898 2.30426 25.243 2.52255 25.3477 2.78128C25.4525 3.04 25.5089 3.33106 25.5089 3.65447C25.5089 3.94553 25.4686 4.22851 25.3719 4.48723C25.2752 4.74596 25.1382 4.98043 24.9528 5.17447C24.7674 5.36851 24.5498 5.51404 24.2758 5.62723C24.0098 5.74043 23.6955 5.79702 23.3409 5.79702C23.0427 5.79702 22.7606 5.74851 22.4946 5.63532C22.2286 5.52213 22.0029 5.3766 21.8095 5.18255C21.6161 4.98851 21.463 4.77021 21.3501 4.51149C21.2292 4.25277 21.1809 3.96979 21.1809 3.66255L21.197 3.65447Z" fill="#F2F2F2"/>
<path d="M29.3936 0.121216V1.63313H32.8835L29.176 6.03951V7.16334H35.2772V5.65951H31.4569L35.1724 1.25313V0.121216H29.3936Z" fill="#F2F2F2"/>
<path d="M37.1069 3.64638C37.1069 4.21234 37.2037 4.71362 37.4051 5.16638C37.6066 5.61915 37.8887 5.99915 38.2434 6.31447C38.598 6.62979 39.0171 6.86426 39.4926 7.04213C39.9762 7.21192 40.5001 7.29277 41.0643 7.29277C41.6284 7.29277 42.1604 7.20383 42.6359 7.01787C43.1195 6.84 43.5386 6.58128 43.8851 6.26596C44.2398 5.94255 44.5138 5.56255 44.7234 5.11787C44.9249 4.67319 45.0216 4.18 45.0216 3.64638C45.0216 3.08043 44.9249 2.57915 44.7234 2.12638C44.5219 1.67362 44.2398 1.29362 43.8851 0.978298C43.5305 0.662979 43.1114 0.428511 42.6359 0.250638C42.1604 0.0808511 41.6365 0 41.0723 0C40.4759 0 39.9278 0.0889362 39.4362 0.282979C38.9446 0.477021 38.5254 0.735745 38.1869 1.06723C37.8404 1.39872 37.5744 1.77872 37.381 2.2234C37.1875 2.66809 37.0908 3.13702 37.0908 3.65447L37.1069 3.64638ZM38.9123 3.65447C38.9123 3.33106 38.9687 3.04 39.0735 2.78128C39.1783 2.52255 39.3314 2.29617 39.5249 2.11021C39.7183 1.91617 39.944 1.77872 40.2099 1.67362C40.4759 1.56851 40.766 1.52 41.0804 1.52C41.3786 1.52 41.6607 1.56851 41.9266 1.67362C42.1926 1.77064 42.4183 1.91617 42.6117 2.11021C42.8051 2.30426 42.9583 2.52255 43.0631 2.78128C43.1678 3.04 43.2243 3.33106 43.2243 3.65447C43.2243 3.94553 43.184 4.22851 43.0872 4.48723C42.9905 4.74596 42.8535 4.98043 42.6681 5.17447C42.4828 5.36851 42.2651 5.51404 41.9911 5.62723C41.7251 5.74043 41.4108 5.79702 41.0562 5.79702C40.758 5.79702 40.4759 5.74851 40.2099 5.63532C39.944 5.52213 39.7183 5.3766 39.5249 5.18255C39.3314 4.98851 39.1783 4.77021 39.0654 4.51149C38.9446 4.25277 38.8962 3.96979 38.8962 3.66255L38.9123 3.65447Z" fill="#F2F2F2"/>
<path d="M47.7537 7.16346H49.4704V4.6975H50.099L51.9205 7.16346H53.9999L51.8158 4.38218C51.9125 4.33367 52.0334 4.2609 52.1784 4.17197C52.3316 4.08303 52.4686 3.95367 52.5976 3.79197C52.7265 3.63027 52.8313 3.42814 52.928 3.19367C53.0247 2.9592 53.065 2.68431 53.065 2.34473C53.065 2.02133 53.0086 1.72218 52.9119 1.44729C52.8152 1.17239 52.654 0.937925 52.4283 0.735798C52.2026 0.53367 51.9125 0.371968 51.5578 0.258776C51.2032 0.145585 50.7761 0.0889893 50.2602 0.0889893H50.0265C49.9056 0.0889893 49.7686 0.0889893 49.6074 0.0889893C49.4462 0.0889893 49.2608 0.0889893 49.0755 0.0889893C48.882 0.0889893 48.6967 0.0889893 48.5274 0.0889893C48.3581 0.0889893 48.197 0.0889893 48.0599 0.0889893H47.7375L47.7537 7.16346ZM50.2119 1.59282C50.4134 1.59282 50.5907 1.61707 50.7196 1.6575C50.8486 1.69793 50.9534 1.75452 51.034 1.82729C51.1065 1.90005 51.1629 1.9809 51.1952 2.06984C51.2274 2.15878 51.2355 2.26388 51.2355 2.3609C51.2355 2.65197 51.1146 2.86218 50.8889 2.98346C50.6632 3.10473 50.3892 3.16133 50.0507 3.16133H49.4301V1.6009C49.6155 1.59282 49.7525 1.59282 49.8492 1.59282C49.9459 1.59282 50.0507 1.59282 50.1796 1.59282H50.2119Z" fill="#F2F2F2"/>
<path d="M0.0161194 75.8949H0.82209V73.5664C0.983284 73.5745 1.15254 73.5825 1.32985 73.5906C1.50716 73.5987 1.66836 73.5987 1.80537 73.5987C2.20836 73.5987 2.56299 73.5502 2.86119 73.4451C3.16746 73.34 3.40925 73.2026 3.61075 73.0328C3.81224 72.863 3.94925 72.6608 4.04597 72.4345C4.14269 72.2081 4.19104 71.9736 4.19104 71.723C4.19104 71.4885 4.15075 71.254 4.07821 71.0277C4.00567 70.8013 3.86866 70.6072 3.68328 70.4294C3.49791 70.2596 3.24 70.1221 2.92567 70.017C2.61134 69.9119 2.21642 69.8634 1.7409 69.8634C1.63612 69.8634 1.50716 69.8634 1.34597 69.8634C1.18478 69.8634 1.02358 69.8634 0.854328 69.8634C0.685075 69.8634 0.523881 69.8634 0.370746 69.8634C0.217612 69.8634 0.0967164 69.8634 0 69.8634L0.0161194 75.8949ZM1.80537 70.5425C2.33731 70.5425 2.72418 70.6477 2.96597 70.8579C3.21582 71.0681 3.33672 71.3511 3.33672 71.7149C3.33672 72.0949 3.19164 72.4021 2.91761 72.6123C2.64358 72.8306 2.25672 72.9438 1.76507 72.9438C1.60388 72.9438 1.44269 72.9438 1.28149 72.9357C1.1203 72.9277 0.959105 72.9196 0.797911 72.9115V70.5749C0.959105 70.5668 1.12836 70.5668 1.32179 70.5668C1.50716 70.5668 1.66836 70.5668 1.80537 70.5668V70.5425Z" fill="#F2F2F2"/>
<path d="M8.22095 75.8949H9.02692V73.4694H10.1069L12.138 75.8949H13.1212L10.9129 73.3319C11.0902 73.2915 11.2756 73.2187 11.4448 73.1217C11.6141 73.0247 11.7672 72.9034 11.8962 72.7579C12.0251 72.6124 12.1299 72.4507 12.2186 72.2566C12.3072 72.0626 12.3395 71.8524 12.3395 71.6179C12.3395 71.3753 12.2992 71.1409 12.2266 70.9226C12.1541 70.7043 12.0171 70.5183 11.8398 70.3485C11.6624 70.1868 11.4126 70.0575 11.1144 69.9604C10.8081 69.8634 10.4293 69.823 9.97797 69.823C9.92961 69.823 9.82483 69.823 9.6717 69.823C9.51856 69.823 9.34931 69.823 9.16394 69.823C8.97856 69.823 8.79319 69.823 8.61588 69.823C8.43856 69.823 8.30155 69.823 8.21289 69.823L8.22095 75.8949ZM9.94573 70.5021C10.2359 70.5021 10.4857 70.5264 10.6872 70.5911C10.8887 70.6477 11.0499 70.7285 11.1708 70.8336C11.2917 70.9387 11.3804 71.06 11.4287 71.1975C11.4771 71.3349 11.5012 71.4804 11.5012 71.6421C11.5012 71.82 11.4529 71.9898 11.3723 72.1273C11.2836 72.2647 11.1708 72.386 11.0338 72.4911C10.8887 72.5962 10.7275 72.677 10.5502 72.7255C10.3729 72.7821 10.1795 72.8064 9.99408 72.8064H9.01886V70.5587C9.18005 70.5507 9.34931 70.5507 9.52662 70.5507C9.70394 70.5507 9.84901 70.5507 9.95379 70.5507V70.5021H9.94573Z" fill="#F2F2F2"/>
<path d="M16.0791 72.8711C16.0791 73.3319 16.1678 73.7523 16.337 74.1323C16.5063 74.5123 16.74 74.8438 17.0463 75.1187C17.3525 75.3936 17.7072 75.6119 18.1263 75.7655C18.5373 75.9192 18.9806 76 19.4642 76C19.9478 76 20.3911 75.9192 20.8102 75.7655C21.2293 75.6119 21.5839 75.3936 21.8902 75.1187C22.1964 74.8438 22.4302 74.5123 22.5994 74.1323C22.7687 73.7523 22.8573 73.34 22.8573 72.8872C22.8573 72.4264 22.7687 72.006 22.5994 71.626C22.4302 71.246 22.1964 70.9145 21.8902 70.6396C21.5839 70.3647 21.2293 70.1464 20.8102 69.9928C20.3911 69.8392 19.9478 69.7583 19.4642 69.7583C18.9725 69.7583 18.5212 69.8392 18.1021 69.9928C17.683 70.1464 17.3284 70.3647 17.0221 70.6396C16.7158 70.9145 16.4821 71.246 16.3128 71.626C16.1436 72.006 16.0549 72.4102 16.0549 72.8549L16.0791 72.8711ZM16.9093 72.8549C16.9093 72.4992 16.9737 72.1758 17.1108 71.8847C17.2397 71.5936 17.4251 71.343 17.6508 71.1247C17.8764 70.9064 18.1424 70.7447 18.4567 70.6234C18.7711 70.5021 19.1015 70.4375 19.4561 70.4375C19.8027 70.4375 20.1412 70.5021 20.4475 70.6234C20.7618 70.7447 21.0278 70.9064 21.2534 71.1247C21.4791 71.343 21.6564 71.6017 21.7934 71.8928C21.9224 72.1838 21.9949 72.5153 21.9949 72.8711C21.9949 73.2106 21.9385 73.526 21.8176 73.8251C21.6967 74.1162 21.5275 74.3749 21.2937 74.5932C21.0681 74.8115 20.8021 74.9813 20.4878 75.1026C20.1734 75.2238 19.8349 75.2885 19.4561 75.2885C19.1096 75.2885 18.7711 75.2238 18.4648 75.1026C18.1505 74.9813 17.8845 74.8115 17.6588 74.5932C17.4331 74.3749 17.2558 74.1243 17.1188 73.8332C16.9899 73.5421 16.9173 73.2187 16.9173 72.8711L16.9093 72.8549Z" fill="#F2F2F2"/>
<path d="M28.1525 74.5204V69.8391H27.3466V74.3991C27.3466 74.6578 27.2902 74.8761 27.1854 75.0378C27.0806 75.1995 26.8791 75.2885 26.589 75.2885C26.4681 75.2885 26.3552 75.2723 26.2424 75.24C26.1296 75.2076 26.0328 75.1591 25.9603 75.1106L25.6863 75.6685C25.7749 75.7493 25.9039 75.8221 26.0812 75.8949C26.2585 75.9676 26.46 76 26.6776 76C27.1854 76 27.5561 75.8706 27.7818 75.6119C28.0075 75.3532 28.1203 74.9974 28.1203 74.5366L28.1525 74.5204Z" fill="#F2F2F2"/>
<path d="M32.6982 69.8392V75.8949H36.5347V75.1996H33.5042V73.1702H36.1559V72.4749H33.5042V70.5183H36.4379V69.823H32.6982V69.8392Z" fill="#F2F2F2"/>
<path d="M45.6259 75.3046L45.3035 74.7548C45.0778 74.9165 44.8199 75.0459 44.5297 75.1429C44.2396 75.2399 43.9333 75.2885 43.6109 75.2885C43.2241 75.2885 42.8694 75.2319 42.5632 75.1106C42.2488 74.9893 41.9748 74.8276 41.7491 74.6174C41.5235 74.4072 41.3462 74.1565 41.2172 73.8655C41.0963 73.5744 41.0318 73.2429 41.0318 72.8791C41.0318 72.5233 41.0882 72.1919 41.2091 71.9008C41.33 71.6097 41.4993 71.3591 41.7169 71.1408C41.9345 70.9225 42.1924 70.7608 42.4906 70.6395C42.7969 70.5182 43.1274 70.4616 43.482 70.4616C43.8285 70.4616 44.1348 70.494 44.4008 70.5748C44.6668 70.6557 44.9005 70.7689 45.1181 70.9144L45.4888 70.3646C45.2551 70.1868 44.9569 70.0331 44.6184 69.928C44.2799 69.8229 43.893 69.7744 43.4659 69.7744C42.942 69.7744 42.4826 69.8553 42.0715 70.017C41.6685 70.1787 41.3139 70.405 41.0318 70.6799C40.7497 70.9548 40.5321 71.2863 40.379 71.6663C40.2259 72.0463 40.1533 72.4506 40.1533 72.8872C40.1533 73.3642 40.242 73.7927 40.4032 74.1727C40.5644 74.5527 40.79 74.8842 41.0882 75.151C41.3784 75.4178 41.733 75.628 42.136 75.7736C42.539 75.9191 42.9984 75.9999 43.4981 75.9999C43.7077 75.9999 43.9172 75.9838 44.1106 75.9514C44.3041 75.9191 44.4975 75.8706 44.6748 75.814C44.8521 75.7493 45.0214 75.6846 45.1745 75.5957C45.3276 75.5068 45.4566 75.4178 45.5694 75.3127L45.6259 75.3046Z" fill="#F2F2F2"/>
<path d="M48.5598 69.8391V70.5344H50.881V75.9029H51.687V70.5344H54.0001V69.8391H48.5598Z" fill="#F2F2F2"/>
<path d="M0 36.3021H2.0794V65.457H0V36.3021Z" fill="#F2F2F2"/>
<path d="M9.75 36C14.1901 36 17.7822 39.4742 17.7822 43.7687C17.7822 46.1492 16.6763 48.2723 14.9385 49.7038C18.4224 50.5563 21 53.6043 21 57.2313C21 61.5178 17.3997 65 12.9678 65H6V62.9251H12.9678C16.219 62.9251 18.8631 60.3758 18.8631 57.2313C18.8631 54.0868 16.2273 51.5374 12.9678 51.5374H6V49.4706H9.75C13.0011 49.4706 15.6452 46.9212 15.6452 43.7768C15.6452 40.6323 13.0094 38.0829 9.75 38.0829H6V36H9.75Z" fill="#F2F2F2"/>
<path fill-rule="evenodd" clip-rule="evenodd" d="M0 11H54V65H25.9603V62.9194H50.4537L2.0794 14.5484V24.5H0V11ZM3.54627 13.0726H50.4537L27 36.5323L3.54627 13.0726ZM39.4603 39.0403H29.5066L39.4603 48.9919V39.0403ZM41.5397 48.9919V39.0403H51.4934L41.5397 48.9919ZM51.9206 50.4597H43.0066L51.9206 41.5403V50.4597ZM43.0066 52.5403H51.9206V61.4597L43.0066 52.5403ZM29.5066 36.9597H51.4934L40.5 25.9677L29.5066 36.9597ZM51.9206 14.5484V34.4597L41.9669 24.5L51.9206 14.5484Z" fill="#F2F2F2"/>
</svg>
