<svg width="153" height="42" viewBox="0 0 153 42" fill="none" xmlns="http://www.w3.org/2000/svg">
<path fill-rule="evenodd" clip-rule="evenodd" d="M56.9785 36.8559C58.7766 36.8559 60.2089 36.4392 61.2752 35.6059C62.3416 34.7726 62.8873 33.5453 62.9124 31.924V31.8709C62.8775 30.4717 62.3778 29.4339 61.4132 28.7577C60.2977 28.0144 59.0598 27.4803 57.7584 27.1809C57.1588 27.0185 56.5712 26.8136 55.9999 26.5676C55.5985 26.3794 55.3964 26.1474 55.3936 25.8715V25.8206C55.3942 25.7166 55.4223 25.6148 55.4749 25.5255C55.5275 25.4363 55.6026 25.3631 55.6926 25.3134C55.962 25.162 56.2672 25.0886 56.5749 25.1012C57.2622 25.1218 57.9427 25.2448 58.5947 25.4662C59.3847 25.7214 60.1475 26.0562 60.8717 26.4657L62.6155 23.1955C61.7422 22.6323 60.7917 22.2033 59.7949 21.9221C58.7647 21.6273 57.6997 21.4767 56.6293 21.4744C54.919 21.4744 53.525 21.8953 52.4476 22.7371C51.3701 23.5789 50.8188 24.7814 50.7937 26.3448V26.3999C50.8299 27.8501 51.3296 28.9112 52.2928 29.5832C53.4059 30.3212 54.6457 30.8402 55.9477 31.1133C56.5419 31.2617 57.1248 31.4539 57.6915 31.6884C58.0866 31.8645 58.2832 32.0916 58.2853 32.3675V32.4206C58.2924 32.5386 58.2671 32.6562 58.2121 32.7604C58.157 32.8646 58.0745 32.9512 57.9737 33.0105C57.6712 33.1654 57.3333 33.2351 56.9952 33.2121C56.1656 33.2013 55.3429 33.0581 54.5572 32.7877C53.6551 32.4926 52.7958 32.0765 52.0022 31.5505L50.0974 34.6849C51.0929 35.4102 52.1991 35.9644 53.3717 36.3254C54.5413 36.683 55.7569 36.8618 56.9785 36.8559Z" fill="#F2F2F2"/>
<path d="M133.883 26.3596C132.488 24.6767 129.764 24.3753 128.166 26.3596H133.883ZM137.262 33.5262C136.645 34.3564 135.874 35.0552 134.991 35.5828C134.109 36.1104 133.133 36.4564 132.118 36.601C130.07 36.8932 127.991 36.3474 126.339 35.0838C124.687 33.8203 123.597 31.9424 123.31 29.8633C123.167 28.8339 123.226 27.786 123.482 26.7796C123.739 25.7731 124.188 24.8278 124.804 23.9976C129.043 18.2889 137.573 20.8398 138.719 27.4249V30.5021H127.74C128.932 32.603 132.093 33.6026 134.002 31.0326L137.262 33.5262Z" fill="#F2F2F2"/>
<path d="M91.6369 21.7799H86.5874V36.9896H91.6369V21.7799Z" fill="#F2F2F2"/>
<path d="M38.9091 21.1517C40.4516 21.1517 41.9594 21.616 43.2419 22.4858C44.5245 23.3556 45.5241 24.5918 46.1144 26.0382C46.7047 27.4846 46.8591 29.0762 46.5582 30.6117C46.2573 32.1472 45.5145 33.5577 44.4238 34.6647C43.3331 35.7717 41.9434 36.5256 40.4306 36.8311C38.9177 37.1365 37.3496 36.9797 35.9245 36.3806C34.4995 35.7815 33.2814 34.7669 32.4245 33.4652C31.5675 32.1635 31.1101 30.633 31.1101 29.0674C31.1101 28.0279 31.3118 26.9986 31.7038 26.0382C32.0957 25.0779 32.6702 24.2052 33.3944 23.4702C34.1186 22.7351 34.9783 22.1521 35.9245 21.7543C36.8707 21.3565 37.8849 21.1517 38.9091 21.1517ZM38.9091 25.2942C38.1738 25.2942 37.455 25.5155 36.8437 25.9301C36.2323 26.3447 35.7559 26.934 35.4745 27.6235C35.1931 28.313 35.1195 29.0716 35.2629 29.8036C35.4064 30.5355 35.7604 31.2078 36.2804 31.7355C36.8003 32.2632 37.4627 32.6226 38.1838 32.7682C38.9049 32.9138 39.6524 32.8391 40.3317 32.5535C41.011 32.2679 41.5916 31.7843 42.0001 31.1637C42.4086 30.5432 42.6266 29.8137 42.6266 29.0674C42.6261 28.0671 42.2342 27.1079 41.5371 26.4007C40.8399 25.6936 39.8947 25.2963 38.9091 25.2963V25.2942Z" fill="#F2F2F2"/>
<path d="M78.3346 21.8118V22.2362C77.1497 21.5284 75.8015 21.1511 74.4267 21.1424C73.0518 21.1337 71.6991 21.4939 70.5056 22.1866C69.3121 22.8793 68.3201 23.8798 67.6302 25.0869C66.9403 26.2939 66.5769 27.6646 66.5769 29.0601C66.5769 30.4555 66.9403 31.8262 67.6302 33.0332C68.3201 34.2403 69.3121 35.2408 70.5056 35.9335C71.6991 36.6262 73.0518 36.9865 74.4267 36.9777C75.8015 36.969 77.1497 36.5917 78.3346 35.8839V41.9915H82.4181V21.8118H78.3346ZM74.3828 32.8471C73.6476 32.8471 72.9288 32.6258 72.3175 32.2112C71.7061 31.7966 71.2296 31.2073 70.9482 30.5178C70.6669 29.8283 70.5932 29.0697 70.7367 28.3377C70.8801 27.6058 71.2342 26.9335 71.7541 26.4058C72.274 25.8781 72.9364 25.5187 73.6576 25.3731C74.3787 25.2275 75.1262 25.3023 75.8055 25.5878C76.4848 25.8734 77.0654 26.357 77.4739 26.9776C77.8824 27.5981 78.1004 28.3276 78.1004 29.0738C78.0999 29.5697 78.003 30.0606 77.8154 30.5185C77.6278 30.9763 77.3532 31.3921 77.0071 31.7422C76.6611 32.0922 76.2505 32.3696 75.7987 32.5585C75.347 32.7473 74.863 32.8439 74.3745 32.8428L74.3828 32.8471Z" fill="#F2F2F2"/>
<path d="M105.273 36.8219H103.933C98.9339 36.8219 95.5697 33.1781 95.6868 28.4202V17.3467H99.7703V23.1487H104.947V27.2912H99.7703V28.486C99.7711 28.709 99.7871 28.9316 99.8184 29.1523C100.132 31.4592 101.443 32.6773 103.933 32.6773H105.273V36.8219Z" fill="#F2F2F2"/>
<path d="M119.196 37.0172H117.865C112.863 37.0172 109.501 33.3734 109.618 28.6155V17.5441H113.683V23.3461H118.862V27.4886H113.683V28.6855C113.685 28.9077 113.701 29.1296 113.731 29.3497C114.047 31.6565 115.358 32.8768 117.848 32.8768H119.188L119.196 37.0172Z" fill="#F2F2F2"/>
<path d="M152.5 25.5553H151.162C146.934 25.5553 146.98 29.4814 146.997 29.7466V36.7498H142.913V29.8124C142.807 25.0545 146.16 21.4128 151.162 21.4128H152.5V25.5553Z" fill="#F2F2F2"/>
<path d="M23.1481 36.7858V29.4113C23.1481 25.1223 19.28 25.1669 19.0186 25.1839C17.4212 25.1839 15.6544 26.6694 15.6544 29.4113V36.7858H11.5772V29.4113C11.5772 25.1223 7.70905 25.1669 7.44769 25.1839C5.85027 25.1839 4.08348 26.6694 4.08348 29.4113V36.7858H0V29.4113C0 24.8825 3.08194 21.0626 7.37869 21.0414C9.88774 20.9798 12.0915 21.9327 13.5907 23.6113C14.2461 22.809 15.0675 22.1629 15.9965 21.7187C16.9255 21.2746 17.9394 21.0433 18.9663 21.0414C23.6541 20.9268 27.2462 24.3392 27.2462 29.4113V36.7858H23.1481Z" fill="#F2F2F2"/>
<path d="M87.0307 16.2085C87.5265 13.6509 83.3395 10.6613 77.6788 9.53095C72.0182 8.40062 67.0274 9.55766 66.5317 12.1153C66.0359 14.6729 70.2229 17.6625 75.8836 18.7929C81.5442 19.9232 86.535 18.7662 87.0307 16.2085Z" fill="#F2F2F2"/>
<path opacity="0.76" d="M86.0806 17.662C88.1691 16.145 87.1403 11.0551 83.7827 6.29336C80.4252 1.53162 76.0103 -1.09876 73.9219 0.418252C71.8334 1.93526 72.8622 7.02519 76.2198 11.7869C79.5773 16.5487 83.9922 19.179 86.0806 17.662Z" fill="#F2F2F2"/>
<path d="M89.0796 20.2435C90.1235 20.2435 90.9698 19.3846 90.9698 18.3251C90.9698 17.2655 90.1235 16.4066 89.0796 16.4066C88.0357 16.4066 87.1895 17.2655 87.1895 18.3251C87.1895 19.3846 88.0357 20.2435 89.0796 20.2435Z" fill="#F2F2F2"/>
</svg>
