<svg width="186" height="27" viewBox="0 0 186 27" fill="none" xmlns="http://www.w3.org/2000/svg">
<path d="M23.4676 6.10056C23.5952 6.29736 23.2976 6.49415 23.1275 6.33672C21.6395 4.80173 19.4713 3.85712 17.048 3.85712C12.499 3.85712 8.80022 7.28132 8.80022 11.4927C8.80022 15.153 11.6062 18.2624 15.3474 18.9708C15.5175 19.0102 15.475 19.2463 15.3049 19.2463C15.1774 19.2463 15.0498 19.2463 14.9223 19.2463C9.86308 19.0889 5.82422 15.1924 5.82422 10.4694C5.82422 5.66762 10.0756 1.77112 15.2624 1.77112C18.7911 1.77112 21.8096 3.5029 23.4676 6.10056Z" fill="#F2F2F2"/>
<path d="M28.7822 11.965C28.7822 18.223 23.2978 23.3003 16.5381 23.3003C9.77829 23.3003 4.29395 18.223 4.29395 11.965C4.29395 11.3747 4.33646 10.7843 4.42149 10.2333C4.42149 10.1545 4.59155 10.1545 4.59155 10.2333C4.59155 15.8222 9.48069 20.3484 15.5177 20.3484C21.5547 20.3484 26.4439 15.8222 26.4439 10.2333C26.4439 7.16328 24.9559 4.40818 22.6601 2.55832C22.4901 2.40089 22.7026 2.12538 22.9152 2.24345C26.4439 4.2901 28.7822 7.87173 28.7822 11.965Z" fill="#F2F2F2"/>
<path d="M28.3995 17.7901C26.4439 23.1429 21.0021 27 14.5399 27C6.50469 27 0 20.8994 0 13.4606C0 6.02187 6.5472 0 14.5824 0C15.1776 0 15.8153 0.0393586 16.368 0.118076C16.6231 0.157434 16.5806 0.511662 16.3255 0.511662C16.283 0.511662 16.2405 0.511662 16.1979 0.511662C9.09806 0.511662 3.35863 5.86443 3.35863 12.516C3.35863 19.1283 9.18309 24.4811 16.3255 24.4811C21.4697 24.4811 25.9337 21.6866 28.0169 17.672C28.1019 17.3965 28.4846 17.5539 28.3995 17.7901Z" fill="#F2F2F2"/>
<path d="M42.2593 17.9476V5.23474H43.8748L50.0394 14.8382H49.1891L55.2686 5.23474H56.8842V17.9476H55.0136V7.95048H55.4812L50.0819 16.3732H49.1891L43.7473 7.95048H44.2574V17.9476H42.2593Z" fill="#F2F2F2"/>
<path d="M68.7033 18.105C66.9177 18.105 65.4722 17.6327 64.4519 16.6881C63.4316 15.7435 62.9214 14.3266 62.9214 12.4767V5.23474H64.877V12.398C64.877 13.8149 65.2172 14.8382 65.8974 15.5073C66.5776 16.1764 67.5129 16.4913 68.7458 16.4913C69.9788 16.4913 70.9566 16.1764 71.6368 15.5073C72.317 14.8382 72.6572 13.8149 72.6572 12.398V5.23474H74.5703V12.4767C74.5703 14.3266 74.0601 15.7041 73.0398 16.6881C71.9344 17.6327 70.4889 18.105 68.7033 18.105Z" fill="#F2F2F2"/>
<path d="M80.4795 17.9476V5.23474H82.4351V16.3732H89.8751V17.9476H80.4795Z" fill="#F2F2F2"/>
<path d="M95.5721 17.9476V6.80908H90.853V5.23474H102.204V6.80908H97.4853V17.9476H95.5721Z" fill="#F2F2F2"/>
<path d="M106.328 17.9476V5.23474H108.284V17.9476H106.328Z" fill="#F2F2F2"/>
<path d="M114.363 17.9476V5.23474H119.72C120.91 5.23474 121.931 5.39218 122.824 5.7464C123.674 6.10063 124.312 6.61229 124.779 7.28139C125.247 7.95048 125.46 8.73766 125.46 9.68226C125.46 10.5875 125.247 11.3747 124.779 12.0438C124.312 12.7129 123.674 13.2245 122.824 13.5788C121.973 13.933 120.953 14.1298 119.72 14.1298H115.426L116.319 13.2639V17.9869H114.363V17.9476ZM116.319 13.4213L115.426 12.5161H119.635C120.91 12.5161 121.846 12.2799 122.484 11.7683C123.121 11.2566 123.461 10.5875 123.461 9.6429C123.461 8.6983 123.121 8.0292 122.484 7.51754C121.846 7.00588 120.868 6.76973 119.635 6.76973H115.426L116.319 5.86448V13.4213Z" fill="#F2F2F2"/>
<path d="M127.543 17.9476L133.75 5.23474H135.706L141.955 17.9476H139.915L134.345 6.25806H135.111L129.541 17.9476H127.543ZM130.179 14.7595L130.689 13.3033H138.427L138.979 14.7595H130.179Z" fill="#F2F2F2"/>
<path d="M148.46 17.9476V13.1065L148.928 14.2479L143.018 5.2741H145.101L150.075 12.831H148.928L153.902 5.23474H155.857L149.948 14.2085L150.373 13.0671V17.9476H148.46Z" fill="#F2F2F2"/>
<path d="M161.554 16.3732H169.547V17.9476H159.556V5.23474H169.249V6.80908H161.554V16.3732ZM161.342 10.7056H168.399V12.2406H161.342V10.7056Z" fill="#F2F2F2"/>
<path d="M174.691 17.9476V5.23474H180.048C181.239 5.23474 182.259 5.39218 183.152 5.7464C184.002 6.10063 184.64 6.61229 185.107 7.28139C185.575 7.95048 185.788 8.73766 185.788 9.68226C185.788 10.5875 185.575 11.3747 185.107 12.0438C184.64 12.7129 184.002 13.2245 183.152 13.5788C182.301 13.933 181.281 14.0904 180.048 14.0904H175.754L176.647 13.2639V17.9869H174.691V17.9476ZM176.647 13.4213L175.754 12.5161H179.963C181.239 12.5161 182.174 12.2799 182.812 11.7683C183.449 11.2566 183.789 10.5482 183.789 9.6429C183.789 8.73766 183.449 8.0292 182.812 7.51754C182.174 7.00588 181.196 6.76973 179.963 6.76973H175.754L176.647 5.86448V13.4213ZM183.874 17.9476L180.388 13.3426H182.472L186 17.9476H183.874Z" fill="#F2F2F2"/>
</svg>
