<svg width="200" height="30" viewBox="0 0 200 30" fill="none" xmlns="http://www.w3.org/2000/svg">
<path fill-rule="evenodd" clip-rule="evenodd" d="M178.718 0.54165C178.428 0.839886 178.191 1.38292 178.191 1.74838C178.191 2.32934 177.943 2.41347 176.23 2.41347C173.151 2.41347 173.124 2.48001 173.234 9.86245C173.292 13.7536 173.45 16.002 173.661 15.9499C173.846 15.9047 174.072 14.5859 174.165 13.0193L174.332 10.171L178.946 10.0752C182.741 9.99623 183.559 9.88935 183.559 9.47182C183.559 9.04912 182.772 8.9643 178.848 8.9643H174.136L174.234 6.29225L174.332 3.6202L176.262 3.51676C178.189 3.41333 178.191 3.41436 178.191 4.41147C178.191 5.46512 179.072 6.55083 179.927 6.55083C180.696 6.55083 181.546 5.40513 181.546 4.36872V3.44781H186.54C191.425 3.44781 191.538 3.4647 191.73 4.2177C192.026 5.38168 192.559 4.56421 192.681 2.75825C192.756 1.65702 192.932 1.20673 193.289 1.20673C193.666 1.20673 193.818 1.69942 193.892 3.16095C193.98 4.87554 193.908 5.14241 193.305 5.33893C192.493 5.60372 192.408 6.14503 193.134 6.43119C193.893 6.73046 194.967 5.55752 194.967 4.42871C194.967 3.46953 195.008 3.44781 196.813 3.44781H198.658V6.20605V8.9643H192.115C186.523 8.9643 185.572 9.03946 185.572 9.48147C185.572 9.92348 186.523 9.99864 192.115 9.99864H198.658V15.3059C198.658 19.5408 198.753 20.6506 199.128 20.7986C199.387 20.9006 199.689 20.8913 199.799 20.7779C199.91 20.6648 200 16.8312 200 12.259C200 2.30762 200.033 2.41347 196.961 2.41347C195.247 2.41347 194.967 2.32417 194.967 1.77734C194.967 0.766448 193.791 -0.11757 192.79 0.140671C192.177 0.29858 191.869 0.660255 191.728 1.38843L191.528 2.41347H186.537C181.91 2.41347 181.546 2.36726 181.546 1.77734C181.546 1.01848 180.535 0 179.782 0C179.487 0 179.008 0.24376 178.718 0.54165ZM180.372 3.30403C180.372 4.88761 180.259 5.3441 179.868 5.3441C179.504 5.3441 179.336 4.88003 179.261 3.66399C179.141 1.72046 179.359 0.917462 179.953 1.12054C180.225 1.21397 180.372 1.97904 180.372 3.30403ZM82.3056 3.98463C81.7523 4.38251 81.5597 4.86727 81.5597 5.86127C81.5597 7.99753 83.6363 9.03015 85.1992 7.67137C87.5713 5.60889 84.8556 2.14902 82.3056 3.98463ZM45.9672 5.18068C41.1978 5.99367 38.5045 9.55284 38.5287 15.0104C38.5495 19.6032 40.5106 22.9779 43.8531 24.1715C46.2444 25.0259 52.8941 24.5243 53.5461 23.441C53.63 23.301 53.4578 22.459 53.1629 21.5702C52.7445 20.3076 52.5073 20.0052 52.0788 20.1879C48.5145 21.7067 44.6456 20.9265 43.5062 18.4589C41.5658 14.257 43.3548 9.34494 47.0208 8.80811C47.9384 8.67365 49.2195 8.78501 50.3559 9.09739C51.3709 9.37666 52.2962 9.49974 52.4123 9.3708C52.5284 9.24219 52.8103 8.53643 53.0388 7.80273C53.5115 6.28363 53.3585 6.07814 51.3625 5.55097C49.3923 5.03035 47.5794 4.90589 45.9672 5.18068ZM1.27164 5.45822L0 5.68888L0.000670681 14.998L0.00167734 24.307L2.02758 24.4098L4.05348 24.5122V21.2206V17.9286H6.00556C9.65003 17.9286 12.2 16.6595 13.4072 14.245C13.6143 13.8305 13.7837 12.5735 13.7837 11.4515C13.7837 7.36624 11.3116 5.47201 5.77942 5.3179C3.99979 5.26825 1.97121 5.33135 1.27164 5.45822ZM19.4876 5.47581L18.3133 5.68888L18.2237 14.7456L18.1344 23.8026L19.0625 24.1702C19.604 24.385 21.5987 24.4846 23.8494 24.4094C26.9594 24.306 28.0334 24.1295 29.3856 23.4999C32.8311 21.8953 34.339 19.2308 34.339 14.7473C34.339 9.77453 31.848 6.49912 27.3614 5.57338C25.3358 5.15551 21.5132 5.10793 19.4876 5.47581ZM65.4545 14.998V24.4794H67.4677H69.4808V20.5145V16.5495H73.1716H76.8624V14.8373V13.1251L73.2555 13.0272L69.6486 12.9293L69.5479 10.9468L69.4473 8.9643H73.6581H77.8689V7.2404V5.51649H71.6617H65.4545V14.998ZM8.69949 9.56767C9.08098 9.89934 9.47656 10.5589 9.57856 11.033C9.99562 12.9738 8.19956 14.4167 5.31169 14.4615L4.05348 14.4808V11.7225V8.9643H6.02938C7.42315 8.9643 8.20996 9.14221 8.69949 9.56767ZM27.5288 9.56835C29.2561 10.4634 30.0567 12.1287 30.0567 14.8256C30.0567 18.6968 28.3482 20.5831 24.5185 20.9399L22.5073 21.1275V15.0459V8.9643L24.4366 8.96499C25.6052 8.96499 26.8242 9.20289 27.5288 9.56835ZM93.8064 9.82522C93.6218 9.88969 92.9048 10.0393 92.2126 10.1583L90.9544 10.3748V17.4269V24.4794H92.7914H94.6284L94.7207 18.8767L94.813 13.2741L96.1725 13.1713C97.219 13.0924 97.6824 13.2392 98.1856 13.8098C98.7577 14.4584 98.853 15.1735 98.9483 19.5315L99.057 24.5122L100.961 24.4098L102.866 24.307L102.846 19.1284C102.83 14.7287 102.729 13.7436 102.175 12.5776C101.255 10.641 99.2476 9.6449 96.3356 9.6811C95.129 9.69592 93.9909 9.76109 93.8064 9.82522ZM109.241 9.96037C108.413 10.1452 108.251 10.3379 108.328 11.0402C108.592 13.433 108.491 13.3592 111.256 13.1768C113.366 13.0375 113.897 13.1124 114.449 13.6264C114.814 13.9653 115.112 14.5291 115.112 14.879C115.112 15.4324 114.827 15.5151 112.921 15.5151C108.979 15.5151 106.982 17.0153 106.982 19.9756C106.982 22.1118 107.685 23.3168 109.349 24.0312C110.682 24.6032 114.189 24.737 117.041 24.3246L118.803 24.0698V18.724C118.803 12.4042 118.521 11.455 116.317 10.3586C114.869 9.63834 111.524 9.4501 109.241 9.96037ZM125.597 10.0659L123.836 10.3962V17.4549V24.5139L125.765 24.4105L127.694 24.307L127.787 18.7044L127.879 13.1017H129.213C130.099 13.1017 130.771 13.333 131.217 13.7912C131.827 14.4174 131.888 14.9404 131.888 19.4801V24.4794H133.902H135.915L135.913 19.7387C135.911 14.4218 135.579 12.6728 134.309 11.2895C132.852 9.70247 129.813 9.27564 125.597 10.0659ZM143.967 10.4265C143.137 10.884 142.009 11.9125 141.461 12.7121C140.639 13.9116 140.441 14.588 140.332 16.5826C140.094 20.8982 141.8 23.6144 145.287 24.4739C147.007 24.898 150.072 24.7328 150.96 24.1684C151.655 23.7275 151.121 20.6127 150.387 20.823C147.741 21.5815 145.729 21.2468 144.807 19.8942C144.498 19.4405 144.303 18.3737 144.303 17.1359C144.303 15.3493 144.42 14.9976 145.317 14.0753C146.262 13.1037 146.472 13.0413 148.406 13.1537L150.481 13.2741L150.787 11.9532C150.991 11.0716 150.974 10.51 150.736 10.2648C150.539 10.0628 149.275 9.82935 147.928 9.74592C145.809 9.6149 145.273 9.70696 143.967 10.4265ZM158.451 10.3938C155.221 12.037 153.742 17.4518 155.544 21.0344C156.966 23.8602 160.359 25.22 164.309 24.5477C165.542 24.3377 166.665 24.0422 166.803 23.8916C166.942 23.7409 166.95 22.9969 166.822 22.2384C166.633 21.1285 166.459 20.8785 165.93 20.9575C165.569 21.0116 164.242 21.0892 162.981 21.1299C160.749 21.2019 160.662 21.1726 159.639 19.9973L158.589 18.7906L163.189 18.6947L167.79 18.5989V16.7636C167.79 14.4736 167.282 12.8717 166.15 11.5939C164.343 9.55318 161.099 9.04739 158.451 10.3938ZM81.8952 17.239V24.5139L83.8245 24.4105L85.7538 24.307V17.239V10.171L83.8245 10.0676L81.8952 9.96416V17.239ZM163.403 14.0102C164.621 15.6006 164.369 15.8599 161.602 15.8599C160.229 15.8599 159.029 15.7327 158.935 15.5768C158.842 15.4214 159.057 14.8007 159.414 14.1977C159.967 13.2644 160.259 13.1017 161.385 13.1017C162.414 13.1017 162.862 13.303 163.403 14.0102ZM177.329 13.5571C177.228 13.8261 177.192 14.8807 177.249 15.9009L177.352 17.7562H179.533H181.714V15.5151V13.2741L179.613 13.1713C178.039 13.0944 177.465 13.1913 177.329 13.5571ZM184.375 13.5571C184.274 13.8261 184.238 14.8807 184.295 15.9009L184.398 17.7562H186.579H188.76V15.5151V13.2741L186.659 13.1713C185.085 13.0944 184.511 13.1913 184.375 13.5571ZM191.5 13.3316C191.377 13.4578 191.276 14.5511 191.276 15.7606V17.96L193.541 17.8583C196.141 17.741 196.454 17.1525 194.053 16.8943C192.478 16.7246 192.451 16.7015 192.451 15.5151C192.451 14.4115 192.542 14.2994 193.517 14.2022C194.459 14.1084 194.596 14.2057 194.691 15.0376C194.751 15.5555 194.983 16.0409 195.206 16.1164C195.712 16.2871 196.111 14.7783 195.814 13.8161C195.624 13.2023 195.321 13.1017 193.658 13.1017C192.594 13.1017 191.623 13.2051 191.5 13.3316ZM180.707 15.5151C180.707 16.6246 180.619 16.7305 179.617 16.8298C178.546 16.936 178.526 16.9125 178.526 15.5151C178.526 14.1177 178.546 14.0943 179.617 14.2005C180.619 14.2998 180.707 14.4056 180.707 15.5151ZM187.586 15.5369C187.586 16.9098 187.564 16.9356 186.495 16.8298C185.648 16.746 185.38 16.5433 185.294 15.9209C185.117 14.637 185.475 14.136 186.569 14.136C187.534 14.136 187.586 14.207 187.586 15.5369ZM173.382 18.1586C173.259 18.2848 173.158 20.7586 173.158 23.6554C173.158 28.7075 173.189 28.9443 173.904 29.4591C174.545 29.9208 176.332 29.9959 186.654 29.9959C201.024 29.9959 200.085 30.2955 199.93 25.7586C199.852 23.5168 199.728 22.9279 199.329 22.9279C198.93 22.9279 198.806 23.5189 198.728 25.7765L198.631 28.6254L186.481 28.5347L174.332 28.4444L174.24 23.1865C174.155 18.3603 174.01 17.5128 173.382 18.1586ZM115.112 19.8249V21.3764H113.334C111.487 21.3764 110.75 20.9706 110.75 19.9528C110.75 18.8702 111.713 18.2734 113.458 18.2734H115.112V19.8249ZM177.408 21.2616C177.285 21.3878 177.184 22.3963 177.184 23.5027C177.184 25.4076 177.228 25.5138 178.007 25.5138C178.798 25.5138 178.822 25.4455 178.632 23.7899L178.433 22.066H179.654C180.818 22.066 180.875 22.1208 180.875 23.2324C180.875 24.1091 180.708 24.4439 180.204 24.5794C179.101 24.8759 179.444 25.5138 180.707 25.5138H181.882V23.2727V21.0316H179.757C178.588 21.0316 177.531 21.1351 177.408 21.2616ZM184.23 23.2568V25.5138H186.595H188.96L188.86 23.3589L188.76 21.204L186.495 21.102L184.23 21.0002V23.2568ZM187.586 23.2727C187.586 24.4219 187.53 24.4794 186.411 24.4794C185.293 24.4794 185.237 24.4219 185.237 23.2727C185.237 22.1235 185.293 22.066 186.411 22.066C187.53 22.066 187.586 22.1235 187.586 23.2727Z" fill="white"/>
</svg>
