<svg width="39" height="44" viewBox="0 0 39 44" fill="none" xmlns="http://www.w3.org/2000/svg">
<path d="M19.7096 42.6682L19.9289 43.1176L19.7096 42.6682ZM18.9148 42.6682L18.6956 43.1176L18.9148 42.6682ZM37.1244 19.3122C37.1244 26.1192 33.4198 31.5099 29.3252 35.3885C25.233 39.2647 20.8051 41.5773 19.4903 42.2189L19.9289 43.1176C21.2861 42.4553 25.8157 40.0901 30.0129 36.1145C34.2076 32.1411 38.1244 26.5058 38.1244 19.3122H37.1244ZM19.3122 1.5C29.1496 1.5 37.1244 9.4748 37.1244 19.3122H38.1244C38.1244 8.92251 29.7019 0.5 19.3122 0.5V1.5ZM1.5 19.3122C1.5 9.4748 9.4748 1.5 19.3122 1.5V0.5C8.92251 0.5 0.5 8.92251 0.5 19.3122H1.5ZM19.1341 42.2189C17.8193 41.5773 13.3915 39.2647 9.29923 35.3885C5.20458 31.5099 1.5 26.1192 1.5 19.3122H0.5C0.5 26.5058 4.4168 32.1411 8.61155 36.1145C12.8087 40.0901 17.3383 42.4553 18.6956 43.1176L19.1341 42.2189ZM19.4903 42.2189C19.3727 42.2763 19.2517 42.2763 19.1341 42.2189L18.6956 43.1176C19.0899 43.31 19.5345 43.31 19.9289 43.1176L19.4903 42.2189ZM26.6605 19.3124C26.6605 23.3706 23.3707 26.6605 19.3124 26.6605V27.6605C23.9229 27.6605 27.6605 23.9229 27.6605 19.3124H26.6605ZM19.3124 11.9643C23.3707 11.9643 26.6605 15.2541 26.6605 19.3124H27.6605C27.6605 14.7018 23.9229 10.9643 19.3124 10.9643V11.9643ZM11.9643 19.3124C11.9643 15.2541 15.2542 11.9643 19.3124 11.9643V10.9643C14.7019 10.9643 10.9643 14.7018 10.9643 19.3124H11.9643ZM19.3124 26.6605C15.2542 26.6605 11.9643 23.3706 11.9643 19.3124H10.9643C10.9643 23.9229 14.7019 27.6605 19.3124 27.6605V26.6605Z" fill="#B18636"/>
</svg>
