<svg width="21" height="20" viewBox="0 0 21 20" fill="none" xmlns="http://www.w3.org/2000/svg">
<path d="M19.2397 17.2797L18.9239 17.5804C16.8399 19.5651 13.6403 19.7907 11.2985 18.118L8.67064 16.2409C6.89919 14.9756 5.31634 13.4652 3.96948 11.7549L2.37882 9.73501C0.463565 7.30294 0.732005 3.79492 2.9737 1.65997C3.35991 1.29215 3.97012 1.289 4.35632 1.65681L7.57299 4.72031C7.98678 5.1144 7.98678 5.77449 7.57299 6.16858L6.32611 7.35609C6.13311 7.5399 6.08544 7.82942 6.20933 8.0654C7.58811 10.6916 9.7808 12.8004 12.4588 14.0756L12.6153 14.1501C12.847 14.2605 13.1227 14.2165 13.3085 14.0395L14.6437 12.7679C15.0299 12.4001 15.6368 12.4001 16.023 12.7679L19.2397 15.8314C19.6534 16.2255 19.6534 16.8856 19.2397 17.2797Z" stroke="#B18636"/>
</svg>
