<svg width="19" height="19" viewBox="0 0 19 19" fill="none" xmlns="http://www.w3.org/2000/svg">
<path d="M9.06898 1.63313C11.4921 1.63313 11.7791 1.64375 12.732 1.68626C13.6176 1.72523 14.0959 1.87402 14.4147 1.99801C14.8363 2.16097 15.141 2.35935 15.4562 2.67464C15.7751 2.99347 15.9699 3.29459 16.1329 3.71616C16.2569 4.03499 16.4057 4.51678 16.4446 5.39888C16.4871 6.35537 16.4978 6.64232 16.4978 9.0619C16.4978 11.485 16.4871 11.772 16.4446 12.7249C16.4057 13.6106 16.2569 14.0888 16.1329 14.4076C15.9699 14.8292 15.7715 15.1339 15.4562 15.4492C15.1374 15.768 14.8363 15.9628 14.4147 16.1258C14.0959 16.2498 13.6141 16.3986 12.732 16.4375C11.7755 16.48 11.4886 16.4907 9.06898 16.4907C6.64586 16.4907 6.35892 16.48 5.40596 16.4375C4.52032 16.3986 4.04207 16.2498 3.72324 16.1258C3.30168 15.9628 2.99702 15.7644 2.68173 15.4492C2.3629 15.1303 2.16805 14.8292 2.0051 14.4076C1.88111 14.0888 1.73232 13.607 1.69335 12.7249C1.65084 11.7684 1.64021 11.4815 1.64021 9.0619C1.64021 6.63878 1.65084 6.35183 1.69335 5.39888C1.73232 4.51324 1.88111 4.03499 2.0051 3.71616C2.16805 3.29459 2.36644 2.98993 2.68173 2.67464C3.00056 2.35581 3.30168 2.16097 3.72324 1.99801C4.04207 1.87402 4.52386 1.72523 5.40596 1.68626C6.35892 1.64375 6.64586 1.63313 9.06898 1.63313ZM9.06898 0C6.6069 0 6.29869 0.0106277 5.33157 0.0531386C4.36799 0.0956494 3.70553 0.251523 3.13163 0.474705C2.53294 0.708514 2.02635 1.01672 1.52331 1.52331C1.01672 2.02635 0.708514 2.53294 0.474705 3.12809C0.251523 3.70553 0.0956494 4.36445 0.0531386 5.32803C0.0106277 6.29869 0 6.6069 0 9.06898C0 11.5311 0.0106277 11.8393 0.0531386 12.8064C0.0956494 13.77 0.251523 14.4324 0.474705 15.0063C0.708514 15.605 1.01672 16.1116 1.52331 16.6147C2.02635 17.1177 2.53294 17.4295 3.12809 17.6597C3.70553 17.8829 4.36445 18.0388 5.32803 18.0813C6.29515 18.1238 6.60335 18.1344 9.06544 18.1344C11.5275 18.1344 11.8357 18.1238 12.8029 18.0813C13.7664 18.0388 14.4289 17.8829 15.0028 17.6597C15.5979 17.4295 16.1045 17.1177 16.6076 16.6147C17.1106 16.1116 17.4224 15.605 17.6526 15.0099C17.8758 14.4324 18.0317 13.7735 18.0742 12.8099C18.1167 11.8428 18.1273 11.5346 18.1273 9.07253C18.1273 6.61044 18.1167 6.30224 18.0742 5.33511C18.0317 4.37153 17.8758 3.70907 17.6526 3.13518C17.4295 2.53294 17.1213 2.02635 16.6147 1.52331C16.1116 1.02026 15.605 0.708514 15.0099 0.478247C14.4324 0.255065 13.7735 0.099192 12.8099 0.0566811C11.8393 0.0106277 11.5311 0 9.06898 0Z" fill="white"/>
<path d="M9.06864 4.41064C6.49673 4.41064 4.41016 6.49722 4.41016 9.06913C4.41016 11.641 6.49673 13.7276 9.06864 13.7276C11.6405 13.7276 13.7271 11.641 13.7271 9.06913C13.7271 6.49722 11.6405 4.41064 9.06864 4.41064ZM9.06864 12.0909C7.40009 12.0909 6.04682 10.7377 6.04682 9.06913C6.04682 7.40057 7.40009 6.04731 9.06864 6.04731C10.7372 6.04731 12.0905 7.40057 12.0905 9.06913C12.0905 10.7377 10.7372 12.0909 9.06864 12.0909Z" fill="white"/>
<path d="M14.9994 4.226C14.9994 4.82824 14.5105 5.31357 13.9118 5.31357C13.3096 5.31357 12.8242 4.82469 12.8242 4.226C12.8242 3.62376 13.3131 3.13843 13.9118 3.13843C14.5105 3.13843 14.9994 3.6273 14.9994 4.226Z" fill="white"/>
</svg>
