<svg width="225" height="60" viewBox="0 0 225 60" fill="none" xmlns="http://www.w3.org/2000/svg">
<g clip-path="url(#clip0_123_8)">
<path d="M3.21996 23.8191H5.83631C7.64763 23.8191 8.95581 25.5277 8.45266 27.2362C6.8426 32.2613 4.83002 41.206 9.05644 43.0151C9.05644 43.0151 13.1822 44.3216 15.3961 37.8895C15.3961 37.8895 14.9935 15.1759 17.0061 2.41207C17.2074 0.904534 18.7168 -0.100491 20.2262 0.301519L22.1382 0.804031C24.1508 1.40705 25.3583 3.4171 24.8552 5.42715C23.2451 11.1558 20.6288 23.3166 21.3332 38.2915C21.3332 38.2915 21.2325 41.9096 24.1508 43.0151C24.1508 43.0151 28.2766 43.5176 29.0816 38.0905C29.0816 38.0905 27.069 15.1759 30.6917 1.80906C31.0942 0.502524 32.3017 -0.301496 33.7105 -0.100491L35.6225 0.301519C37.7357 0.603026 39.1445 2.71358 38.5407 4.82413C36.83 10.4523 34.2137 22.0101 35.4212 39.2965C35.4212 39.2965 36.2262 42.6131 38.6413 42.9146C38.6413 42.9146 42.264 43.3166 43.069 39.2965C43.069 39.2965 41.8615 30.4523 43.9747 22.4121C44.3772 21.005 45.786 20.1005 47.1948 20.402L48.6036 20.7035C50.0124 21.005 50.9181 22.5126 50.4149 23.8191C49.2074 27.0352 47.6979 32.6633 49.4086 37.8895C49.4086 37.8895 53.6351 43.2161 57.0564 26.3317C57.0564 26.3317 57.6602 23.6181 57.5596 20.1005C57.5596 19.4975 57.9621 18.995 58.5659 18.995L62.1885 18.794C63.7986 18.6935 65.0061 20.1005 64.9055 21.6081C63.9998 30.2513 63.4967 38.6935 62.9935 47.4372C62.8929 49.6483 62.7923 51.8593 62.591 54.0704C62.4904 54.7739 62.3898 57.3869 59.9747 58.8945C58.8678 59.598 57.2577 60 55.0439 59.4975C49.9118 58.392 45.5847 55.2764 43.4715 53.5679C42.8678 53.0653 42.9684 52.0603 43.7734 51.7588L44.0753 51.6583C45.2828 51.1558 46.6917 51.3568 47.7986 52.0603C48.3017 52.3618 48.8049 52.7638 49.4086 53.0653C50.7168 53.7689 52.025 54.2714 53.0313 54.5729C53.2325 54.6734 54.742 55.1759 56.0501 54.1709C56.9558 53.5679 57.4589 52.6633 57.5596 51.3568C57.7608 49.1457 57.7608 46.8342 57.7608 44.3216C57.7608 41.7086 57.5596 39.397 57.3583 37.0854C55.8489 41.206 52.5281 43.6181 49.308 43.5176C48.2011 43.5176 46.8929 43.0151 45.6854 42.0101C45.6854 42.0101 37.1319 51.8593 30.4904 42.5126C30.4904 42.5126 22.5407 52.9648 15.4967 42.0101C15.4967 42.0101 12.7797 46.9347 7.64763 46.2312C7.64763 46.2312 -2.11337 45.2261 0.603608 25.8292C0.704237 24.8241 1.91178 23.8191 3.21996 23.8191Z" fill="url(#paint0_linear_123_8)"/>
<path d="M10.3643 15.3769C10.3643 17.8895 7.74795 20 5.1316 20C2.51525 20 1.10645 17.99 1.10645 15.3769C1.10645 12.7638 3.62217 10.7538 6.13789 10.7538C8.65361 10.7538 10.3643 12.8643 10.3643 15.3769Z" fill="#BA8C38"/>
<path d="M94.3901 36.2814C92.4781 41.3065 88.8555 40.603 88.8555 40.603C83.7234 38.0904 87.346 28.9447 88.9561 25.4271C89.3586 24.6231 88.8555 23.7186 87.9498 23.6181C86.7423 23.5176 85.6353 23.7186 85.6353 23.7186C78.5913 17.1859 73.6605 18.794 70.7423 21.005C69.1322 22.3115 68.0253 24.0201 67.3209 25.8291C60.3775 43.9196 72.7548 46.3316 72.7548 46.3316C78.6919 47.6382 83.019 40.9045 83.019 40.9045C90.9687 49.2462 96.1007 38.1909 96.1007 38.1909L94.3901 36.2814ZM81.2077 31.2563C81.2077 31.2563 79.8995 42.7136 74.4655 41.608C74.4655 41.608 70.4404 41.3065 72.9561 30.4522C72.9561 30.4522 74.5662 23.1156 78.6919 23.8191C82.214 24.3216 81.2077 31.2563 81.2077 31.2563Z" fill="url(#paint1_linear_123_8)"/>
</g>
<path d="M130.98 38H129.24V24H130.98V30.2H133.22L137.28 24H138.9V24.58L134.74 30.88L139.16 37.42V38H137.44L133.24 31.74H130.98V38ZM143.627 38H141.887V24H143.627V38ZM152.355 38H150.615V25.54H146.355V24H156.595V25.54H152.355V38ZM164.268 38.3C162.574 38.3 161.254 37.86 160.308 36.98C159.374 36.0867 158.908 34.8467 158.908 33.26V28.74C158.908 27.1533 159.374 25.92 160.308 25.04C161.254 24.1467 162.574 23.7 164.268 23.7C165.721 23.7 166.934 24.1067 167.908 24.92C168.881 25.7333 169.368 26.9133 169.368 28.46V28.66H167.628V28.46C167.628 27.4333 167.288 26.6533 166.608 26.12C165.941 25.5733 165.154 25.3 164.248 25.3C163.088 25.3 162.194 25.5933 161.568 26.18C160.954 26.7533 160.648 27.5667 160.648 28.62V33.38C160.648 34.4333 160.954 35.2533 161.568 35.84C162.194 36.4133 163.088 36.7 164.248 36.7C165.154 36.7 165.941 36.4267 166.608 35.88C167.288 35.3467 167.628 34.5667 167.628 33.54V33.34H169.368V33.54C169.368 35.0867 168.881 36.2667 167.908 37.08C166.934 37.8933 165.721 38.3 164.268 38.3ZM174.631 38H172.891V24H174.631V30.2H181.451V24H183.191V38H181.451V31.74H174.631V38ZM196.055 38H187.315V24H196.035V25.54H189.055V30.18H195.095V31.72H189.055V36.46H196.055V38ZM201.134 38H199.394V24H200.994L207.954 34.78V24H209.694V38H208.094L201.134 27.24V38ZM218.318 38.3C216.811 38.3 215.531 37.8867 214.478 37.06C213.438 36.2467 212.918 35.0467 212.918 33.46H214.658C214.658 34.0467 214.771 34.56 214.998 35C215.224 35.44 215.524 35.78 215.898 36.02C216.284 36.2467 216.684 36.42 217.098 36.54C217.511 36.6467 217.944 36.7 218.398 36.7C219.384 36.7 220.151 36.4933 220.698 36.08C221.244 35.6667 221.518 35.12 221.518 34.44C221.518 33.8267 221.278 33.3533 220.798 33.02C220.318 32.66 219.491 32.26 218.318 31.82L217.318 31.46C215.944 30.98 214.931 30.4533 214.278 29.88C213.664 29.3467 213.358 28.5733 213.358 27.56C213.358 26.3867 213.791 25.4533 214.658 24.76C215.524 24.0533 216.698 23.7 218.178 23.7C219.751 23.7 220.991 24.1 221.898 24.9C222.804 25.6867 223.258 26.86 223.258 28.42H221.518C221.518 27.3933 221.211 26.62 220.598 26.1C219.984 25.5667 219.171 25.3 218.158 25.3C217.238 25.3 216.498 25.5 215.938 25.9C215.378 26.2867 215.098 26.8 215.098 27.44C215.098 28.04 215.311 28.5133 215.738 28.86C216.151 29.1933 216.918 29.5533 218.038 29.94L218.978 30.28C220.391 30.8133 221.411 31.3067 222.038 31.76C222.918 32.3867 223.358 33.2533 223.358 34.36C223.358 35.5467 222.911 36.5 222.018 37.22C221.138 37.94 219.904 38.3 218.318 38.3Z" fill="#B18636"/>
<rect opacity="0.2" x="111" y="16" width="1" height="31" fill="#D9D9D9"/>
<defs>
<linearGradient id="paint0_linear_123_8" x1="32.5187" y1="-0.131165" x2="32.5187" y2="59.722" gradientUnits="userSpaceOnUse">
<stop stop-color="#D5A141"/>
<stop offset="0.34375" stop-color="#B18636"/>
</linearGradient>
<linearGradient id="paint1_linear_123_8" x1="80.6534" y1="19.0695" x2="80.6534" y2="46.4999" gradientUnits="userSpaceOnUse">
<stop stop-color="#D5A141"/>
<stop offset="0.34375" stop-color="#B18636"/>
</linearGradient>
<clipPath id="clip0_123_8">
<rect width="96" height="60" fill="white"/>
</clipPath>
</defs>
</svg>
