<svg width="39" height="38" viewBox="0 0 39 38" fill="none" xmlns="http://www.w3.org/2000/svg">
<path d="M2.82418 5.71833L6.9688 1.67997C7.35712 1.30161 7.97621 1.30161 8.36453 1.67997L15.5983 8.72822C16.0011 9.12073 16.0011 9.76816 15.5983 10.1607L12.5291 13.1511C12.2146 13.4576 12.1368 13.9333 12.3373 14.3239L12.834 15.292C15.1055 19.7184 18.751 23.289 23.2237 25.468L24.3678 26.0254C24.7471 26.2101 25.2015 26.137 25.5037 25.8426L28.6355 22.7911C29.0238 22.4127 29.6429 22.4127 30.0312 22.7911L37.2649 29.8393C37.6678 30.2318 37.6678 30.8793 37.2649 31.2718L32.9658 35.4607C30.8686 37.5041 27.6027 37.7353 25.2385 36.0076L14.652 28.2713C12.8929 26.9859 11.3254 25.457 9.99649 23.7305L2.25678 13.6755C0.399969 11.2632 0.64387 7.84273 2.82418 5.71833Z" stroke="#B18636"/>
</svg>
