<?xml version="1.0" encoding="utf-8"?>
<!-- Generator: Adobe Illustrator 23.0.0, SVG Export Plug-In . SVG Version: 6.00 Build 0)  -->
<svg version="1.1" id="Layer_1" xmlns="http://www.w3.org/2000/svg" xmlns:xlink="http://www.w3.org/1999/xlink" x="0px" y="0px"
	 viewBox="0 0 100 100" style="enable-background:new 0 0 100 100;fill: #fff" xml:space="preserve">
<g>
	<path d="M94.7,50L94.7,50c-4.7-10.1-20.1-17.1-31-18.9C59.9,21.9,50.1,20.4,48.9,20l0,0C24.9,15.2-9.6,42.3,6.6,63.7
		c6.1,8,22.8,6.2,34.2,1.5c10.3,11.3,37.7,23,51.6,9.1C98.3,68.2,99.2,58.9,94.7,50z M76.5,36.6c21.7,9.8,20.1,23,14.5,26.6
		c-6.3-10.8-16.4-18.3-27.5-20.4c1.3-3.4,1.6-6.7,0.6-10.2C68,33.3,72.2,34.7,76.5,36.6z M63.1,44c11.2,2,21,9.6,26.9,19.8
		c-10,4.9-26.6-0.9-36.2-7.4C58.2,52.1,61.3,47.9,63.1,44z M63.5,36.7c0,7.1-5.8,14.2-10.7,19c-5.1-3.7-7.3-7.3-8.2-10
		c8.1-6.3,15-16.3,8.6-23C58.8,25.1,63.5,30.4,63.5,36.7z M53.7,32.5c-1.1,3.3-3.7,6.8-7.6,10.2c-0.8,0.2-1.5,0.3-2.1,0.5
		C43.5,36.8,47.5,33.6,53.7,32.5z M34.6,50.4c-7.6,3.7-16.1,5.8-24.1,3.3C13.4,43.5,33.8,26.3,54.1,31c0,0,0,0,0,0.1
		c-0.7,0.1-1.4,0.2-2,0.4l0,0C42.5,33.5,34.7,40.6,34.6,50.4z M54.3,29.8C33.3,25,12.4,42.5,9.3,53.3c-5.5-2.2-4.2-6.3-3.6-9.8
		C15,22.1,55.8,11.9,54.3,29.8z M7.6,62.9C4.5,58.8,3.3,54.1,4,49.2c1.4,7.5,16.3,9.5,30.6,2.6c0.3,4.3,2.1,8.5,5.3,12.4
		C28,69,12.9,69.9,7.6,62.9z M54.6,73.6c-23.2-11.7-22.8-29.9-9.9-37.9C34.6,50.2,62.5,66.8,80.8,66.8c7.5,0,14.2-2.2,14.9-9.8
		C99.6,74.2,81.8,87.4,54.6,73.6z"/>
</g>
</svg>
