<?xml version="1.0" encoding="utf-8"?>
<!-- Generator: Adobe Illustrator 24.0.0, SVG Export Plug-In . SVG Version: 6.00 Build 0)  -->
<svg version="1.1" id="Layer_1" xmlns="http://www.w3.org/2000/svg" xmlns:xlink="http://www.w3.org/1999/xlink" x="0px" y="0px"
	 viewBox="0 0 80 80" style="enable-background:new 0 0 80 80;" xml:space="preserve">
<style type="text/css">
	.st0{fill:none;stroke:#000000;stroke-width:1.2;stroke-miterlimit:10;}
	.st1{fill:#231F20;}
	.st2{fill:none;stroke:#000000;stroke-width:0.5;stroke-miterlimit:10;}
	.st3{fill:none;stroke:#000000;stroke-width:2;stroke-miterlimit:10;}
</style>
<g>
	<g>
		<polygon class="st0" points="46.7,74.4 28.1,74.4 33.6,48 52.2,48 		"/>
		<g>
			<path class="st1" d="M37.4,54.9h1.1l0.7-3.4L38.1,52l-0.4-1.1l2-1h1.2l-1,5h1l-0.3,1.2h-3.4L37.4,54.9z"/>
			<path class="st1" d="M42.6,54.5c0.1,0.2,0.3,0.3,0.5,0.4c0.2,0.1,0.4,0.1,0.7,0.1c0.2,0,0.3,0,0.5-0.1c0.1-0.1,0.3-0.1,0.4-0.2
				c0.1-0.1,0.2-0.2,0.3-0.3C45,54.3,45,54.2,45,54c0-0.1,0-0.2,0-0.3c0-0.1-0.1-0.2-0.1-0.3c-0.1-0.1-0.2-0.2-0.3-0.2
				c-0.1-0.1-0.3-0.1-0.5-0.1c-0.2,0-0.3,0-0.5,0.1c-0.1,0-0.3,0.1-0.4,0.1l-0.5-0.5l1.1-2.9h3.3l-0.3,1.2h-2.3l-0.4,1
				c0,0,0.1,0,0.3-0.1c0.1,0,0.2,0,0.4,0c0.3,0,0.6,0,0.8,0.1c0.2,0.1,0.4,0.2,0.6,0.4c0.1,0.2,0.2,0.4,0.3,0.6s0,0.5,0,0.8
				c-0.1,0.3-0.2,0.6-0.3,0.8c-0.2,0.3-0.3,0.5-0.6,0.7c-0.2,0.2-0.5,0.4-0.8,0.5c-0.3,0.1-0.7,0.2-1.1,0.2c-0.5,0-0.8-0.1-1.1-0.2
				c-0.3-0.1-0.5-0.3-0.7-0.6L42.6,54.5z"/>
			<path class="st1" d="M39.4,62l-1.2-2.3h1.7l0.6,1.2l1.1-1.2H43L41,61.9l1.2,2.4h-1.7L39.9,63l-1.2,1.3h-1.5L39.4,62z"/>
			<path class="st1" d="M33.3,71.7c0.1-0.3,0.2-0.6,0.4-0.9c0.2-0.3,0.4-0.5,0.7-0.7c0.2-0.2,0.5-0.4,0.8-0.6
				c0.3-0.2,0.5-0.4,0.8-0.5c0.2-0.2,0.4-0.3,0.6-0.5c0.2-0.2,0.3-0.3,0.3-0.5c0-0.2,0-0.3-0.1-0.4c-0.1-0.1-0.3-0.2-0.6-0.2
				c-0.1,0-0.3,0-0.4,0.1c-0.1,0-0.2,0.1-0.3,0.2c-0.1,0.1-0.2,0.1-0.3,0.2C35.1,67.9,35,68,34.9,68l-0.9-0.7
				c0.1-0.1,0.3-0.3,0.4-0.4c0.2-0.1,0.3-0.3,0.6-0.4c0.2-0.1,0.4-0.2,0.7-0.3c0.3-0.1,0.5-0.1,0.8-0.1c0.4,0,0.6,0.1,0.9,0.2
				c0.2,0.1,0.4,0.2,0.6,0.4c0.1,0.2,0.2,0.4,0.3,0.6c0,0.2,0,0.4,0,0.6c-0.1,0.3-0.2,0.6-0.4,0.8c-0.2,0.2-0.4,0.5-0.6,0.6
				c-0.2,0.2-0.5,0.4-0.7,0.5c-0.3,0.2-0.5,0.3-0.7,0.5c-0.2,0.2-0.4,0.3-0.6,0.4c-0.2,0.1-0.3,0.3-0.3,0.4h2.6l-0.3,1.3h-4.2
				L33.3,71.7z"/>
			<path class="st1" d="M39.3,71.3h1.1l0.7-3.4L40,68.4l-0.4-1.1l2-1h1.2l-1,5h1l-0.3,1.2h-3.4L39.3,71.3z"/>
		</g>
	</g>
	<polyline class="st2" points="48.2,67.5 48.2,75 50.7,75 51.9,72.5 49.4,62.4 	"/>
</g>
</svg>
