<?xml version="1.0" encoding="utf-8"?>
<!-- Generator: Adobe Illustrator 24.0.0, SVG Export Plug-In . SVG Version: 6.00 Build 0)  -->
<svg version="1.1" id="Layer_1" xmlns="http://www.w3.org/2000/svg" xmlns:xlink="http://www.w3.org/1999/xlink" x="0px" y="0px"
	 viewBox="0 0 80 80" style="enable-background:new 0 0 80 80;" xml:space="preserve">
<style type="text/css">
	.st0{fill:none;stroke:#000000;stroke-width:1.2;stroke-miterlimit:10;}
	.st1{fill:#231F20;}
	.st2{fill:none;stroke:#000000;stroke-width:0.5;stroke-miterlimit:10;}
	.st3{fill:none;stroke:#000000;stroke-width:2;stroke-miterlimit:10;}
</style>
<g>
	<rect x="20" y="25" class="st3" width="40" height="50"/>
	<g>
		<path class="st1" d="M32.3,36.3l4.1-6.1h2.1v6h1V38h-1v1.7h-2V38h-4.2V36.3z M36.5,36.3v-3.5l-2.3,3.5H36.5z"/>
		<path class="st1" d="M44.1,40c-0.6,0-1.2-0.1-1.6-0.4c-0.5-0.2-0.8-0.6-1.2-1c-0.3-0.4-0.6-1-0.7-1.6c-0.2-0.6-0.2-1.3-0.2-2
			c0-0.7,0.1-1.4,0.2-2c0.2-0.6,0.4-1.1,0.7-1.6c0.3-0.4,0.7-0.8,1.2-1c0.5-0.2,1-0.4,1.6-0.4c0.6,0,1.2,0.1,1.7,0.4
			c0.5,0.2,0.9,0.6,1.2,1c0.3,0.4,0.5,1,0.7,1.6c0.2,0.6,0.2,1.3,0.2,2c0,0.7-0.1,1.4-0.2,2c-0.2,0.6-0.4,1.2-0.7,1.6
			c-0.3,0.4-0.7,0.8-1.2,1C45.3,39.8,44.8,40,44.1,40z M44.2,38c0.3,0,0.5-0.1,0.7-0.2c0.2-0.2,0.4-0.4,0.5-0.7
			c0.1-0.3,0.2-0.6,0.3-1s0.1-0.8,0.1-1.2c0-0.4,0-0.8-0.1-1.2c-0.1-0.4-0.2-0.7-0.3-0.9c-0.1-0.3-0.3-0.5-0.5-0.6
			c-0.2-0.1-0.4-0.2-0.7-0.2c-0.3,0-0.5,0.1-0.7,0.2c-0.2,0.2-0.4,0.4-0.5,0.6c-0.1,0.3-0.2,0.6-0.3,0.9c-0.1,0.4-0.1,0.8-0.1,1.2
			c0,0.4,0,0.8,0.1,1.2c0.1,0.4,0.1,0.7,0.3,1c0.1,0.3,0.3,0.5,0.5,0.7C43.6,37.9,43.9,38,44.2,38z"/>
		<path class="st1" d="M38.8,51.2l-2.6-3.5h2.6l1.3,1.9l1.3-1.9h2.4l-2.5,3.4l2.7,3.7h-2.6l-1.4-2l-1.4,2h-2.4L38.8,51.2z"/>
		<path class="st1" d="M33.3,67.3c0.3,0.3,0.6,0.4,0.9,0.6c0.3,0.2,0.7,0.2,1.1,0.2c0.3,0,0.5,0,0.7-0.1c0.2-0.1,0.4-0.2,0.5-0.3
			c0.1-0.1,0.2-0.3,0.3-0.5c0.1-0.2,0.1-0.4,0.1-0.6c0-0.2,0-0.3-0.1-0.5c-0.1-0.2-0.2-0.3-0.3-0.5c-0.1-0.1-0.3-0.3-0.5-0.3
			c-0.2-0.1-0.5-0.1-0.8-0.1c-0.3,0-0.5,0-0.7,0.1c-0.2,0.1-0.4,0.1-0.6,0.2l-1-0.7l0.8-4.4h5.1v1.9h-3.6l-0.3,1.5
			c0.1,0,0.2-0.1,0.4-0.1c0.2,0,0.4,0,0.6,0c0.5,0,0.9,0.1,1.3,0.2c0.4,0.1,0.7,0.3,1,0.6c0.3,0.3,0.5,0.6,0.7,1s0.2,0.8,0.2,1.2
			c0,0.4-0.1,0.9-0.2,1.3c-0.1,0.4-0.4,0.8-0.7,1.1c-0.3,0.3-0.7,0.6-1.2,0.7c-0.5,0.2-1,0.3-1.7,0.3c-0.7,0-1.3-0.1-1.8-0.3
			s-1-0.5-1.3-0.9L33.3,67.3z"/>
		<path class="st1" d="M44.1,70c-0.6,0-1.2-0.1-1.6-0.4c-0.5-0.2-0.8-0.6-1.2-1c-0.3-0.4-0.6-1-0.7-1.6c-0.2-0.6-0.2-1.3-0.2-2
			c0-0.7,0.1-1.4,0.2-2c0.2-0.6,0.4-1.1,0.7-1.6c0.3-0.4,0.7-0.8,1.2-1c0.5-0.2,1-0.4,1.6-0.4c0.6,0,1.2,0.1,1.7,0.4
			c0.5,0.2,0.9,0.6,1.2,1c0.3,0.4,0.5,1,0.7,1.6c0.2,0.6,0.2,1.3,0.2,2c0,0.7-0.1,1.4-0.2,2c-0.2,0.6-0.4,1.2-0.7,1.6
			c-0.3,0.4-0.7,0.8-1.2,1C45.3,69.9,44.8,70,44.1,70z M44.2,68c0.3,0,0.5-0.1,0.7-0.2s0.4-0.4,0.5-0.7c0.1-0.3,0.2-0.6,0.3-1
			c0.1-0.4,0.1-0.8,0.1-1.2c0-0.4,0-0.8-0.1-1.2c-0.1-0.4-0.2-0.7-0.3-0.9c-0.1-0.3-0.3-0.5-0.5-0.6c-0.2-0.1-0.4-0.2-0.7-0.2
			c-0.3,0-0.5,0.1-0.7,0.2c-0.2,0.2-0.4,0.4-0.5,0.6c-0.1,0.3-0.2,0.6-0.3,0.9c-0.1,0.4-0.1,0.8-0.1,1.2c0,0.4,0,0.8,0.1,1.2
			c0.1,0.4,0.1,0.7,0.3,1c0.1,0.3,0.3,0.5,0.5,0.7S43.9,68,44.2,68z"/>
	</g>
</g>
</svg>
