<?xml version="1.0" encoding="UTF-8"?><svg id="_лой_2" xmlns="http://www.w3.org/2000/svg" viewBox="0 0 365.44 138.99"><defs><style>.cls-1{fill:#1d1d1b;}.cls-2{stroke-width:5px;}.cls-2,.cls-3{fill:none;stroke:#1d1d1b;stroke-miterlimit:10;}</style></defs><g id="_лой_1-2"><polyline class="cls-2" points="49.61 69.9 21.74 69.9 5.02 100.78"/><polyline class="cls-2" points="99.63 100.78 52.08 5.68 33.94 43.42"/><path class="cls-3" d="M33.54,42.44c2.4,1.28,8.68,5.04,12.58,12.75,3.16,6.25,3.19,11.99,3.02,14.71"/><g><path class="cls-1" d="M160.63,32.78h4.7v.2l-31.2,68.3h-1.6l-31.2-68.3v-.2h4.6l24,52.5c1.67,3.6,2.8,6.2,3.4,7.8,.07-.2,1.23-2.87,3.5-8l23.8-52.3Z"/><path class="cls-1" d="M218.23,32.78v4.1h-22v63.9h-4.5V36.88h-22.1v-4.1h48.6Z"/><path class="cls-1" d="M257.03,101.88c-9.87,0-18.03-3.4-24.5-10.2-6.47-6.8-9.7-15.1-9.7-24.9s3.21-18.43,9.65-25.1c6.43-6.67,14.62-10,24.55-10s18.22,3.33,24.65,10c6.43,6.67,9.65,15.03,9.65,25.1s-3.23,18.18-9.7,24.95c-6.47,6.77-14.67,10.15-24.6,10.15Zm0-4.1c8.67,0,15.8-2.97,21.4-8.9,5.6-5.93,8.4-13.3,8.4-22.1s-2.79-16.33-8.35-22.2c-5.57-5.87-12.72-8.8-21.45-8.8s-15.78,2.93-21.35,8.8c-5.57,5.87-8.35,13.27-8.35,22.2s2.8,16.08,8.4,22.05c5.6,5.97,12.7,8.95,21.3,8.95Z"/><path class="cls-1" d="M336.63,71.98l20.3,28.6v.2h-5.1l-20.2-28.6h-18.6v28.6h-4.4V32.78h25.4c5.87,0,10.85,1.92,14.95,5.75,4.1,3.83,6.15,8.52,6.15,14.05,0,5-1.7,9.32-5.1,12.95-3.4,3.63-7.87,5.78-13.4,6.45Zm-23.6-3.9h20.8c4.93,0,8.97-1.46,12.1-4.4,3.13-2.93,4.7-6.63,4.7-11.1s-1.58-8.12-4.75-11.15c-3.17-3.03-7.12-4.55-11.85-4.55h-21v31.2Z"/></g><g><path class="cls-1" d="M8.27,127.64l5.31,5.68v.1h-1.21l-5.05-5.38v5.38h-1.02v-5.38l-5.12,5.38H0v-.1l5.36-5.68-4.8-5.12v-.07H1.8l4.51,4.88v-4.88h1.02v4.88l4.46-4.88h1.24v.07l-4.76,5.12Z"/><path class="cls-1" d="M24.43,122.44h.36v10.97h-1.02v-7.53c0-.15,0-.37,.01-.66,0-.29,.01-.5,.01-.64-.42,.53-.74,.93-.97,1.2l-6.41,7.62h-.36v-10.97h1.02v7.38c0,.15,0,.39-.01,.71,0,.33-.01,.57-.01,.74l1.09-1.35,6.28-7.47Z"/><path class="cls-1" d="M30.98,133.41v-10h-3.64v-.97h8.32v.97h-3.66v10h-1.02Z"/><path class="cls-1" d="M35.79,133.54l-.12-.92c1.73-.22,2.69-1.54,2.89-3.98l.51-6.2h6.65v10.97h-1.02v-9.97h-4.71l-.44,5.12c-.11,1.6-.47,2.8-1.08,3.59-.61,.79-1.5,1.25-2.68,1.39Z"/><path class="cls-1" d="M58.35,132.06c-1.02,1.07-2.33,1.6-3.93,1.6s-2.91-.53-3.93-1.6-1.53-2.44-1.53-4.12,.51-3.06,1.53-4.14,2.33-1.61,3.93-1.61,2.91,.54,3.93,1.61,1.53,2.45,1.53,4.14-.51,3.06-1.53,4.12Zm-7.11-.71c.82,.89,1.88,1.34,3.18,1.34s2.36-.45,3.19-1.34,1.25-2.03,1.25-3.41-.42-2.55-1.25-3.44-1.9-1.34-3.19-1.34-2.35,.45-3.18,1.34c-.83,.89-1.24,2.04-1.24,3.44s.41,2.52,1.24,3.41Z"/><path class="cls-1" d="M69.3,127.79c.68,.17,1.2,.48,1.57,.95,.36,.47,.55,1.03,.55,1.7,0,.9-.3,1.62-.9,2.16-.6,.54-1.45,.81-2.55,.81h-4.8v-10.97h4.34c1.08,0,1.92,.27,2.51,.81,.59,.54,.89,1.25,.89,2.11,0,1.18-.53,1.99-1.6,2.42Zm-1.8-4.38h-3.32v3.97h3.32c.76,0,1.35-.18,1.76-.54s.62-.84,.62-1.44-.21-1.08-.62-1.45c-.41-.37-1-.55-1.76-.55Zm.49,9.03c.78,0,1.37-.18,1.78-.55,.41-.37,.62-.87,.62-1.5s-.21-1.11-.62-1.49c-.41-.38-1.01-.56-1.78-.56h-3.81v4.1h3.81Z"/><path class="cls-1" d="M83.08,122.44h.36v10.97h-1.02v-7.53c0-.15,0-.37,.01-.66,0-.29,.01-.5,.01-.64-.42,.53-.74,.93-.97,1.2l-6.41,7.62h-.36v-10.97h1.02v7.38c0,.15,0,.39-.01,.71,0,.33-.01,.57-.01,.74l1.09-1.35,6.28-7.47Z"/><path class="cls-1" d="M95.94,122.44h.36v10.97h-1.02v-7.53c0-.15,0-.37,.01-.66,0-.29,.01-.5,.01-.64-.42,.53-.74,.93-.97,1.2l-6.41,7.62h-.36v-10.97h1.02v7.38c0,.15,0,.39-.01,.71,0,.33-.01,.57-.01,.74l1.09-1.35,6.28-7.47Zm-3.88-2.58c-1.28,0-2.25-.53-2.91-1.58l.63-.5c.57,.8,1.33,1.2,2.28,1.2s1.71-.4,2.28-1.2l.63,.5c-.66,1.05-1.63,1.58-2.91,1.58Z"/><path class="cls-1" d="M113.26,127.76l6.02,5.55v.1h-1.29l-5.68-5.25v5.25h-1.02v-10.97h1.02v4.95l5.22-4.95h1.26v.07l-5.53,5.25Z"/><path class="cls-1" d="M129.55,132.06c-1.02,1.07-2.33,1.6-3.93,1.6s-2.91-.53-3.93-1.6c-1.02-1.07-1.53-2.44-1.53-4.12s.51-3.06,1.53-4.14c1.02-1.08,2.33-1.61,3.93-1.61s2.91,.54,3.93,1.61,1.53,2.45,1.53,4.14-.51,3.06-1.53,4.12Zm-7.11-.71c.83,.89,1.88,1.34,3.18,1.34s2.36-.45,3.19-1.34,1.25-2.03,1.25-3.41-.42-2.55-1.25-3.44-1.9-1.34-3.19-1.34-2.35,.45-3.18,1.34-1.24,2.04-1.24,3.44,.41,2.52,1.24,3.41Z"/><path class="cls-1" d="M144.52,122.44l1.02,10.97h-1l-.75-7.67-.07-1.03c-.19,.28-.45,.62-.75,1.03l-3.3,4.62h-.24l-3.23-4.5c-.52-.72-.8-1.11-.85-1.17l-.07,1.17-.73,7.55h-1l1.02-10.97h.29l4.12,5.7c.21,.3,.4,.56,.56,.78l.58-.78,4.08-5.7h.32Z"/><path class="cls-1" d="M149.13,133.41v-10.97h8.66v10.97h-1.02v-10h-6.62v10h-1.02Z"/><path class="cls-1" d="M160.19,133.54l-.12-.92c1.73-.22,2.69-1.54,2.89-3.98l.51-6.2h6.65v10.97h-1.02v-9.97h-4.71l-.44,5.12c-.11,1.6-.47,2.8-1.08,3.59-.61,.79-1.5,1.25-2.68,1.39Z"/><path class="cls-1" d="M178.68,122.19c1.5,0,2.67,.49,3.51,1.46,.83,.98,1.25,2.25,1.25,3.81,0,.18-.02,.49-.05,.92h-8.98c.08,1.32,.54,2.36,1.37,3.14,.83,.78,1.82,1.16,2.97,1.16,1.42,0,2.6-.48,3.54-1.45l.58,.77c-1.15,1.1-2.52,1.65-4.1,1.65s-2.9-.54-3.91-1.62c-1-1.08-1.5-2.46-1.5-4.12s.49-2.95,1.48-4.06c.99-1.11,2.26-1.66,3.83-1.66Zm-.02,.97c-1.15,0-2.12,.4-2.9,1.2-.79,.8-1.23,1.83-1.35,3.1h8.03c0-1.32-.33-2.36-.98-3.14-.66-.77-1.59-1.16-2.8-1.16Z"/><path class="cls-1" d="M188.51,127.76l6.02,5.55v.1h-1.29l-5.68-5.25v5.25h-1.02v-10.97h1.02v4.95l5.22-4.95h1.26v.07l-5.53,5.25Z"/><path class="cls-1" d="M200.66,133.64c-1.47,0-2.72-.53-3.74-1.59-1.02-1.06-1.53-2.44-1.53-4.14s.52-3.12,1.57-4.15c1.04-1.03,2.33-1.55,3.85-1.55,1.42,0,2.68,.48,3.76,1.45l-.58,.75c-.96-.8-2.01-1.2-3.18-1.2-1.28,0-2.33,.44-3.14,1.31-.82,.88-1.22,2-1.22,3.39s.41,2.54,1.22,3.42c.82,.88,1.84,1.33,3.07,1.33,1.31,0,2.45-.45,3.42-1.35l.58,.77c-.57,.52-1.16,.9-1.77,1.16-.61,.26-1.38,.39-2.3,.39Z"/><path class="cls-1" d="M218.3,133.41v-10.97h8.66v10.97h-1.02v-10h-6.62v10h-1.02Z"/><path class="cls-1" d="M236.55,122.24c1.52,0,2.77,.53,3.76,1.6,.99,1.07,1.48,2.42,1.48,4.08s-.49,3.03-1.48,4.1c-.99,1.07-2.25,1.6-3.79,1.6-.96,0-1.83-.23-2.62-.7s-1.41-1.09-1.84-1.88c.03,1.07,.05,2.02,.05,2.85v5.03h-1.02v-16.47h.78l.22,2.38c.45-.8,1.06-1.43,1.83-1.89,.77-.46,1.65-.69,2.63-.69Zm-.07,10.4c1.25,0,2.27-.44,3.08-1.32,.81-.88,1.21-2.01,1.21-3.38s-.4-2.51-1.2-3.39-1.83-1.31-3.09-1.31-2.35,.44-3.18,1.31-1.24,2-1.24,3.36,.42,2.52,1.25,3.4c.83,.88,1.89,1.32,3.17,1.32Z"/><path class="cls-1" d="M249.53,122.19c1.5,0,2.67,.49,3.51,1.46,.83,.98,1.25,2.25,1.25,3.81,0,.18-.02,.49-.05,.92h-8.98c.08,1.32,.54,2.36,1.37,3.14,.83,.78,1.82,1.16,2.97,1.16,1.42,0,2.6-.48,3.54-1.45l.58,.77c-1.15,1.1-2.52,1.65-4.1,1.65s-2.9-.54-3.91-1.62c-1-1.08-1.5-2.46-1.5-4.12s.49-2.95,1.48-4.06c.99-1.11,2.26-1.66,3.83-1.66Zm-.02,.97c-1.15,0-2.12,.4-2.9,1.2-.79,.8-1.23,1.83-1.35,3.1h8.03c0-1.32-.33-2.36-.98-3.14-.66-.77-1.59-1.16-2.8-1.16Z"/><path class="cls-1" d="M267.83,122.44l1.02,10.97h-1l-.75-7.67-.07-1.03c-.19,.28-.45,.62-.75,1.03l-3.3,4.62h-.24l-3.23-4.5c-.52-.72-.8-1.11-.85-1.17l-.07,1.17-.73,7.55h-1l1.02-10.97h.29l4.12,5.7c.21,.3,.4,.56,.56,.78l.58-.78,4.08-5.7h.32Z"/><path class="cls-1" d="M273.54,118.94c-.15,.15-.35,.22-.59,.22s-.44-.08-.59-.24c-.15-.16-.23-.35-.23-.59s.08-.43,.23-.6c.15-.17,.35-.25,.59-.25s.44,.08,.59,.25c.15,.17,.23,.38,.23,.62,0,.23-.08,.42-.23,.58Zm-1.1,14.47v-10.97h1.02v10.97h-1.02Z"/><path class="cls-1" d="M285.2,122.44h1.07v.05l-4.63,11.4c-.63,1.57-1.27,2.74-1.9,3.51-.64,.78-1.55,1.3-2.73,1.59l-.22-.88c1-.23,1.78-.7,2.32-1.39,.54-.69,1.09-1.73,1.64-3.11l.12-.33-4.9-10.8v-.05h1.07l3.15,6.95c.47,1.05,.86,1.98,1.17,2.78,.4-1.12,.76-2.04,1.07-2.78l2.79-6.95Z"/><path class="cls-1" d="M299.01,122.44l1.02,10.97h-1l-.75-7.67-.07-1.03c-.19,.28-.45,.62-.75,1.03l-3.3,4.62h-.24l-3.23-4.5c-.52-.72-.8-1.11-.85-1.17l-.07,1.17-.73,7.55h-1l1.02-10.97h.29l4.12,5.7c.21,.3,.4,.56,.56,.78l.58-.78,4.08-5.7h.32Z"/><path class="cls-1" d="M319.95,122.24c1.52,0,2.77,.53,3.76,1.6,.99,1.07,1.48,2.42,1.48,4.08s-.49,3.03-1.48,4.1c-.99,1.07-2.25,1.6-3.79,1.6-.96,0-1.83-.23-2.62-.7s-1.41-1.09-1.84-1.88c.03,1.07,.05,2.02,.05,2.85v5.03h-1.02v-16.47h.78l.22,2.38c.45-.8,1.06-1.43,1.83-1.89,.77-.46,1.65-.69,2.63-.69Zm-.07,10.4c1.25,0,2.27-.44,3.08-1.32,.81-.88,1.21-2.01,1.21-3.38s-.4-2.51-1.2-3.39-1.83-1.31-3.09-1.31-2.35,.44-3.18,1.31-1.24,2-1.24,3.36,.42,2.52,1.25,3.4c.83,.88,1.89,1.32,3.17,1.32Z"/><path class="cls-1" d="M329.57,118.94c-.15,.15-.35,.22-.59,.22s-.44-.08-.59-.24c-.15-.16-.23-.35-.23-.59s.08-.43,.23-.6c.15-.17,.35-.25,.59-.25s.44,.08,.59,.25c.15,.17,.23,.38,.23,.62,0,.23-.08,.42-.23,.58Zm-1.1,14.47v-10.97h1.02v10.97h-1.02Z"/><path class="cls-1" d="M339.72,127.79c.68,.17,1.2,.48,1.57,.95,.36,.47,.55,1.03,.55,1.7,0,.9-.3,1.62-.9,2.16-.6,.54-1.45,.81-2.55,.81h-4.8v-10.97h4.34c1.08,0,1.92,.27,2.51,.81,.59,.54,.89,1.25,.89,2.11,0,1.18-.53,1.99-1.6,2.42Zm-1.79-4.38h-3.32v3.97h3.32c.76,0,1.35-.18,1.76-.54,.41-.36,.62-.84,.62-1.44s-.21-1.08-.62-1.45c-.41-.37-1-.55-1.76-.55Zm.48,9.03c.78,0,1.37-.18,1.78-.55,.41-.37,.62-.87,.62-1.5s-.21-1.11-.62-1.49c-.41-.38-1.01-.56-1.78-.56h-3.81v4.1h3.81Z"/><path class="cls-1" d="M352.8,122.44h1.02v10.97h-1.02v-5.05h-6.65v5.05h-1.02v-10.97h1.02v4.95h6.65v-4.95Z"/><path class="cls-1" d="M361.37,122.44h4.08v10.97h-1.02v-4.38h-3.28l-3.25,4.38h-1.14v-.12l3.28-4.38c-1.7-.4-2.55-1.45-2.55-3.15,0-1.08,.34-1.91,1.02-2.47,.68-.57,1.63-.85,2.86-.85Zm0,5.67h3.06v-4.7h-3.06c-1.91,0-2.86,.78-2.86,2.35s.95,2.35,2.86,2.35Z"/></g></g></svg>