<svg xmlns="http://www.w3.org/2000/svg" xmlns:xlink="http://www.w3.org/1999/xlink" width="1440" height="249.35"><defs><style>.cls-193{fill:#fff}</style><linearGradient id="Безымянный_градиент_35" data-name="Безымянный градиент 35" y1="139.97" x2="1440" y2="139.97" gradientUnits="userSpaceOnUse"><stop offset="0" stop-color="#50de8d"/><stop offset="1" stop-color="#36bbb2"/></linearGradient><linearGradient id="Безымянный_градиент_35-2" x1="149" y1="118.8" x2="1291" y2="118.8" xlink:href="#Безымянный_градиент_35"/><linearGradient id="Безымянный_градиент_35-3" x1="466.62" y1="211.95" x2="566.04" y2="211.95" xlink:href="#Безымянный_градиент_35"/><linearGradient id="Безымянный_градиент_35-4" x1="261.25" y1="110.71" x2="264.25" y2="110.71" xlink:href="#Безымянный_градиент_35"/><linearGradient id="Безымянный_градиент_35-5" x1="276.18" y1="110.71" x2="279.18" y2="110.71" xlink:href="#Безымянный_градиент_35"/><linearGradient id="Безымянный_градиент_35-6" x1="291.81" y1="110.71" x2="294.81" y2="110.71" xlink:href="#Безымянный_градиент_35"/><linearGradient id="Безымянный_градиент_35-7" x1="306.73" y1="110.71" x2="309.73" y2="110.71" xlink:href="#Безымянный_градиент_35"/><linearGradient id="Безымянный_градиент_35-8" x1="321.84" y1="110.71" x2="324.84" y2="110.71" xlink:href="#Безымянный_градиент_35"/><linearGradient id="Безымянный_градиент_35-9" x1="336.77" y1="110.71" x2="339.77" y2="110.71" xlink:href="#Безымянный_градиент_35"/><linearGradient id="Безымянный_градиент_35-10" x1="352.4" y1="110.71" x2="355.4" y2="110.71" xlink:href="#Безымянный_градиент_35"/><linearGradient id="Безымянный_градиент_35-11" x1="261.25" y1="134.85" x2="264.25" y2="134.85" xlink:href="#Безымянный_градиент_35"/><linearGradient id="Безымянный_градиент_35-12" x1="276.18" y1="134.85" x2="279.18" y2="134.85" xlink:href="#Безымянный_градиент_35"/><linearGradient id="Безымянный_градиент_35-13" x1="291.81" y1="134.85" x2="294.81" y2="134.85" xlink:href="#Безымянный_градиент_35"/><linearGradient id="Безымянный_градиент_35-14" x1="306.73" y1="134.85" x2="309.73" y2="134.85" xlink:href="#Безымянный_градиент_35"/><linearGradient id="Безымянный_градиент_35-15" x1="321.84" y1="134.85" x2="324.84" y2="134.85" xlink:href="#Безымянный_градиент_35"/><linearGradient id="Безымянный_градиент_35-16" x1="352.4" y1="134.85" x2="355.4" y2="134.85" xlink:href="#Безымянный_градиент_35"/><linearGradient id="Безымянный_градиент_35-17" x1="261.25" y1="158.99" x2="264.25" y2="158.99" xlink:href="#Безымянный_градиент_35"/><linearGradient id="Безымянный_градиент_35-18" x1="276.18" y1="158.99" x2="279.18" y2="158.99" xlink:href="#Безымянный_градиент_35"/><linearGradient id="Безымянный_градиент_35-19" x1="291.81" y1="158.99" x2="294.81" y2="158.99" xlink:href="#Безымянный_градиент_35"/><linearGradient id="Безымянный_градиент_35-20" x1="306.73" y1="158.99" x2="309.73" y2="158.99" xlink:href="#Безымянный_градиент_35"/><linearGradient id="Безымянный_градиент_35-21" x1="261.25" y1="183.13" x2="264.25" y2="183.13" xlink:href="#Безымянный_градиент_35"/><linearGradient id="Безымянный_градиент_35-22" x1="276.18" y1="183.13" x2="279.18" y2="183.13" xlink:href="#Безымянный_градиент_35"/><linearGradient id="Безымянный_градиент_35-23" x1="291.81" y1="183.13" x2="294.81" y2="183.13" xlink:href="#Безымянный_градиент_35"/><linearGradient id="Безымянный_градиент_35-24" x1="306.73" y1="183.13" x2="309.73" y2="183.13" xlink:href="#Безымянный_градиент_35"/><linearGradient id="Безымянный_градиент_35-25" x1="744.52" y1="29.82" x2="747.52" y2="29.82" xlink:href="#Безымянный_градиент_35"/><linearGradient id="Безымянный_градиент_35-26" x1="759.44" y1="29.82" x2="762.44" y2="29.82" xlink:href="#Безымянный_градиент_35"/><linearGradient id="Безымянный_градиент_35-27" x1="775.07" y1="29.82" x2="778.07" y2="29.82" xlink:href="#Безымянный_градиент_35"/><linearGradient id="Безымянный_градиент_35-28" x1="790" y1="29.82" x2="793" y2="29.82" xlink:href="#Безымянный_градиент_35"/><linearGradient id="Безымянный_градиент_35-29" x1="805.11" y1="29.82" x2="808.11" y2="29.82" xlink:href="#Безымянный_градиент_35"/><linearGradient id="Безымянный_градиент_35-30" x1="820.03" y1="29.82" x2="823.03" y2="29.82" xlink:href="#Безымянный_градиент_35"/><linearGradient id="Безымянный_градиент_35-31" x1="835.66" y1="29.82" x2="838.66" y2="29.82" xlink:href="#Безымянный_градиент_35"/><linearGradient id="Безымянный_градиент_35-32" x1="744.52" y1="53.96" x2="747.52" y2="53.96" xlink:href="#Безымянный_градиент_35"/><linearGradient id="Безымянный_градиент_35-33" x1="759.44" y1="53.96" x2="762.44" y2="53.96" xlink:href="#Безымянный_градиент_35"/><linearGradient id="Безымянный_градиент_35-34" x1="775.07" y1="53.96" x2="778.07" y2="53.96" xlink:href="#Безымянный_градиент_35"/><linearGradient id="Безымянный_градиент_35-35" x1="790" y1="53.96" x2="793" y2="53.96" xlink:href="#Безымянный_градиент_35"/><linearGradient id="Безымянный_градиент_35-36" x1="805.11" y1="53.96" x2="808.11" y2="53.96" xlink:href="#Безымянный_градиент_35"/><linearGradient id="Безымянный_градиент_35-37" x1="820.03" y1="53.96" x2="823.03" y2="53.96" xlink:href="#Безымянный_градиент_35"/><linearGradient id="Безымянный_градиент_35-38" x1="835.66" y1="53.96" x2="838.66" y2="53.96" xlink:href="#Безымянный_градиент_35"/><linearGradient id="Безымянный_градиент_35-39" x1="744.52" y1="78.1" x2="747.52" y2="78.1" xlink:href="#Безымянный_градиент_35"/><linearGradient id="Безымянный_градиент_35-40" x1="759.44" y1="78.1" x2="762.44" y2="78.1" xlink:href="#Безымянный_градиент_35"/><linearGradient id="Безымянный_градиент_35-41" x1="775.07" y1="78.1" x2="778.07" y2="78.1" xlink:href="#Безымянный_градиент_35"/><linearGradient id="Безымянный_градиент_35-42" x1="790" y1="78.1" x2="793" y2="78.1" xlink:href="#Безымянный_градиент_35"/><linearGradient id="Безымянный_градиент_35-43" x1="805.11" y1="78.1" x2="808.11" y2="78.1" xlink:href="#Безымянный_градиент_35"/><linearGradient id="Безымянный_градиент_35-44" x1="820.03" y1="78.1" x2="823.03" y2="78.1" xlink:href="#Безымянный_градиент_35"/><linearGradient id="Безымянный_градиент_35-45" x1="835.66" y1="78.1" x2="838.66" y2="78.1" xlink:href="#Безымянный_градиент_35"/><linearGradient id="Безымянный_градиент_35-46" x1="744.52" y1="102.24" x2="747.52" y2="102.24" xlink:href="#Безымянный_градиент_35"/><linearGradient id="Безымянный_градиент_35-47" x1="759.44" y1="102.24" x2="762.44" y2="102.24" xlink:href="#Безымянный_градиент_35"/><linearGradient id="Безымянный_градиент_35-48" x1="775.07" y1="102.24" x2="778.07" y2="102.24" xlink:href="#Безымянный_градиент_35"/><linearGradient id="Безымянный_градиент_35-49" x1="790" y1="102.24" x2="793" y2="102.24" xlink:href="#Безымянный_градиент_35"/><linearGradient id="Безымянный_градиент_35-50" x1="805.11" y1="102.24" x2="808.11" y2="102.24" xlink:href="#Безымянный_градиент_35"/><linearGradient id="Безымянный_градиент_35-51" x1="820.03" y1="102.24" x2="823.03" y2="102.24" xlink:href="#Безымянный_градиент_35"/><linearGradient id="Безымянный_градиент_35-52" x1="835.66" y1="102.24" x2="838.66" y2="102.24" xlink:href="#Безымянный_градиент_35"/><linearGradient id="Безымянный_градиент_35-53" x1="744.52" y1="126.38" x2="747.52" y2="126.38" xlink:href="#Безымянный_градиент_35"/><linearGradient id="Безымянный_градиент_35-54" x1="759.44" y1="126.38" x2="762.44" y2="126.38" xlink:href="#Безымянный_градиент_35"/><linearGradient id="Безымянный_градиент_35-55" x1="775.07" y1="126.38" x2="778.07" y2="126.38" xlink:href="#Безымянный_градиент_35"/><linearGradient id="Безымянный_градиент_35-56" x1="790" y1="126.38" x2="793" y2="126.38" xlink:href="#Безымянный_градиент_35"/><linearGradient id="Безымянный_градиент_35-57" x1="805.11" y1="126.38" x2="808.11" y2="126.38" xlink:href="#Безымянный_градиент_35"/><linearGradient id="Безымянный_градиент_35-58" x1="820.03" y1="126.38" x2="823.03" y2="126.38" xlink:href="#Безымянный_градиент_35"/><linearGradient id="Безымянный_градиент_35-59" x1="835.66" y1="126.38" x2="838.66" y2="126.38" xlink:href="#Безымянный_градиент_35"/><linearGradient id="Безымянный_градиент_35-60" x1="744.52" y1="150.52" x2="747.52" y2="150.52" xlink:href="#Безымянный_градиент_35"/><linearGradient id="Безымянный_градиент_35-61" x1="759.44" y1="150.52" x2="762.44" y2="150.52" xlink:href="#Безымянный_градиент_35"/><linearGradient id="Безымянный_градиент_35-62" x1="744.52" y1="174.66" x2="747.52" y2="174.66" xlink:href="#Безымянный_градиент_35"/><linearGradient id="Безымянный_градиент_35-63" x1="759.44" y1="174.66" x2="762.44" y2="174.66" xlink:href="#Безымянный_градиент_35"/><linearGradient id="Безымянный_градиент_35-64" x1="744.52" y1="198.72" x2="747.52" y2="198.72" xlink:href="#Безымянный_градиент_35"/><linearGradient id="Безымянный_градиент_35-65" x1="759.44" y1="198.72" x2="762.44" y2="198.72" xlink:href="#Безымянный_градиент_35"/><linearGradient id="Безымянный_градиент_35-66" x1="744.52" y1="225.51" x2="747.52" y2="225.51" xlink:href="#Безымянный_градиент_35"/><linearGradient id="Безымянный_градиент_35-67" x1="759.44" y1="225.51" x2="762.44" y2="225.51" xlink:href="#Безымянный_градиент_35"/><linearGradient id="Безымянный_градиент_35-68" x1="775.07" y1="150.52" x2="778.07" y2="150.52" xlink:href="#Безымянный_градиент_35"/><linearGradient id="Безымянный_градиент_35-69" x1="790" y1="150.52" x2="793" y2="150.52" xlink:href="#Безымянный_градиент_35"/><linearGradient id="Безымянный_градиент_35-70" x1="775.07" y1="174.66" x2="778.07" y2="174.66" xlink:href="#Безымянный_градиент_35"/><linearGradient id="Безымянный_градиент_35-71" x1="790" y1="174.66" x2="793" y2="174.66" xlink:href="#Безымянный_градиент_35"/><linearGradient id="Безымянный_градиент_35-72" x1="775.07" y1="198.72" x2="778.07" y2="198.72" xlink:href="#Безымянный_градиент_35"/><linearGradient id="Безымянный_градиент_35-73" x1="790" y1="198.72" x2="793" y2="198.72" xlink:href="#Безымянный_градиент_35"/><linearGradient id="Безымянный_градиент_35-74" x1="775.07" y1="225.51" x2="778.07" y2="225.51" xlink:href="#Безымянный_градиент_35"/><linearGradient id="Безымянный_градиент_35-75" x1="790" y1="225.51" x2="793" y2="225.51" xlink:href="#Безымянный_градиент_35"/><linearGradient id="Безымянный_градиент_35-76" x1="805.11" y1="150.52" x2="808.11" y2="150.52" xlink:href="#Безымянный_градиент_35"/><linearGradient id="Безымянный_градиент_35-77" x1="820.03" y1="150.52" x2="823.03" y2="150.52" xlink:href="#Безымянный_градиент_35"/><linearGradient id="Безымянный_градиент_35-78" x1="805.11" y1="174.66" x2="808.11" y2="174.66" xlink:href="#Безымянный_градиент_35"/><linearGradient id="Безымянный_градиент_35-79" x1="820.03" y1="174.66" x2="823.03" y2="174.66" xlink:href="#Безымянный_градиент_35"/><linearGradient id="Безымянный_градиент_35-80" x1="805.11" y1="198.72" x2="808.11" y2="198.72" xlink:href="#Безымянный_градиент_35"/><linearGradient id="Безымянный_градиент_35-81" x1="820.03" y1="198.72" x2="823.03" y2="198.72" xlink:href="#Безымянный_градиент_35"/><linearGradient id="Безымянный_градиент_35-82" x1="805.11" y1="225.51" x2="808.11" y2="225.51" xlink:href="#Безымянный_градиент_35"/><linearGradient id="Безымянный_градиент_35-83" x1="820.03" y1="225.51" x2="823.03" y2="225.51" xlink:href="#Безымянный_градиент_35"/><linearGradient id="Безымянный_градиент_35-84" x1="835.66" y1="150.52" x2="838.66" y2="150.52" xlink:href="#Безымянный_градиент_35"/><linearGradient id="Безымянный_градиент_35-85" x1="835.66" y1="174.66" x2="838.66" y2="174.66" xlink:href="#Безымянный_градиент_35"/><linearGradient id="Безымянный_градиент_35-86" x1="835.66" y1="198.72" x2="838.66" y2="198.72" xlink:href="#Безымянный_градиент_35"/><linearGradient id="Безымянный_градиент_35-87" x1="835.66" y1="225.51" x2="838.66" y2="225.51" xlink:href="#Безымянный_градиент_35"/><linearGradient id="Безымянный_градиент_35-88" x1="1108.73" y1="29.82" x2="1111.73" y2="29.82" xlink:href="#Безымянный_градиент_35"/><linearGradient id="Безымянный_градиент_35-89" x1="1124.36" y1="29.82" x2="1127.36" y2="29.82" xlink:href="#Безымянный_градиент_35"/><linearGradient id="Безымянный_градиент_35-90" x1="1139.28" y1="29.82" x2="1142.28" y2="29.82" xlink:href="#Безымянный_градиент_35"/><linearGradient id="Безымянный_градиент_35-91" x1="1154.39" y1="29.82" x2="1157.39" y2="29.82" xlink:href="#Безымянный_градиент_35"/><linearGradient id="Безымянный_градиент_35-92" x1="1169.32" y1="29.82" x2="1172.32" y2="29.82" xlink:href="#Безымянный_градиент_35"/><linearGradient id="Безымянный_градиент_35-93" x1="1184.95" y1="29.82" x2="1187.95" y2="29.82" xlink:href="#Безымянный_градиент_35"/><linearGradient id="Безымянный_градиент_35-94" x1="1093.8" y1="53.96" x2="1096.8" y2="53.96" xlink:href="#Безымянный_градиент_35"/><linearGradient id="Безымянный_градиент_35-95" x1="1108.73" y1="53.96" x2="1111.73" y2="53.96" xlink:href="#Безымянный_градиент_35"/><linearGradient id="Безымянный_градиент_35-96" x1="1124.36" y1="53.96" x2="1127.36" y2="53.96" xlink:href="#Безымянный_градиент_35"/><linearGradient id="Безымянный_градиент_35-97" x1="1139.28" y1="53.96" x2="1142.28" y2="53.96" xlink:href="#Безымянный_градиент_35"/><linearGradient id="Безымянный_градиент_35-98" x1="1154.39" y1="53.96" x2="1157.39" y2="53.96" xlink:href="#Безымянный_градиент_35"/><linearGradient id="Безымянный_градиент_35-99" x1="1169.32" y1="53.96" x2="1172.32" y2="53.96" xlink:href="#Безымянный_градиент_35"/><linearGradient id="Безымянный_градиент_35-100" x1="1184.95" y1="53.96" x2="1187.95" y2="53.96" xlink:href="#Безымянный_градиент_35"/><linearGradient id="Безымянный_градиент_35-101" x1="1093.8" y1="78.1" x2="1096.8" y2="78.1" xlink:href="#Безымянный_градиент_35"/><linearGradient id="Безымянный_градиент_35-102" x1="1108.73" y1="78.1" x2="1111.73" y2="78.1" xlink:href="#Безымянный_градиент_35"/><linearGradient id="Безымянный_градиент_35-103" x1="1124.36" y1="78.1" x2="1127.36" y2="78.1" xlink:href="#Безымянный_градиент_35"/><linearGradient id="Безымянный_градиент_35-104" x1="1139.28" y1="78.1" x2="1142.28" y2="78.1" xlink:href="#Безымянный_градиент_35"/><linearGradient id="Безымянный_градиент_35-105" x1="1154.39" y1="78.1" x2="1157.39" y2="78.1" xlink:href="#Безымянный_градиент_35"/><linearGradient id="Безымянный_градиент_35-106" x1="1169.32" y1="78.1" x2="1172.32" y2="78.1" xlink:href="#Безымянный_градиент_35"/><linearGradient id="Безымянный_градиент_35-107" x1="1184.95" y1="78.1" x2="1187.95" y2="78.1" xlink:href="#Безымянный_градиент_35"/><linearGradient id="Безымянный_градиент_35-108" x1="1093.8" y1="102.24" x2="1096.8" y2="102.24" xlink:href="#Безымянный_градиент_35"/><linearGradient id="Безымянный_градиент_35-109" x1="1108.73" y1="102.24" x2="1111.73" y2="102.24" xlink:href="#Безымянный_градиент_35"/><linearGradient id="Безымянный_градиент_35-110" x1="1124.36" y1="102.24" x2="1127.36" y2="102.24" xlink:href="#Безымянный_градиент_35"/><linearGradient id="Безымянный_градиент_35-111" x1="1139.28" y1="102.24" x2="1142.28" y2="102.24" xlink:href="#Безымянный_градиент_35"/><linearGradient id="Безымянный_градиент_35-112" x1="1154.39" y1="102.24" x2="1157.39" y2="102.24" xlink:href="#Безымянный_градиент_35"/><linearGradient id="Безымянный_градиент_35-113" x1="1169.32" y1="102.24" x2="1172.32" y2="102.24" xlink:href="#Безымянный_градиент_35"/><linearGradient id="Безымянный_градиент_35-114" x1="1184.95" y1="102.24" x2="1187.95" y2="102.24" xlink:href="#Безымянный_градиент_35"/><linearGradient id="Безымянный_градиент_35-115" x1="1139.28" y1="126.38" x2="1142.28" y2="126.38" xlink:href="#Безымянный_градиент_35"/><linearGradient id="Безымянный_градиент_35-116" x1="1154.39" y1="126.38" x2="1157.39" y2="126.38" xlink:href="#Безымянный_градиент_35"/><linearGradient id="Безымянный_градиент_35-117" x1="1169.32" y1="126.38" x2="1172.32" y2="126.38" xlink:href="#Безымянный_градиент_35"/><linearGradient id="Безымянный_градиент_35-118" x1="1184.95" y1="126.38" x2="1187.95" y2="126.38" xlink:href="#Безымянный_градиент_35"/><linearGradient id="Безымянный_градиент_35-119" x1="1139.28" y1="150.52" x2="1142.28" y2="150.52" xlink:href="#Безымянный_градиент_35"/><linearGradient id="Безымянный_градиент_35-120" x1="1139.28" y1="174.66" x2="1142.28" y2="174.66" xlink:href="#Безымянный_градиент_35"/><linearGradient id="Безымянный_градиент_35-121" x1="1154.39" y1="150.52" x2="1157.39" y2="150.52" xlink:href="#Безымянный_градиент_35"/><linearGradient id="Безымянный_градиент_35-122" x1="1169.32" y1="150.52" x2="1172.32" y2="150.52" xlink:href="#Безымянный_градиент_35"/><linearGradient id="Безымянный_градиент_35-123" x1="1154.39" y1="174.66" x2="1157.39" y2="174.66" xlink:href="#Безымянный_градиент_35"/><linearGradient id="Безымянный_градиент_35-124" x1="1169.32" y1="174.66" x2="1172.32" y2="174.66" xlink:href="#Безымянный_градиент_35"/><linearGradient id="Безымянный_градиент_35-125" x1="1184.95" y1="150.52" x2="1187.95" y2="150.52" xlink:href="#Безымянный_градиент_35"/><linearGradient id="Безымянный_градиент_35-126" x1="1184.95" y1="174.66" x2="1187.95" y2="174.66" xlink:href="#Безымянный_градиент_35"/><linearGradient id="Безымянный_градиент_35-127" x1="434" y1="166.16" x2="437" y2="166.16" xlink:href="#Безымянный_градиент_35"/><linearGradient id="Безымянный_градиент_35-128" x1="448.48" y1="166.2" x2="451.48" y2="166.2" xlink:href="#Безымянный_градиент_35"/><linearGradient id="Безымянный_градиент_35-129" x1="462.96" y1="166.25" x2="465.96" y2="166.25" xlink:href="#Безымянный_градиент_35"/><linearGradient id="Безымянный_градиент_35-130" x1="477.44" y1="166.3" x2="480.44" y2="166.3" xlink:href="#Безымянный_градиент_35"/><linearGradient id="Безымянный_градиент_35-131" x1="491.92" y1="166.34" x2="494.92" y2="166.34" xlink:href="#Безымянный_градиент_35"/><linearGradient id="Безымянный_градиент_35-132" x1="506.4" y1="166.39" x2="509.4" y2="166.39" xlink:href="#Безымянный_градиент_35"/><linearGradient id="Безымянный_градиент_35-133" x1="520.88" y1="166.44" x2="523.88" y2="166.44" xlink:href="#Безымянный_градиент_35"/><linearGradient id="Безымянный_градиент_35-134" x1="535.36" y1="166.48" x2="538.36" y2="166.48" xlink:href="#Безымянный_градиент_35"/><linearGradient id="Безымянный_градиент_35-135" x1="549.83" y1="166.02" x2="552.83" y2="166.02" xlink:href="#Безымянный_градиент_35"/><linearGradient id="Безымянный_градиент_35-136" x1="564.31" y1="165.97" x2="567.31" y2="165.97" xlink:href="#Безымянный_градиент_35"/><linearGradient id="Безымянный_градиент_35-137" x1="578.79" y1="166.06" x2="581.79" y2="166.06" xlink:href="#Безымянный_градиент_35"/><linearGradient id="Безымянный_градиент_35-138" x1="593.27" y1="166.11" x2="596.27" y2="166.11" xlink:href="#Безымянный_градиент_35"/><linearGradient id="Безымянный_градиент_35-139" x1="434" y1="191.45" x2="437" y2="191.45" xlink:href="#Безымянный_градиент_35"/><linearGradient id="Безымянный_градиент_35-140" x1="448.48" y1="191.49" x2="451.48" y2="191.49" xlink:href="#Безымянный_градиент_35"/><linearGradient id="Безымянный_градиент_35-141" x1="462.96" y1="191.54" x2="465.96" y2="191.54" xlink:href="#Безымянный_градиент_35"/><linearGradient id="Безымянный_градиент_35-142" x1="477.44" y1="191.59" x2="480.44" y2="191.59" xlink:href="#Безымянный_градиент_35"/><linearGradient id="Безымянный_градиент_35-143" x1="564.31" y1="191.26" x2="567.31" y2="191.26" xlink:href="#Безымянный_градиент_35"/><linearGradient id="Безымянный_градиент_35-144" x1="578.79" y1="191.35" x2="581.79" y2="191.35" xlink:href="#Безымянный_градиент_35"/><linearGradient id="Безымянный_градиент_35-145" x1="593.27" y1="191.4" x2="596.27" y2="191.4" xlink:href="#Безымянный_градиент_35"/><linearGradient id="Безымянный_градиент_35-146" x1="434" y1="215.73" x2="437" y2="215.73" xlink:href="#Безымянный_градиент_35"/><linearGradient id="Безымянный_градиент_35-147" x1="448.48" y1="215.77" x2="451.48" y2="215.77" xlink:href="#Безымянный_градиент_35"/><linearGradient id="Безымянный_градиент_35-148" x1="578.79" y1="215.63" x2="581.79" y2="215.63" xlink:href="#Безымянный_градиент_35"/><linearGradient id="Безымянный_градиент_35-149" x1="593.27" y1="215.68" x2="596.27" y2="215.68" xlink:href="#Безымянный_градиент_35"/><linearGradient id="Безымянный_градиент_35-150" x1="870.77" y1="166.16" x2="873.77" y2="166.16" xlink:href="#Безымянный_градиент_35"/><linearGradient id="Безымянный_градиент_35-151" x1="885.25" y1="166.2" x2="888.25" y2="166.2" xlink:href="#Безымянный_градиент_35"/><linearGradient id="Безымянный_градиент_35-152" x1="899.73" y1="166.25" x2="902.73" y2="166.25" xlink:href="#Безымянный_градиент_35"/><linearGradient id="Безымянный_градиент_35-153" x1="914.21" y1="166.3" x2="917.21" y2="166.3" xlink:href="#Безымянный_градиент_35"/><linearGradient id="Безымянный_градиент_35-154" x1="972.13" y1="166.48" x2="975.13" y2="166.48" xlink:href="#Безымянный_градиент_35"/><linearGradient id="Безымянный_градиент_35-155" x1="986.61" y1="166.02" x2="989.61" y2="166.02" xlink:href="#Безымянный_градиент_35"/><linearGradient id="Безымянный_градиент_35-156" x1="1001.09" y1="165.97" x2="1004.09" y2="165.97" xlink:href="#Безымянный_градиент_35"/><linearGradient id="Безымянный_градиент_35-157" x1="1015.57" y1="166.06" x2="1018.57" y2="166.06" xlink:href="#Безымянный_градиент_35"/><linearGradient id="Безымянный_градиент_35-158" x1="1030.04" y1="166.11" x2="1033.04" y2="166.11" xlink:href="#Безымянный_градиент_35"/><linearGradient id="Безымянный_градиент_35-159" x1="870.77" y1="191.45" x2="873.77" y2="191.45" xlink:href="#Безымянный_градиент_35"/><linearGradient id="Безымянный_градиент_35-160" x1="885.25" y1="191.49" x2="888.25" y2="191.49" xlink:href="#Безымянный_градиент_35"/><linearGradient id="Безымянный_градиент_35-161" x1="899.73" y1="191.54" x2="902.73" y2="191.54" xlink:href="#Безымянный_градиент_35"/><linearGradient id="Безымянный_градиент_35-162" x1="914.21" y1="191.59" x2="917.21" y2="191.59" xlink:href="#Безымянный_градиент_35"/><linearGradient id="Безымянный_градиент_35-163" x1="972.13" y1="191.77" x2="975.13" y2="191.77" xlink:href="#Безымянный_градиент_35"/><linearGradient id="Безымянный_градиент_35-164" x1="986.61" y1="191.31" x2="989.61" y2="191.31" xlink:href="#Безымянный_градиент_35"/><linearGradient id="Безымянный_градиент_35-165" x1="1001.09" y1="191.26" x2="1004.09" y2="191.26" xlink:href="#Безымянный_градиент_35"/><linearGradient id="Безымянный_градиент_35-166" x1="1015.57" y1="191.35" x2="1018.57" y2="191.35" xlink:href="#Безымянный_градиент_35"/><linearGradient id="Безымянный_градиент_35-167" x1="1030.04" y1="191.4" x2="1033.04" y2="191.4" xlink:href="#Безымянный_градиент_35"/><linearGradient id="Безымянный_градиент_35-168" x1="870.77" y1="215.73" x2="873.77" y2="215.73" xlink:href="#Безымянный_градиент_35"/><linearGradient id="Безымянный_градиент_35-169" x1="885.25" y1="215.77" x2="888.25" y2="215.77" xlink:href="#Безымянный_градиент_35"/><linearGradient id="Безымянный_градиент_35-170" x1="899.73" y1="215.82" x2="902.73" y2="215.82" xlink:href="#Безымянный_градиент_35"/><linearGradient id="Безымянный_градиент_35-171" x1="914.21" y1="215.86" x2="917.21" y2="215.86" xlink:href="#Безымянный_градиент_35"/><linearGradient id="Безымянный_градиент_35-172" x1="928.69" y1="215.91" x2="931.69" y2="215.91" xlink:href="#Безымянный_градиент_35"/><linearGradient id="Безымянный_градиент_35-173" x1="957.65" y1="216" x2="960.65" y2="216" xlink:href="#Безымянный_градиент_35"/><linearGradient id="Безымянный_градиент_35-174" x1="972.13" y1="216.05" x2="975.13" y2="216.05" xlink:href="#Безымянный_градиент_35"/><linearGradient id="Безымянный_градиент_35-175" x1="986.61" y1="215.59" x2="989.61" y2="215.59" xlink:href="#Безымянный_градиент_35"/><linearGradient id="Безымянный_градиент_35-176" x1="1001.09" y1="215.54" x2="1004.09" y2="215.54" xlink:href="#Безымянный_градиент_35"/><linearGradient id="Безымянный_градиент_35-177" x1="1015.57" y1="215.63" x2="1018.57" y2="215.63" xlink:href="#Безымянный_градиент_35"/><linearGradient id="Безымянный_градиент_35-178" x1="1030.04" y1="215.68" x2="1033.04" y2="215.68" xlink:href="#Безымянный_градиент_35"/><linearGradient id="Безымянный_градиент_35-179" x1="1045.44" y1="166.02" x2="1048.44" y2="166.02" xlink:href="#Безымянный_градиент_35"/><linearGradient id="Безымянный_градиент_35-180" x1="1059.92" y1="165.97" x2="1062.92" y2="165.97" xlink:href="#Безымянный_градиент_35"/><linearGradient id="Безымянный_градиент_35-181" x1="1074.4" y1="166.06" x2="1077.4" y2="166.06" xlink:href="#Безымянный_градиент_35"/><linearGradient id="Безымянный_градиент_35-182" x1="1088.88" y1="166.11" x2="1091.88" y2="166.11" xlink:href="#Безымянный_градиент_35"/><linearGradient id="Безымянный_градиент_35-183" x1="1045.44" y1="191.31" x2="1048.44" y2="191.31" xlink:href="#Безымянный_градиент_35"/><linearGradient id="Безымянный_градиент_35-184" x1="1059.92" y1="191.26" x2="1062.92" y2="191.26" xlink:href="#Безымянный_градиент_35"/><linearGradient id="Безымянный_градиент_35-185" x1="1074.4" y1="191.35" x2="1077.4" y2="191.35" xlink:href="#Безымянный_градиент_35"/><linearGradient id="Безымянный_градиент_35-186" x1="1088.88" y1="191.4" x2="1091.88" y2="191.4" xlink:href="#Безымянный_градиент_35"/><linearGradient id="Безымянный_градиент_35-187" x1="1045.44" y1="215.59" x2="1048.44" y2="215.59" xlink:href="#Безымянный_градиент_35"/><linearGradient id="Безымянный_градиент_35-188" x1="1074.4" y1="215.63" x2="1077.4" y2="215.63" xlink:href="#Безымянный_градиент_35"/><linearGradient id="Безымянный_градиент_35-189" x1="1088.88" y1="215.68" x2="1091.88" y2="215.68" xlink:href="#Безымянный_градиент_35"/><linearGradient id="Безымянный_градиент_35-190" x1="1102.86" y1="166.11" x2="1105.86" y2="166.11" xlink:href="#Безымянный_градиент_35"/><linearGradient id="Безымянный_градиент_35-191" x1="1102.86" y1="191.4" x2="1105.86" y2="191.4" xlink:href="#Безымянный_градиент_35"/><linearGradient id="Безымянный_градиент_35-192" x1="1102.86" y1="215.68" x2="1105.86" y2="215.68" xlink:href="#Безымянный_градиент_35"/></defs><g id="Слой_2" data-name="Слой 2"><g id="Слой_1-2" data-name="Слой 1"><path d="M0 94.29S88.68 65 220.62 71.09s303 32.69 437 28.41 267.3-67.35 444.86-68.9S1440 143.43 1440 143.43v105.92H0z" opacity=".1" fill="url(#Безымянный_градиент_35)"/><path d="M1247.47 234.6v-25.28c4.93-1.08 21.13-6.92 21.13-37.17 0-27.91-17-27.91-22.63-27.91s-22.09 0-22.09 30.55c0 24.54 16.19 32.59 20.59 34.32v25.49h-40.31v-9.09h3.84a4.33 4.33 0 0 0 3.76-6.46c-1.76-3.17-3.43-7.57-7.64-10.37V0h-126.53v73.46H928.35v51.83h-73.47V0H728.3v234.6h-69.48v-25.28c4.92-1.08 21.12-6.92 21.12-37.17 0-27.91-17-27.91-22.62-27.91s-22.1 0-22.1 30.55c0 24.54 16.19 32.59 20.6 34.32v25.49h-41.18V125.29H504.09V1.5H380.52V72H234.63v162.6h-44.08v-25.28c4.92-1.08 21.12-6.92 21.12-37.17 0-27.91-17-27.91-22.62-27.91s-22.09 0-22.09 30.55c0 24.54 16.19 32.59 20.59 34.32v25.49H149v3h1142v-3zM170 174.79c0-27.55 13.38-27.55 19.09-27.55 8.42 0 19.62 2.58 19.62 24.91 0 30.9-17 34.08-19.46 34.38-2.31-.77-19.25-7.34-19.25-31.74zm209 59.81h-37.46v-25.28c4.92-1.08 21.12-6.92 21.12-37.17 0-27.91-17-27.91-22.62-27.91s-22.1 0-22.1 30.55c0 24.54 16.2 32.59 20.6 34.32v25.49H237.63V75H379zm232.62 0H421V128.29h190.64zm240.26-109.31V234.6H731.3V3h120.58zm285.19 94.92a5.3 5.3 0 1 1-5.3 5.3 5.31 5.31 0 0 1 5.3-5.3zm51 0a5.3 5.3 0 1 1-5.31 5.3 5.31 5.31 0 0 1 5.36-5.3zM1080.59 3h120.57v202.55a22.83 22.83 0 0 0-7.39-1.1c-7 0-10-2.55-13.9-5.77-5.23-4.34-11.15-9.26-27.64-9.26-14.3 0-24.34 3.7-30.51 11.27v-75.4h-41.13zm38.13 231.6H945.5v-25.28c4.92-1.08 21.12-6.92 21.12-37.17 0-27.91-17-27.91-22.62-27.91s-22.1 0-22.1 30.55c0 24.54 16.19 32.59 20.6 34.32v25.49h-87.62V128.29h263.84v77c-2.84 5.37-4.27 12.19-4.27 20.27V227h4.27zm3 0V227h7.18v.09c0 .1 0 .2.06.3l.12.46c0 .1.07.2.1.3s.1.29.16.43l.12.3c.07.13.13.27.2.4l.15.28a3.26 3.26 0 0 0 .24.4c.05.08.1.17.16.25s.2.27.3.4.1.14.16.2.3.35.46.51a6.64 6.64 0 0 0 .55.51l.2.15c.14.11.27.21.41.3l.25.17.39.24.28.14.41.2.29.13.43.15.31.1c.15.05.3.08.46.12l.29.07.53.08h.26a7 7 0 0 0 .8 0 7.32 7.32 0 0 0 .81 0h.25l.53-.08.3-.07c.15 0 .31-.07.46-.12l.3-.1.43-.15.3-.13.4-.2a2.44 2.44 0 0 0 .28-.14l.39-.24.26-.17a3.79 3.79 0 0 0 .4-.3l.2-.15c.19-.16.38-.33.56-.51.16-.16.32-.33.47-.51s.1-.14.16-.2l.29-.4.17-.25.24-.4.15-.28.19-.4.13-.3.15-.43c0-.1.07-.2.1-.3s.08-.31.12-.46 0-.2.07-.3 0-.06 0-.09h34.9a.29.29 0 0 1 0 .09c0 .1 0 .2.07.3s.07.31.12.46.06.2.1.3l.15.43.13.3c.06.13.13.27.2.4a2.44 2.44 0 0 0 .14.28l.24.4.17.25.29.4c.06.06.11.14.16.2s.31.35.47.51c.18.18.37.35.56.51l.2.15a3.79 3.79 0 0 0 .4.3l.26.17.39.24.28.14.4.2.3.13.43.15.3.1c.15.05.31.08.46.12l.3.07.53.08h.25a7.32 7.32 0 0 0 .81 0 7 7 0 0 0 .8 0h.26l.53-.08.29-.07c.16 0 .31-.07.46-.12l.31-.1.43-.15.29-.13.41-.2.28-.14.39-.24.25-.17c.14-.09.27-.19.41-.3l.2-.15a6.64 6.64 0 0 0 .55-.51c.16-.16.31-.33.46-.51s.11-.14.16-.2.21-.27.3-.4.11-.17.16-.25a3.26 3.26 0 0 0 .24-.4l.15-.28c.07-.13.14-.27.2-.4l.12-.3c.06-.14.11-.28.16-.43l.1-.3.12-.46c0-.1 0-.2.07-.3a.29.29 0 0 1 0-.09h4.87v7.59zm105.16-59.81c0-27.55 13.38-27.55 19.09-27.55 8.43 0 19.63 2.58 19.63 24.91 0 30.9-17 34.08-19.47 34.38-2.27-.77-19.25-7.34-19.25-31.74z" fill="url(#Безымянный_градиент_35-2)"/><path d="M472.44 227.35h11.77a8.3 8.3 0 0 0 16.32 0h34.72a8.3 8.3 0 0 0 16.33 0H566v-1.5c0-24.29-12.36-36.09-37.79-36.09-16.49 0-22.41 4.92-27.63 9.26-3.88 3.22-6.94 5.76-13.9 5.76-12.21 0-15.8 7-18.41 12.09-.32.63-.63 1.23-.94 1.79a5.81 5.81 0 0 0 .07 5.83 5.74 5.74 0 0 0 5.04 2.86zm19.93 3.8a5.31 5.31 0 1 1 5.3-5.3 5.31 5.31 0 0 1-5.3 5.3zm51 0a5.31 5.31 0 1 1 5.31-5.3 5.31 5.31 0 0 1-5.27 5.3zm-73.42-11c.33-.59.65-1.22 1-1.88 2.51-4.9 5.36-10.46 15.74-10.46 8 0 11.82-3.13 15.82-6.45 4.83-4 10.31-8.57 25.71-8.57 23.2 0 34.29 10.05 34.77 31.59h-11.41a.44.44 0 0 0 0-.1c0-.1 0-.19-.07-.29a3.45 3.45 0 0 0-.12-.46l-.09-.31c0-.14-.1-.28-.16-.43s-.08-.19-.13-.29-.12-.28-.19-.41l-.15-.28-.24-.39c0-.09-.11-.17-.16-.25l-.31-.41-.15-.2c-.15-.18-.31-.36-.48-.53a6.77 6.77 0 0 0-.56-.51l-.19-.15c-.13-.11-.27-.21-.41-.31l-.25-.16-.4-.24-.27-.15-.41-.19-.3-.13-.43-.16-.3-.09a3.9 3.9 0 0 0-.46-.12l-.3-.07a4.67 4.67 0 0 0-.52-.08h-2.13a4.67 4.67 0 0 0-.52.08l-.3.07a3.45 3.45 0 0 0-.46.12l-.3.09-.44.16-.29.12-.41.2-.27.15-.41.24-.24.16-.42.31-.18.15a5.47 5.47 0 0 0-.56.51c-.17.18-.34.36-.49.55l-.15.19c-.11.13-.21.27-.31.41s-.11.16-.16.25l-.24.39-.15.28c-.07.13-.13.27-.19.41s-.09.19-.13.29-.11.29-.16.43-.07.2-.1.31l-.12.46-.06.29a.36.36 0 0 0 0 .1h-34.8a.3.3 0 0 1 0-.1c0-.1 0-.19-.07-.29l-.12-.46c0-.11-.07-.21-.1-.31s-.1-.28-.16-.43l-.12-.29a5.19 5.19 0 0 0-.2-.41l-.15-.28a4.11 4.11 0 0 0-.24-.39 2.13 2.13 0 0 0-.16-.25c-.09-.14-.2-.27-.3-.41l-.16-.2c-.15-.18-.31-.36-.48-.53a8.89 8.89 0 0 0-.56-.51l-.2-.15c-.13-.11-.27-.21-.41-.31l-.25-.16-.39-.24-.28-.15-.41-.19-.29-.13-.49-.2-.3-.09a4.05 4.05 0 0 0-.47-.12l-.29-.07a4.85 4.85 0 0 0-.53-.08h-2.12a4.51 4.51 0 0 0-.53.08l-.3.07a3.9 3.9 0 0 0-.46.12l-.3.09-.43.16-.29.12-.41.2-.28.15-.4.24-.25.16-.41.31-.19.15c-.19.16-.38.33-.56.51l-.48.53-.15.2c-.11.14-.21.27-.3.41l-.17.25-.24.39c-.05.1-.1.19-.14.28s-.14.27-.2.41-.09.19-.13.29l-.15.43a2.81 2.81 0 0 0-.1.31c-.05.15-.08.3-.12.46s-.05.19-.07.29 0 .07 0 .1h-11.79A2.75 2.75 0 0 1 470 223a2.83 2.83 0 0 1 0-2.88z" fill="url(#Безымянный_градиент_35-3)"/><path fill="url(#Безымянный_градиент_35-4)" d="M261.25 102.91h3v15.59h-3z"/><path fill="url(#Безымянный_градиент_35-5)" d="M276.18 102.91h3v15.59h-3z"/><path fill="url(#Безымянный_градиент_35-6)" d="M291.81 102.91h3v15.59h-3z"/><path fill="url(#Безымянный_градиент_35-7)" d="M306.73 102.91h3v15.59h-3z"/><path fill="url(#Безымянный_градиент_35-8)" d="M321.84 102.91h3v15.59h-3z"/><path fill="url(#Безымянный_градиент_35-9)" d="M336.77 102.91h3v15.59h-3z"/><path fill="url(#Безымянный_градиент_35-10)" d="M352.4 102.91h3v15.59h-3z"/><path fill="url(#Безымянный_градиент_35-11)" d="M261.25 127.05h3v15.59h-3z"/><path fill="url(#Безымянный_градиент_35-12)" d="M276.18 127.05h3v15.59h-3z"/><path fill="url(#Безымянный_градиент_35-13)" d="M291.81 127.05h3v15.59h-3z"/><path fill="url(#Безымянный_градиент_35-14)" d="M306.73 127.05h3v15.59h-3z"/><path fill="url(#Безымянный_градиент_35-15)" d="M321.84 127.05h3v15.59h-3z"/><path fill="url(#Безымянный_градиент_35-16)" d="M352.4 127.05h3v15.59h-3z"/><path fill="url(#Безымянный_градиент_35-17)" d="M261.25 151.19h3v15.59h-3z"/><path fill="url(#Безымянный_градиент_35-18)" d="M276.18 151.19h3v15.59h-3z"/><path fill="url(#Безымянный_градиент_35-19)" d="M291.81 151.19h3v15.59h-3z"/><path fill="url(#Безымянный_градиент_35-20)" d="M306.73 151.19h3v15.59h-3z"/><path fill="url(#Безымянный_градиент_35-21)" d="M261.25 175.33h3v15.59h-3z"/><path fill="url(#Безымянный_градиент_35-22)" d="M276.18 175.33h3v15.59h-3z"/><path fill="url(#Безымянный_градиент_35-23)" d="M291.81 175.33h3v15.59h-3z"/><path fill="url(#Безымянный_градиент_35-24)" d="M306.73 175.33h3v15.59h-3z"/><path fill="url(#Безымянный_градиент_35-25)" d="M744.52 22.02h3v15.59h-3z"/><path fill="url(#Безымянный_градиент_35-26)" d="M759.44 22.02h3v15.59h-3z"/><path fill="url(#Безымянный_градиент_35-27)" d="M775.07 22.02h3v15.59h-3z"/><path fill="url(#Безымянный_градиент_35-28)" d="M790 22.02h3v15.59h-3z"/><path fill="url(#Безымянный_градиент_35-29)" d="M805.11 22.02h3v15.59h-3z"/><path fill="url(#Безымянный_градиент_35-30)" d="M820.03 22.02h3v15.59h-3z"/><path fill="url(#Безымянный_градиент_35-31)" d="M835.66 22.02h3v15.59h-3z"/><path fill="url(#Безымянный_градиент_35-32)" d="M744.52 46.16h3v15.59h-3z"/><path fill="url(#Безымянный_градиент_35-33)" d="M759.44 46.16h3v15.59h-3z"/><path fill="url(#Безымянный_градиент_35-34)" d="M775.07 46.16h3v15.59h-3z"/><path fill="url(#Безымянный_градиент_35-35)" d="M790 46.16h3v15.59h-3z"/><path fill="url(#Безымянный_градиент_35-36)" d="M805.11 46.16h3v15.59h-3z"/><path fill="url(#Безымянный_градиент_35-37)" d="M820.03 46.16h3v15.59h-3z"/><path fill="url(#Безымянный_градиент_35-38)" d="M835.66 46.16h3v15.59h-3z"/><path fill="url(#Безымянный_градиент_35-39)" d="M744.52 70.3h3v15.59h-3z"/><path fill="url(#Безымянный_градиент_35-40)" d="M759.44 70.3h3v15.59h-3z"/><path fill="url(#Безымянный_градиент_35-41)" d="M775.07 70.3h3v15.59h-3z"/><path fill="url(#Безымянный_градиент_35-42)" d="M790 70.3h3v15.59h-3z"/><path fill="url(#Безымянный_градиент_35-43)" d="M805.11 70.3h3v15.59h-3z"/><path fill="url(#Безымянный_градиент_35-44)" d="M820.03 70.3h3v15.59h-3z"/><path fill="url(#Безымянный_градиент_35-45)" d="M835.66 70.3h3v15.59h-3z"/><path fill="url(#Безымянный_градиент_35-46)" d="M744.52 94.44h3v15.59h-3z"/><path fill="url(#Безымянный_градиент_35-47)" d="M759.44 94.44h3v15.59h-3z"/><path fill="url(#Безымянный_градиент_35-48)" d="M775.07 94.44h3v15.59h-3z"/><path fill="url(#Безымянный_градиент_35-49)" d="M790 94.44h3v15.59h-3z"/><path fill="url(#Безымянный_градиент_35-50)" d="M805.11 94.44h3v15.59h-3z"/><path fill="url(#Безымянный_градиент_35-51)" d="M820.03 94.44h3v15.59h-3z"/><path fill="url(#Безымянный_градиент_35-52)" d="M835.66 94.44h3v15.59h-3z"/><path fill="url(#Безымянный_градиент_35-53)" d="M744.52 118.58h3v15.59h-3z"/><path fill="url(#Безымянный_градиент_35-54)" d="M759.44 118.58h3v15.59h-3z"/><path fill="url(#Безымянный_градиент_35-55)" d="M775.07 118.58h3v15.59h-3z"/><path fill="url(#Безымянный_градиент_35-56)" d="M790 118.58h3v15.59h-3z"/><path fill="url(#Безымянный_градиент_35-57)" d="M805.11 118.58h3v15.59h-3z"/><path fill="url(#Безымянный_градиент_35-58)" d="M820.03 118.58h3v15.59h-3z"/><path fill="url(#Безымянный_градиент_35-59)" d="M835.66 118.58h3v15.59h-3z"/><path fill="url(#Безымянный_градиент_35-60)" d="M744.52 142.72h3v15.59h-3z"/><path fill="url(#Безымянный_градиент_35-61)" d="M759.44 142.72h3v15.59h-3z"/><path fill="url(#Безымянный_градиент_35-62)" d="M744.52 166.86h3v15.59h-3z"/><path fill="url(#Безымянный_градиент_35-63)" d="M759.44 166.86h3v15.59h-3z"/><path fill="url(#Безымянный_градиент_35-64)" d="M744.52 190.92h3v15.59h-3z"/><path fill="url(#Безымянный_градиент_35-65)" d="M759.44 190.92h3v15.59h-3z"/><path fill="url(#Безымянный_градиент_35-66)" d="M744.52 217.71h3v15.59h-3z"/><path fill="url(#Безымянный_градиент_35-67)" d="M759.44 217.71h3v15.59h-3z"/><path fill="url(#Безымянный_градиент_35-68)" d="M775.07 142.72h3v15.59h-3z"/><path fill="url(#Безымянный_градиент_35-69)" d="M790 142.72h3v15.59h-3z"/><path fill="url(#Безымянный_градиент_35-70)" d="M775.07 166.86h3v15.59h-3z"/><path fill="url(#Безымянный_градиент_35-71)" d="M790 166.86h3v15.59h-3z"/><path fill="url(#Безымянный_градиент_35-72)" d="M775.07 190.92h3v15.59h-3z"/><path fill="url(#Безымянный_градиент_35-73)" d="M790 190.92h3v15.59h-3z"/><path fill="url(#Безымянный_градиент_35-74)" d="M775.07 217.71h3v15.59h-3z"/><path fill="url(#Безымянный_градиент_35-75)" d="M790 217.71h3v15.59h-3z"/><path fill="url(#Безымянный_градиент_35-76)" d="M805.11 142.72h3v15.59h-3z"/><path fill="url(#Безымянный_градиент_35-77)" d="M820.03 142.72h3v15.59h-3z"/><path fill="url(#Безымянный_градиент_35-78)" d="M805.11 166.86h3v15.59h-3z"/><path fill="url(#Безымянный_градиент_35-79)" d="M820.03 166.86h3v15.59h-3z"/><path fill="url(#Безымянный_градиент_35-80)" d="M805.11 190.92h3v15.59h-3z"/><path fill="url(#Безымянный_градиент_35-81)" d="M820.03 190.92h3v15.59h-3z"/><path fill="url(#Безымянный_градиент_35-82)" d="M805.11 217.71h3v15.59h-3z"/><path fill="url(#Безымянный_градиент_35-83)" d="M820.03 217.71h3v15.59h-3z"/><path fill="url(#Безымянный_градиент_35-84)" d="M835.66 142.72h3v15.59h-3z"/><path fill="url(#Безымянный_градиент_35-85)" d="M835.66 166.86h3v15.59h-3z"/><path fill="url(#Безымянный_градиент_35-86)" d="M835.66 190.92h3v15.59h-3z"/><path fill="url(#Безымянный_градиент_35-87)" d="M835.66 217.71h3v15.59h-3z"/><path fill="url(#Безымянный_градиент_35-88)" d="M1108.73 22.02h3v15.59h-3z"/><path fill="url(#Безымянный_градиент_35-89)" d="M1124.36 22.02h3v15.59h-3z"/><path fill="url(#Безымянный_градиент_35-90)" d="M1139.28 22.02h3v15.59h-3z"/><path fill="url(#Безымянный_градиент_35-91)" d="M1154.39 22.02h3v15.59h-3z"/><path fill="url(#Безымянный_градиент_35-92)" d="M1169.32 22.02h3v15.59h-3z"/><path fill="url(#Безымянный_градиент_35-93)" d="M1184.95 22.02h3v15.59h-3z"/><path fill="url(#Безымянный_градиент_35-94)" d="M1093.8 46.16h3v15.59h-3z"/><path fill="url(#Безымянный_градиент_35-95)" d="M1108.73 46.16h3v15.59h-3z"/><path fill="url(#Безымянный_градиент_35-96)" d="M1124.36 46.16h3v15.59h-3z"/><path fill="url(#Безымянный_градиент_35-97)" d="M1139.28 46.16h3v15.59h-3z"/><path fill="url(#Безымянный_градиент_35-98)" d="M1154.39 46.16h3v15.59h-3z"/><path fill="url(#Безымянный_градиент_35-99)" d="M1169.32 46.16h3v15.59h-3z"/><path fill="url(#Безымянный_градиент_35-100)" d="M1184.95 46.16h3v15.59h-3z"/><path fill="url(#Безымянный_градиент_35-101)" d="M1093.8 70.3h3v15.59h-3z"/><path fill="url(#Безымянный_градиент_35-102)" d="M1108.73 70.3h3v15.59h-3z"/><path fill="url(#Безымянный_градиент_35-103)" d="M1124.36 70.3h3v15.59h-3z"/><path fill="url(#Безымянный_градиент_35-104)" d="M1139.28 70.3h3v15.59h-3z"/><path fill="url(#Безымянный_градиент_35-105)" d="M1154.39 70.3h3v15.59h-3z"/><path fill="url(#Безымянный_градиент_35-106)" d="M1169.32 70.3h3v15.59h-3z"/><path fill="url(#Безымянный_градиент_35-107)" d="M1184.95 70.3h3v15.59h-3z"/><path fill="url(#Безымянный_градиент_35-108)" d="M1093.8 94.44h3v15.59h-3z"/><path fill="url(#Безымянный_градиент_35-109)" d="M1108.73 94.44h3v15.59h-3z"/><path fill="url(#Безымянный_градиент_35-110)" d="M1124.36 94.44h3v15.59h-3z"/><path fill="url(#Безымянный_градиент_35-111)" d="M1139.28 94.44h3v15.59h-3z"/><path fill="url(#Безымянный_градиент_35-112)" d="M1154.39 94.44h3v15.59h-3z"/><path fill="url(#Безымянный_градиент_35-113)" d="M1169.32 94.44h3v15.59h-3z"/><path fill="url(#Безымянный_градиент_35-114)" d="M1184.95 94.44h3v15.59h-3z"/><path fill="url(#Безымянный_градиент_35-115)" d="M1139.28 118.58h3v15.59h-3z"/><path fill="url(#Безымянный_градиент_35-116)" d="M1154.39 118.58h3v15.59h-3z"/><path fill="url(#Безымянный_градиент_35-117)" d="M1169.32 118.58h3v15.59h-3z"/><path fill="url(#Безымянный_градиент_35-118)" d="M1184.95 118.58h3v15.59h-3z"/><path fill="url(#Безымянный_градиент_35-119)" d="M1139.28 142.72h3v15.59h-3z"/><path fill="url(#Безымянный_градиент_35-120)" d="M1139.28 166.86h3v15.59h-3z"/><path fill="url(#Безымянный_градиент_35-121)" d="M1154.39 142.72h3v15.59h-3z"/><path fill="url(#Безымянный_градиент_35-122)" d="M1169.32 142.72h3v15.59h-3z"/><path fill="url(#Безымянный_градиент_35-123)" d="M1154.39 166.86h3v15.59h-3z"/><path fill="url(#Безымянный_градиент_35-124)" d="M1169.32 166.86h3v15.59h-3z"/><path fill="url(#Безымянный_градиент_35-125)" d="M1184.95 142.72h3v15.59h-3z"/><path fill="url(#Безымянный_градиент_35-126)" d="M1184.95 166.86h3v15.59h-3z"/><path fill="url(#Безымянный_градиент_35-127)" d="M434 157.98h3v16.34h-3z"/><path fill="url(#Безымянный_градиент_35-128)" d="M448.48 158.03h3v16.34h-3z"/><path fill="url(#Безымянный_градиент_35-129)" d="M462.96 158.08h3v16.34h-3z"/><path fill="url(#Безымянный_градиент_35-130)" d="M477.44 158.12h3v16.34h-3z"/><path fill="url(#Безымянный_градиент_35-131)" d="M491.92 158.17h3v16.34h-3z"/><path fill="url(#Безымянный_градиент_35-132)" d="M506.4 158.22h3v16.34h-3z"/><path fill="url(#Безымянный_градиент_35-133)" d="M520.88 158.26h3v16.34h-3z"/><path fill="url(#Безымянный_градиент_35-134)" d="M535.36 158.31h3v16.34h-3z"/><path fill="url(#Безымянный_градиент_35-135)" d="M549.83 157.84h3v16.34h-3z"/><path fill="url(#Безымянный_градиент_35-136)" d="M564.31 157.8h3v16.34h-3z"/><path fill="url(#Безымянный_градиент_35-137)" d="M578.79 157.89h3v16.34h-3z"/><path fill="url(#Безымянный_градиент_35-138)" d="M593.27 157.94h3v16.34h-3z"/><path fill="url(#Безымянный_градиент_35-139)" d="M434 183.28h3v16.34h-3z"/><path fill="url(#Безымянный_градиент_35-140)" d="M448.48 183.32h3v16.34h-3z"/><path fill="url(#Безымянный_градиент_35-141)" d="M462.96 183.37h3v16.34h-3z"/><path fill="url(#Безымянный_градиент_35-142)" d="M477.44 183.42h3v16.34h-3z"/><path fill="url(#Безымянный_градиент_35-143)" d="M564.31 183.09h3v16.34h-3z"/><path fill="url(#Безымянный_градиент_35-144)" d="M578.79 183.18h3v16.34h-3z"/><path fill="url(#Безымянный_градиент_35-145)" d="M593.27 183.23h3v16.34h-3z"/><path fill="url(#Безымянный_градиент_35-146)" d="M434 207.55h3v16.34h-3z"/><path fill="url(#Безымянный_градиент_35-147)" d="M448.48 207.6h3v16.34h-3z"/><path fill="url(#Безымянный_градиент_35-148)" d="M578.79 207.46h3v16.34h-3z"/><path fill="url(#Безымянный_градиент_35-149)" d="M593.27 207.51h3v16.34h-3z"/><path fill="url(#Безымянный_градиент_35-150)" d="M870.77 157.98h3v16.34h-3z"/><path fill="url(#Безымянный_градиент_35-151)" d="M885.25 158.03h3v16.34h-3z"/><path fill="url(#Безымянный_градиент_35-152)" d="M899.73 158.08h3v16.34h-3z"/><path fill="url(#Безымянный_градиент_35-153)" d="M914.21 158.12h3v16.34h-3z"/><path fill="url(#Безымянный_градиент_35-154)" d="M972.13 158.31h3v16.34h-3z"/><path fill="url(#Безымянный_градиент_35-155)" d="M986.61 157.84h3v16.34h-3z"/><path fill="url(#Безымянный_градиент_35-156)" d="M1001.09 157.8h3v16.34h-3z"/><path fill="url(#Безымянный_градиент_35-157)" d="M1015.57 157.89h3v16.34h-3z"/><path fill="url(#Безымянный_градиент_35-158)" d="M1030.04 157.94h3v16.34h-3z"/><path fill="url(#Безымянный_градиент_35-159)" d="M870.77 183.28h3v16.34h-3z"/><path fill="url(#Безымянный_градиент_35-160)" d="M885.25 183.32h3v16.34h-3z"/><path fill="url(#Безымянный_градиент_35-161)" d="M899.73 183.37h3v16.34h-3z"/><path fill="url(#Безымянный_градиент_35-162)" d="M914.21 183.42h3v16.34h-3z"/><path fill="url(#Безымянный_градиент_35-163)" d="M972.13 183.6h3v16.34h-3z"/><path fill="url(#Безымянный_градиент_35-164)" d="M986.61 183.14h3v16.34h-3z"/><path fill="url(#Безымянный_градиент_35-165)" d="M1001.09 183.09h3v16.34h-3z"/><path fill="url(#Безымянный_градиент_35-166)" d="M1015.57 183.18h3v16.34h-3z"/><path fill="url(#Безымянный_градиент_35-167)" d="M1030.04 183.23h3v16.34h-3z"/><path fill="url(#Безымянный_градиент_35-168)" d="M870.77 207.55h3v16.34h-3z"/><path fill="url(#Безымянный_градиент_35-169)" d="M885.25 207.6h3v16.34h-3z"/><path fill="url(#Безымянный_градиент_35-170)" d="M899.73 207.65h3v16.34h-3z"/><path fill="url(#Безымянный_градиент_35-171)" d="M914.21 207.69h3v16.34h-3z"/><path fill="url(#Безымянный_градиент_35-172)" d="M928.69 207.74h3v16.34h-3z"/><path fill="url(#Безымянный_градиент_35-173)" d="M957.65 207.83h3v16.34h-3z"/><path fill="url(#Безымянный_градиент_35-174)" d="M972.13 207.88h3v16.34h-3z"/><path fill="url(#Безымянный_градиент_35-175)" d="M986.61 207.41h3v16.34h-3z"/><path fill="url(#Безымянный_градиент_35-176)" d="M1001.09 207.37h3v16.34h-3z"/><path fill="url(#Безымянный_градиент_35-177)" d="M1015.57 207.46h3v16.34h-3z"/><path fill="url(#Безымянный_градиент_35-178)" d="M1030.04 207.51h3v16.34h-3z"/><path fill="url(#Безымянный_градиент_35-179)" d="M1045.44 157.84h3v16.34h-3z"/><path fill="url(#Безымянный_градиент_35-180)" d="M1059.92 157.8h3v16.34h-3z"/><path fill="url(#Безымянный_градиент_35-181)" d="M1074.4 157.89h3v16.34h-3z"/><path fill="url(#Безымянный_градиент_35-182)" d="M1088.88 157.94h3v16.34h-3z"/><path fill="url(#Безымянный_градиент_35-183)" d="M1045.44 183.14h3v16.34h-3z"/><path fill="url(#Безымянный_градиент_35-184)" d="M1059.92 183.09h3v16.34h-3z"/><path fill="url(#Безымянный_градиент_35-185)" d="M1074.4 183.18h3v16.34h-3z"/><path fill="url(#Безымянный_градиент_35-186)" d="M1088.88 183.23h3v16.34h-3z"/><path fill="url(#Безымянный_градиент_35-187)" d="M1045.44 207.41h3v16.34h-3z"/><path fill="url(#Безымянный_градиент_35-188)" d="M1074.4 207.46h3v16.34h-3z"/><path fill="url(#Безымянный_градиент_35-189)" d="M1088.88 207.51h3v16.34h-3z"/><path fill="url(#Безымянный_градиент_35-190)" d="M1102.86 157.94h3v16.34h-3z"/><path fill="url(#Безымянный_градиент_35-191)" d="M1102.86 183.23h3v16.34h-3z"/><path fill="url(#Безымянный_градиент_35-192)" d="M1102.86 207.51h3v16.34h-3z"/><g><path class="cls-193" d="M395.23 22.02h3v15.59h-3zM410.16 22.02h3v15.59h-3zM425.79 22.02h3v15.59h-3zM440.71 22.02h3v15.59h-3zM455.82 22.02h3v15.59h-3zM470.75 22.02h3v15.59h-3zM486.38 22.02h3v15.59h-3zM395.23 46.16h3v15.59h-3zM410.16 46.16h3v15.59h-3zM425.79 46.16h3v15.59h-3zM440.71 46.16h3v15.59h-3zM455.82 46.16h3v15.59h-3zM470.75 46.16h3v15.59h-3zM486.38 46.16h3v15.59h-3zM395.23 70.3h3v15.59h-3zM410.16 70.3h3v15.59h-3zM425.79 70.3h3v15.59h-3zM440.71 70.3h3v15.59h-3zM455.82 70.3h3v15.59h-3zM470.75 70.3h3v15.59h-3zM486.38 70.3h3v15.59h-3zM395.23 94.44h3v15.59h-3zM410.16 94.44h3v15.59h-3zM425.79 94.44h3v15.59h-3zM440.71 94.44h3v15.59h-3zM455.82 94.44h3v15.59h-3zM470.75 94.44h3v15.59h-3zM486.38 94.44h3v15.59h-3zM395.23 118.58h3v15.59h-3zM395.23 142.72h3v15.59h-3zM395.23 166.86h3v15.59h-3zM395.23 190.92h3v15.59h-3zM395.23 217.71h3v15.59h-3z"/></g><g><path class="cls-193" d="M963.62 98.72h3v15.59h-3zM978.54 98.72h3v15.59h-3zM994.17 98.72h3v15.59h-3zM1009.1 98.72h3v15.59h-3zM1024.21 98.72h3v15.59h-3zM1039.13 98.72h3v15.59h-3zM1054.76 98.72h3v15.59h-3z"/></g></g></g></svg>