<svg xmlns="http://www.w3.org/2000/svg" width="18" height="18" viewBox="0 0 18 18">
    <g fill="#000" fill-rule="evenodd">
        <path d="M5.308 8.477a.631.631 0 0 0-.893.892l2.908 2.908a.616.616 0 0 0 .446.185H7.8a.703.703 0 0 0 .462-.231l7.276-8.723a.65.65 0 0 0-.076-.893.65.65 0 0 0-.893.077l-6.846 8.2-2.415-2.415z"/>
        <path d="M13.708 1.43A8.874 8.874 0 0 0 2.677 2.693C-.8 6.17-.8 11.846 2.677 15.323a8.914 8.914 0 0 0 12.615 0 8.877 8.877 0 0 0 1.246-11.061.625.625 0 1 0-1.061.661c1.923 3.046 1.477 6.954-1.077 9.508-2.985 2.984-7.862 2.984-10.846 0-2.985-2.985-2.985-7.862 0-10.846C6.108 1.046 10 .6 13.046 2.492a.625.625 0 1 0 .662-1.061z"/>
    </g>
</svg>
