<?xml version="1.0" encoding="utf-8"?>
<!-- Generator: Adobe Illustrator 24.0.0, SVG Export Plug-In . SVG Version: 6.00 Build 0)  -->
<svg version="1.1" id="Layer_1" xmlns="http://www.w3.org/2000/svg" xmlns:xlink="http://www.w3.org/1999/xlink" x="0px" y="0px"
	 viewBox="0 0 80 80" style="enable-background:new 0 0 80 80;" xml:space="preserve">
<style type="text/css">
	.st0{fill:none;stroke:#000000;stroke-width:1.2;stroke-miterlimit:10;}
	.st1{fill:#231F20;}
	.st2{fill:none;stroke:#000000;stroke-width:0.5;stroke-miterlimit:10;}
	.st3{fill:none;stroke:#000000;stroke-width:2;stroke-miterlimit:10;}
</style>
<g>
	<rect x="25" y="35" class="st3" width="30" height="40"/>
	<g>
		<path class="st1" d="M34.9,45.5c0.2,0.2,0.5,0.4,0.7,0.5c0.2,0.1,0.5,0.2,0.8,0.2c0.3,0,0.6-0.1,0.9-0.3c0.2-0.2,0.3-0.5,0.3-0.8
			c0-0.3-0.1-0.5-0.3-0.7c-0.2-0.2-0.5-0.3-0.8-0.3c-0.1,0-0.3,0-0.4,0c-0.1,0-0.2,0.1-0.3,0.1l-0.4-0.7l1.8-1.9h-2.6v-1.4h4.5v1.2
			L37.6,43c0.6,0.1,1,0.3,1.3,0.7c0.3,0.4,0.4,0.8,0.4,1.4c0,0.4-0.1,0.7-0.2,1c-0.2,0.3-0.4,0.5-0.6,0.7c-0.3,0.2-0.5,0.4-0.9,0.5
			c-0.3,0.1-0.7,0.2-1,0.2c-0.5,0-1-0.1-1.4-0.2c-0.4-0.2-0.8-0.4-1.1-0.6L34.9,45.5z"/>
		<path class="st1" d="M43.1,47.5c-0.5,0-0.9-0.1-1.2-0.3c-0.3-0.2-0.6-0.4-0.9-0.8c-0.2-0.3-0.4-0.7-0.5-1.2
			c-0.1-0.5-0.2-1-0.2-1.5c0-0.5,0.1-1.1,0.2-1.5c0.1-0.5,0.3-0.8,0.5-1.2c0.2-0.3,0.5-0.6,0.9-0.8c0.3-0.2,0.8-0.3,1.2-0.3
			c0.5,0,0.9,0.1,1.2,0.3c0.4,0.2,0.6,0.4,0.9,0.8c0.2,0.3,0.4,0.7,0.5,1.2c0.1,0.5,0.2,1,0.2,1.5c0,0.6-0.1,1.1-0.2,1.5
			c-0.1,0.5-0.3,0.9-0.5,1.2c-0.2,0.3-0.5,0.6-0.9,0.8C44,47.4,43.6,47.5,43.1,47.5z M43.2,46c0.2,0,0.4-0.1,0.5-0.2
			c0.1-0.1,0.3-0.3,0.4-0.5c0.1-0.2,0.2-0.4,0.2-0.7s0.1-0.6,0.1-0.9c0-0.3,0-0.6-0.1-0.9c0-0.3-0.1-0.5-0.2-0.7
			c-0.1-0.2-0.2-0.4-0.4-0.5c-0.1-0.1-0.3-0.2-0.5-0.2c-0.2,0-0.4,0.1-0.5,0.2c-0.1,0.1-0.3,0.3-0.4,0.5c-0.1,0.2-0.2,0.4-0.2,0.7
			c0,0.3-0.1,0.6-0.1,0.9c0,0.3,0,0.6,0.1,0.9c0,0.3,0.1,0.5,0.2,0.7c0.1,0.2,0.2,0.4,0.4,0.5C42.8,45.9,42.9,46,43.2,46z"/>
		<path class="st1" d="M39.1,55.9l-1.9-2.6h1.9l0.9,1.4l1-1.4h1.8L41,55.8l2,2.8h-1.9L40,57l-1.1,1.5h-1.8L39.1,55.9z"/>
		<path class="st1" d="M34.3,67.3l3.1-4.6h1.6v4.5h0.7v1.3h-0.7v1.3h-1.5v-1.3h-3.2V67.3z M37.4,67.3v-2.6l-1.7,2.6H37.4z"/>
		<path class="st1" d="M43.1,70c-0.5,0-0.9-0.1-1.2-0.3c-0.3-0.2-0.6-0.4-0.9-0.8c-0.2-0.3-0.4-0.7-0.5-1.2c-0.1-0.5-0.2-1-0.2-1.5
			c0-0.5,0.1-1.1,0.2-1.5c0.1-0.5,0.3-0.8,0.5-1.2c0.2-0.3,0.5-0.6,0.9-0.8c0.3-0.2,0.8-0.3,1.2-0.3c0.5,0,0.9,0.1,1.2,0.3
			c0.4,0.2,0.6,0.4,0.9,0.8c0.2,0.3,0.4,0.7,0.5,1.2c0.1,0.5,0.2,1,0.2,1.5c0,0.6-0.1,1.1-0.2,1.5c-0.1,0.5-0.3,0.9-0.5,1.2
			c-0.2,0.3-0.5,0.6-0.9,0.8C44,69.9,43.6,70,43.1,70z M43.2,68.5c0.2,0,0.4-0.1,0.5-0.2c0.1-0.1,0.3-0.3,0.4-0.5
			c0.1-0.2,0.2-0.4,0.2-0.7s0.1-0.6,0.1-0.9c0-0.3,0-0.6-0.1-0.9c0-0.3-0.1-0.5-0.2-0.7c-0.1-0.2-0.2-0.4-0.4-0.5
			c-0.1-0.1-0.3-0.2-0.5-0.2c-0.2,0-0.4,0.1-0.5,0.2c-0.1,0.1-0.3,0.3-0.4,0.5c-0.1,0.2-0.2,0.4-0.2,0.7c0,0.3-0.1,0.6-0.1,0.9
			c0,0.3,0,0.6,0.1,0.9c0,0.3,0.1,0.5,0.2,0.7c0.1,0.2,0.2,0.4,0.4,0.5C42.8,68.5,42.9,68.5,43.2,68.5z"/>
	</g>
</g>
</svg>
