<?xml version="1.0" encoding="utf-8"?>
<!-- Generator: Adobe Illustrator 24.0.0, SVG Export Plug-In . SVG Version: 6.00 Build 0)  -->
<svg version="1.1" id="Layer_1" xmlns="http://www.w3.org/2000/svg" xmlns:xlink="http://www.w3.org/1999/xlink" x="0px" y="0px"
	 viewBox="0 0 80 80" style="enable-background:new 0 0 80 80;" xml:space="preserve">
<style type="text/css">
	.st0{fill:none;stroke:#000000;stroke-width:1.2;stroke-miterlimit:10;}
	.st1{fill:#231F20;}
	.st2{fill:none;stroke:#000000;stroke-width:0.5;stroke-miterlimit:10;}
	.st3{fill:none;stroke:#000000;stroke-width:2;stroke-miterlimit:10;}
</style>
<g>
	<rect x="15" y="5" class="st3" width="50" height="70"/>
	<g>
		<path class="st1" d="M31.6,24.1c0.3,0.3,0.7,0.6,1.1,0.7c0.4,0.2,0.8,0.3,1.4,0.3c0.3,0,0.7-0.1,0.9-0.2c0.3-0.1,0.5-0.2,0.6-0.4
			c0.2-0.2,0.3-0.4,0.4-0.6c0.1-0.2,0.1-0.5,0.1-0.7c0-0.2,0-0.4-0.1-0.6c-0.1-0.2-0.2-0.4-0.4-0.6c-0.2-0.2-0.4-0.3-0.6-0.4
			s-0.6-0.2-1-0.2c-0.3,0-0.6,0-0.9,0.1c-0.3,0.1-0.5,0.2-0.8,0.3l-1.2-0.9l1-5.6h6.4v2.4H34l-0.4,1.9c0.1,0,0.2-0.1,0.5-0.1
			c0.2,0,0.5,0,0.7,0c0.6,0,1.1,0.1,1.6,0.3c0.5,0.2,0.9,0.4,1.3,0.8c0.4,0.3,0.6,0.7,0.8,1.2c0.2,0.5,0.3,1,0.3,1.6
			c0,0.6-0.1,1.1-0.3,1.6c-0.2,0.5-0.5,1-0.8,1.4c-0.4,0.4-0.9,0.7-1.4,0.9c-0.6,0.2-1.3,0.3-2.1,0.3c-0.9,0-1.7-0.1-2.3-0.4
			c-0.6-0.3-1.2-0.6-1.7-1.1L31.6,24.1z"/>
		<path class="st1" d="M45.2,27.5c-0.8,0-1.5-0.2-2-0.5c-0.6-0.3-1.1-0.7-1.5-1.3c-0.4-0.6-0.7-1.2-0.9-2c-0.2-0.8-0.3-1.6-0.3-2.6
			c0-0.9,0.1-1.8,0.3-2.5c0.2-0.8,0.5-1.4,0.9-2c0.4-0.5,0.9-1,1.5-1.3c0.6-0.3,1.3-0.5,2-0.5c0.8,0,1.5,0.1,2.1,0.5
			c0.6,0.3,1.1,0.7,1.5,1.3c0.4,0.5,0.7,1.2,0.9,2c0.2,0.8,0.3,1.6,0.3,2.5c0,0.9-0.1,1.8-0.3,2.6c-0.2,0.8-0.5,1.4-0.9,2
			c-0.4,0.5-0.9,1-1.5,1.3C46.7,27.3,46,27.5,45.2,27.5z M45.2,25c0.3,0,0.6-0.1,0.9-0.3c0.2-0.2,0.4-0.5,0.6-0.8
			c0.2-0.3,0.3-0.7,0.3-1.2c0.1-0.5,0.1-1,0.1-1.5c0-0.5,0-1-0.1-1.5c-0.1-0.4-0.2-0.8-0.3-1.2c-0.2-0.3-0.4-0.6-0.6-0.8
			c-0.2-0.2-0.5-0.3-0.9-0.3c-0.3,0-0.6,0.1-0.9,0.3c-0.2,0.2-0.4,0.4-0.6,0.8c-0.2,0.3-0.3,0.7-0.3,1.2c-0.1,0.5-0.1,0.9-0.1,1.5
			c0,0.5,0,1,0.1,1.5c0.1,0.5,0.2,0.9,0.3,1.2c0.2,0.3,0.4,0.6,0.6,0.8C44.6,24.9,44.8,25,45.2,25z"/>
		<path class="st1" d="M38.5,41.5l-3.2-4.4h3.2l1.6,2.3l1.6-2.3h2.9l-3.1,4.2l3.4,4.6h-3.2L40,43.4l-1.8,2.5h-2.9L38.5,41.5z"/>
		<path class="st1" d="M31.9,64.7c0.2-0.8,0.5-1.6,0.9-2.5c0.4-0.9,0.7-1.8,1.1-2.7c0.4-0.9,0.8-1.7,1.1-2.4c0.4-0.7,0.7-1.3,1-1.8
			h-5.2v-2.4h8v2.3c-0.4,0.6-0.8,1.4-1.2,2.2c-0.4,0.8-0.8,1.6-1.1,2.5c-0.4,0.9-0.7,1.7-1,2.6c-0.3,0.9-0.6,1.6-0.8,2.4H31.9z"/>
		<path class="st1" d="M45.2,65c-0.8,0-1.5-0.2-2-0.5c-0.6-0.3-1.1-0.7-1.5-1.3c-0.4-0.6-0.7-1.2-0.9-2c-0.2-0.8-0.3-1.6-0.3-2.6
			c0-0.9,0.1-1.8,0.3-2.5c0.2-0.8,0.5-1.4,0.9-2c0.4-0.5,0.9-1,1.5-1.3c0.6-0.3,1.3-0.5,2-0.5c0.8,0,1.5,0.1,2.1,0.5
			c0.6,0.3,1.1,0.7,1.5,1.3c0.4,0.5,0.7,1.2,0.9,2c0.2,0.8,0.3,1.6,0.3,2.5c0,0.9-0.1,1.8-0.3,2.6s-0.5,1.4-0.9,2
			c-0.4,0.5-0.9,1-1.5,1.3C46.7,64.8,46,65,45.2,65z M45.2,62.5c0.3,0,0.6-0.1,0.9-0.3c0.2-0.2,0.4-0.5,0.6-0.8
			c0.2-0.3,0.3-0.7,0.3-1.2c0.1-0.5,0.1-1,0.1-1.5c0-0.5,0-1-0.1-1.5c-0.1-0.4-0.2-0.8-0.3-1.2c-0.2-0.3-0.4-0.6-0.6-0.8
			c-0.2-0.2-0.5-0.3-0.9-0.3c-0.3,0-0.6,0.1-0.9,0.3c-0.2,0.2-0.4,0.4-0.6,0.8c-0.2,0.3-0.3,0.7-0.3,1.2c-0.1,0.5-0.1,0.9-0.1,1.5
			c0,0.5,0,1,0.1,1.5c0.1,0.5,0.2,0.9,0.3,1.2c0.2,0.3,0.4,0.6,0.6,0.8C44.6,62.4,44.8,62.5,45.2,62.5z"/>
	</g>
</g>
</svg>
