<?xml version="1.0" encoding="utf-8"?>
<!-- Generator: Adobe Illustrator 24.0.0, SVG Export Plug-In . SVG Version: 6.00 Build 0)  -->
<svg version="1.1" id="Capa_1" xmlns="http://www.w3.org/2000/svg" xmlns:xlink="http://www.w3.org/1999/xlink" x="0px" y="0px"
	 viewBox="0 0 512 512" style="enable-background:new 0 0 512 512;" xml:space="preserve">
<style type="text/css">
	.st0{fill:#9014FE;}
</style>
<path class="st0" d="M509.7,89.4c-2-2.6-5.1-4.1-8.4-4.1H96c-5.9,0-10.7,4.8-10.7,10.7c0,0.7,0.1,1.4,0.2,2.1l42.7,213.3
	c1.1,5.5,6.3,9.3,11.9,8.5l320-42.7c4.3-0.6,7.9-3.8,8.9-8l42.7-170.7C512.5,95.5,511.8,92,509.7,89.4z"/>
<g>
	<circle cx="394.7" cy="437.3" r="53.3"/>
	<circle cx="181.3" cy="437.3" r="53.3"/>
	<path d="M191.1,362.7h246.2c5.9,0,10.7-4.8,10.7-10.7s-4.8-10.7-10.7-10.7H191.1c-25.4-0.1-47.3-18-52.3-42.9L85.1,29.9
		c-1-5-5.4-8.5-10.5-8.5h-64C4.8,21.3,0,26.1,0,32s4.8,10.7,10.7,10.7h55.3l52,260C125,337.5,155.6,362.6,191.1,362.7z"/>
</g>
</svg>
