<svg width="54" height="34" viewBox="0 0 54 34" fill="none" xmlns="http://www.w3.org/2000/svg">
<path d="M21.7933 15.2004C21.7933 15.2004 26.9035 14.8233 26.9035 8.86566C26.9035 2.90763 22.7227 0 17.4268 0H0V33.2943H17.4268C17.4268 33.2943 28.0652 33.6284 28.0652 23.4674C28.0652 23.4674 28.529 15.2004 21.7933 15.2004ZM16.1724 5.91769H17.4268C17.4268 5.91769 19.7956 5.91769 19.7956 9.38182C19.7956 12.8455 18.4025 13.3477 16.8223 13.3477H7.67845V5.91769H16.1724ZM16.9343 27.3768H7.67845V18.4793H17.4268C17.4268 18.4793 20.9574 18.4333 20.9574 23.0517C20.9574 26.9461 18.3203 27.3474 16.9343 27.3768ZM42.2533 8.47106C29.3744 8.47106 29.3858 21.2637 29.3858 21.2637C29.3858 21.2637 28.5021 33.9908 42.2533 33.9908C42.2533 33.9908 53.7125 34.6416 53.7125 25.1373H47.8192C47.8192 25.1373 48.0158 28.7165 42.4499 28.7165C42.4499 28.7165 36.5556 29.1092 36.5556 22.924H53.9091C53.9091 22.924 55.8078 8.47106 42.2533 8.47106ZM36.4909 18.4793C36.4909 18.4793 37.2105 13.3476 42.3842 13.3476C47.5569 13.3476 47.4921 18.4793 47.4921 18.4793H36.4909ZM48.865 6.06141H35.0481V1.96146H48.865V6.06141Z" fill="#F2F2F2"/>
</svg>
