<svg width="132" height="32" viewBox="0 0 132 32" fill="none" xmlns="http://www.w3.org/2000/svg">
<path d="M130.606 22.16C130.197 21.8656 129.872 21.824 129.604 22.384C125.006 32.2512 117.261 27.3248 118.037 27.7584C119.758 26.9744 124.272 23.3914 123.595 18.4227C123.186 15.3856 120.562 14.0419 117.769 14.5315C112.903 15.3715 111.126 20.5782 112.028 25.183C112.183 25.9808 112.466 26.6246 112.762 27.2685C107.275 31.7053 105.088 23.3075 104.834 22.2998C104.82 22.2438 109.08 18.7306 110.265 10.3469C111.506 1.57089 108.685 -0.0387125 105.794 0.0172875C100.448 0.115208 99.0086 11.1866 100.941 20.4102C100.786 20.4522 100.024 20.872 98.8112 20.9142C97.9366 18.1846 94.1985 15.7914 93.2252 16.7152C90.7849 19.0246 93.8177 23.5312 95.962 23.8813C94.6781 31.7334 86.6379 29.7878 88.133 19.9485C90.7426 15.1334 92.7457 7.95329 92.379 3.62849C92.2519 2.10241 91.1093 0.0454475 88.528 0.143368C83.5628 0.339208 83.0268 11.4106 83.6051 19.2765C83.577 19.0806 83.2948 20.2282 81.2634 20.8022C80.7839 18.1568 76.4817 15.4835 75.4662 16.7712C73.576 19.1648 76.8626 23.4336 78.4141 23.7274C77.1306 31.5795 69.0903 29.6339 70.5855 19.7946C73.2093 14.9795 75.1982 7.81345 74.8454 3.48865C74.7186 1.96289 73.576 -0.0947125 70.9944 0.00352753C66.0292 0.199368 65.4932 11.2707 66.0718 19.1363C66.0434 18.9405 65.7612 20.1302 63.6453 20.6902C63.575 17.247 59.2586 15.6794 58.2147 16.7712C56.3668 18.7306 58.6378 22.7475 60.7395 23.7274C59.456 31.5795 51.4158 29.6339 52.9109 19.7946C55.5205 14.9795 57.5236 7.79937 57.1569 3.47457C57.044 1.96289 55.9014 -0.0947125 53.3198 0.00352753C48.3546 0.199368 47.9599 11.8304 48.5381 19.6963C46.9017 26.6528 41.4147 35.3306 42.1339 17.9331C42.2045 16.7152 42.2752 16.2531 41.6685 15.7914C41.2032 15.4416 40.1592 15.6093 39.5949 15.6234C38.9038 15.6515 38.7206 16.0573 38.5793 16.6592C38.2268 18.2269 38.1562 19.7523 38.0998 21.8378C38.0717 22.8176 37.9869 23.2656 37.606 24.5952C37.2251 25.9248 35.0812 28.3462 33.8963 27.9405C32.2599 27.3805 32.7959 22.8035 33.1062 19.6544C33.3603 17.1632 32.5421 16.0576 30.4546 15.6512C29.2272 15.3997 28.4796 15.4416 27.2102 15.0355C25.997 14.6579 25.729 12.3904 23.1619 13.1462C21.7513 13.5661 22.654 16.519 22.3153 18.7168C20.6509 29.5078 17.195 29.8016 15.587 24.567C22.8091 6.98753 17.6607 0.0592075 14.656 0.0592075C11.5245 0.0592075 7.94155 2.20097 9.45085 15.9174C8.71748 15.7075 8.49173 15.5955 7.67355 15.5955C3.11728 15.5814 0 19.2486 0 23.7693C0 28.2902 3.11728 31.9574 7.68774 31.9574C10.3819 31.9574 12.2721 30.7395 13.7107 28.864C14.6418 30.1939 15.7844 31.9853 17.872 31.9014C24.0785 31.6634 25.8841 19.0246 26.0957 18.311C26.7587 18.4086 27.3934 18.6048 28 18.7027C29.0159 18.8566 29.1004 19.2627 29.072 20.2704C28.8044 28.864 30.3982 31.8736 34.0234 31.8736C36.0403 31.8736 37.846 29.8998 39.0873 28.5002C40.0183 30.4038 41.485 31.8173 43.4742 31.8733C48.2701 31.9853 50.118 24.3994 49.9487 25.3933C49.8217 26.1766 51.5003 31.8173 56.4516 31.8454C62.5733 31.8733 63.7159 25.1971 63.843 24.0774C63.8571 23.8534 63.871 23.8813 63.843 24.0774V24.1472C65.7896 23.7834 66.7909 22.7616 66.7909 22.7616C66.7909 22.7616 68.3567 31.9574 74.1262 31.8592C80.1211 31.7472 81.2634 25.7152 81.4047 24.5392C81.4189 24.2592 81.4327 24.2874 81.4047 24.5392V24.567C83.718 23.7274 84.3246 22.9018 84.3246 22.9018C84.3246 22.9018 85.5659 31.9155 91.6595 31.9994C97.0904 32.0694 99.1073 26.5408 99.1215 24.2314C100.038 24.2451 101.731 23.6854 101.689 23.6576C101.689 23.6576 103.678 31.5376 109.235 31.9434C111.845 32.1392 113.806 30.4877 114.92 29.7322C117.544 31.8454 126.275 34.5328 131.791 25.2531C132.58 23.9373 130.902 22.3562 130.606 22.16ZM7.46199 28.8918C4.79589 28.8918 3.0889 26.4426 3.0889 23.8112C3.0889 21.1798 4.65496 18.7302 7.32106 18.7302C8.51979 18.7302 9.18285 18.8563 10.1281 19.6678C10.2971 20.3261 10.777 21.8515 11.0166 22.5514C11.3268 23.4752 11.7077 24.273 12.0744 25.1267C11.5245 27.3379 9.77528 28.8918 7.46199 28.8918ZM13.9507 19.7382C13.8378 19.5562 13.8659 19.6678 13.7391 19.5002C13.2596 18.1846 12.3143 15.2451 12.2014 11.9002C12.0747 8.12097 12.7094 3.68417 14.5854 3.68417C15.855 3.68417 17.2092 12.6698 13.9507 19.7382ZM51.4861 15.8051C51.19 13.5658 51.1758 3.55809 53.5881 3.83809C54.9281 4.36993 52.7416 13.8035 51.4861 15.8051ZM69.1607 15.8051C68.8646 13.5658 68.8504 3.55809 71.2627 3.83809C72.6027 4.36993 70.4161 13.8035 69.1607 15.8051ZM86.6943 15.945C86.3979 13.7056 86.3841 3.69825 88.796 3.97793C90.136 4.49601 87.9498 13.9437 86.6943 15.945ZM106.047 3.23617C108.262 3.01217 108.163 12.6 103.734 18.6464C103.156 16.463 102.281 3.99201 106.047 3.23617ZM115.357 23.881C114.652 20.312 116.486 17.9744 118.376 17.7226C119.039 17.6246 119.998 18.0445 120.181 18.8426C120.492 20.3402 120.139 22.5654 115.893 25.3786C115.908 25.3926 115.513 24.665 115.357 23.881ZM40.3286 12.88C41.8379 12.88 43.065 11.6624 43.065 10.1648C43.065 8.66721 41.8379 7.44961 40.3286 7.44961C38.8193 7.44961 37.5918 8.66721 37.5918 10.1648C37.5918 11.6624 38.8193 12.88 40.3286 12.88Z" fill="#F2F2F2"/>
</svg>
